<svg id="icon-linkedin" xmlns="http://www.w3.org/2000/svg" viewBox="0 0 25 25">
    <title>
        Linkedin
    </title>
    <path d="M22.88.39a1.62,1.62,0,0,1,1.21.52,1.62,1.62,0,0,1,.52,1.21V22.88a1.78,1.78,0,0,1-1.73,1.73H2.12a1.62,1.62,0,0,1-1.21-.52,1.62,1.62,0,0,1-.52-1.21V2.12A1.62,1.62,0,0,1,.91.91,1.62,1.62,0,0,1,2.12.39ZM5.91,8a2,2,0,0,0,1.48-.62,2,2,0,0,0,0-2.92,2,2,0,0,0-1.48-.62,1.94,1.94,0,0,0-1.46.62,2.08,2.08,0,0,0,0,2.92A1.91,1.91,0,0,0,5.91,8ZM7.69,21.15h0V9.58H4.12V21.15Zm13.46,0V14.82a7.78,7.78,0,0,0-.76-3.94,3.86,3.86,0,0,0-3.51-1.57,4.15,4.15,0,0,0-2.22.6,3,3,0,0,0-1.19,1.24h-.05V9.58H10V21.15h3.57V15.42a4.37,4.37,0,0,1,.38-2.06,1.9,1.9,0,0,1,1.78-.91,1.54,1.54,0,0,1,1.62,1,5.79,5.79,0,0,1,.27,2.06v5.62Z"/>
</svg>
