<svg xmlns="http://www.w3.org/2000/svg" width="169.09404166667px" height="17px" viewBox="0 0 238.721 24" xml:space="preserve"><g style="fill:#FFF;" >
<path d="M145.815,0.643h8.883c2.059,0,3.899,0.281,5.51,0.84c1.615,0.559,2.973,1.342,4.08,2.352 c1.106,1.012,1.953,2.211,2.536,3.604c0.58,1.394,0.871,2.921,0.871,4.591v0.064c0,1.664-0.3,3.207-0.891,4.62 c-0.591,1.415-1.446,2.636-2.565,3.671c-1.118,1.031-2.496,1.838-4.13,2.418c-1.634,0.579-3.483,0.871-5.541,0.871h-8.752V0.643z M154.803,18.017c1.917,0,3.459-0.507,4.626-1.515c1.167-1.01,1.75-2.443,1.75-4.311v-0.068c0-1.842-0.583-3.27-1.75-4.289 c-1.167-1.023-2.708-1.53-4.626-1.53h-2.609v11.713H154.803z"></path>
<path d="M178.944,0.479h6.152l9.808,23.194h-6.848l-1.673-4.111h-8.885l-1.646,4.111h-6.711L178.944,0.479z M184.537,14.625l-2.569-6.548l-2.597,6.548H184.537z"></path>
<path d="M197.136,0.644h9.871c1.446,0,2.764,0.183,3.947,0.542c1.187,0.365,2.193,0.889,3.028,1.578 c0.831,0.692,1.474,1.543,1.921,2.554c0.452,1.005,0.679,2.148,0.679,3.419v0.068c0,1.357-0.247,2.553-0.743,3.583 c-0.491,1.034-1.178,1.898-2.058,2.601c-0.875,0.703-1.921,1.227-3.139,1.578c-1.219,0.352-2.541,0.527-3.964,0.527h-3.159v6.58 h-6.383V0.644z M206.544,12.093c1.142,0,2.038-0.269,2.685-0.813c0.646-0.538,0.967-1.269,0.967-2.196V9.016 c0-0.99-0.32-1.745-0.967-2.264c-0.647-0.521-1.554-0.78-2.712-0.78h-2.997v6.121H206.544z"></path>
<path d="M219.275,0.644h9.875c1.446,0,2.76,0.183,3.946,0.542c1.182,0.365,2.193,0.889,3.024,1.578 c0.835,0.692,1.474,1.543,1.925,2.554c0.447,1.005,0.675,2.148,0.675,3.419v0.068c0,1.357-0.247,2.553-0.738,3.583 c-0.496,1.034-1.183,1.898-2.058,2.601c-0.878,0.703-1.921,1.227-3.139,1.578c-1.219,0.352-2.542,0.527-3.967,0.527h-3.156v6.58 h-6.388V0.644z M228.687,12.093c1.142,0,2.037-0.269,2.681-0.813c0.646-0.538,0.971-1.269,0.971-2.196V9.016 c0-0.99-0.324-1.745-0.971-2.264c-0.644-0.521-1.55-0.78-2.712-0.78h-2.992v6.121H228.687z"></path>
<polygon points="64.604,0.463 83.064,0.463 83.064,6.068 71,6.068 71,9.955 81.909,9.955 81.909,15.295 71,15.295 71,23.537 64.604,23.537 	"></polygon>
<path d="M97.732,24c-1.801,0-3.467-0.291-4.994-0.874c-1.53-0.583-2.851-1.402-3.971-2.457 c-1.122-1.054-2.002-2.313-2.64-3.774c-0.635-1.459-0.955-3.068-0.955-4.826V12c0-1.67,0.315-3.234,0.936-4.697 c0.622-1.462,1.481-2.737,2.576-3.823c1.091-1.087,2.401-1.942,3.928-2.557C94.133,0.311,95.787,0,97.569,0 c2.046,0,3.807,0.295,5.289,0.891c1.486,0.596,2.841,1.418,4.07,2.474l-3.755,4.518c-0.834-0.708-1.69-1.243-2.557-1.618 c-0.867-0.371-1.873-0.559-3.016-0.559c-0.834,0-1.61,0.162-2.324,0.49c-0.711,0.332-1.335,0.783-1.862,1.354 c-0.528,0.572-0.942,1.244-1.255,2.014c-0.307,0.768-0.458,1.591-0.458,2.475V12.1c0,0.924,0.155,1.778,0.463,2.569 c0.308,0.794,0.743,1.47,1.307,2.028c0.563,0.561,1.222,0.999,1.984,1.319c0.76,0.319,1.602,0.479,2.529,0.479 c1.501,0,2.736-0.319,3.704-0.959v-2.801h-4.552v-4.682h10.619v10.387c-1.234,1.012-2.681,1.856-4.354,2.536 C101.732,23.661,99.842,24,97.732,24"></path>
<polygon points="109.469,0.463 116.62,0.463 121.861,15.064 127.105,0.463 134.126,0.463 124.741,23.537 118.81,23.537 	"></polygon>
<polygon points="32.937,7.973 40.882,0.527 58.796,0.527 43.64,14.617 "></polygon>
<polygon points="0,0.527 18.428,0.527 38.482,23.565 20.054,23.565 "></polygon>
</g></svg>
