<svg id="Layer_1" data-name="Layer 1" xmlns="http://www.w3.org/2000/svg" viewBox="0 0 134 18"><defs><style>.cls-1{fill:#80a685;opacity:0.75;}</style></defs><title>Artboard 5</title><path class="cls-1" d="M126.7,4.44c3.15.31,5,.78,5.51,1.4s.34,1.31-.53,2.05a16.38,16.38,0,0,1-4.06,2.28q-2.76,1.17-5.11,2.1a15.09,15.09,0,0,0-5,.41c-1.75.43-3.33.88-4.72,1.35-4.9-.24-9.92-.25-15.08-.06l-14.28.52c-.88,0-1.36.16-1.44.47s-.4.51-.92.59a97.8,97.8,0,0,0-16.26-.82q-8.64.24-18.08.93L27.61,17.12q-9.7.76-19.4.88a11.43,11.43,0,0,1-4.32-2.28,7,7,0,0,1-2-2.92,8,8,0,0,1-.39-3.22c.08-1.09.13-2.17.13-3.27a5.12,5.12,0,0,1,2.88-2c1.4-.46,2.8-.89,4.2-1.28C13.1,3,17,2.85,20.53,2.69l10.09-.47,9.7-.47q4.84-.22,10.62-.35,3.41-.34,11.8-.7Q69.82.48,82.79.23t35-.23c-.18.7.3,1.21,1.44,1.52a31.61,31.61,0,0,0,3.54.76,31,31,0,0,1,3.28.7C127,3.26,127.23,3.74,126.7,4.44Z"/></svg>