<svg id="icon" xmlns="http://www.w3.org/2000/svg" viewBox="0 0 44 44"><g id="XMLID_4_"><path d="M36.1 19.3c.4-.4.4-1 0-1.3l-1.4-1.4c-.3-.3-.8-.4-1.2-.1l-3 2 2-3c.2-.4.2-.9-.1-1.2l-3.1-3.1c-.3-.3-.7-.4-1.1-.2l-.5.3.3-.6c.2-.4.1-.8-.2-1l-1-1c-.4-.4-1-.4-1.3 0L19 15.4l10.5 10.5 6.6-6.6z"/><path id="XMLID_5_" d="M18 16.4L16.3 18c-.2.2-.3.4-.3.7 0 .2.1.5.3.7l2 2c.4.4.6.9.5 1.5-.1.6-.4 1-.8 1.3-6 3.8-6.6 4.4-6.7 4.6-1.3 1.3-1.3 3.5 0 4.8 1.3 1.3 3.5 1.3 4.8 0 .2-.2.7-.7 4.6-6.7.3-.5.8-.8 1.3-.8.6-.1 1.1.1 1.5.5l2 2c.4.4 1 .4 1.3 0l1.7-1.7L18 16.4zm-3.3 15.7c-.5.5-1.4.5-1.9 0s-.5-1.4 0-1.9 1.4-.5 1.9 0 .5 1.4 0 1.9z"/></g><path d="M22 43C10.4 43 1 33.6 1 22S10.4 1 22 1s21 9.4 21 21-9.4 21-21 21zm0-39.3C11.9 3.7 3.7 11.9 3.7 22c0 10.1 8.2 18.3 18.3 18.3 10.1 0 18.3-8.2 18.3-18.3 0-10.1-8.2-18.3-18.3-18.3z"/></svg>
