<svg id="icon" xmlns="http://www.w3.org/2000/svg" viewBox="0 0 29 29"><title>Pagamentos da dívida</title><path d="M14.5,28.5a14,14,0,1,1,14-14A14,14,0,0,1,14.5,28.5Zm0-26.2A12.2,12.2,0,1,0,26.7,14.5,12.21,12.21,0,0,0,14.5,2.3Z"/><path d="M22.83,9.24a.91.91,0,0,1,.4.35,1,1,0,0,1,.14.51v9.06a.9.9,0,0,1-.27.66.91.91,0,0,1-.64.25,1,1,0,0,1-.32-.06,9.29,9.29,0,0,0-2.63-.37,15.86,15.86,0,0,0-2.65.26c-.58.11-1.45.32-2.63.62s-2.06.5-2.63.61a14.34,14.34,0,0,1-2.66.29,8.49,8.49,0,0,1-3.31-.63.81.81,0,0,1-.4-.35.9.9,0,0,1-.15-.51V10.87a.88.88,0,0,1,.27-.66A.91.91,0,0,1,6,10a1.24,1.24,0,0,1,.31,0,9,9,0,0,0,2.63.38,16,16,0,0,0,2.66-.26c.57-.12,1.45-.32,2.63-.62s2.05-.5,2.63-.61a14.24,14.24,0,0,1,2.65-.29A8.57,8.57,0,0,1,22.83,9.24ZM6.45,11.47v1.74a1.74,1.74,0,0,0,1.16-.42,1.93,1.93,0,0,0,.64-1.06A9.83,9.83,0,0,1,6.45,11.47Zm0,8.15A7.26,7.26,0,0,0,8.28,20a1.83,1.83,0,0,0-1.83-1.77Zm7.78-1.86a2.06,2.06,0,0,0,1.61-.8,2.92,2.92,0,0,0,.67-2,2.92,2.92,0,0,0-.67-1.94,2,2,0,0,0-3.23,0A2.92,2.92,0,0,0,11.94,15a2.92,2.92,0,0,0,.67,2A2.06,2.06,0,0,0,14.23,17.76Zm7.77-6v-1.4A6.34,6.34,0,0,0,20.4,10a1.86,1.86,0,0,0,.48,1.19A1.78,1.78,0,0,0,22,11.81Zm0,6.75V16.9a1.86,1.86,0,0,0-1,.47,1.65,1.65,0,0,0-.54.93A9.64,9.64,0,0,1,22,18.56Z"/><path d="M14.86,15.64a.17.17,0,0,1,.15.16v.32a.14.14,0,0,1,0,.11.13.13,0,0,1-.1,0H13.6a.15.15,0,0,1-.11,0,.18.18,0,0,1-.05-.11V15.8a.18.18,0,0,1,.05-.11.16.16,0,0,1,.11,0h.31V14.56a.15.15,0,0,1-.13,0,.17.17,0,0,1-.1-.06l-.16-.27a.11.11,0,0,1,0-.11.14.14,0,0,1,.07-.11l.29-.2a.48.48,0,0,1,.26-.07h.27a.15.15,0,0,1,.11,0,.18.18,0,0,1,0,.11v1.73Z"/></svg>
