<svg id="icon" xmlns="http://www.w3.org/2000/svg" viewBox="0 0 29 29"><title>Investimentos</title><path d="M14.5,28.5a14,14,0,1,1,14-14A14,14,0,0,1,14.5,28.5Zm0-26.2A12.2,12.2,0,1,0,26.7,14.5,12.21,12.21,0,0,0,14.5,2.3Z"/><path d="M22.42,13a.5.5,0,0,1,.37.15.51.51,0,0,1,.14.37v4.1a.48.48,0,0,1-.51.51H20.85a4.27,4.27,0,0,1-1,1v2.6a.49.49,0,0,1-.14.37.53.53,0,0,1-.37.14H17.29a.48.48,0,0,1-.51-.51V20.22h-4.1v1.54a.5.5,0,0,1-.15.37.51.51,0,0,1-.37.14H10.11a.48.48,0,0,1-.51-.51v-2.6a5,5,0,0,1-2-4.07H6.27a1.72,1.72,0,0,1-1.35-.61,1.6,1.6,0,0,1-.41-1.4A1.64,1.64,0,0,1,5.1,12a1.82,1.82,0,0,1,1.23-.44.19.19,0,0,1,.13.06.18.18,0,0,1,.06.13v.64a.22.22,0,0,1-.06.13.19.19,0,0,1-.13.06h0a.79.79,0,0,0-.51.18.62.62,0,0,0-.26.43.7.7,0,0,0,.14.66.77.77,0,0,0,.6.27H7.65a5.12,5.12,0,0,1,5-4.1h4.1a5.54,5.54,0,0,1,.67.06h.06a3.26,3.26,0,0,1,1-.8,2.91,2.91,0,0,1,1.29-.29h1l-.61,2.44A5.29,5.29,0,0,1,21.49,13Zm-9.74-4.1a6.57,6.57,0,0,0-1.51.19l0-.19A3,3,0,0,1,12,6.76a3.1,3.1,0,0,1,4.35,0,3,3,0,0,1,.9,2.18V9l-.51,0Zm5.64,6.15a.47.47,0,0,0,.36-.14.53.53,0,0,0,0-.74.51.51,0,0,0-.36-.14.51.51,0,0,0-.37.14A.53.53,0,0,0,18,15,.48.48,0,0,0,18.32,15.09Z"/></svg>
