<svg id="icon" xmlns="http://www.w3.org/2000/svg" viewBox="0 0 44 44"><path d="M22 43C10.4 43 1 33.6 1 22S10.4 1 22 1s21 9.4 21 21-9.4 21-21 21zm0-39.3C11.9 3.7 3.7 11.9 3.7 22S11.9 40.3 22 40.3c10.1 0 18.3-8.2 18.3-18.3 0-10.1-8.2-18.3-18.3-18.3z"/><path d="M28.8 25.2c0 1.3-.5 2.5-1.5 3.4-1.2.9-2.7 1.5-4.2 1.5v2.7h-1.8v-2.6c-1.9 0-3.9-.4-5.6-1.1v-3.5c1.8.8 3.7 1.3 5.6 1.5v-4l-.9-.3c-1.4-.5-2.6-1.2-3.7-2.2-.7-.8-1.1-1.9-1.1-3 0-1.2.5-2.4 1.5-3.1 1.2-.9 2.7-1.4 4.2-1.5v-2H23v2c1.9.1 3.7.5 5.5 1.2l-1.2 3.1c-1.3-.6-2.8-.9-4.2-1V20c1.3.4 2.5 1 3.7 1.7.6.4 1.2.9 1.6 1.6.2.6.4 1.3.4 1.9zm-9.2-7.8c0 .4.1.7.4 1 .4.3.8.6 1.3.8v-3.1c-1.2.1-1.7.6-1.7 1.3zm5.2 8c0-.4-.2-.7-.4-.9-.4-.3-.9-.6-1.4-.8V27c1.2-.2 1.8-.7 1.8-1.6z"/></svg>
