<svg id="icon" xmlns="http://www.w3.org/2000/svg" viewBox="0 0 29 29"><title>Custeio e outras despesas</title><path d="M14.5,28.5a14,14,0,1,1,14-14A14,14,0,0,1,14.5,28.5Zm0-26.2A12.2,12.2,0,1,0,26.7,14.5,12.21,12.21,0,0,0,14.5,2.3Z"/><path d="M19,16.66a2.75,2.75,0,0,1-1,2.24,5,5,0,0,1-2.83,1v1.8H14V20a9.87,9.87,0,0,1-3.76-.75V16.88a10,10,0,0,0,1.84.66,9.84,9.84,0,0,0,1.92.35V15.16l-.59-.22A6.63,6.63,0,0,1,11,13.45a2.84,2.84,0,0,1-.73-2,2.59,2.59,0,0,1,1-2.1,5.05,5.05,0,0,1,2.78-1V7h1.2V8.33a10,10,0,0,1,3.64.81l-.83,2a9.54,9.54,0,0,0-2.81-.68V13.1a13.74,13.74,0,0,1,2.44,1.14A3.34,3.34,0,0,1,18.7,15.3,2.62,2.62,0,0,1,19,16.66Zm-6.17-5.2a.81.81,0,0,0,.26.63,3.24,3.24,0,0,0,.87.52V10.54C13.24,10.65,12.87,11,12.87,11.46Zm3.53,5.33a.78.78,0,0,0-.3-.62,3.87,3.87,0,0,0-.9-.53v2.19C16,17.69,16.4,17.35,16.4,16.79Z"/></svg>
