<svg id="icon" xmlns="http://www.w3.org/2000/svg" viewBox="0 0 44 44"><path d="M7.2 36.9C-1 28.7-1 15.4 7.2 7.2s21.4-8.2 29.6 0 8.2 21.5 0 29.7c-8.2 8.1-21.4 8.1-29.6 0zM35 9.1C27.8 1.9 16.2 1.9 9.1 9S1.9 27.8 9 34.9c7.1 7.2 18.7 7.2 25.9 0 7.2-7.1 7.2-18.7.1-25.8zM15.1 36.3l2-2c1.4-1.4 3.3-2.1 5.2-2 2.8 0 5.6-1 7.8-3.1 2.7-2.7 3.7-6.5 2.9-10-.1-.4-.6-.5-.9-.3l-5 5c-.6.6-1.5.6-2.1 0L20.1 19c-.6-.6-.6-1.5 0-2.1l5-5c.3-.3.1-.8-.3-.9-3.4-.8-7.2.2-9.8 2.7-2.2 2.2-3.3 5-3.3 7.9 0 1.9-.7 3.8-2 5.2l-2 2c.8 1.6 1.8 3 3.1 4.3 1.3 1.4 2.7 2.4 4.3 3.2z"/></svg>
