<svg id="icon" xmlns="http://www.w3.org/2000/svg" viewBox="0 0 29 29"><title>Pessoal e benefícios</title><path d="M14.5,28.5a14,14,0,1,1,14-14A14,14,0,0,1,14.5,28.5Zm0-26.2A12.2,12.2,0,1,0,26.7,14.5,12.21,12.21,0,0,0,14.5,2.3Z"/><path class="cls-1" d="M20.5,18.66a6,6,0,0,0-3.28-.93,1.55,1.55,0,0,0-.4.06,7.1,7.1,0,0,1-4.64,0,1.55,1.55,0,0,0-.4-.06,6,6,0,0,0-3.28.93,6.92,6.92,0,0,0-2.32,2.46A10.92,10.92,0,0,0,19.11,24a10.77,10.77,0,0,0,3.71-2.83A6.92,6.92,0,0,0,20.5,18.66Z"/><path d="M14.5,16.56a4.21,4.21,0,0,0,3.1-1.3,4.33,4.33,0,0,0,0-6.21,4.35,4.35,0,0,0-6.2,0,4.33,4.33,0,0,0,0,6.21A4.21,4.21,0,0,0,14.5,16.56Z"/></svg>
