<svg id="icon" xmlns="http://www.w3.org/2000/svg" viewBox="0 0 44 44"><path d="M22 43C10.4 43 1 33.6 1 22S10.4 1 22 1s21 9.4 21 21-9.4 21-21 21zm0-39.3C11.9 3.7 3.7 11.9 3.7 22c0 10.1 8.2 18.3 18.3 18.3 10.1 0 18.3-8.2 18.3-18.3 0-10.1-8.2-18.3-18.3-18.3z"/><path d="M31 28.3c-1.5-.9-3.2-1.4-4.9-1.4-.2 0-.4 0-.6.1-2.3.8-4.7.8-7 0-.2 0-.4-.1-.6-.1-1.7 0-3.5.5-4.9 1.4-1.5.9-2.7 2.2-3.5 3.7 5.8 6.9 16.2 7.7 23 1.9.7-.6 1.3-1.2 1.9-1.9-.8-1.6-2-2.8-3.4-3.7zM22 25.1c3.7 0 6.7-2.9 6.7-6.6 0-3.7-2.9-6.7-6.6-6.7-3.7 0-6.7 2.9-6.7 6.6 0 1.8.7 3.5 2 4.8 1.2 1.2 2.8 1.9 4.6 1.9z"/></svg>
