<svg id="icon" xmlns="http://www.w3.org/2000/svg" viewBox="0 0 44 44"><path class="st0" d="M31.3 12h-3.6v-1.4c0-.6-.5-1-1-1s-1 .5-1 1V12h-8.2v-1.4c0-.6-.5-1-1-1-.6 0-1 .5-1 1V12h-2.7c-.8 0-1.4.6-1.4 1.4V32c0 .8.6 1.4 1.4 1.4h18.5c.8 0 1.4-.6 1.4-1.4V13.4c0-.8-.6-1.4-1.4-1.4zm-5.8 0h2.2v2c0 .6-.5 1.1-1.1 1.1s-1.1-.5-1.1-1.1v-2zm-10.2 0h2.2v2c0 .6-.5 1.1-1.1 1.1-.6 0-1.1-.5-1.1-1.1v-2zm15.4 19.4H13.3v-12h17.4v12z"/><path class="st0" d="M22 43C10.4 43 1 33.6 1 22S10.4 1 22 1s21 9.4 21 21-9.4 21-21 21zm0-39.3C11.9 3.7 3.7 11.9 3.7 22c0 10.1 8.2 18.3 18.3 18.3 10.1 0 18.3-8.2 18.3-18.3 0-10.1-8.2-18.3-18.3-18.3z"/><path class="st0" d="M15.7 20.9h1.6v1.6h-1.6zM19.4 20.9H21v1.6h-1.6zM23.1 20.9h1.6v1.6h-1.6zM26.8 20.9h1.6v1.6h-1.6zM26.8 24.6h1.6v1.6h-1.6zM23.1 24.6h1.6v1.6h-1.6zM19.4 24.6H21v1.6h-1.6zM15.7 24.6h1.6v1.6h-1.6zM15.7 28.3h1.6v1.6h-1.6zM19.4 28.3H21v1.6h-1.6zM23.1 28.3h1.6v1.6h-1.6zM26.8 28.3h1.6v1.6h-1.6z"/></svg>
