<svg id="icon" xmlns="http://www.w3.org/2000/svg" viewBox="0 0 44 44"><path d="M22 43C10.4 43 1 33.6 1 22S10.4 1 22 1s21 9.4 21 21-9.4 21-21 21zm0-39.3C11.9 3.7 3.7 11.9 3.7 22c0 10.1 8.2 18.3 18.3 18.3 10.1 0 18.3-8.2 18.3-18.3 0-10.1-8.2-18.3-18.3-18.3z"/><path d="M19.1 35.1H25v3.2c2.8-.5 5.5-1.7 7.6-3.5V12.2h-3V9.4H14.5v2.9h-3v22.4c2.1 1.8 4.7 3 7.6 3.5v-3.1zm4.5-19.4h3.5v3.5h-3.5v-3.5zm0 6.3h3.5v3.5h-3.5V22zm0 6.3h3.5v3.5h-3.5v-3.5zm-6.7-12.6h3.5v3.5h-3.5v-3.5zm0 6.3h3.5v3.5h-3.5V22zm0 6.3h3.5v3.5h-3.5v-3.5z"/></svg>
