<svg id="icon-instagram" xmlns="http://www.w3.org/2000/svg" viewBox="0 0 29 29"><title>Instagram</title><path class="cls-1" d="M14.5,4.41c3.29,0,3.68,0,5,.07a6.69,6.69,0,0,1,2.29.42A4,4,0,0,1,24.1,7.24a6.69,6.69,0,0,1,.42,2.29c.06,1.29.07,1.68.07,5s0,3.68-.07,5a6.69,6.69,0,0,1-.42,2.29,4,4,0,0,1-2.34,2.34,6.69,6.69,0,0,1-2.29.42c-1.29.06-1.68.07-5,.07s-3.68,0-5-.07a6.69,6.69,0,0,1-2.29-.42A4,4,0,0,1,4.9,21.76a6.69,6.69,0,0,1-.42-2.29c-.06-1.29-.07-1.68-.07-5s0-3.68.07-5A6.69,6.69,0,0,1,4.9,7.24,4,4,0,0,1,7.24,4.9a6.69,6.69,0,0,1,2.29-.42c1.29-.06,1.68-.07,5-.07m0-2.22c-3.34,0-3.76,0-5.08.07a8.81,8.81,0,0,0-3,.58A5.86,5.86,0,0,0,4.26,4.26,5.86,5.86,0,0,0,2.84,6.44a8.81,8.81,0,0,0-.58,3c-.06,1.32-.07,1.74-.07,5.08s0,3.76.07,5.08a8.81,8.81,0,0,0,.58,3,5.86,5.86,0,0,0,1.42,2.18,5.86,5.86,0,0,0,2.18,1.42,8.81,8.81,0,0,0,3,.58c1.32.06,1.74.07,5.08.07s3.76,0,5.08-.07a8.81,8.81,0,0,0,3-.58,6.3,6.3,0,0,0,3.6-3.6,8.81,8.81,0,0,0,.58-3c.06-1.32.07-1.74.07-5.08s0-3.76-.07-5.08a8.81,8.81,0,0,0-.58-3,5.86,5.86,0,0,0-1.42-2.18,5.86,5.86,0,0,0-2.18-1.42,8.81,8.81,0,0,0-3-.58C18.26,2.2,17.84,2.19,14.5,2.19Zm0,6a6.32,6.32,0,1,0,6.32,6.32A6.32,6.32,0,0,0,14.5,8.18Zm0,10.42a4.1,4.1,0,1,1,4.1-4.1A4.09,4.09,0,0,1,14.5,18.6ZM22.55,7.93a1.48,1.48,0,1,1-1.48-1.48A1.48,1.48,0,0,1,22.55,7.93Z"/></svg>
