<svg id="icon-telegram" xmlns="http://www.w3.org/2000/svg" viewBox="0 0 29 29"><title>Telegram</title><path class="cls-1" d="M19.89,9l-.15,0L7.16,13.82a.4.4,0,0,0,0,.76l2.91,1,1.76,3.52h0a.18.18,0,0,0,.17.11.16.16,0,0,0,.12-.05l1.65-1.39,2.71,2.06A.88.88,0,0,0,17,20a.84.84,0,0,0,.81-.63l2.46-9.85A.41.41,0,0,0,19.89,9ZM12,16.37l.14,1.83-1.32-2.74,7-4.22Z"/><path class="cls-1" d="M14.5,2A12.5,12.5,0,1,0,27,14.5,12.5,12.5,0,0,0,14.5,2Zm0,24.12A11.62,11.62,0,1,1,26.12,14.5,11.63,11.63,0,0,1,14.5,26.12Z"/><path class="cls-1" d="M19.89,9l-.15,0L7.16,13.82a.4.4,0,0,0,0,.76l2.91,1,1.76,3.52h0a.18.18,0,0,0,.17.11.16.16,0,0,0,.12-.05l1.65-1.39,2.71,2.06A.88.88,0,0,0,17,20a.84.84,0,0,0,.81-.63l2.46-9.85A.41.41,0,0,0,19.89,9ZM12,16.37l.14,1.83-1.32-2.74,7-4.22Z"/></svg>
