<?xml version="1.0" encoding="UTF-8" standalone="no"?>
<svg
   xmlns:dc="http://purl.org/dc/elements/1.1/"
   xmlns:cc="http://creativecommons.org/ns#"
   xmlns:rdf="http://www.w3.org/1999/02/22-rdf-syntax-ns#"
   xmlns:svg="http://www.w3.org/2000/svg"
   xmlns="http://www.w3.org/2000/svg"
   viewBox="0 0 371.71119 217.70972"
   height="204.80688"
   version="1.1"
   id="svg246"
   width="371.71118"
   >
  <metadata
     id="metadata250">
    <rdf:RDF>
      <cc:Work
         rdf:about="">
        <dc:format>image/svg+xml</dc:format>
        <dc:type
           rdf:resource="http://purl.org/dc/dcmitype/StillImage" />
        <dc:title>
        Unesco
    </dc:title>
      </cc:Work>
    </rdf:RDF>
  </metadata>
  <defs
     id="defs4">
    <style
       id="style2">
            .cls-1,.cls-2{fill:#fff;}.cls-1{fill-rule:evenodd;}
        </style>
  </defs>
  <title
     id="title6">
        Unesco
    </title>
  <path
     class="cls-1"
     d="m 172.19051,0.01644588 a 8.48,8.48 0 0 1 0.84,1.32999992 2,2 0 0 1 -0.61,2.4000001 1.58,1.58 0 0 1 -2.25,0 2,2 0 0 1 -0.65,-2.3700001 9.19,9.19 0 0 1 0.78,-1.35999992 z"
     id="path8"
     style="fill:#ffffff;fill-rule:evenodd" />
  <path
     class="cls-1"
     d="m 173.20051,9.5864459 a 1.88,1.88 0 0 1 -1.86,1.9000001 1.86,1.86 0 0 1 -1.94,-2.0500001 1.89,1.89 0 0 1 1.84,-2.17 c 1.11,-0.03 1.85,0.75 1.96,2.32 z"
     id="path10"
     style="fill:#ffffff;fill-rule:evenodd" />
  <path
     class="cls-1"
     d="m 171.31051,91.086449 a 1.93,1.93 0 0 1 -1.91,-2.16 1.82,1.82 0 0 1 2,-2 1.85,1.85 0 0 1 1.78,2.09 1.87,1.87 0 0 1 -1.87,2.07 z"
     id="path12"
     style="fill:#ffffff;fill-rule:evenodd" />
  <path
     class="cls-1"
     d="m 173.22051,109.93645 c -0.12,1.19 -0.67,2.13 -1.83,2.17 a 2.12,2.12 0 0 1 -0.2,-4.21 c 1.18,-0.06 1.82,0.74 2.03,2.04 z"
     id="path14"
     style="fill:#ffffff;fill-rule:evenodd" />
  <path
     class="cls-1"
     d="m 173.20051,168.52645 c -0.09,1.34 -0.76,2.17 -1.9,2.17 a 2.12,2.12 0 0 1 0,-4.21 c 1.14,-0.01 1.77,0.81 1.9,2.04 z"
     id="path16"
     style="fill:#ffffff;fill-rule:evenodd" />
  <path
     class="cls-1"
     d="m 171.27051,31.746446 a 1.85,1.85 0 0 1 1.9,2.16 1.9,1.9 0 1 1 -3.77,-0.19 c 0.05,-1.28 0.76,-1.99 1.87,-1.97 z"
     id="path18"
     style="fill:#ffffff;fill-rule:evenodd" />
  <path
     class="cls-1"
     d="m 171.38051,97.136449 a 1.9,1.9 0 0 1 1.78,2.16 c 0,1.260001 -0.71,2.080001 -1.93,2.000001 a 1.85,1.85 0 0 1 -1.83,-2.140001 1.89,1.89 0 0 1 1.98,-2.02 z"
     id="path20"
     style="fill:#ffffff;fill-rule:evenodd" />
  <path
     class="cls-1"
     d="m 171.20051,19.366446 a 1.81,1.81 0 0 1 -1.78,-2.14 c 0,-1.3 0.8,-2.06 1.94,-2 a 1.89,1.89 0 0 1 1.81,2.18 c -0.06,1.23 -0.72,2.02 -1.97,1.96 z"
     id="path22"
     style="fill:#ffffff;fill-rule:evenodd" />
  <path
     class="cls-1"
     d="m 171.12051,27.316446 c -1.08,0 -1.73,-0.82 -1.72,-2.09 0.01,-1.27 0.71,-2.11 1.89,-2.08 a 1.9,1.9 0 0 1 1.88,2.13 1.85,1.85 0 0 1 -2.05,2.04 z"
     id="path24"
     style="fill:#ffffff;fill-rule:evenodd" />
  <path
     class="cls-1"
     d="m 171.05051,81.016449 c -1,-0.08 -1.68,-0.85 -1.65,-2.13 a 1.9,1.9 0 1 1 3.77,0.14 1.87,1.87 0 0 1 -2.12,1.99 z"
     id="path26"
     style="fill:#ffffff;fill-rule:evenodd" />
  <path
     class="cls-1"
     d="m 173.21051,121.94645 c -0.12,1.42 -0.63,2.31 -1.85,2.34 a 1.82,1.82 0 0 1 -2,-2 c 0,-1.26 0.56,-2.09 1.79,-2.15 1.23,-0.06 1.81,0.79 2.06,1.81 z"
     id="path28"
     style="fill:#ffffff;fill-rule:evenodd" />
  <path
     class="cls-1"
     d="m 173.18051,42.376449 c -0.14,1.3 -0.76,2.09 -1.95,2.06 -1.19,-0.03 -1.84,-0.87 -1.81,-2.15 a 1.84,1.84 0 0 1 1.92,-2 c 1.18,-0.02 1.73,0.86 1.84,2.09 z"
     id="path30"
     style="fill:#ffffff;fill-rule:evenodd" />
  <path
     class="cls-1"
     d="m 171.30051,53.246449 a 2.12,2.12 0 0 1 -0.08,-4.23 c 1.17,-0.05 1.9,0.73 1.93,2 a 1.92,1.92 0 0 1 -1.85,2.23 z"
     id="path32"
     style="fill:#ffffff;fill-rule:evenodd" />
  <path
     class="cls-1"
     d="m 171.31051,62.016449 a 2.11,2.11 0 0 1 -0.06,-4.2 c 1.19,0 1.88,0.8 1.9,2.07 a 1.88,1.88 0 0 1 -1.84,2.13 z"
     id="path34"
     style="fill:#ffffff;fill-rule:evenodd" />
  <path
     class="cls-1"
     d="m 171.14051,190.17645 a 1.85,1.85 0 0 1 -1.73,-2.2 1.8,1.8 0 0 1 2,-2 2.09,2.09 0 0 1 -0.25,4.16 z"
     id="path36"
     style="fill:#ffffff;fill-rule:evenodd" />
  <path
     class="cls-1"
     d="m 173.21051,135.59645 c -0.18,1.39 -0.85,2.19 -2,2.14 a 1.88,1.88 0 0 1 -1.8,-2.19 c 0.07,-1.26 0.75,-2 2,-2 1.25,0 1.64,0.96 1.8,2.05 z"
     id="path38"
     style="fill:#ffffff;fill-rule:evenodd" />
  <path
     class="cls-1"
     d="m 171.16051,208.01645 a 2.1,2.1 0 0 1 0.14,4.19 1.82,1.82 0 0 1 -1.89,-2.07 1.87,1.87 0 0 1 1.75,-2.12 z"
     id="path40"
     style="fill:#ffffff;fill-rule:evenodd" />
  <path
     class="cls-1"
     d="m 170.97051,149.43645 a 2.09,2.09 0 0 1 0.39,4.16 1.82,1.82 0 0 1 -2,-2 c 0.01,-1.28 0.63,-2.07 1.61,-2.16 z"
     id="path42"
     style="fill:#ffffff;fill-rule:evenodd" />
  <path
     class="cls-1"
     d="m 173.19051,69.346449 c -0.09,1.3 -0.64,2.15 -1.84,2.19 a 1.8,1.8 0 0 1 -1.93,-2 1.85,1.85 0 0 1 1.8,-2.16 c 1.21,-0.05 1.79,0.77 1.97,1.97 z"
     id="path44"
     style="fill:#ffffff;fill-rule:evenodd" />
  <path
     class="cls-1"
     d="m 84.880505,122.12645 q -32,0 -63.930001,0 c -0.74,0 -1.91,0.49 -2.15,-0.47 a 13.7,13.7 0 0 1 0,-3.73 c 0,-0.11 0.4,-0.26 0.62,-0.29 0.43,0 0.88,0 1.31,0 q 64.120001,0 128.240006,0 c 0.69,0 1.84,-0.42 2,0.36 a 11.42,11.42 0 0 1 0,3.91 c -0.07,0.44 -0.9,0.23 -1.38,0.23 H 84.880505 Z"
     id="path46"
     style="fill:#ffffff;fill-rule:evenodd" />
  <path
     class="cls-1"
     d="m 139.23051,41.866449 -20.82,-6.280003 q -16.32,-4.93 -32.640005,-9.88 a 4.47,4.47 0 0 0 -2.73,0.12 q -25.8,7.92 -51.61,15.770003 c -0.17,0.06 -0.35,0.09 -0.82,0.2 0,-1.48 0,-2.87 0,-4.270003 0,-1.11 1,-1 1.64,-1.18 q 21,-6.51 42.1,-13 c 3,-0.93 6.09,-1.81 9.12,-2.8 a 4.53,4.53 0 0 1 2.91,0 c 16.780005,5.22 33.550005,10.47 50.360005,15.47 2,0.6 2.82,1.41 2.5,3.440003 a 17,17 0 0 0 -0.01,2.41 z"
     id="path48"
     style="fill:#ffffff;fill-rule:evenodd" />
  <path
     class="cls-1"
     d="m 84.670505,114.40645 c -19.5,0 -39,0 -58.48,0.06 -2.2,0 -1.85,-1.1 -1.86,-2.39 -0.01,-1.29 -0.21,-2.25 1.82,-2.24 q 58.58,0.12 117.150005,0 c 1.68,0 1.92,0.54 1.86,2 -0.12,2.56 0,2.56 -2.58,2.56 z"
     id="path50"
     style="fill:#ffffff;fill-rule:evenodd" />
  <path
     class="cls-1"
     d="m 84.860505,106.56645 c -17.49,0 -35,0 -52.47,0 -1.5,0 -1.88,-0.41 -1.81,-1.86 0.11,-2.69 0,-2.69 2.66,-2.69 q 52,0 104.000005,0 c 0.65,0 1.73,-0.51 1.91,0.51 a 10.06,10.06 0 0 1 -0.1,3.71 c -0.13,0.58 -1.13,0.26 -1.72,0.26 z"
     id="path52"
     style="fill:#ffffff;fill-rule:evenodd" />
  <path
     class="cls-1"
     d="m 84.850505,44.796449 c 17.500005,0 35.000005,0 52.490005,0 1.58,0 2.1,0.4 1.91,2 -0.15,1.27 0.47,2.6 -1.91,2.59 q -52.380005,-0.13 -104.770005,0 c -1.5,0 -2.09,-0.26 -2,-1.9 0.14,-2.58 0,-2.58 2.56,-2.58 z"
     id="path54"
     style="fill:#ffffff;fill-rule:evenodd" />
  <path
     class="cls-1"
     d="m 129.00051,41.606449 c -8,1 -15.66,-0.3 -23.2,-3.000003 -6.420004,-2.26 -13.000005,-4 -19.510005,-6 a 4.67,4.67 0 0 0 -2.91,0 c -9.51,2.87 -19,5.68 -28.54,8.560003 a 14.14,14.14 0 0 1 -4.42,0.66 c -3.44,-0.05 -6.88,0 -10.38,-0.3 4.49,-1.38 9,-2.780003 13.48,-4.150003 q 15,-4.59 30.11,-9.18 a 3.77,3.77 0 0 1 2.35,-0.05 q 20.940005,6.52 41.890005,13.000003 a 11.14,11.14 0 0 1 1.13,0.46 z"
     id="path56"
     style="fill:#ffffff;fill-rule:evenodd" />
  <path
     class="cls-1"
     d="m 44.520505,74.806449 v 20.68 c 0,2.86 -1.1,4.14 -3.6,4.18 -2.5,0.04 -3.92,-1.28 -3.92,-4.09 0,-14 0,-27.95 0,-41.92 0,-1.29 0.28,-1.78 1.64,-1.69 1,0.06 1.31,0.32 1.28,1.3 0,2.32 0,4.64 0,7 q 0,17.29 0,34.59 c 0,0.25 0,0.5 0,0.75 0,0.6 -0.19,1.42 0.72,1.46 0.91,0.04 1,-0.73 1,-1.46 q 0,-7 0,-14.1 v -27.67 c 0,-1 -0.26,-1.9 1.41,-1.9 1.67,0 1.55,0.9 1.55,2 -0.08,6.95 -0.08,13.91 -0.08,20.87 z"
     id="path58"
     style="fill:#ffffff;fill-rule:evenodd" />
  <path
     class="cls-1"
     d="m 59.960505,74.696449 c 0,-7 0,-14 0,-21.06 0,-1.07 0,-1.83 1.46,-1.66 0.75,0.09 1,0.35 0.94,1 0,0.32 0,0.63 0,0.94 q 0,21.92 0,43.83 c 0,0.69 0.64,1.79 -1,1.93 -1.64,0.14 -1.55,-0.83 -1.65,-1.83 -0.69,-7.09 -1.38,-14.19 -2.1,-21.56 a 4.27,4.27 0 0 0 -0.41,2.55 q 0,9.6 0,19.19 c 0,0.94 0.06,1.67 -1.31,1.66 -1.37,-0.01 -1.14,-0.8 -1.14,-1.59 v -44.55 c 0,-0.78 -0.23,-1.59 1.13,-1.59 1.36,0 1.39,0.63 1.5,1.6 0.76,7 1.55,14.05 2.33,21.08 z"
     id="path60"
     style="fill:#ffffff;fill-rule:evenodd" />
  <path
     class="cls-1"
     d="m 93.940505,89.106449 c 0.76,-5.07 -1.2,-10.55 -2.93,-16 -1.85,-5.88 -1.44,-11.88 -1.4,-17.87 0,-2.08 1.75,-3.29 4.07,-3.2 a 3.09,3.09 0 0 1 3.260001,3.33 c 0.05,3.26 0,6.52 0.05,9.77 0,1.36 -0.760001,1.12 -1.560001,1.14 -0.8,0.02 -1.55,0.09 -1.51,-1.2 0.09,-2.88 0,-5.76 0,-8.65 0,-0.66 0.34,-1.78 -0.75,-1.75 -1.09,0.03 -0.55,1.07 -0.61,1.69 -0.71,8 0.95,15.64 3.36,23.21 1.800001,5.61 0.920001,11.43 1.000001,17.17 0,1.92 -1.700001,3 -3.860001,3 -2.16,0 -3.41,-1.17 -3.46,-3.19 -0.08,-3.76 0,-7.52 0,-11.28 0,-1.3 0.89,-0.91 1.55,-1 0.66,-0.09 1.51,-0.19 1.48,1 -0.05,3.07 0,6.14 0,9.22 0,0.5 0,1 0,1.5 0,0.5 0.15,1 0.69,1 0.54,0 0.65,-0.51 0.65,-1 z"
     id="path62"
     style="fill:#ffffff;fill-rule:evenodd" />
  <path
     class="cls-1"
     d="m 107.37051,75.726449 c 0,-6.58 0,-13.17 0,-19.75 0,-2.56 1.25,-3.89 3.52,-4 a 3.53,3.53 0 0 1 4,3.56 c 0.09,3.2 0,6.4 0.05,9.6 0,1.42 -0.89,1 -1.63,1.07 -0.74,0.07 -1.41,0.1 -1.37,-1.11 0.1,-3 0,-6 0,-9 0,-0.71 0,-1.53 -0.93,-1.54 -0.93,-0.01 -0.95,0.82 -0.95,1.52 q 0,19.67 0,39.31 c 0,0.81 0.11,1.67 1.09,1.61 0.98,-0.06 0.8,-0.95 0.8,-1.64 0,-3.19 0,-6.39 0,-9.59 0,-1.19 0.26,-1.57 1.52,-1.59 1.26,-0.02 1.49,0.58 1.47,1.68 0,3.26 0,6.52 0,9.78 0,2.66 -1.39,4.05 -3.87,4 -2.48,-0.05 -3.63,-1.31 -3.64,-4 -0.07,-6.62 -0.06,-13.26 -0.06,-19.91 z"
     id="path64"
     style="fill:#ffffff;fill-rule:evenodd" />
  <path
     class="cls-1"
     d="m 72.880505,75.706449 c 0,-7.21 0.07,-14.42 -0.05,-21.63 0,-1.81 0.55,-2.29 2.2,-2.09 a 15.39,15.39 0 0 0 2.63,0 c 1,0 1.63,0 1.6,1.32 -0.03,1.32 -0.65,1.31 -1.52,1.19 -1.2,-0.17 -1.59,0.24 -1.57,1.5 0.08,5.14 0.07,10.28 0,15.42 0,1.24 0.34,1.73 1.57,1.53 1.05,-0.17 1.52,0.1 1.53,1.36 0.01,1.26 -0.54,1.49 -1.55,1.33 -1.23,-0.2 -1.56,0.28 -1.55,1.51 0.07,6.08 0.08,12.17 0,18.24 0,1.42 0.34,1.92 1.75,1.72 a 4,4 0 0 1 2,0.08 c 0.69,0.29 0.25,1.12 0.31,1.71 0.06,0.59 -0.44,0.77 -1,0.76 -1.63,0 -3.27,-0.08 -4.89,0 -1.3,0.09 -1.54,-0.43 -1.54,-1.61 0.1,-7.42 0.08,-14.88 0.08,-22.34 z"
     id="path66"
     style="fill:#ffffff;fill-rule:evenodd" />
  <path
     class="cls-2"
     d="m 132.95051,55.756449 c 0,-2.47 -1.24,-3.7 -3.67,-3.75 -2.77,-0.06 -4.16,1.36 -4.16,4.33 q 0,19.54 0,39.08 c 0,2.82 1.3,4.24 3.83,4.25 2.53,0.01 4,-1.42 4,-4.27 v -19.54 c 0.01,-6.7 0.02,-13.4 0,-20.1 z m -3.85,41.26 c -1.17,0 -1,-1 -1,-1.83 v -38.88 c 0,-0.66 -0.18,-1.54 0.74,-1.71 1.39,-0.24 1.26,0.84 1.26,1.72 v 19.54 c 0,6.45 0,12.9 0,19.36 -0.04,0.8 0.28,1.8 -1,1.8 z"
     id="path68"
     style="fill:#ffffff" />
  <path
     class="cls-2"
     d="m 54.390505,150.75645 a 7,7 0 0 1 1.72,-5 5.88,5.88 0 0 1 4.41,-1.84 6.18,6.18 0 0 1 3.22,0.86 5.56,5.56 0 0 1 2.18,2.37 7.75,7.75 0 0 1 0.75,3.46 7.56,7.56 0 0 1 -0.79,3.51 5.34,5.34 0 0 1 -2.24,2.34 6.42,6.42 0 0 1 -3.13,0.8 6.16,6.16 0 0 1 -3.25,-0.88 5.72,5.72 0 0 1 -2.17,-2.4 7.34,7.34 0 0 1 -0.7,-3.22 z m 1.76,0 a 5.2,5.2 0 0 0 1.25,3.67 4.13,4.13 0 0 0 3.14,1.34 4.09,4.09 0 0 0 3.17,-1.36 5.46,5.46 0 0 0 1.25,-3.84 6.47,6.47 0 0 0 -0.54,-2.74 4,4 0 0 0 -1.55,-1.82 4.22,4.22 0 0 0 -2.3,-0.65 4.4,4.4 0 0 0 -3.12,1.24 c -0.87,0.86 -1.3,2.25 -1.3,4.19 z"
     id="path70"
     style="fill:#ffffff" />
  <path
     class="cls-2"
     d="m 68.390505,157.01645 v -9.34 h 1.42 v 1.42 a 3.81,3.81 0 0 1 1,-1.31 1.73,1.73 0 0 1 1,-0.32 3.1,3.1 0 0 1 1.63,0.51 l -0.55,1.47 a 2.24,2.24 0 0 0 -1.16,-0.34 1.51,1.51 0 0 0 -0.93,0.31 1.67,1.67 0 0 0 -0.59,0.86 6.41,6.41 0 0 0 -0.26,1.85 v 4.89 z"
     id="path72"
     style="fill:#ffffff" />
  <path
     class="cls-2"
     d="m 73.800505,157.80645 1.54,0.23 a 1.45,1.45 0 0 0 0.54,1 2.62,2.62 0 0 0 1.6,0.43 2.85,2.85 0 0 0 1.7,-0.43 2.19,2.19 0 0 0 0.81,-1.24 10,10 0 0 0 0.11,-2 3.24,3.24 0 0 1 -2.58,1.22 3.54,3.54 0 0 1 -3,-1.39 5.39,5.39 0 0 1 -1,-3.31 6.26,6.26 0 0 1 0.49,-2.47 3.87,3.87 0 0 1 1.4,-1.74 3.78,3.78 0 0 1 2.16,-0.62 3.34,3.34 0 0 1 2.72,1.34 v -1.13 h 1.46 v 8.07 a 7.8,7.8 0 0 1 -0.44,3.09 3.27,3.27 0 0 1 -1.41,1.44 4.89,4.89 0 0 1 -2.37,0.52 4.49,4.49 0 0 1 -2.7,-0.75 2.55,2.55 0 0 1 -1.03,-2.26 z m 1.31,-5.61 a 4,4 0 0 0 0.73,2.68 2.31,2.31 0 0 0 1.83,0.85 2.36,2.36 0 0 0 1.83,-0.84 4,4 0 0 0 0.73,-2.64 3.8,3.8 0 0 0 -0.76,-2.58 2.33,2.33 0 0 0 -1.83,-0.87 2.29,2.29 0 0 0 -1.79,0.86 3.81,3.81 0 0 0 -0.74,2.54 z"
     id="path74"
     style="fill:#ffffff" />
  <path
     class="cls-2"
     d="m 89.890505,155.87645 a 6,6 0 0 1 -1.7,1.06 5,5 0 0 1 -1.74,0.31 3.38,3.38 0 0 1 -2.36,-0.75 2.5,2.5 0 0 1 -0.83,-1.92 2.59,2.59 0 0 1 1.13,-2.17 4,4 0 0 1 1.14,-0.52 10.88,10.88 0 0 1 1.4,-0.23 14.93,14.93 0 0 0 2.82,-0.55 c 0,-0.21 0,-0.35 0,-0.41 a 1.76,1.76 0 0 0 -0.44,-1.36 2.66,2.66 0 0 0 -1.81,-0.54 2.77,2.77 0 0 0 -1.64,0.39 2.35,2.35 0 0 0 -0.79,1.39 l -1.55,-0.21 a 3.73,3.73 0 0 1 0.7,-1.61 3,3 0 0 1 1.39,-0.94 6.25,6.25 0 0 1 2.12,-0.33 5.49,5.49 0 0 1 1.94,0.28 2.59,2.59 0 0 1 1.1,0.71 2.46,2.46 0 0 1 0.5,1.08 9.54,9.54 0 0 1 0.07,1.46 v 2.1 a 21.28,21.28 0 0 0 0.11,2.8 3.35,3.35 0 0 0 0.4,1.12 h -1.66 a 3.35,3.35 0 0 1 -0.3,-1.16 z m -0.14,-3.53 a 11,11 0 0 1 -2.58,0.6 5.62,5.62 0 0 0 -1.38,0.32 1.26,1.26 0 0 0 -0.62,0.51 1.34,1.34 0 0 0 -0.22,0.75 1.37,1.37 0 0 0 0.48,1.06 2.05,2.05 0 0 0 1.4,0.42 3.3,3.3 0 0 0 1.62,-0.4 2.42,2.42 0 0 0 1,-1.1 3.79,3.79 0 0 0 0.25,-1.58 z"
     id="path76"
     style="fill:#ffffff" />
  <path
     class="cls-2"
     d="m 93.520505,157.01645 v -9.34 h 1.42 v 1.34 a 3.36,3.36 0 0 1 3.000001,-1.54 4,4 0 0 1 1.56,0.3 2.54,2.54 0 0 1 1.060004,0.8 3.25,3.25 0 0 1 0.49,1.17 8.79,8.79 0 0 1 0.09,1.54 v 5.73 h -1.620004 v -5.68 a 4.37,4.37 0 0 0 -0.18,-1.45 1.47,1.47 0 0 0 -0.66,-0.76 2.07,2.07 0 0 0 -1.1,-0.29 2.6,2.6 0 0 0 -1.740001,0.64 3.17,3.17 0 0 0 -0.74,2.44 v 5.1 z"
     id="path78"
     style="fill:#ffffff" />
  <path
     class="cls-2"
     d="m 103.21051,146.01645 v -1.82 h 1.59 v 1.82 z m 0,11.07 v -9.34 h 1.59 v 9.27 z"
     id="path80"
     style="fill:#ffffff" />
  <path
     class="cls-2"
     d="m 106.06051,157.01645 v -1.29 l 5.94,-6.82 c -0.67,0 -1.26,0.06 -1.78,0.06 h -3.8 v -1.29 h 7.62 v 1 l -5.05,5.92 -1,1.08 c 0.71,0 1.38,-0.08 2,-0.08 h 4.32 v 1.42 z"
     id="path82"
     style="fill:#ffffff" />
  <path
     class="cls-2"
     d="m 121.68051,155.87645 a 5.92,5.92 0 0 1 -1.69,1.06 5,5 0 0 1 -1.74,0.31 3.4,3.4 0 0 1 -2.37,-0.75 2.49,2.49 0 0 1 -0.82,-1.92 2.59,2.59 0 0 1 1.13,-2.17 3.77,3.77 0 0 1 1.13,-0.52 10.79,10.79 0 0 1 1.41,-0.23 14.93,14.93 0 0 0 2.82,-0.55 c 0,-0.21 0,-0.35 0,-0.41 a 1.72,1.72 0 0 0 -0.45,-1.36 2.62,2.62 0 0 0 -1.8,-0.54 2.83,2.83 0 0 0 -1.65,0.39 2.4,2.4 0 0 0 -0.78,1.39 l -1.55,-0.21 a 3.85,3.85 0 0 1 0.69,-1.61 3.07,3.07 0 0 1 1.4,-0.94 6.25,6.25 0 0 1 2.12,-0.33 5.53,5.53 0 0 1 1.94,0.28 2.59,2.59 0 0 1 1.1,0.71 2.45,2.45 0 0 1 0.49,1.08 9.16,9.16 0 0 1 0.08,1.46 v 2.1 a 22,22 0 0 0 0.1,2.8 3.58,3.58 0 0 0 0.4,1.12 h -1.65 a 3.58,3.58 0 0 1 -0.31,-1.16 z m -0.13,-3.53 a 11,11 0 0 1 -2.58,0.6 5.62,5.62 0 0 0 -1.38,0.32 1.33,1.33 0 0 0 -0.63,0.51 1.43,1.43 0 0 0 -0.22,0.75 1.37,1.37 0 0 0 0.48,1.06 2.07,2.07 0 0 0 1.4,0.42 3.33,3.33 0 0 0 1.63,-0.4 2.48,2.48 0 0 0 1.05,-1.1 3.79,3.79 0 0 0 0.25,-1.58 z"
     id="path84"
     style="fill:#ffffff" />
  <path
     class="cls-2"
     d="m 131.39051,153.61645 1.55,0.2 a 4.05,4.05 0 0 1 -1.3,2.52 3.83,3.83 0 0 1 -2.58,0.91 4,4 0 0 1 -3.08,-1.25 5.1,5.1 0 0 1 -1.17,-3.6 6.54,6.54 0 0 1 0.5,-2.64 3.53,3.53 0 0 1 1.53,-1.7 4.49,4.49 0 0 1 2.23,-0.57 3.87,3.87 0 0 1 2.48,0.77 3.49,3.49 0 0 1 1.24,2.18 l -1.53,0.24 a 2.54,2.54 0 0 0 -0.78,-1.41 2,2 0 0 0 -1.35,-0.48 2.44,2.44 0 0 0 -1.94,0.86 4,4 0 0 0 -0.75,2.71 4.19,4.19 0 0 0 0.72,2.73 2.35,2.35 0 0 0 1.88,0.86 2.2,2.2 0 0 0 1.56,-0.58 2.84,2.84 0 0 0 0.79,-1.75 z m -3.67,4.59 0.46,-1.55 h 1.18 l -0.29,0.94 a 1.84,1.84 0 0 1 1.12,0.46 1.16,1.16 0 0 1 0.38,0.83 1.48,1.48 0 0 1 -0.63,1.17 3.07,3.07 0 0 1 -1.91,0.5 6.89,6.89 0 0 1 -1.27,-0.1 l 0.1,-1 h 0.83 a 2.1,2.1 0 0 0 1.16,-0.23 0.5,0.5 0 0 0 0.25,-0.43 0.42,0.42 0 0 0 -0.1,-0.28 0.84,0.84 0 0 0 -0.37,-0.21 3.56,3.56 0 0 0 -0.91,-0.1 z"
     id="path86"
     style="fill:#ffffff" />
  <path
     class="cls-2"
     d="m 140.08051,155.87645 a 5.92,5.92 0 0 1 -1.69,1.06 5,5 0 0 1 -1.74,0.31 3.4,3.4 0 0 1 -2.37,-0.75 2.49,2.49 0 0 1 -0.82,-1.92 2.56,2.56 0 0 1 0.31,-1.26 2.65,2.65 0 0 1 0.81,-0.91 4,4 0 0 1 1.14,-0.52 10.79,10.79 0 0 1 1.41,-0.23 14.93,14.93 0 0 0 2.82,-0.55 c 0,-0.21 0,-0.35 0,-0.41 a 1.72,1.72 0 0 0 -0.45,-1.36 2.62,2.62 0 0 0 -1.8,-0.54 2.81,2.81 0 0 0 -1.65,0.39 2.4,2.4 0 0 0 -0.79,1.39 l -1.54,-0.21 a 3.85,3.85 0 0 1 0.69,-1.61 3,3 0 0 1 1.4,-0.94 6.21,6.21 0 0 1 2.12,-0.33 5.57,5.57 0 0 1 1.94,0.28 2.65,2.65 0 0 1 1.1,0.71 2.45,2.45 0 0 1 0.49,1.08 9.16,9.16 0 0 1 0.06,1.46 v 2.1 a 22,22 0 0 0 0.1,2.8 3.58,3.58 0 0 0 0.4,1.12 h -1.65 a 3.35,3.35 0 0 1 -0.29,-1.16 z m -5.26,-9.56 a 2,2 0 0 1 0.5,-1.46 1.66,1.66 0 0 1 1.28,-0.54 3.73,3.73 0 0 1 1.49,0.47 1.93,1.93 0 0 0 0.82,0.27 0.54,0.54 0 0 0 0.43,-0.16 1.09,1.09 0 0 0 0.21,-0.61 h 1.15 a 2.18,2.18 0 0 1 -0.51,1.5 1.59,1.59 0 0 1 -1.22,0.51 3.31,3.31 0 0 1 -1.45,-0.5 2.15,2.15 0 0 0 -0.87,-0.31 0.61,0.61 0 0 0 -0.48,0.21 0.84,0.84 0 0 0 -0.18,0.62 z m 5.13,6 a 11.08,11.08 0 0 1 -2.58,0.6 5.62,5.62 0 0 0 -1.38,0.32 1.33,1.33 0 0 0 -0.63,0.51 1.43,1.43 0 0 0 -0.22,0.75 1.37,1.37 0 0 0 0.48,1.06 2.07,2.07 0 0 0 1.4,0.42 3.36,3.36 0 0 0 1.63,-0.4 2.53,2.53 0 0 0 1.05,-1.1 3.79,3.79 0 0 0 0.25,-1.58 z"
     id="path88"
     style="fill:#ffffff" />
  <path
     class="cls-2"
     d="m 143.11051,152.36645 a 4.81,4.81 0 0 1 1.44,-3.84 4.34,4.34 0 0 1 2.93,-1 4.18,4.18 0 0 1 3.15,1.26 4.82,4.82 0 0 1 1.22,3.49 6.17,6.17 0 0 1 -0.54,2.83 3.87,3.87 0 0 1 -1.57,1.61 4.6,4.6 0 0 1 -2.26,0.57 4.17,4.17 0 0 1 -3.16,-1.27 5,5 0 0 1 -1.21,-3.65 z m 1.62,0 a 3.92,3.92 0 0 0 0.79,2.65 2.58,2.58 0 0 0 3.92,0 4,4 0 0 0 0.79,-2.73 3.9,3.9 0 0 0 -0.79,-2.63 2.6,2.6 0 0 0 -3.92,0 3.9,3.9 0 0 0 -0.79,2.71 z"
     id="path90"
     style="fill:#ffffff" />
  <path
     class="cls-2"
     d="m 8.5705044,175.53645 v -1.18 a 2.91,2.91 0 0 1 -2.6100001,1.39 3.66,3.66 0 0 1 -1.9999995,-0.62 4,4 0 0 1 -1.45,-1.72 6,6 0 0 1 -0.51,-2.53 6.68,6.68 0 0 1 0.46,-2.54 3.68,3.68 0 0 1 3.4299995,-2.32 3.09,3.09 0 0 1 1.5100001,0.36 3.18,3.18 0 0 1 1.07,0.92 v -4.62 h 1.5699996 v 12.89 z m -4.9999996,-4.66 a 4,4 0 0 0 0.76,2.68 2.28,2.28 0 0 0 1.7799995,0.89 2.25,2.25 0 0 0 1.7600001,-0.85 3.89,3.89 0 0 0 0.73,-2.59 4.37,4.37 0 0 0 -0.74,-2.81 2.27,2.27 0 0 0 -1.8200001,-0.9 2.2,2.2 0 0 0 -1.7599995,0.86 4.28,4.28 0 0 0 -0.71,2.72 z"
     id="path92"
     style="fill:#ffffff" />
  <path
     class="cls-2"
     d="m 18.310504,174.37645 a 5.92,5.92 0 0 1 -1.69,1.06 5,5 0 0 1 -1.74,0.31 3.4,3.4 0 0 1 -2.36,-0.73 2.49,2.49 0 0 1 -0.82,-1.92 2.59,2.59 0 0 1 1.13,-2.17 3.77,3.77 0 0 1 1.13,-0.52 10.79,10.79 0 0 1 1.41,-0.23 14.93,14.93 0 0 0 2.82,-0.55 c 0,-0.21 0,-0.35 0,-0.41 a 1.72,1.72 0 0 0 -0.45,-1.36 2.62,2.62 0 0 0 -1.8,-0.54 2.83,2.83 0 0 0 -1.65,0.39 2.4,2.4 0 0 0 -0.78,1.39 l -1.55,-0.21 a 3.85,3.85 0 0 1 0.69,-1.61 3.07,3.07 0 0 1 1.4,-0.94 6.25,6.25 0 0 1 2.12,-0.33 5.53,5.53 0 0 1 1.94,0.28 2.59,2.59 0 0 1 1.1,0.71 2.45,2.45 0 0 1 0.49,1.08 9.16,9.16 0 0 1 0.08,1.46 v 2.1 a 22,22 0 0 0 0.1,2.8 3.58,3.58 0 0 0 0.4,1.12 h -1.65 a 3.58,3.58 0 0 1 -0.32,-1.18 z m -0.13,-3.53 a 11,11 0 0 1 -2.58,0.6 5.62,5.62 0 0 0 -1.38,0.32 1.33,1.33 0 0 0 -0.63,0.51 1.43,1.43 0 0 0 -0.22,0.75 1.37,1.37 0 0 0 0.48,1.06 2.07,2.07 0 0 0 1.4,0.42 3.33,3.33 0 0 0 1.63,-0.4 2.53,2.53 0 0 0 1,-1.1 3.79,3.79 0 0 0 0.25,-1.58 z"
     id="path94"
     style="fill:#ffffff" />
  <path
     class="cls-2"
     d="m 21.290505,172.74645 1.57,-0.25 a 2.23,2.23 0 0 0 0.73,1.45 2.6,2.6 0 0 0 1.69,0.5 2.44,2.44 0 0 0 1.61,-0.45 1.32,1.32 0 0 0 0.53,-1 0.93,0.93 0 0 0 -0.47,-0.84 6.78,6.78 0 0 0 -1.61,-0.54 14.1,14.1 0 0 1 -2.42,-0.76 2.32,2.32 0 0 1 -1,-0.89 2.25,2.25 0 0 1 -0.35,-1.25 2.43,2.43 0 0 1 0.28,-1.16 2.63,2.63 0 0 1 0.78,-0.88 3.41,3.41 0 0 1 1,-0.46 4.61,4.61 0 0 1 1.36,-0.19 5.38,5.38 0 0 1 1.93,0.32 2.52,2.52 0 0 1 1.23,0.86 3.22,3.22 0 0 1 0.54,1.44 l -1.54,0.21 a 1.71,1.71 0 0 0 -0.609999,-1.12 2.25,2.25 0 0 0 -1.430001,-0.41 2.6,2.6 0 0 0 -1.56,0.36 1,1 0 0 0 -0.46,0.85 0.86,0.86 0 0 0 0.19,0.55 1.37,1.37 0 0 0 0.61,0.42 c 0.16,0.06 0.62,0.2 1.39,0.41 a 18.75,18.75 0 0 1 2.35,0.73 2.39,2.39 0 0 1 1,0.83 2.31,2.31 0 0 1 0.38,1.35 2.63,2.63 0 0 1 -0.47,1.49 2.88,2.88 0 0 1 -1.33,1.08 4.74,4.74 0 0 1 -2,0.39 4.35,4.35 0 0 1 -2.69,-0.77 3.55,3.55 0 0 1 -1.23,-2.27 z"
     id="path96"
     style="fill:#ffffff" />
  <path
     class="cls-2"
     d="m 35.520505,175.53645 v -12.89 h 1.75 l 6.77,10.12 v -10.12 h 1.63 v 12.89 h -1.75 l -6.76,-10.13 v 10.13 z"
     id="path98"
     style="fill:#ffffff" />
  <path
     class="cls-2"
     d="m 54.100505,174.37645 a 6.06,6.06 0 0 1 -1.69,1.06 5,5 0 0 1 -1.75,0.31 3.39,3.39 0 0 1 -2.36,-0.75 2.5,2.5 0 0 1 -0.83,-1.92 2.66,2.66 0 0 1 1.13,-2.17 4,4 0 0 1 1.14,-0.52 10.79,10.79 0 0 1 1.41,-0.23 15.29,15.29 0 0 0 2.82,-0.55 c 0,-0.21 0,-0.35 0,-0.41 a 1.72,1.72 0 0 0 -0.45,-1.36 2.65,2.65 0 0 0 -1.8,-0.54 2.79,2.79 0 0 0 -1.65,0.39 2.35,2.35 0 0 0 -0.79,1.39 l -1.54,-0.21 a 3.85,3.85 0 0 1 0.69,-1.61 3,3 0 0 1 1.4,-0.94 6.21,6.21 0 0 1 2.12,-0.33 5.57,5.57 0 0 1 1.94,0.28 2.65,2.65 0 0 1 1.1,0.71 2.57,2.57 0 0 1 0.53,1.04 9.16,9.16 0 0 1 0.08,1.46 v 2.1 a 22,22 0 0 0 0.1,2.8 3.58,3.58 0 0 0 0.4,1.12 h -1.68 a 3.35,3.35 0 0 1 -0.32,-1.12 z m -0.13,-3.53 a 11.18,11.18 0 0 1 -2.59,0.6 5.62,5.62 0 0 0 -1.38,0.32 1.3,1.3 0 0 0 -0.62,0.51 1.34,1.34 0 0 0 -0.22,0.75 1.37,1.37 0 0 0 0.48,1.06 2.07,2.07 0 0 0 1.4,0.42 3.36,3.36 0 0 0 1.63,-0.4 2.45,2.45 0 0 0 1,-1.1 3.77,3.77 0 0 0 0.26,-1.58 z"
     id="path100"
     style="fill:#ffffff" />
  <path
     class="cls-2"
     d="m 63.800505,172.11645 1.56,0.2 a 4.05,4.05 0 0 1 -1.3,2.52 3.85,3.85 0 0 1 -2.58,0.91 4,4 0 0 1 -3.09,-1.25 5.14,5.14 0 0 1 -1.16,-3.6 6.54,6.54 0 0 1 0.5,-2.64 3.49,3.49 0 0 1 1.53,-1.7 4.48,4.48 0 0 1 2.26,-0.54 3.88,3.88 0 0 1 2.49,0.77 3.49,3.49 0 0 1 1.24,2.18 l -1.54,0.24 a 2.43,2.43 0 0 0 -0.78,-1.41 2,2 0 0 0 -1.34,-0.48 2.48,2.48 0 0 0 -2,0.86 4.1,4.1 0 0 0 -0.74,2.71 4.19,4.19 0 0 0 0.72,2.73 2.34,2.34 0 0 0 1.88,0.86 2.16,2.16 0 0 0 1.55,-0.58 2.78,2.78 0 0 0 0.8,-1.78 z m -3.66,4.59 0.46,-1.55 h 1.17 l -0.29,0.94 a 1.87,1.87 0 0 1 1.13,0.46 1.16,1.16 0 0 1 0.38,0.83 1.47,1.47 0 0 1 -0.64,1.17 3,3 0 0 1 -1.9,0.5 6.81,6.81 0 0 1 -1.27,-0.1 l 0.1,-1 h 0.82 a 2.06,2.06 0 0 0 1.16,-0.23 0.51,0.51 0 0 0 0.26,-0.43 0.42,0.42 0 0 0 -0.1,-0.28 0.82,0.82 0 0 0 -0.38,-0.21 3.47,3.47 0 0 0 -0.9,-0.1 z"
     id="path102"
     style="fill:#ffffff" />
  <path
     class="cls-2"
     d="m 65.820505,170.86645 a 4.81,4.81 0 0 1 1.44,-3.84 4.35,4.35 0 0 1 2.94,-1 4.17,4.17 0 0 1 3.14,1.26 4.77,4.77 0 0 1 1.22,3.49 6.17,6.17 0 0 1 -0.54,2.83 3.87,3.87 0 0 1 -1.57,1.61 4.59,4.59 0 0 1 -2.25,0.57 4.18,4.18 0 0 1 -3.17,-1.26 5,5 0 0 1 -1.21,-3.66 z m 1.43,-6 a 2.06,2.06 0 0 1 0.5,-1.46 1.68,1.68 0 0 1 1.29,-0.54 3.69,3.69 0 0 1 1.48,0.47 2,2 0 0 0 0.83,0.27 0.56,0.56 0 0 0 0.43,-0.16 1.09,1.09 0 0 0 0.21,-0.61 h 1.14 a 2.18,2.18 0 0 1 -0.5,1.5 1.61,1.61 0 0 1 -1.22,0.51 3.3,3.3 0 0 1 -1.46,-0.5 2.12,2.12 0 0 0 -0.86,-0.31 0.64,0.64 0 0 0 -0.49,0.21 0.88,0.88 0 0 0 -0.18,0.62 z m 0.19,6 a 4,4 0 0 0 0.79,2.68 2.6,2.6 0 0 0 3.93,0 4.08,4.08 0 0 0 0.78,-2.73 3.85,3.85 0 0 0 -0.79,-2.63 2.6,2.6 0 0 0 -3.92,0 4,4 0 0 0 -0.79,2.68 z"
     id="path104"
     style="fill:#ffffff" />
  <path
     class="cls-2"
     d="m 82.520505,172.52645 1.64,0.2 a 4,4 0 0 1 -1.44,2.23 4.86,4.86 0 0 1 -5.92,-0.47 4.93,4.93 0 0 1 -1.2,-3.54 5.17,5.17 0 0 1 1.22,-3.66 4.1,4.1 0 0 1 3.14,-1.3 4,4 0 0 1 3.06,1.28 5.06,5.06 0 0 1 1.19,3.58 c 0,0.1 0,0.24 0,0.42 h -7 a 3.62,3.62 0 0 0 0.87,2.36 2.6,2.6 0 0 0 2,0.82 2.47,2.47 0 0 0 1.44,-0.43 3,3 0 0 0 1,-1.49 z m -5.21,-2.51 h 5.21 a 3.13,3.13 0 0 0 -0.6,-1.76 2.43,2.43 0 0 0 -2,-0.92 2.54,2.54 0 0 0 -1.83,0.73 2.86,2.86 0 0 0 -0.78,1.95 z"
     id="path106"
     style="fill:#ffffff" />
  <path
     class="cls-2"
     d="m 85.180505,172.74645 1.57,-0.25 a 2.23,2.23 0 0 0 0.73,1.45 2.6,2.6 0 0 0 1.69,0.5 2.44,2.44 0 0 0 1.61,-0.45 1.32,1.32 0 0 0 0.53,-1 0.93,0.93 0 0 0 -0.47,-0.84 6.78,6.78 0 0 0 -1.61,-0.54 14.1,14.1 0 0 1 -2.42,-0.76 2.32,2.32 0 0 1 -1,-0.89 2.25,2.25 0 0 1 -0.35,-1.25 2.43,2.43 0 0 1 0.28,-1.16 2.63,2.63 0 0 1 0.78,-0.88 3.41,3.41 0 0 1 1,-0.46 4.61,4.61 0 0 1 1.36,-0.19 5.38,5.38 0 0 1 1.93,0.32 2.52,2.52 0 0 1 1.23,0.86 3.22,3.22 0 0 1 0.54,1.44 l -1.54,0.21 a 1.71,1.71 0 0 0 -0.61,-1.12 2.25,2.25 0 0 0 -1.43,-0.41 2.6,2.6 0 0 0 -1.56,0.36 1,1 0 0 0 -0.46,0.85 0.86,0.86 0 0 0 0.19,0.55 1.37,1.37 0 0 0 0.61,0.42 c 0.16,0.06 0.62,0.2 1.39,0.41 a 18.75,18.75 0 0 1 2.35,0.73 2.39,2.39 0 0 1 1,0.83 2.31,2.31 0 0 1 0.38,1.35 2.7,2.7 0 0 1 -0.46,1.49 3,3 0 0 1 -1.34,1.08 4.74,4.74 0 0 1 -2,0.39 4.35,4.35 0 0 1 -2.77,-0.76 3.55,3.55 0 0 1 -1.15,-2.28 z"
     id="path108"
     style="fill:#ffffff" />
  <path
     class="cls-2"
     d="m 107.86051,162.64645 h 1.71 v 7.45 a 8.86,8.86 0 0 1 -0.44,3.08 3.75,3.75 0 0 1 -1.61,1.84 5.59,5.59 0 0 1 -3,0.72 6.16,6.16 0 0 1 -3,-0.63 3.51,3.51 0 0 1 -1.640004,-1.8 8.58,8.58 0 0 1 -0.5,-3.23 v -7.45 h 1.710004 v 7.44 a 7.18,7.18 0 0 0 0.31,2.47 2.42,2.42 0 0 0 1.07,1.23 3.82,3.82 0 0 0 1.86,0.43 3.57,3.57 0 0 0 2.68,-0.85 4.89,4.89 0 0 0 0.8,-3.28 z"
     id="path110"
     style="fill:#ffffff" />
  <path
     class="cls-2"
     d="m 111.90051,175.53645 v -9.34 h 1.42 v 1.33 a 3.36,3.36 0 0 1 3,-1.54 4,4 0 0 1 1.56,0.3 2.45,2.45 0 0 1 1,0.8 3.1,3.1 0 0 1 0.5,1.17 9.09,9.09 0 0 1 0.08,1.54 v 5.74 h -1.58 v -5.68 a 4.37,4.37 0 0 0 -0.18,-1.45 1.52,1.52 0 0 0 -0.66,-0.76 2.07,2.07 0 0 0 -1.1,-0.29 2.58,2.58 0 0 0 -1.74,0.64 3.17,3.17 0 0 0 -0.74,2.44 v 5.1 z"
     id="path112"
     style="fill:#ffffff" />
  <path
     class="cls-2"
     d="m 121.61051,164.46645 v -1.82 h 1.58 v 1.82 z m 0,11.07 v -9.34 h 1.58 v 9.34 z"
     id="path114"
     style="fill:#ffffff" />
  <path
     class="cls-2"
     d="m 131.35051,175.53645 v -1.18 a 2.91,2.91 0 0 1 -2.61,1.39 3.66,3.66 0 0 1 -2.05,-0.62 4,4 0 0 1 -1.45,-1.72 6,6 0 0 1 -0.51,-2.53 6.68,6.68 0 0 1 0.46,-2.54 3.68,3.68 0 0 1 3.48,-2.35 3.05,3.05 0 0 1 1.5,0.36 3.12,3.12 0 0 1 1.08,0.92 v -4.62 h 1.57 v 12.89 z m -5,-4.66 a 4,4 0 0 0 0.76,2.68 2.28,2.28 0 0 0 1.78,0.89 2.25,2.25 0 0 0 1.76,-0.85 3.89,3.89 0 0 0 0.73,-2.59 4.37,4.37 0 0 0 -0.74,-2.81 2.27,2.27 0 0 0 -1.82,-0.9 2.2,2.2 0 0 0 -1.76,0.86 4.28,4.28 0 0 0 -0.71,2.72 z"
     id="path116"
     style="fill:#ffffff" />
  <path
     class="cls-2"
     d="m 141.09051,174.37645 a 5.92,5.92 0 0 1 -1.69,1.06 5,5 0 0 1 -1.74,0.31 3.4,3.4 0 0 1 -2.37,-0.75 2.49,2.49 0 0 1 -0.82,-1.92 2.59,2.59 0 0 1 1.13,-2.17 3.77,3.77 0 0 1 1.13,-0.52 10.79,10.79 0 0 1 1.41,-0.23 14.93,14.93 0 0 0 2.82,-0.55 c 0,-0.21 0,-0.35 0,-0.41 a 1.72,1.72 0 0 0 -0.45,-1.36 2.62,2.62 0 0 0 -1.8,-0.54 2.83,2.83 0 0 0 -1.65,0.39 2.4,2.4 0 0 0 -0.78,1.39 l -1.55,-0.21 a 3.85,3.85 0 0 1 0.69,-1.61 3,3 0 0 1 1.4,-0.94 6.25,6.25 0 0 1 2.12,-0.33 5.53,5.53 0 0 1 1.94,0.28 2.65,2.65 0 0 1 1.1,0.71 2.45,2.45 0 0 1 0.54,1.04 9.16,9.16 0 0 1 0.08,1.46 v 2.1 a 22,22 0 0 0 0.1,2.8 3.58,3.58 0 0 0 0.4,1.12 h -1.65 a 3.58,3.58 0 0 1 -0.36,-1.12 z m -0.13,-3.53 a 11,11 0 0 1 -2.58,0.6 5.62,5.62 0 0 0 -1.38,0.32 1.33,1.33 0 0 0 -0.63,0.51 1.43,1.43 0 0 0 -0.22,0.75 1.37,1.37 0 0 0 0.48,1.06 2.07,2.07 0 0 0 1.4,0.42 3.33,3.33 0 0 0 1.63,-0.4 2.53,2.53 0 0 0 1.05,-1.1 3.79,3.79 0 0 0 0.25,-1.58 z"
     id="path118"
     style="fill:#ffffff" />
  <path
     class="cls-2"
     d="m 144.07051,172.74645 1.57,-0.25 a 2.23,2.23 0 0 0 0.73,1.45 2.58,2.58 0 0 0 1.69,0.5 2.44,2.44 0 0 0 1.61,-0.45 1.32,1.32 0 0 0 0.53,-1 1,1 0 0 0 -0.47,-0.84 6.78,6.78 0 0 0 -1.61,-0.54 14.1,14.1 0 0 1 -2.42,-0.76 2.4,2.4 0 0 1 -1,-0.89 2.32,2.32 0 0 1 -0.34,-1.25 2.43,2.43 0 0 1 0.28,-1.16 2.63,2.63 0 0 1 0.78,-0.88 3.41,3.41 0 0 1 1,-0.46 4.61,4.61 0 0 1 1.36,-0.19 5.38,5.38 0 0 1 1.93,0.32 2.52,2.52 0 0 1 1.23,0.86 3.34,3.34 0 0 1 0.54,1.44 l -1.54,0.21 a 1.71,1.71 0 0 0 -0.61,-1.12 2.25,2.25 0 0 0 -1.43,-0.41 2.6,2.6 0 0 0 -1.56,0.36 1,1 0 0 0 -0.46,0.85 0.86,0.86 0 0 0 0.19,0.55 1.37,1.37 0 0 0 0.61,0.42 c 0.15,0.06 0.62,0.2 1.39,0.41 a 18.75,18.75 0 0 1 2.35,0.73 2.39,2.39 0 0 1 1,0.83 2.31,2.31 0 0 1 0.38,1.35 2.63,2.63 0 0 1 -0.47,1.49 2.88,2.88 0 0 1 -1.33,1.08 4.74,4.74 0 0 1 -2,0.39 4.35,4.35 0 0 1 -2.77,-0.76 3.55,3.55 0 0 1 -1.16,-2.28 z"
     id="path120"
     style="fill:#ffffff" />
  <path
     class="cls-2"
     d="m 17.200504,197.60645 v -12.91 h 1.44 v 1.22 a 3.4,3.4 0 0 1 1.15,-1.07 3.16,3.16 0 0 1 1.560001,-0.36 3.66,3.66 0 0 1 2.1,0.62 3.74,3.74 0 0 1 1.38,1.73 6.73,6.73 0 0 1 0,5 3.94,3.94 0 0 1 -1.5,1.76 3.89,3.89 0 0 1 -2.06,0.61 2.9,2.9 0 0 1 -1.420001,-0.34 3.17,3.17 0 0 1 -1,-0.84 v 4.54 z m 1.43,-8.19 a 4,4 0 0 0 0.73,2.66 2.23,2.23 0 0 0 1.77,0.87 2.27,2.27 0 0 0 1.800001,-0.9 4.21,4.21 0 0 0 0.75,-2.76 4.11,4.11 0 0 0 -0.73,-2.67 2.21,2.21 0 0 0 -1.75,-0.89 2.3,2.3 0 0 0 -1.790001,0.94 4.25,4.25 0 0 0 -0.78,2.75 z"
     id="path122"
     style="fill:#ffffff" />
  <path
     class="cls-2"
     d="m 32.990505,192.87645 a 5.92,5.92 0 0 1 -1.69,1.06 5,5 0 0 1 -1.74,0.31 3.4,3.4 0 0 1 -2.37,-0.75 2.49,2.49 0 0 1 -0.82,-1.92 2.56,2.56 0 0 1 0.31,-1.26 2.65,2.65 0 0 1 0.81,-0.91 4,4 0 0 1 1.14,-0.52 10.79,10.79 0 0 1 1.41,-0.23 14.93,14.93 0 0 0 2.82,-0.55 c 0,-0.21 0,-0.35 0,-0.41 a 1.72,1.72 0 0 0 -0.45,-1.36 2.62,2.62 0 0 0 -1.8,-0.54 2.81,2.81 0 0 0 -1.65,0.39 2.4,2.4 0 0 0 -0.79,1.39 l -1.54,-0.21 a 3.85,3.85 0 0 1 0.69,-1.61 3,3 0 0 1 1.4,-0.94 6.21,6.21 0 0 1 2.12,-0.33 5.57,5.57 0 0 1 1.94,0.28 2.65,2.65 0 0 1 1.1,0.71 2.45,2.45 0 0 1 0.49,1.08 9.16,9.16 0 0 1 0.08,1.46 v 2.1 a 22,22 0 0 0 0.1,2.8 3.58,3.58 0 0 0 0.4,1.12 h -1.64 a 3.35,3.35 0 0 1 -0.32,-1.16 z m -0.13,-3.53 a 11.08,11.08 0 0 1 -2.58,0.6 5.62,5.62 0 0 0 -1.38,0.32 1.33,1.33 0 0 0 -0.63,0.51 1.43,1.43 0 0 0 -0.22,0.75 1.37,1.37 0 0 0 0.48,1.06 2.07,2.07 0 0 0 1.4,0.42 3.36,3.36 0 0 0 1.63,-0.4 2.53,2.53 0 0 0 1,-1.1 3.79,3.79 0 0 0 0.25,-1.58 z"
     id="path124"
     style="fill:#ffffff" />
  <path
     class="cls-2"
     d="m 36.590505,194.01645 v -9.34 h 1.42 v 1.42 a 3.93,3.93 0 0 1 1,-1.31 1.78,1.78 0 0 1 1,-0.32 3.08,3.08 0 0 1 1.63,0.51 l -0.54,1.47 a 2.27,2.27 0 0 0 -1.16,-0.34 1.52,1.52 0 0 0 -0.94,0.31 1.73,1.73 0 0 0 -0.59,0.86 6.41,6.41 0 0 0 -0.26,1.85 v 4.89 z"
     id="path126"
     style="fill:#ffffff" />
  <path
     class="cls-2"
     d="m 48.390505,192.87645 a 6,6 0 0 1 -1.7,1.06 5,5 0 0 1 -1.74,0.31 3.42,3.42 0 0 1 -2.37,-0.75 2.49,2.49 0 0 1 -0.82,-1.92 2.59,2.59 0 0 1 1.13,-2.17 3.72,3.72 0 0 1 1.14,-0.52 10.88,10.88 0 0 1 1.4,-0.23 14.93,14.93 0 0 0 2.82,-0.55 c 0,-0.21 0,-0.35 0,-0.41 a 1.72,1.72 0 0 0 -0.45,-1.36 2.62,2.62 0 0 0 -1.8,-0.54 2.83,2.83 0 0 0 -1.65,0.39 2.4,2.4 0 0 0 -0.78,1.39 l -1.55,-0.21 a 3.73,3.73 0 0 1 0.7,-1.61 3,3 0 0 1 1.39,-0.94 6.25,6.25 0 0 1 2.12,-0.33 5.49,5.49 0 0 1 1.94,0.28 2.59,2.59 0 0 1 1.1,0.71 2.34,2.34 0 0 1 0.49,1.08 8.08,8.08 0 0 1 0.08,1.46 v 2.1 a 24.25,24.25 0 0 0 0.1,2.8 3.58,3.58 0 0 0 0.4,1.12 h -1.65 a 3.35,3.35 0 0 1 -0.3,-1.16 z m -0.14,-3.53 a 11,11 0 0 1 -2.58,0.6 5.62,5.62 0 0 0 -1.38,0.32 1.26,1.26 0 0 0 -0.62,0.51 1.34,1.34 0 0 0 -0.22,0.75 1.4,1.4 0 0 0 0.47,1.06 2.08,2.08 0 0 0 1.41,0.42 3.3,3.3 0 0 0 1.62,-0.4 2.42,2.42 0 0 0 1,-1.1 3.79,3.79 0 0 0 0.25,-1.58 z"
     id="path128"
     style="fill:#ffffff" />
  <path
     class="cls-2"
     d="m 62.790505,192.87645 a 6,6 0 0 1 -1.7,1.06 5,5 0 0 1 -1.74,0.31 3.42,3.42 0 0 1 -2.37,-0.75 2.49,2.49 0 0 1 -0.82,-1.92 2.59,2.59 0 0 1 1.13,-2.17 3.72,3.72 0 0 1 1.14,-0.52 10.88,10.88 0 0 1 1.4,-0.23 14.93,14.93 0 0 0 2.82,-0.55 c 0,-0.21 0,-0.35 0,-0.41 a 1.72,1.72 0 0 0 -0.45,-1.36 2.62,2.62 0 0 0 -1.8,-0.54 2.83,2.83 0 0 0 -1.65,0.39 2.4,2.4 0 0 0 -0.78,1.39 l -1.55,-0.21 a 3.85,3.85 0 0 1 0.69,-1.61 3.07,3.07 0 0 1 1.4,-0.94 6.25,6.25 0 0 1 2.12,-0.33 5.53,5.53 0 0 1 1.94,0.28 2.59,2.59 0 0 1 1.1,0.71 2.34,2.34 0 0 1 0.49,1.08 8.08,8.08 0 0 1 0.08,1.46 v 2.1 a 24.25,24.25 0 0 0 0.1,2.8 3.58,3.58 0 0 0 0.4,1.12 h -1.65 a 3.35,3.35 0 0 1 -0.3,-1.16 z m -0.14,-3.53 a 11,11 0 0 1 -2.58,0.6 5.62,5.62 0 0 0 -1.38,0.32 1.26,1.26 0 0 0 -0.62,0.51 1.34,1.34 0 0 0 -0.22,0.75 1.4,1.4 0 0 0 0.47,1.06 2.08,2.08 0 0 0 1.41,0.42 3.3,3.3 0 0 0 1.62,-0.4 2.42,2.42 0 0 0 1,-1.1 3.79,3.79 0 0 0 0.25,-1.58 z"
     id="path130"
     style="fill:#ffffff" />
  <path
     class="cls-2"
     d="m 71.330505,194.01645 v -12.87 h 9.32 v 1.52 h -7.61 v 3.95 h 7.12 v 1.51 h -7.12 v 4.39 h 7.91 v 1.5 z"
     id="path132"
     style="fill:#ffffff" />
  <path
     class="cls-2"
     d="m 88.850505,194.01645 v -1.18 a 2.91,2.91 0 0 1 -2.61,1.39 3.64,3.64 0 0 1 -2.05,-0.62 4,4 0 0 1 -1.45,-1.72 5.81,5.81 0 0 1 -0.52,-2.53 6.68,6.68 0 0 1 0.47,-2.54 3.59,3.59 0 0 1 1.4,-1.74 3.68,3.68 0 0 1 2.08,-0.61 3.08,3.08 0 0 1 1.5,0.36 3,3 0 0 1 1.07,0.92 v -4.62 h 1.58 v 12.89 z m -5,-4.66 a 4.08,4.08 0 0 0 0.75,2.68 2.3,2.3 0 0 0 1.79,0.89 2.25,2.25 0 0 0 1.76,-0.85 3.94,3.94 0 0 0 0.73,-2.59 4.37,4.37 0 0 0 -0.74,-2.81 2.28,2.28 0 0 0 -1.82,-0.9 2.19,2.19 0 0 0 -1.76,0.86 4.22,4.22 0 0 0 -0.71,2.74 z"
     id="path134"
     style="fill:#ffffff" />
  <path
     class="cls-2"
     d="m 98.620506,194.01645 v -1.37 a 3.44,3.44 0 0 1 -3.000001,1.58 3.79,3.79 0 0 1 -1.54,-0.32 2.48,2.48 0 0 1 -1.06,-0.79 3,3 0 0 1 -0.49,-1.18 8.32,8.32 0 0 1 -0.1,-1.47 v -5.79 h 1.59 v 5.18 a 9.89,9.89 0 0 0 0.09,1.67 1.68,1.68 0 0 0 0.63,1 2,2 0 0 0 1.2,0.35 2.67,2.67 0 0 0 1.340001,-0.36 2,2 0 0 0 0.88,-1 5.07,5.07 0 0 0 0.26,-1.83 v -5 h 1.580004 v 9.33 z"
     id="path136"
     style="fill:#ffffff" />
  <path
     class="cls-2"
     d="m 108.29051,190.61645 1.56,0.2 a 4.06,4.06 0 0 1 -1.31,2.52 3.83,3.83 0 0 1 -2.58,0.91 4,4 0 0 1 -3.08,-1.25 5.14,5.14 0 0 1 -1.16,-3.6 6.54,6.54 0 0 1 0.5,-2.64 3.44,3.44 0 0 1 1.53,-1.7 4.48,4.48 0 0 1 2.22,-0.57 3.88,3.88 0 0 1 2.49,0.77 3.49,3.49 0 0 1 1.24,2.18 l -1.54,0.24 a 2.43,2.43 0 0 0 -0.78,-1.41 2,2 0 0 0 -1.34,-0.48 2.48,2.48 0 0 0 -2,0.86 4,4 0 0 0 -0.74,2.71 4.19,4.19 0 0 0 0.72,2.73 2.34,2.34 0 0 0 1.88,0.86 2.16,2.16 0 0 0 1.55,-0.58 2.78,2.78 0 0 0 0.84,-1.75 z"
     id="path138"
     style="fill:#ffffff" />
  <path
     class="cls-2"
     d="m 116.99051,192.87645 a 6.06,6.06 0 0 1 -1.69,1.06 5.07,5.07 0 0 1 -1.75,0.31 3.39,3.39 0 0 1 -2.36,-0.75 2.5,2.5 0 0 1 -0.83,-1.92 2.59,2.59 0 0 1 1.13,-2.17 4,4 0 0 1 1.14,-0.52 10.88,10.88 0 0 1 1.4,-0.23 15.25,15.25 0 0 0 2.83,-0.55 v -0.41 a 1.72,1.72 0 0 0 -0.44,-1.36 2.66,2.66 0 0 0 -1.81,-0.54 2.77,2.77 0 0 0 -1.64,0.39 2.35,2.35 0 0 0 -0.79,1.39 l -1.55,-0.21 a 3.85,3.85 0 0 1 0.7,-1.61 3,3 0 0 1 1.4,-0.94 6.15,6.15 0 0 1 2.11,-0.33 5.59,5.59 0 0 1 2,0.28 2.61,2.61 0 0 1 1.09,0.71 2.46,2.46 0 0 1 0.5,1.08 9.16,9.16 0 0 1 0.08,1.46 v 2.1 a 22,22 0 0 0 0.1,2.8 3.35,3.35 0 0 0 0.4,1.12 h -1.66 a 3.35,3.35 0 0 1 -0.36,-1.16 z m -0.13,-3.53 a 11.18,11.18 0 0 1 -2.59,0.6 5.62,5.62 0 0 0 -1.38,0.32 1.26,1.26 0 0 0 -0.62,0.51 1.34,1.34 0 0 0 -0.22,0.75 1.37,1.37 0 0 0 0.48,1.06 2.05,2.05 0 0 0 1.4,0.42 3.36,3.36 0 0 0 1.63,-0.4 2.45,2.45 0 0 0 1,-1.1 3.77,3.77 0 0 0 0.26,-1.58 z"
     id="path140"
     style="fill:#ffffff" />
  <path
     class="cls-2"
     d="m 126.69051,190.61645 1.56,0.2 a 4.06,4.06 0 0 1 -1.31,2.52 3.83,3.83 0 0 1 -2.58,0.91 4,4 0 0 1 -3.08,-1.25 5.14,5.14 0 0 1 -1.16,-3.6 6.54,6.54 0 0 1 0.5,-2.64 3.47,3.47 0 0 1 1.52,-1.7 4.54,4.54 0 0 1 2.23,-0.57 3.88,3.88 0 0 1 2.49,0.77 3.53,3.53 0 0 1 1.24,2.18 l -1.54,0.24 a 2.48,2.48 0 0 0 -0.78,-1.41 2,2 0 0 0 -1.35,-0.48 2.47,2.47 0 0 0 -1.94,0.86 4,4 0 0 0 -0.75,2.71 4.13,4.13 0 0 0 0.73,2.73 2.34,2.34 0 0 0 1.88,0.86 2.16,2.16 0 0 0 1.55,-0.58 2.78,2.78 0 0 0 0.79,-1.75 z m -3.66,4.59 0.45,-1.55 h 1.18 l -0.29,0.94 a 1.87,1.87 0 0 1 1.15,0.42 1.16,1.16 0 0 1 0.38,0.83 1.5,1.5 0 0 1 -0.64,1.17 3,3 0 0 1 -1.9,0.5 6.74,6.74 0 0 1 -1.27,-0.1 l 0.1,-1 h 0.82 a 2.08,2.08 0 0 0 1.16,-0.23 0.51,0.51 0 0 0 0.26,-0.43 0.48,0.48 0 0 0 -0.1,-0.28 0.88,0.88 0 0 0 -0.38,-0.21 3.47,3.47 0 0 0 -0.92,-0.06 z"
     id="path142"
     style="fill:#ffffff" />
  <path
     class="cls-2"
     d="m 135.39051,192.87645 a 6,6 0 0 1 -1.7,1.06 5,5 0 0 1 -1.74,0.31 3.38,3.38 0 0 1 -2.36,-0.75 2.5,2.5 0 0 1 -0.83,-1.92 2.59,2.59 0 0 1 1.13,-2.17 4,4 0 0 1 1.14,-0.52 10.88,10.88 0 0 1 1.4,-0.23 14.93,14.93 0 0 0 2.82,-0.55 c 0,-0.21 0,-0.35 0,-0.41 a 1.76,1.76 0 0 0 -0.44,-1.36 2.66,2.66 0 0 0 -1.81,-0.54 2.77,2.77 0 0 0 -1.64,0.39 2.35,2.35 0 0 0 -0.79,1.39 l -1.55,-0.21 a 3.73,3.73 0 0 1 0.7,-1.61 3,3 0 0 1 1.39,-0.94 6.25,6.25 0 0 1 2.12,-0.33 5.49,5.49 0 0 1 1.94,0.28 2.59,2.59 0 0 1 1.1,0.71 2.46,2.46 0 0 1 0.5,1.08 9.54,9.54 0 0 1 0.07,1.46 v 2.1 a 21.28,21.28 0 0 0 0.11,2.8 3.35,3.35 0 0 0 0.4,1.12 h -1.66 a 3.35,3.35 0 0 1 -0.3,-1.16 z m -5.27,-9.56 a 2.06,2.06 0 0 1 0.5,-1.46 1.68,1.68 0 0 1 1.29,-0.54 3.69,3.69 0 0 1 1.48,0.47 2,2 0 0 0 0.83,0.27 0.54,0.54 0 0 0 0.43,-0.16 1.09,1.09 0 0 0 0.21,-0.61 h 1.14 a 2.18,2.18 0 0 1 -0.5,1.5 1.61,1.61 0 0 1 -1.22,0.51 3.3,3.3 0 0 1 -1.46,-0.5 2.12,2.12 0 0 0 -0.86,-0.31 0.6,0.6 0 0 0 -0.48,0.21 0.89,0.89 0 0 0 -0.19,0.62 z m 5.13,6 a 11,11 0 0 1 -2.58,0.6 5.62,5.62 0 0 0 -1.38,0.32 1.26,1.26 0 0 0 -0.62,0.51 1.34,1.34 0 0 0 -0.22,0.75 1.37,1.37 0 0 0 0.48,1.06 2.05,2.05 0 0 0 1.4,0.42 3.3,3.3 0 0 0 1.62,-0.4 2.42,2.42 0 0 0 1,-1.1 3.79,3.79 0 0 0 0.25,-1.58 z"
     id="path144"
     style="fill:#ffffff" />
  <path
     class="cls-2"
     d="m 138.41051,189.36645 a 4.81,4.81 0 0 1 1.44,-3.84 4.37,4.37 0 0 1 2.94,-1 4.21,4.21 0 0 1 3.15,1.26 4.82,4.82 0 0 1 1.22,3.49 6.17,6.17 0 0 1 -0.54,2.83 3.89,3.89 0 0 1 -1.58,1.61 4.59,4.59 0 0 1 -2.25,0.57 4.2,4.2 0 0 1 -3.17,-1.27 5,5 0 0 1 -1.21,-3.65 z m 1.63,0 a 4,4 0 0 0 0.78,2.68 2.6,2.6 0 0 0 3.93,0 4.08,4.08 0 0 0 0.78,-2.73 3.85,3.85 0 0 0 -0.79,-2.63 2.5,2.5 0 0 0 -1.95,-0.89 2.52,2.52 0 0 0 -2,0.89 4,4 0 0 0 -0.75,2.68 z"
     id="path146"
     style="fill:#ffffff" />
  <path
     class="cls-2"
     d="m 149.12051,194.01645 v -1.81 h 1.8 v 1.81 a 3.24,3.24 0 0 1 -0.35,1.6 2.29,2.29 0 0 1 -1.12,0.94 l -0.44,-0.67 a 1.48,1.48 0 0 0 0.74,-0.65 2.72,2.72 0 0 0 0.27,-1.22 z"
     id="path148"
     style="fill:#ffffff" />
  <path
     class="cls-2"
     d="m -2.1694951,211.37645 a 6,6 0 0 1 -1.6999999,1.06 5,5 0 0 1 -1.7400001,0.31 3.38,3.38 0 0 1 -2.36,-0.75 2.5,2.5 0 0 1 -0.83,-1.92 2.59,2.59 0 0 1 1.13,-2.17 4,4 0 0 1 1.14,-0.52 10.88,10.88 0 0 1 1.4,-0.23 14.93,14.93 0 0 0 2.82,-0.55 c 0,-0.21 0,-0.35 0,-0.41 a 1.76,1.76 0 0 0 -0.4399999,-1.36 2.66,2.66 0 0 0 -1.81,-0.54 2.77,2.77 0 0 0 -1.6400001,0.39 2.35,2.35 0 0 0 -0.79,1.39 l -1.49,-0.21 a 3.73,3.73 0 0 1 0.7,-1.61 3,3 0 0 1 1.3,-0.94 6.25,6.25 0 0 1 2.1200001,-0.33 5.49,5.49 0 0 1 1.9399999,0.28 2.59,2.59 0 0 1 1.1,0.71 2.46,2.46 0 0 1 0.50000002,1.08 9.54,9.54 0 0 1 0.07,1.46 v 2.1 a 21.28,21.28 0 0 0 0.10999999,2.8 3.35,3.35 0 0 0 0.4,1.12 H -1.8594951 a 3.35,3.35 0 0 1 -0.31,-1.16 z m -0.14,-3.53 a 11,11 0 0 1 -2.58,0.6 5.62,5.62 0 0 0 -1.38,0.32 1.26,1.26 0 0 0 -0.62,0.51 1.34,1.34 0 0 0 -0.22,0.75 1.37,1.37 0 0 0 0.48,1.06 2.05,2.05 0 0 0 1.4,0.42 3.3,3.3 0 0 0 1.6200001,-0.4 2.42,2.42 0 0 0 1.0499999,-1.1 3.79,3.79 0 0 0 0.25,-1.58 z"
     id="path150"
     style="fill:#ffffff" />
  <path
     class="cls-2"
     d="m 15.520504,208.01645 1.71,0.43 a 5.72,5.72 0 0 1 -1.93,3.2 5.31,5.31 0 0 1 -3.41,1.11 6.17,6.17 0 0 1 -3.3899996,-0.85 5.3,5.3 0 0 1 -2,-2.46 8.64,8.64 0 0 1 -0.6800001,-3.45 7.63,7.63 0 0 1 0.7600001,-3.51 5.36,5.36 0 0 1 2.19,-2.28 6.4,6.4 0 0 1 3.1299996,-0.78 5.26,5.26 0 0 1 3.25,1 5.12,5.12 0 0 1 1.84,2.76 l -1.68,0.4 a 4,4 0 0 0 -1.3,-2.05 3.47,3.47 0 0 0 -2.15,-0.64 4.18,4.18 0 0 0 -2.4799996,0.71 3.75,3.75 0 0 0 -1.4,1.91 7.72,7.72 0 0 0 -0.41,2.48 7.88,7.88 0 0 0 0.48,2.87 3.6,3.6 0 0 0 1.49,1.83 4.26,4.26 0 0 0 2.1899996,0.61 3.69,3.69 0 0 0 2.43,-0.83 4.22,4.22 0 0 0 1.36,-2.46 z"
     id="path152"
     style="fill:#ffffff" />
  <path
     class="cls-2"
     d="m 18.840504,201.46645 v -1.82 h 1.58 v 1.82 z m 0,11.07 v -9.34 h 1.58 v 9.34 z"
     id="path154"
     style="fill:#ffffff" />
  <path
     class="cls-2"
     d="m 28.910505,209.52645 1.64,0.2 a 4,4 0 0 1 -1.44,2.23 4.86,4.86 0 0 1 -5.92,-0.47 4.93,4.93 0 0 1 -1.2,-3.54 5.17,5.17 0 0 1 1.22,-3.66 4.08,4.08 0 0 1 3.14,-1.3 4,4 0 0 1 3.06,1.28 5.06,5.06 0 0 1 1.19,3.58 c 0,0.1 0,0.24 0,0.42 h -7 a 3.62,3.62 0 0 0 0.87,2.36 2.6,2.6 0 0 0 2,0.82 2.47,2.47 0 0 0 1.49,-0.46 3,3 0 0 0 0.95,-1.46 z m -2.59,-9 -1,1.49 h -1.8 l 1.9,-2.46 h 1.69 l 2,2.46 h -1.82 z m -2.6,6.49 h 5.21 a 3.13,3.13 0 0 0 -0.6,-1.76 2.43,2.43 0 0 0 -2,-0.92 2.52,2.52 0 0 0 -1.81,0.68 2.86,2.86 0 0 0 -0.8,2 z"
     id="path156"
     style="fill:#ffffff" />
  <path
     class="cls-2"
     d="m 32.230505,212.53645 v -9.34 h 1.42 v 1.33 a 3.36,3.36 0 0 1 3,-1.54 3.93,3.93 0 0 1 1.55,0.3 2.48,2.48 0 0 1 1.06,0.8 2.94,2.94 0 0 1 0.49,1.17 8.79,8.79 0 0 1 0.09,1.54 v 5.74 h -1.58 v -5.68 a 4.08,4.08 0 0 0 -0.19,-1.45 1.5,1.5 0 0 0 -0.65,-0.76 2.07,2.07 0 0 0 -1.1,-0.29 2.6,2.6 0 0 0 -1.8,0.66 3.17,3.17 0 0 0 -0.73,2.44 v 5.1 z"
     id="path158"
     style="fill:#ffffff" />
  <path
     class="cls-2"
     d="m 48.020505,209.11645 1.56,0.2 a 4.06,4.06 0 0 1 -1.31,2.52 3.83,3.83 0 0 1 -2.58,0.91 4,4 0 0 1 -3.08,-1.25 5.14,5.14 0 0 1 -1.16,-3.6 6.38,6.38 0 0 1 0.5,-2.64 3.47,3.47 0 0 1 1.52,-1.7 4.54,4.54 0 0 1 2.23,-0.57 3.9,3.9 0 0 1 2.49,0.77 3.53,3.53 0 0 1 1.24,2.18 l -1.54,0.24 a 2.54,2.54 0 0 0 -0.78,-1.41 2,2 0 0 0 -1.35,-0.48 2.47,2.47 0 0 0 -1.94,0.86 4,4 0 0 0 -0.75,2.71 4.19,4.19 0 0 0 0.72,2.73 2.36,2.36 0 0 0 1.89,0.86 2.18,2.18 0 0 0 1.55,-0.58 2.78,2.78 0 0 0 0.79,-1.75 z"
     id="path160"
     style="fill:#ffffff" />
  <path
     class="cls-2"
     d="m 50.630505,201.46645 v -1.82 h 1.59 v 1.82 z m 0,11.07 v -9.34 h 1.59 v 9.34 z"
     id="path162"
     style="fill:#ffffff" />
  <path
     class="cls-2"
     d="m 60.410505,211.37645 a 6.06,6.06 0 0 1 -1.69,1.06 5.07,5.07 0 0 1 -1.75,0.31 3.39,3.39 0 0 1 -2.36,-0.75 2.5,2.5 0 0 1 -0.83,-1.92 2.67,2.67 0 0 1 0.31,-1.26 2.58,2.58 0 0 1 0.82,-0.91 4,4 0 0 1 1.14,-0.52 10.79,10.79 0 0 1 1.41,-0.23 15.29,15.29 0 0 0 2.82,-0.55 c 0,-0.21 0,-0.35 0,-0.41 a 1.72,1.72 0 0 0 -0.45,-1.36 2.65,2.65 0 0 0 -1.8,-0.54 2.79,2.79 0 0 0 -1.65,0.39 2.35,2.35 0 0 0 -0.79,1.39 l -1.55,-0.21 a 3.85,3.85 0 0 1 0.7,-1.61 3,3 0 0 1 1.4,-0.94 6.19,6.19 0 0 1 2.11,-0.33 5.59,5.59 0 0 1 2,0.28 2.72,2.72 0 0 1 1.1,0.71 2.57,2.57 0 0 1 0.49,1.08 9.16,9.16 0 0 1 0.08,1.46 v 2.1 a 22,22 0 0 0 0.1,2.8 3.35,3.35 0 0 0 0.4,1.12 h -1.65 a 3.35,3.35 0 0 1 -0.36,-1.16 z m -0.13,-3.53 a 11.18,11.18 0 0 1 -2.59,0.6 5.62,5.62 0 0 0 -1.38,0.32 1.3,1.3 0 0 0 -0.62,0.51 1.34,1.34 0 0 0 -0.22,0.75 1.37,1.37 0 0 0 0.48,1.06 2.05,2.05 0 0 0 1.4,0.42 3.36,3.36 0 0 0 1.63,-0.4 2.45,2.45 0 0 0 1,-1.1 3.77,3.77 0 0 0 0.26,-1.58 z"
     id="path164"
     style="fill:#ffffff" />
  <path
     class="cls-2"
     d="m 75.110505,209.52645 1.63,0.2 a 4,4 0 0 1 -1.43,2.23 4.36,4.36 0 0 1 -2.67,0.79 4.27,4.27 0 0 1 -3.25,-1.26 4.93,4.93 0 0 1 -1.2,-3.54 5.17,5.17 0 0 1 1.21,-3.66 4.1,4.1 0 0 1 3.12,-1.27 4,4 0 0 1 3.06,1.28 5.05,5.05 0 0 1 1.18,3.58 v 0.42 h -7 a 3.51,3.51 0 0 0 0.87,2.36 2.6,2.6 0 0 0 1.95,0.82 2.44,2.44 0 0 0 1.48,-0.46 3.06,3.06 0 0 0 1.05,-1.49 z m -5.2,-2.56 h 5.21 a 3.13,3.13 0 0 0 -0.59,-1.76 2.44,2.44 0 0 0 -2,-0.92 2.56,2.56 0 0 0 -1.84,0.73 3,3 0 0 0 -0.78,2 z"
     id="path166"
     style="fill:#ffffff" />
  <path
     class="cls-2"
     d="m 89.210505,211.37645 a 6.06,6.06 0 0 1 -1.69,1.06 5.07,5.07 0 0 1 -1.75,0.31 3.39,3.39 0 0 1 -2.36,-0.75 2.5,2.5 0 0 1 -0.83,-1.92 2.67,2.67 0 0 1 0.31,-1.26 2.58,2.58 0 0 1 0.82,-0.91 4,4 0 0 1 1.14,-0.52 10.79,10.79 0 0 1 1.41,-0.23 15.29,15.29 0 0 0 2.82,-0.55 c 0,-0.21 0,-0.35 0,-0.41 a 1.72,1.72 0 0 0 -0.45,-1.36 2.65,2.65 0 0 0 -1.8,-0.54 2.79,2.79 0 0 0 -1.65,0.39 2.35,2.35 0 0 0 -0.79,1.39 l -1.55,-0.21 a 3.85,3.85 0 0 1 0.7,-1.61 3,3 0 0 1 1.4,-0.94 6.19,6.19 0 0 1 2.11,-0.33 5.59,5.59 0 0 1 2,0.28 2.61,2.61 0 0 1 1.09,0.71 2.46,2.46 0 0 1 0.5,1.08 9.16,9.16 0 0 1 0.08,1.46 v 2.1 a 22,22 0 0 0 0.1,2.8 3.35,3.35 0 0 0 0.4,1.12 h -1.7 a 3.59,3.59 0 0 1 -0.31,-1.16 z m -0.13,-3.53 a 11.18,11.18 0 0 1 -2.59,0.6 5.62,5.62 0 0 0 -1.38,0.32 1.3,1.3 0 0 0 -0.62,0.51 1.34,1.34 0 0 0 -0.22,0.75 1.37,1.37 0 0 0 0.48,1.06 2.05,2.05 0 0 0 1.4,0.42 3.36,3.36 0 0 0 1.63,-0.4 2.45,2.45 0 0 0 1,-1.1 3.77,3.77 0 0 0 0.26,-1.58 z"
     id="path168"
     style="fill:#ffffff" />
  <path
     class="cls-2"
     d="m 106.91051,208.01645 1.71,0.43 a 5.72,5.72 0 0 1 -1.93,3.2 5.31,5.31 0 0 1 -3.41,1.11 6.17,6.17 0 0 1 -3.390004,-0.85 5.3,5.3 0 0 1 -2,-2.46 8.64,8.64 0 0 1 -0.68,-3.45 7.5,7.5 0 0 1 0.77,-3.51 5.28,5.28 0 0 1 2.180004,-2.28 6.4,6.4 0 0 1 3.13,-0.78 5.26,5.26 0 0 1 3.25,1 5.12,5.12 0 0 1 1.84,2.76 l -1.68,0.4 a 4,4 0 0 0 -1.3,-2.05 3.45,3.45 0 0 0 -2.15,-0.64 4.2,4.2 0 0 0 -2.48,0.71 3.81,3.81 0 0 0 -1.400004,1.91 7.72,7.72 0 0 0 -0.41,2.48 7.88,7.88 0 0 0 0.48,2.87 3.6,3.6 0 0 0 1.490004,1.83 4.26,4.26 0 0 0 2.19,0.61 3.67,3.67 0 0 0 2.43,-0.83 4.22,4.22 0 0 0 1.36,-2.46 z"
     id="path170"
     style="fill:#ffffff" />
  <path
     class="cls-2"
     d="m 116.33051,212.53645 v -1.37 a 3.44,3.44 0 0 1 -3,1.58 3.8,3.8 0 0 1 -1.55,-0.32 2.55,2.55 0 0 1 -1.06,-0.79 3.16,3.16 0 0 1 -0.49,-1.18 8.56,8.56 0 0 1 -0.09,-1.47 v -5.79 h 1.58 v 5.18 a 9.89,9.89 0 0 0 0.09,1.67 1.65,1.65 0 0 0 0.64,1 1.93,1.93 0 0 0 1.19,0.35 2.64,2.64 0 0 0 1.34,-0.36 2,2 0 0 0 0.88,-1 5.07,5.07 0 0 0 0.26,-1.83 v -5 h 1.58 v 9.34 z"
     id="path172"
     style="fill:#ffffff" />
  <path
     class="cls-2"
     d="m 119.88051,212.53645 v -12.89 h 1.58 v 12.89 z"
     id="path174"
     style="fill:#ffffff" />
  <path
     class="cls-2"
     d="m 127.06051,211.11645 0.23,1.4 a 6.06,6.06 0 0 1 -1.19,0.14 2.74,2.74 0 0 1 -1.34,-0.27 1.5,1.5 0 0 1 -0.67,-0.72 5.69,5.69 0 0 1 -0.19,-1.87 v -5.37 h -1.16 v -1.23 h 1.16 v -2.31 l 1.57,-1 v 3.26 h 1.59 v 1.23 h -1.54 v 5.46 a 3,3 0 0 0 0.08,0.87 0.7,0.7 0 0 0 0.28,0.31 1.09,1.09 0 0 0 0.54,0.11 5.34,5.34 0 0 0 0.64,-0.01 z"
     id="path176"
     style="fill:#ffffff" />
  <path
     class="cls-2"
     d="m 134.42051,212.53645 v -1.37 a 3.42,3.42 0 0 1 -3,1.58 3.76,3.76 0 0 1 -1.54,-0.32 2.52,2.52 0 0 1 -1.07,-0.79 3.16,3.16 0 0 1 -0.49,-1.18 8.56,8.56 0 0 1 -0.09,-1.47 v -5.79 h 1.58 v 5.18 a 8.63,8.63 0 0 0 0.1,1.67 1.68,1.68 0 0 0 0.63,1 1.93,1.93 0 0 0 1.19,0.35 2.64,2.64 0 0 0 1.34,-0.36 2,2 0 0 0 0.88,-1 4.86,4.86 0 0 0 0.26,-1.83 v -5 h 1.59 v 9.34 z"
     id="path178"
     style="fill:#ffffff" />
  <path
     class="cls-2"
     d="m 137.99051,212.53645 v -9.34 h 1.42 v 1.42 a 3.93,3.93 0 0 1 1,-1.31 1.79,1.79 0 0 1 1,-0.32 3.07,3.07 0 0 1 1.62,0.51 l -0.51,1.52 a 2.27,2.27 0 0 0 -1.16,-0.34 1.52,1.52 0 0 0 -0.94,0.31 1.65,1.65 0 0 0 -0.58,0.86 6.08,6.08 0 0 0 -0.27,1.85 v 4.89 z"
     id="path180"
     style="fill:#ffffff" />
  <path
     class="cls-2"
     d="m 149.79051,211.37645 a 6,6 0 0 1 -1.7,1.06 5,5 0 0 1 -1.74,0.31 3.38,3.38 0 0 1 -2.36,-0.75 2.5,2.5 0 0 1 -0.83,-1.92 2.59,2.59 0 0 1 1.13,-2.17 4,4 0 0 1 1.14,-0.52 10.88,10.88 0 0 1 1.4,-0.23 14.93,14.93 0 0 0 2.82,-0.55 c 0,-0.21 0,-0.35 0,-0.41 a 1.76,1.76 0 0 0 -0.44,-1.36 2.66,2.66 0 0 0 -1.81,-0.54 2.77,2.77 0 0 0 -1.64,0.39 2.35,2.35 0 0 0 -0.79,1.39 l -1.55,-0.21 a 3.73,3.73 0 0 1 0.7,-1.61 3,3 0 0 1 1.39,-0.94 6.25,6.25 0 0 1 2.12,-0.33 5.49,5.49 0 0 1 1.94,0.28 2.59,2.59 0 0 1 1.1,0.71 2.46,2.46 0 0 1 0.5,1.08 9.54,9.54 0 0 1 0.07,1.46 v 2.1 a 21.28,21.28 0 0 0 0.11,2.8 3.35,3.35 0 0 0 0.4,1.12 h -1.66 a 3.35,3.35 0 0 1 -0.3,-1.16 z m -0.14,-3.53 a 11,11 0 0 1 -2.58,0.6 5.62,5.62 0 0 0 -1.38,0.32 1.26,1.26 0 0 0 -0.62,0.51 1.34,1.34 0 0 0 -0.22,0.75 1.37,1.37 0 0 0 0.48,1.06 2.05,2.05 0 0 0 1.4,0.42 3.3,3.3 0 0 0 1.62,-0.4 2.42,2.42 0 0 0 1,-1.1 3.79,3.79 0 0 0 0.25,-1.58 z"
     id="path182"
     style="fill:#ffffff" />
  <path
     class="cls-2"
     d="m 203.91051,39.916449 1.71,0.43 a 5.78,5.78 0 0 1 -1.93,3.21 5.34,5.34 0 0 1 -3.41,1.1 6.07,6.07 0 0 1 -3.38,-0.85 5.22,5.22 0 0 1 -2,-2.46 8.81,8.81 0 0 1 -0.68,-3.450003 7.5,7.5 0 0 1 0.77,-3.51 5.25,5.25 0 0 1 2.19,-2.28 6.34,6.34 0 0 1 3.12,-0.78 5.26,5.26 0 0 1 3.25,1 5.15,5.15 0 0 1 1.84,2.77 l -1.68,0.39 a 4,4 0 0 0 -1.3,-2 3.45,3.45 0 0 0 -2.14,-0.65 4.17,4.17 0 0 0 -2.49,0.72 3.76,3.76 0 0 0 -1.4,1.91 7.65,7.65 0 0 0 -0.4,2.47 7.84,7.84 0 0 0 0.48,2.870003 3.46,3.46 0 0 0 1.49,1.83 4.1,4.1 0 0 0 2.18,0.61 3.67,3.67 0 0 0 2.43,-0.83 4.18,4.18 0 0 0 1.35,-2.5 z"
     id="path184"
     style="fill:#ffffff" />
  <path
     class="cls-2"
     d="m 206.62051,39.766449 a 4.81,4.81 0 0 1 1.44,-3.840003 4.39,4.39 0 0 1 2.94,-1 4.18,4.18 0 0 1 3.15,1.27 4.81,4.81 0 0 1 1.22,3.480003 6.21,6.21 0 0 1 -0.54,2.84 3.87,3.87 0 0 1 -1.58,1.6 4.56,4.56 0 0 1 -2.25,0.57 4.2,4.2 0 0 1 -3.17,-1.26 5,5 0 0 1 -1.21,-3.66 z m 1.63,0 a 4,4 0 0 0 0.78,2.69 2.52,2.52 0 0 0 2,0.89 2.49,2.49 0 0 0 2,-0.9 4.06,4.06 0 0 0 0.78,-2.73 3.87,3.87 0 0 0 -0.78,-2.620003 2.6,2.6 0 0 0 -3.93,0 4,4 0 0 0 -0.85,2.670003 z"
     id="path186"
     style="fill:#ffffff" />
  <path
     class="cls-2"
     d="m 216.33051,39.766449 a 4.81,4.81 0 0 1 1.44,-3.840003 4.34,4.34 0 0 1 2.93,-1 4.15,4.15 0 0 1 3.15,1.27 4.76,4.76 0 0 1 1.22,3.480003 6.21,6.21 0 0 1 -0.54,2.84 3.84,3.84 0 0 1 -1.57,1.6 4.6,4.6 0 0 1 -2.26,0.57 4.17,4.17 0 0 1 -3.18,-1.3 5,5 0 0 1 -1.19,-3.62 z m 1.62,0 a 4,4 0 0 0 0.79,2.69 2.59,2.59 0 0 0 3.92,0 4,4 0 0 0 0.79,-2.73 3.87,3.87 0 0 0 -0.79,-2.620003 2.59,2.59 0 0 0 -3.92,0 3.92,3.92 0 0 0 -0.79,2.660003 z"
     id="path188"
     style="fill:#ffffff" />
  <path
     class="cls-2"
     d="M 226.62051,48.016449 V 35.106446 h 1.44 v 1.21 a 3.61,3.61 0 0 1 1.15,-1.07 3.16,3.16 0 0 1 1.56,-0.36 3.69,3.69 0 0 1 2.11,0.62 3.76,3.76 0 0 1 1.38,1.74 6.77,6.77 0 0 1 -0.05,5.000003 3.89,3.89 0 0 1 -3.55,2.37 3,3 0 0 1 -1.42,-0.33 3.37,3.37 0 0 1 -1,-0.85 v 4.58 z m 1.43,-8.19 a 4.1,4.1 0 0 0 0.73,2.66 2.26,2.26 0 0 0 1.77,0.86 2.32,2.32 0 0 0 1.81,-0.89 4.26,4.26 0 0 0 0.75,-2.77 4.11,4.11 0 0 0 -0.74,-2.670003 2.21,2.21 0 0 0 -1.75,-0.89 2.29,2.29 0 0 0 -1.79,1 4.21,4.21 0 0 0 -0.78,2.700003 z"
     id="path190"
     style="fill:#ffffff" />
  <path
     class="cls-2"
     d="m 242.72051,41.426449 1.63,0.21 a 4.05,4.05 0 0 1 -1.43,2.22 4.86,4.86 0 0 1 -5.92,-0.47 4.93,4.93 0 0 1 -1.2,-3.54 5.12,5.12 0 0 1 1.21,-3.650003 4.11,4.11 0 0 1 3.15,-1.31 4,4 0 0 1 3.06,1.28 5.05,5.05 0 0 1 1.18,3.580003 c 0,0.1 0,0.24 0,0.43 h -7 a 3.59,3.59 0 0 0 0.87,2.35 2.58,2.58 0 0 0 2,0.82 2.4,2.4 0 0 0 1.49,-0.46 3,3 0 0 0 0.96,-1.46 z m -5.2,-2.55 h 5.21 a 3.21,3.21 0 0 0 -0.59,-1.770003 2.43,2.43 0 0 0 -2,-0.91 2.55,2.55 0 0 0 -1.84,0.72 2.92,2.92 0 0 0 -0.78,1.960003 z"
     id="path192"
     style="fill:#ffffff" />
  <path
     class="cls-2"
     d="m 246.01051,44.436449 v -9.330003 h 1.43 v 1.41 a 3.93,3.93 0 0 1 1,-1.31 1.79,1.79 0 0 1 1,-0.32 3.07,3.07 0 0 1 1.62,0.51 l -0.54,1.47 a 2.24,2.24 0 0 0 -1.16,-0.34 1.47,1.47 0 0 0 -0.93,0.31 1.7,1.7 0 0 0 -0.59,0.87 6,6 0 0 0 -0.26,1.840003 v 4.89 z"
     id="path194"
     style="fill:#ffffff" />
  <path
     class="cls-2"
     d="m 257.81051,43.286449 a 5.79,5.79 0 0 1 -1.69,1 4.81,4.81 0 0 1 -1.75,0.31 3.39,3.39 0 0 1 -2.36,-0.75 2.48,2.48 0 0 1 -0.83,-1.92 2.59,2.59 0 0 1 1.13,-2.16 4,4 0 0 1 1.14,-0.52 12.36,12.36 0 0 1 1.41,-0.24 14.63,14.63 0 0 0 2.82,-0.540003 c 0,-0.22 0,-0.36 0,-0.42 a 1.74,1.74 0 0 0 -0.45,-1.36 2.65,2.65 0 0 0 -1.8,-0.54 2.71,2.71 0 0 0 -1.65,0.4 2.36,2.36 0 0 0 -0.79,1.38 l -1.54,-0.21 a 3.91,3.91 0 0 1 0.69,-1.61 3.09,3.09 0 0 1 1.4,-0.94 6.21,6.21 0 0 1 2.12,-0.33 5.55,5.55 0 0 1 1.94,0.29 2.55,2.55 0 0 1 1.1,0.7 2.69,2.69 0 0 1 0.49,1.08 9.25,9.25 0 0 1 0.08,1.46 v 2.110003 a 21.94,21.94 0 0 0 0.1,2.79 3.58,3.58 0 0 0 0.4,1.12 h -1.65 a 3.29,3.29 0 0 1 -0.31,-1.1 z m -0.13,-3.54 a 11.18,11.18 0 0 1 -2.59,0.6 6.13,6.13 0 0 0 -1.38,0.32 1.43,1.43 0 0 0 -0.62,0.51 1.4,1.4 0 0 0 0.26,1.81 2.07,2.07 0 0 0 1.4,0.42 3.26,3.26 0 0 0 1.63,-0.4 2.48,2.48 0 0 0 1,-1.09 3.85,3.85 0 0 0 0.26,-1.59 z"
     id="path196"
     style="fill:#ffffff" />
  <path
     class="cls-2"
     d="m 267.52051,41.016449 1.56,0.2 a 4.06,4.06 0 0 1 -1.31,2.52 3.78,3.78 0 0 1 -2.57,0.91 4,4 0 0 1 -3.09,-1.25 5.12,5.12 0 0 1 -1.16,-3.59 6.59,6.59 0 0 1 0.5,-2.650003 3.48,3.48 0 0 1 1.53,-1.7 4.48,4.48 0 0 1 2.22,-0.57 3.88,3.88 0 0 1 2.49,0.77 3.51,3.51 0 0 1 1.24,2.19 l -1.54,0.23 a 2.49,2.49 0 0 0 -0.78,-1.41 2,2 0 0 0 -1.34,-0.47 2.47,2.47 0 0 0 -1.95,0.85 4.06,4.06 0 0 0 -0.74,2.710003 4.22,4.22 0 0 0 0.72,2.74 2.33,2.33 0 0 0 1.88,0.85 2.2,2.2 0 0 0 1.55,-0.57 2.81,2.81 0 0 0 0.79,-1.76 z m -3.66,4.6 0.46,-1.56 h 1.2 l -0.29,0.94 a 1.87,1.87 0 0 1 1.13,0.46 1.16,1.16 0 0 1 0.38,0.83 1.47,1.47 0 0 1 -0.64,1.17 3,3 0 0 1 -1.9,0.5 6.81,6.81 0 0 1 -1.27,-0.1 l 0.1,-1 h 0.82 a 2.17,2.17 0 0 0 1.16,-0.23 0.52,0.52 0 0 0 0.26,-0.43 0.45,0.45 0 0 0 -0.1,-0.29 0.82,0.82 0 0 0 -0.38,-0.21 3.58,3.58 0 0 0 -0.94,-0.08 z"
     id="path198"
     style="fill:#ffffff" />
  <path
     class="cls-2"
     d="m 276.21051,43.286449 a 5.79,5.79 0 0 1 -1.69,1 4.85,4.85 0 0 1 -1.75,0.31 3.39,3.39 0 0 1 -2.36,-0.75 2.48,2.48 0 0 1 -0.83,-1.92 2.6,2.6 0 0 1 0.31,-1.25 2.49,2.49 0 0 1 0.82,-0.91 4,4 0 0 1 1.14,-0.52 12.52,12.52 0 0 1 1.4,-0.24 14.61,14.61 0 0 0 2.83,-0.540003 v -0.42 a 1.74,1.74 0 0 0 -0.44,-1.36 2.66,2.66 0 0 0 -1.81,-0.54 2.69,2.69 0 0 0 -1.64,0.4 2.36,2.36 0 0 0 -0.79,1.38 l -1.55,-0.21 a 3.91,3.91 0 0 1 0.7,-1.61 3.09,3.09 0 0 1 1.4,-0.94 6.15,6.15 0 0 1 2.11,-0.33 5.57,5.57 0 0 1 1.95,0.29 2.51,2.51 0 0 1 1.09,0.7 2.57,2.57 0 0 1 0.5,1.08 9.25,9.25 0 0 1 0.08,1.46 v 2.110003 a 21.94,21.94 0 0 0 0.1,2.79 3.35,3.35 0 0 0 0.4,1.12 h -1.66 a 3.29,3.29 0 0 1 -0.31,-1.1 z m -5.27,-9.560003 a 2,2 0 0 1 0.5,-1.46 1.67,1.67 0 0 1 1.29,-0.55 3.54,3.54 0 0 1 1.48,0.48 2.07,2.07 0 0 0 0.83,0.26 0.58,0.58 0 0 0 0.43,-0.15 1.15,1.15 0 0 0 0.21,-0.61 h 1.14 a 2.16,2.16 0 0 1 -0.5,1.5 1.64,1.64 0 0 1 -1.22,0.5 3.3,3.3 0 0 1 -1.46,-0.49 2.19,2.19 0 0 0 -0.86,-0.32 0.6,0.6 0 0 0 -0.48,0.21 0.9,0.9 0 0 0 -0.19,0.63 z m 5.14,6.000003 a 11.18,11.18 0 0 1 -2.59,0.6 6.13,6.13 0 0 0 -1.38,0.32 1.37,1.37 0 0 0 -0.62,0.51 1.4,1.4 0 0 0 0.26,1.81 2.05,2.05 0 0 0 1.4,0.42 3.26,3.26 0 0 0 1.63,-0.4 2.48,2.48 0 0 0 1,-1.09 3.85,3.85 0 0 0 0.26,-1.59 z"
     id="path200"
     style="fill:#ffffff" />
  <path
     class="cls-2"
     d="m 279.23051,39.766449 a 4.81,4.81 0 0 1 1.44,-3.840003 4.39,4.39 0 0 1 2.94,-1 4.18,4.18 0 0 1 3.15,1.27 4.81,4.81 0 0 1 1.22,3.480003 6.21,6.21 0 0 1 -0.54,2.84 3.87,3.87 0 0 1 -1.58,1.6 4.56,4.56 0 0 1 -2.25,0.57 4.2,4.2 0 0 1 -3.17,-1.26 5,5 0 0 1 -1.21,-3.66 z m 1.63,0 a 4,4 0 0 0 0.78,2.69 2.52,2.52 0 0 0 2,0.89 2.48,2.48 0 0 0 2,-0.9 4.06,4.06 0 0 0 0.78,-2.73 3.87,3.87 0 0 0 -0.78,-2.620003 2.6,2.6 0 0 0 -3.93,0 4,4 0 0 0 -0.85,2.670003 z"
     id="path202"
     style="fill:#ffffff" />
  <path
     class="cls-2"
     d="m 195.31051,71.536449 v -19.32 h 8.21 a 14,14 0 0 1 4.51,0.52 4.39,4.39 0 0 1 2.24,1.85 5.5,5.5 0 0 1 0.85,3 5.2,5.2 0 0 1 -1.28,3.6 6.13,6.13 0 0 1 -3.83,1.83 9.46,9.46 0 0 1 2.09,1.62 22.86,22.86 0 0 1 2.23,3.14 l 2.36,3.77 h -4.67 l -2.82,-4.2 a 25.75,25.75 0 0 0 -2.06,-2.84 3.1,3.1 0 0 0 -1.17,-0.81 6.64,6.64 0 0 0 -2,-0.22 h -0.79 v 8.07 z m 3.9,-11.15 h 2.89 a 14.82,14.82 0 0 0 3.51,-0.24 2.1,2.1 0 0 0 1.09,-0.82 2.53,2.53 0 0 0 0.4,-1.45 2.34,2.34 0 0 0 -0.52,-1.57 2.43,2.43 0 0 0 -1.48,-0.76 c -0.31,0 -1.26,-0.06 -2.84,-0.06 h -3.05 z"
     id="path204"
     style="fill:#ffffff" />
  <path
     class="cls-2"
     d="m 222.42051,67.086449 3.69,0.62 a 6.13,6.13 0 0 1 -2.25,3.09 6.56,6.56 0 0 1 -3.84,1.06 6.27,6.27 0 0 1 -5.41,-2.39 8,8 0 0 1 -1.38,-4.82 7.69,7.69 0 0 1 1.82,-5.45 6,6 0 0 1 4.6,-2 6.2,6.2 0 0 1 4.93,2.06 q 1.8,2.05 1.73,6.32 h -9.28 a 3.71,3.71 0 0 0 0.89,2.56 2.79,2.79 0 0 0 2.14,0.92 2.28,2.28 0 0 0 1.46,-0.44 2.92,2.92 0 0 0 0.9,-1.53 z m 0.21,-3.75 a 3.56,3.56 0 0 0 -0.83,-2.44 2.68,2.68 0 0 0 -3.93,0 3.41,3.41 0 0 0 -0.78,2.4 z"
     id="path206"
     style="fill:#ffffff" />
  <path
     class="cls-2"
     d="m 228.76051,57.536449 h 3.46 v 2.06 a 5.08,5.08 0 0 1 4.36,-2.37 5.32,5.32 0 0 1 4.14,1.91 7.74,7.74 0 0 1 1.7,5.32 8,8 0 0 1 -1.71,5.46 5.37,5.37 0 0 1 -4.19,1.94 4.69,4.69 0 0 1 -2.1,-0.46 7.16,7.16 0 0 1 -2,-1.58 v 7 h -3.71 z m 3.67,6.77 a 5.4,5.4 0 0 0 0.93,3.48 2.89,2.89 0 0 0 2.28,1.13 2.68,2.68 0 0 0 2.15,-1 5.33,5.33 0 0 0 0.86,-3.39 5.11,5.11 0 0 0 -0.88,-3.27 2.74,2.74 0 0 0 -2.19,-1.07 2.85,2.85 0 0 0 -2.26,1 4.71,4.71 0 0 0 -0.89,3.12 z"
     id="path208"
     style="fill:#ffffff" />
  <path
     class="cls-2"
     d="m 248.45051,71.536449 h -3.71 v -14 h 3.44 v 2 a 6,6 0 0 1 1.59,-1.86 2.92,2.92 0 0 1 1.6,-0.44 4.73,4.73 0 0 1 2.44,0.69 l -1.14,3.23 a 3.31,3.31 0 0 0 -1.74,-0.6 2,2 0 0 0 -1.32,0.43 2.86,2.86 0 0 0 -0.85,1.55 21.69,21.69 0 0 0 -0.31,4.69 z"
     id="path210"
     style="fill:#ffffff" />
  <path
     class="cls-2"
     d="m 263.06051,67.086449 3.69,0.62 a 6.13,6.13 0 0 1 -2.23,3.09 6.56,6.56 0 0 1 -3.84,1.06 6.27,6.27 0 0 1 -5.41,-2.39 8,8 0 0 1 -1.38,-4.82 7.69,7.69 0 0 1 1.82,-5.45 6,6 0 0 1 4.6,-2 6.21,6.21 0 0 1 4.93,2.06 q 1.8,2.05 1.73,6.32 h -9.29 a 3.76,3.76 0 0 0 0.9,2.56 2.77,2.77 0 0 0 2.14,0.92 2.3,2.3 0 0 0 1.46,-0.47 3,3 0 0 0 0.88,-1.5 z m 0.21,-3.75 a 3.61,3.61 0 0 0 -0.83,-2.44 2.68,2.68 0 0 0 -3.93,0 3.41,3.41 0 0 0 -0.78,2.4 z"
     id="path212"
     style="fill:#ffffff" />
  <path
     class="cls-2"
     d="m 268.20051,67.546449 3.72,-0.53 a 2.73,2.73 0 0 0 1,1.64 3.2,3.2 0 0 0 2,0.56 3.66,3.66 0 0 0 2.16,-0.52 1.18,1.18 0 0 0 0.49,-1 1,1 0 0 0 -0.26,-0.7 2.94,2.94 0 0 0 -1.24,-0.49 q -4.49,-1 -5.68,-1.81 a 3.59,3.59 0 0 1 -1.67,-3.15 3.89,3.89 0 0 1 1.44,-3.06 6.77,6.77 0 0 1 4.46,-1.23 7.82,7.82 0 0 1 4.27,0.93 4.81,4.81 0 0 1 1.92,2.77 l -3.49,0.65 a 2.15,2.15 0 0 0 -0.85,-1.26 3.12,3.12 0 0 0 -1.79,-0.43 3.93,3.93 0 0 0 -2.09,0.41 0.87,0.87 0 0 0 -0.42,0.75 0.82,0.82 0 0 0 0.36,0.67 14,14 0 0 0 3.47,1 10.32,10.32 0 0 1 4.13,1.65 3.44,3.44 0 0 1 1.16,2.76 4.25,4.25 0 0 1 -1.61,3.31 7.13,7.13 0 0 1 -4.76,1.38 7.83,7.83 0 0 1 -4.53,-1.16 5.32,5.32 0 0 1 -2.19,-3.14 z"
     id="path214"
     style="fill:#ffffff" />
  <path
     class="cls-2"
     d="m 292.17051,67.086449 3.69,0.62 a 6,6 0 0 1 -2.25,3.09 6.56,6.56 0 0 1 -3.84,1.06 6.27,6.27 0 0 1 -5.4,-2.39 8,8 0 0 1 -1.39,-4.82 7.73,7.73 0 0 1 1.82,-5.45 6,6 0 0 1 4.6,-2 6.18,6.18 0 0 1 4.93,2.06 c 1.21,1.37 1.78,3.48 1.73,6.32 h -9.28 a 3.71,3.71 0 0 0 0.9,2.56 2.77,2.77 0 0 0 2.13,0.92 2.28,2.28 0 0 0 1.46,-0.47 2.92,2.92 0 0 0 0.9,-1.5 z m 0.21,-3.75 a 3.52,3.52 0 0 0 -0.83,-2.44 2.55,2.55 0 0 0 -1.92,-0.84 2.58,2.58 0 0 0 -2,0.88 3.5,3.5 0 0 0 -0.78,2.4 z"
     id="path216"
     style="fill:#ffffff" />
  <path
     class="cls-2"
     d="m 311.36051,71.536449 h -3.71 v -7.14 a 11,11 0 0 0 -0.24,-2.94 2,2 0 0 0 -0.77,-1 2.15,2.15 0 0 0 -1.28,-0.37 3,3 0 0 0 -1.73,0.53 2.64,2.64 0 0 0 -1.05,1.4 12.13,12.13 0 0 0 -0.28,3.22 v 6.34 h -3.71 v -14 h 3.44 v 2.06 a 5.62,5.62 0 0 1 4.62,-2.37 5.46,5.46 0 0 1 2.24,0.44 3.78,3.78 0 0 1 1.54,1.12 4.29,4.29 0 0 1 0.72,1.56 11.26,11.26 0 0 1 0.21,2.49 z"
     id="path218"
     style="fill:#ffffff" />
  <path
     class="cls-2"
     d="m 321.07051,57.536449 v 3 h -2.55 v 5.64 a 13,13 0 0 0 0.08,2 0.74,0.74 0 0 0 0.33,0.47 1,1 0 0 0 0.62,0.19 4.76,4.76 0 0 0 1.49,-0.36 l 0.32,2.88 a 7.54,7.54 0 0 1 -2.93,0.55 4.56,4.56 0 0 1 -1.81,-0.34 2.61,2.61 0 0 1 -1.18,-0.87 3.42,3.42 0 0 1 -0.52,-1.44 18.24,18.24 0 0 1 -0.11,-2.61 v -6.1 h -1.69 v -3 h 1.71 v -2.79 l 3.69,-2.16 v 4.94 z"
     id="path220"
     style="fill:#ffffff" />
  <path
     class="cls-2"
     d="m 325.96051,61.806449 -3.37,-0.6 a 5.25,5.25 0 0 1 1.95,-3 7.18,7.18 0 0 1 4.12,-1 8.9,8.9 0 0 1 3.69,0.58 3.69,3.69 0 0 1 1.71,1.49 7.66,7.66 0 0 1 0.46,3.34 v 4.32 a 14.79,14.79 0 0 0 0.18,2.72 8.17,8.17 0 0 0 0.66,1.88 h -3.66 c -0.1,-0.24 -0.22,-0.61 -0.36,-1.09 -0.06,-0.22 -0.1,-0.37 -0.13,-0.44 a 6.63,6.63 0 0 1 -2,1.39 5.78,5.78 0 0 1 -2.31,0.46 4.76,4.76 0 0 1 -3.4,-1.17 3.92,3.92 0 0 1 -1.25,-3 4,4 0 0 1 0.57,-2.12 3.66,3.66 0 0 1 1.59,-1.42 12.1,12.1 0 0 1 2.94,-0.86 20.84,20.84 0 0 0 3.6,-0.91 v -0.36 a 1.92,1.92 0 0 0 -0.53,-1.53 3.17,3.17 0 0 0 -2,-0.45 2.21,2.21 0 0 0 -2.43,1.75 z m 4.95,3 a 21.91,21.91 0 0 1 -2.25,0.57 6.92,6.92 0 0 0 -2,0.64 1.55,1.55 0 0 0 -0.72,1.31 1.8,1.8 0 0 0 0.58,1.34 2,2 0 0 0 1.47,0.57 3.18,3.18 0 0 0 1.91,-0.66 2.29,2.29 0 0 0 0.89,-1.23 7.64,7.64 0 0 0 0.14,-1.8 z"
     id="path222"
     style="fill:#ffffff" />
  <path
     class="cls-2"
     d="m 349.95051,61.676449 -3.65,0.66 a 2.62,2.62 0 0 0 -0.84,-1.65 2.51,2.51 0 0 0 -1.69,-0.55 2.78,2.78 0 0 0 -2.21,1 4.92,4.92 0 0 0 -0.82,3.2 5.65,5.65 0 0 0 0.83,3.52 2.74,2.74 0 0 0 2.25,1 2.51,2.51 0 0 0 1.73,-0.6 3.64,3.64 0 0 0 1,-2.06 l 3.63,0.62 a 6.4,6.4 0 0 1 -2.17,3.78 6.74,6.74 0 0 1 -4.31,1.28 6.42,6.42 0 0 1 -4.9,-1.94 7.49,7.49 0 0 1 -1.82,-5.36 7.51,7.51 0 0 1 1.83,-5.4 6.49,6.49 0 0 1 4.95,-1.93 6.71,6.71 0 0 1 4.07,1.1 6.07,6.07 0 0 1 2.12,3.33 z m -10,15.18 v -1.56 a 23,23 0 0 0 2.49,0.15 2.93,2.93 0 0 0 1.74,-0.43 1,1 0 0 0 0.44,-0.81 1,1 0 0 0 -0.41,-0.78 2,2 0 0 0 -1.27,-0.33 6.19,6.19 0 0 0 -1.72,0.26 l 0.34,-1.3 a 6.61,6.61 0 0 1 2.21,-0.36 3.76,3.76 0 0 1 2.51,0.73 2.23,2.23 0 0 1 0.86,1.76 2.28,2.28 0 0 1 -0.95,1.89 5.92,5.92 0 0 1 -3.67,1 11.77,11.77 0 0 1 -2.55,-0.22 z"
     id="path224"
     style="fill:#ffffff" />
  <path
     class="cls-2"
     d="m 355.07051,61.806449 -3.36,-0.6 a 5.15,5.15 0 0 1 1.95,-3 7.13,7.13 0 0 1 4.11,-1 8.9,8.9 0 0 1 3.69,0.58 3.69,3.69 0 0 1 1.71,1.49 7.66,7.66 0 0 1 0.49,3.32 v 4.32 a 14.79,14.79 0 0 0 0.18,2.72 7.78,7.78 0 0 0 0.67,1.88 h -3.67 c -0.09,-0.24 -0.21,-0.61 -0.35,-1.09 -0.07,-0.22 -0.11,-0.37 -0.14,-0.44 a 6.71,6.71 0 0 1 -2,1.39 5.84,5.84 0 0 1 -2.31,0.46 4.79,4.79 0 0 1 -3.41,-1.17 3.92,3.92 0 0 1 -1.25,-3 4,4 0 0 1 0.57,-2.12 3.72,3.72 0 0 1 1.57,-1.37 12.06,12.06 0 0 1 3,-0.86 20.84,20.84 0 0 0 3.6,-0.91 v -0.39 a 2,2 0 0 0 -0.53,-1.53 3.19,3.19 0 0 0 -2,-0.45 2.67,2.67 0 0 0 -1.55,0.39 2.76,2.76 0 0 0 -0.97,1.38 z m 0,-6.15 h -1.69 c 0,-0.21 0,-0.36 0,-0.48 a 3.07,3.07 0 0 1 0.67,-2.13 2.25,2.25 0 0 1 1.73,-0.74 3.38,3.38 0 0 1 0.86,0.1 10.2,10.2 0 0 1 1.44,0.56 4.28,4.28 0 0 0 1.64,0.47 1,1 0 0 0 0.71,-0.26 1.42,1.42 0 0 0 0.36,-0.89 h 1.71 a 4,4 0 0 1 -0.66,2.55 2.12,2.12 0 0 1 -1.68,0.76 4.41,4.41 0 0 1 -0.89,-0.09 c -0.2,-0.05 -0.7,-0.23 -1.51,-0.54 a 5.67,5.67 0 0 0 -1.77,-0.46 0.87,0.87 0 0 0 -0.66,0.26 1.33,1.33 0 0 0 -0.29,0.89 z m 5,9.16 a 23,23 0 0 1 -2.26,0.57 6.92,6.92 0 0 0 -2,0.64 1.55,1.55 0 0 0 -0.72,1.31 1.8,1.8 0 0 0 0.58,1.34 2,2 0 0 0 1.47,0.57 3.23,3.23 0 0 0 1.92,-0.66 2.27,2.27 0 0 0 0.88,-1.23 7,7 0 0 0 0.15,-1.8 z"
     id="path226"
     style="fill:#ffffff" />
  <path
     class="cls-2"
     d="m 366.00051,64.336449 a 7.52,7.52 0 0 1 0.91,-3.57 6.18,6.18 0 0 1 2.61,-2.63 7.59,7.59 0 0 1 3.72,-0.91 7,7 0 0 1 5.21,2.06 7.12,7.12 0 0 1 2,5.21 7.24,7.24 0 0 1 -2.05,5.27 7,7 0 0 1 -5.16,2.09 8.09,8.09 0 0 1 -3.67,-0.87 6,6 0 0 1 -2.66,-2.55 8.48,8.48 0 0 1 -0.91,-4.1 z m 3.8,0.2 a 4.59,4.59 0 0 0 1,3.19 3.23,3.23 0 0 0 4.87,0 4.72,4.72 0 0 0 1,-3.21 4.64,4.64 0 0 0 -1,-3.17 3.23,3.23 0 0 0 -4.87,0 4.59,4.59 0 0 0 -1,3.19 z"
     id="path228"
     style="fill:#ffffff" />
  <path
     class="cls-2"
     d="m 208.01051,100.53645 h -3.71 v -7.140001 a 11,11 0 0 0 -0.24,-2.94 2,2 0 0 0 -0.77,-1 2.15,2.15 0 0 0 -1.28,-0.37 3,3 0 0 0 -1.73,0.53 2.64,2.64 0 0 0 -1.05,1.4 12.13,12.13 0 0 0 -0.28,3.22 v 6.340001 h -3.71 V 86.576449 h 3.44 v 2.06 a 5.62,5.62 0 0 1 4.62,-2.37 5.46,5.46 0 0 1 2.24,0.44 3.78,3.78 0 0 1 1.54,1.12 4.29,4.29 0 0 1 0.72,1.56 11.26,11.26 0 0 1 0.21,2.49 z"
     id="path230"
     style="fill:#ffffff" />
  <path
     class="cls-2"
     d="m 210.45051,93.336449 a 7.52,7.52 0 0 1 0.91,-3.57 6.16,6.16 0 0 1 2.57,-2.63 7.66,7.66 0 0 1 3.73,-0.91 7,7 0 0 1 5.21,2.06 7.12,7.12 0 0 1 2,5.21 7.24,7.24 0 0 1 -2.05,5.27 7,7 0 0 1 -5.17,2.090001 8.15,8.15 0 0 1 -3.67,-0.870001 5.94,5.94 0 0 1 -2.65,-2.55 8.48,8.48 0 0 1 -0.88,-4.1 z m 3.79,0.2 a 4.63,4.63 0 0 0 1,3.19 3.14,3.14 0 0 0 2.44,1.11 3.1,3.1 0 0 0 2.43,-1.11 4.67,4.67 0 0 0 1,-3.21 4.6,4.6 0 0 0 -1,-3.17 3.1,3.1 0 0 0 -2.43,-1.11 3.14,3.14 0 0 0 -2.44,1.11 4.63,4.63 0 0 0 -1,3.19 z"
     id="path232"
     style="fill:#ffffff" />
  <path
     class="cls-2"
     d="m 234.42051,81.216449 h 7.72 a 22.22,22.22 0 0 1 3.43,0.19 4.93,4.93 0 0 1 2,0.79 5.06,5.06 0 0 1 1.49,1.62 4.62,4.62 0 0 1 -0.14,4.75 4.52,4.52 0 0 1 -2,1.7 5.11,5.11 0 0 1 2.74,1.75 4.64,4.64 0 0 1 0.95,2.91 5.84,5.84 0 0 1 -0.61,2.56 5.23,5.23 0 0 1 -1.68,2 5.56,5.56 0 0 1 -2.62,0.910001 c -0.65,0.07 -2.21,0.12 -4.7,0.13 h -6.58 z m 3.9,3.21 v 4.47 h 2.56 c 1.52,0 2.46,0 2.83,-0.06 a 2.55,2.55 0 0 0 1.58,-0.7 2,2 0 0 0 0.57,-1.51 2.11,2.11 0 0 0 -0.49,-1.45 2.22,2.22 0 0 0 -1.47,-0.68 c -0.39,0 -1.5,-0.07 -3.34,-0.07 z m 0,7.69 v 5.17 h 3.61 a 17.5,17.5 0 0 0 2.68,-0.12 2.46,2.46 0 0 0 1.42,-0.77 2.4,2.4 0 0 0 0.54,-1.64 2.53,2.53 0 0 0 -0.42,-1.48 2.33,2.33 0 0 0 -1.22,-0.88 12.92,12.92 0 0 0 -3.41,-0.28 z"
     id="path234"
     style="fill:#ffffff" />
  <path
     class="cls-2"
     d="m 256.97051,100.53645 h -3.71 V 86.536449 h 3.44 v 2 a 6,6 0 0 1 1.59,-1.86 2.89,2.89 0 0 1 1.6,-0.44 4.73,4.73 0 0 1 2.44,0.69 l -1.15,3.23 a 3.25,3.25 0 0 0 -1.74,-0.6 2,2 0 0 0 -1.31,0.43 2.86,2.86 0 0 0 -0.85,1.55 21.69,21.69 0 0 0 -0.31,4.69 z"
     id="path236"
     style="fill:#ffffff" />
  <path
     class="cls-2"
     d="m 266.24051,90.806449 -3.37,-0.6 a 5.21,5.21 0 0 1 2,-3 7.13,7.13 0 0 1 4.11,-1 8.9,8.9 0 0 1 3.69,0.58 3.69,3.69 0 0 1 1.71,1.49 7.66,7.66 0 0 1 0.49,3.32 v 4.32 a 14.79,14.79 0 0 0 0.18,2.72 7.78,7.78 0 0 0 0.67,1.880001 h -3.67 c -0.1,-0.24 -0.21,-0.610001 -0.35,-1.090001 -0.07,-0.22 -0.11,-0.37 -0.14,-0.44 a 6.63,6.63 0 0 1 -2,1.390001 5.76,5.76 0 0 1 -2.3,0.46 4.77,4.77 0 0 1 -3.41,-1.170001 3.92,3.92 0 0 1 -1.25,-3 4,4 0 0 1 0.57,-2.12 3.72,3.72 0 0 1 1.59,-1.42 12.1,12.1 0 0 1 2.94,-0.86 20.33,20.33 0 0 0 3.6,-0.91 v -0.34 a 2,2 0 0 0 -0.52,-1.53 3.21,3.21 0 0 0 -2,-0.45 2.67,2.67 0 0 0 -1.55,0.39 2.63,2.63 0 0 0 -0.99,1.38 z m 4.95,3 a 21.91,21.91 0 0 1 -2.25,0.57 6.92,6.92 0 0 0 -2,0.64 1.55,1.55 0 0 0 -0.72,1.31 1.8,1.8 0 0 0 0.58,1.34 2,2 0 0 0 1.47,0.57 3.23,3.23 0 0 0 1.92,-0.66 2.32,2.32 0 0 0 0.88,-1.23 7.64,7.64 0 0 0 0.14,-1.8 z"
     id="path238"
     style="fill:#ffffff" />
  <path
     class="cls-2"
     d="m 276.72051,96.546449 3.72,-0.57 a 2.73,2.73 0 0 0 1,1.64 3.2,3.2 0 0 0 2,0.56 3.66,3.66 0 0 0 2.16,-0.52 1.18,1.18 0 0 0 0.49,-1 1,1 0 0 0 -0.26,-0.7 2.94,2.94 0 0 0 -1.24,-0.49 q -4.49,-1 -5.69,-1.81 a 3.61,3.61 0 0 1 -1.66,-3.15 3.89,3.89 0 0 1 1.44,-3.06 6.75,6.75 0 0 1 4.46,-1.23 7.82,7.82 0 0 1 4.27,0.93 4.81,4.81 0 0 1 1.92,2.77 l -3.49,0.65 a 2.15,2.15 0 0 0 -0.85,-1.26 3.12,3.12 0 0 0 -1.79,-0.43 3.93,3.93 0 0 0 -2.09,0.41 0.88,0.88 0 0 0 -0.43,0.75 0.83,0.83 0 0 0 0.37,0.67 14,14 0 0 0 3.46,1 10.31,10.31 0 0 1 4.14,1.65 3.44,3.44 0 0 1 1.16,2.76 4.25,4.25 0 0 1 -1.61,3.31 7.13,7.13 0 0 1 -4.76,1.380001 7.83,7.83 0 0 1 -4.53,-1.160001 5.32,5.32 0 0 1 -2.19,-3.1 z"
     id="path240"
     style="fill:#ffffff" />
  <path
     class="cls-2"
     d="m 292.58051,84.636449 v -3.42 h 3.71 v 3.42 z m 0,15.900001 V 86.536449 h 3.71 v 14.000001 z"
     id="path242"
     style="fill:#ffffff" />
  <path
     class="cls-2"
     d="M 299.62051,100.53645 V 81.216449 h 3.71 v 19.320001 z"
     id="path244"
     style="fill:#ffffff" />
</svg>
