<svg xmlns="http://www.w3.org/2000/svg" viewBox="0 0 371.711 217.71" id="svg246">
  <defs id="defs4">
    <style id="style2">
      .cls-1,.cls-2{fill:#fff}.cls-1{fill-rule:evenodd}
    </style>
  </defs>
  <path class="cls-1" d="M173.739 5.25a8.027 8.027 0 0 1 .795 1.26 1.893 1.893 0 0 1-.578 2.271 1.496 1.496 0 0 1-2.13 0 1.893 1.893 0 0 1-.615-2.243 8.7 8.7 0 0 1 .738-1.288z" id="path8" fill="#fff" fill-rule="evenodd" stroke-width=".947"/>
  <path class="cls-1" d="M174.695 14.31a1.78 1.78 0 0 1-1.761 1.798 1.76 1.76 0 0 1-1.836-1.94 1.789 1.789 0 0 1 1.741-2.055c1.051-.028 1.751.71 1.856 2.196z" id="path10" fill="#fff" fill-rule="evenodd" stroke-width=".947"/>
  <path class="cls-1" d="M172.906 91.456a1.827 1.827 0 0 1-1.808-2.045 1.723 1.723 0 0 1 1.893-1.893 1.751 1.751 0 0 1 1.685 1.978 1.77 1.77 0 0 1-1.77 1.96z" id="path12" fill="#fff" fill-rule="evenodd" stroke-width=".947"/>
  <path class="cls-1" d="M174.714 109.299c-.114 1.126-.635 2.016-1.733 2.054a2.007 2.007 0 0 1-.19-3.985c1.118-.057 1.724.7 1.923 1.931z" id="path14" fill="#fff" fill-rule="evenodd" stroke-width=".947"/>
  <path class="cls-1" d="M174.695 164.76c-.086 1.268-.72 2.054-1.799 2.054a2.007 2.007 0 0 1 0-3.986c1.08-.01 1.676.767 1.799 1.931z" id="path16" fill="#fff" fill-rule="evenodd" stroke-width=".947"/>
  <path class="cls-1" d="M172.868 35.286a1.751 1.751 0 0 1 1.798 2.044 1.799 1.799 0 1 1-3.568-.18c.047-1.211.719-1.883 1.77-1.864z" id="path18" fill="#fff" fill-rule="evenodd" stroke-width=".947"/>
  <path class="cls-1" d="M172.972 97.183a1.799 1.799 0 0 1 1.685 2.044c0 1.193-.672 1.97-1.827 1.894a1.751 1.751 0 0 1-1.732-2.026 1.789 1.789 0 0 1 1.874-1.912z" id="path20" fill="#fff" fill-rule="evenodd" stroke-width=".947"/>
  <path class="cls-1" d="M172.801 23.567a1.713 1.713 0 0 1-1.685-2.026c0-1.23.758-1.95 1.837-1.893a1.789 1.789 0 0 1 1.713 2.064c-.057 1.164-.681 1.912-1.865 1.855z" id="path22" fill="#fff" fill-rule="evenodd" stroke-width=".947"/>
  <path class="cls-1" d="M172.726 31.092c-1.023 0-1.638-.776-1.628-1.978.01-1.202.672-1.997 1.789-1.97a1.799 1.799 0 0 1 1.78 2.017 1.751 1.751 0 0 1-1.941 1.931z" id="path24" fill="#fff" fill-rule="evenodd" stroke-width=".947"/>
  <path class="cls-1" d="M172.66 81.924c-.947-.076-1.59-.805-1.562-2.016a1.799 1.799 0 1 1 3.568.132 1.77 1.77 0 0 1-2.007 1.884z" id="path26" fill="#fff" fill-rule="evenodd" stroke-width=".947"/>
  <path class="cls-1" d="M174.704 120.668c-.114 1.344-.596 2.186-1.751 2.215a1.723 1.723 0 0 1-1.893-1.894c0-1.192.53-1.978 1.694-2.035 1.164-.057 1.713.748 1.95 1.714z" id="path28" fill="#fff" fill-rule="evenodd" stroke-width=".947"/>
  <path class="cls-1" d="M174.676 45.348c-.133 1.23-.72 1.978-1.846 1.95-1.127-.029-1.742-.824-1.714-2.035a1.742 1.742 0 0 1 1.818-1.894c1.117-.019 1.638.814 1.742 1.979z" id="path30" fill="#fff" fill-rule="evenodd" stroke-width=".947"/>
  <path class="cls-1" d="M172.896 55.637a2.007 2.007 0 0 1-.076-4.004c1.108-.047 1.799.691 1.827 1.893a1.817 1.817 0 0 1-1.75 2.111z" id="path32" fill="#fff" fill-rule="evenodd" stroke-width=".947"/>
  <path class="cls-1" d="M172.906 63.939a1.997 1.997 0 0 1-.057-3.976c1.126 0 1.78.757 1.798 1.96a1.78 1.78 0 0 1-1.741 2.016z" id="path34" fill="#fff" fill-rule="evenodd" stroke-width=".947"/>
  <path class="cls-1" d="M172.745 185.253a1.751 1.751 0 0 1-1.638-2.082 1.704 1.704 0 0 1 1.893-1.894 1.978 1.978 0 0 1-.236 3.938z" id="path36" fill="#fff" fill-rule="evenodd" stroke-width=".947"/>
  <path class="cls-1" d="M174.704 133.588c-.17 1.316-.805 2.073-1.893 2.026a1.78 1.78 0 0 1-1.704-2.073c.066-1.193.71-1.893 1.893-1.893s1.553.909 1.704 1.94z" id="path38" fill="#fff" fill-rule="evenodd" stroke-width=".947"/>
  <path class="cls-1" d="M172.764 202.14a1.988 1.988 0 0 1 .132 3.966 1.723 1.723 0 0 1-1.789-1.96 1.77 1.77 0 0 1 1.657-2.006z" id="path40" fill="#fff" fill-rule="evenodd" stroke-width=".947"/>
  <path class="cls-1" d="M172.584 146.69a1.978 1.978 0 0 1 .369 3.937 1.723 1.723 0 0 1-1.893-1.893c.01-1.212.596-1.96 1.524-2.045z" id="path42" fill="#fff" fill-rule="evenodd" stroke-width=".947"/>
  <path class="cls-1" d="M174.685 70.877c-.085 1.23-.606 2.035-1.742 2.073a1.704 1.704 0 0 1-1.827-1.893 1.751 1.751 0 0 1 1.704-2.045c1.146-.047 1.695.73 1.865 1.865z" id="path44" fill="#fff" fill-rule="evenodd" stroke-width=".947"/>
  <path class="cls-1" d="M91.092 120.838H30.577c-.7 0-1.808.464-2.035-.445a12.968 12.968 0 0 1 0-3.53c0-.105.379-.247.587-.275h122.63c.653 0 1.742-.398 1.893.34a10.81 10.81 0 0 1 0 3.702c-.066.416-.852.217-1.306.217H91.092z" id="path46" fill="#fff" fill-rule="evenodd" stroke-width=".947"/>
  <path class="cls-1" d="M142.54 44.865L122.83 38.92q-15.448-4.666-30.896-9.352a4.231 4.231 0 0 0-2.585.114Q64.93 37.179 40.497 44.609c-.16.057-.331.086-.776.19v-4.042c0-1.05.947-.947 1.552-1.117q19.879-6.162 39.852-12.306c2.84-.88 5.764-1.713 8.633-2.65a4.288 4.288 0 0 1 2.754 0c15.884 4.941 31.758 9.91 47.67 14.643 1.893.568 2.67 1.335 2.367 3.257a16.092 16.092 0 0 0-.01 2.281z" id="path48" fill="#fff" fill-rule="evenodd" stroke-width=".947"/>
  <path class="cls-1" d="M90.893 113.53c-18.458 0-36.916 0-55.356.057-2.082 0-1.751-1.041-1.76-2.262-.01-1.221-.2-2.13 1.722-2.12q55.451.113 110.893 0c1.59 0 1.817.51 1.76 1.893-.113 2.423 0 2.423-2.442 2.423z" id="path50" fill="#fff" fill-rule="evenodd" stroke-width=".947"/>
  <path class="cls-1" d="M91.073 106.109H41.406c-1.42 0-1.78-.388-1.713-1.76.104-2.547 0-2.547 2.518-2.547h98.444c.616 0 1.638-.483 1.808.483a9.523 9.523 0 0 1-.094 3.512c-.123.549-1.07.246-1.628.246z" id="path52" fill="#fff" fill-rule="evenodd" stroke-width=".947"/>
  <path class="cls-1" d="M91.064 47.638h49.686c1.496 0 1.988.38 1.808 1.894-.142 1.202.445 2.46-1.808 2.451q-49.582-.123-99.174 0c-1.42 0-1.978-.246-1.893-1.798.133-2.442 0-2.442 2.423-2.442z" id="path54" fill="#fff" fill-rule="evenodd" stroke-width=".947"/>
  <path class="cls-1" d="M132.856 44.619c-7.573.946-14.824-.284-21.961-2.84-6.077-2.14-12.306-3.786-18.468-5.68a4.42 4.42 0 0 0-2.755 0c-9.002 2.717-17.985 5.377-27.015 8.103a13.385 13.385 0 0 1-4.184.625c-3.256-.047-6.513 0-9.826-.284 4.25-1.306 8.52-2.631 12.76-3.928q14.2-4.345 28.502-8.69a3.569 3.569 0 0 1 2.224-.047q19.822 6.172 39.653 12.305a10.545 10.545 0 0 1 1.07.436z" id="path56" fill="#fff" fill-rule="evenodd" stroke-width=".947"/>
  <path class="cls-1" d="M52.888 76.046V95.62c0 2.707-1.041 3.919-3.408 3.957-2.366.037-3.71-1.212-3.71-3.872v-39.68c0-1.222.265-1.686 1.552-1.6.947.056 1.24.302 1.212 1.23v40.079c0 .567-.18 1.344.681 1.381.862.038.947-.69.947-1.382V56.196c0-.947-.246-1.799 1.335-1.799 1.58 0 1.467.852 1.467 1.893-.076 6.579-.076 13.167-.076 19.756z" id="path58" fill="#fff" fill-rule="evenodd" stroke-width=".947"/>
  <path class="cls-1" d="M67.503 75.941V56.006c0-1.013 0-1.732 1.382-1.571.71.085.947.331.89.947V97.76c0 .653.606 1.695-.946 1.827-1.553.133-1.468-.786-1.562-1.732-.653-6.711-1.307-13.432-1.988-20.409a4.042 4.042 0 0 0-.388 2.414v18.165c0 .89.057 1.581-1.24 1.572-1.297-.01-1.08-.758-1.08-1.506v-42.17c0-.738-.217-1.505 1.07-1.505 1.288 0 1.316.596 1.42 1.515.72 6.626 1.467 13.3 2.206 19.954z" id="path60" fill="#fff" fill-rule="evenodd" stroke-width=".947"/>
  <path class="cls-1" d="M99.668 89.582c.72-4.8-1.136-9.987-2.773-15.146-1.751-5.566-1.363-11.245-1.325-16.915 0-1.97 1.656-3.114 3.852-3.03a2.925 2.925 0 0 1 3.086 3.153c.047 3.086 0 6.172.047 9.248 0 1.287-.719 1.06-1.476 1.08-.758.018-1.467.084-1.43-1.137.086-2.726 0-5.452 0-8.188 0-.624.322-1.685-.71-1.656-1.031.028-.52 1.013-.577 1.6-.672 7.572.9 14.804 3.18 21.97 1.704 5.31.871 10.82.947 16.253 0 1.817-1.609 2.84-3.654 2.84-2.044 0-3.228-1.108-3.275-3.02-.076-3.56 0-7.119 0-10.678 0-1.23.843-.861 1.467-.946.625-.086 1.43-.18 1.401.946-.047 2.906 0 5.812 0 8.728v1.42c0 .473.142.946.653.946.512 0 .616-.483.616-.946z" id="path62" fill="#fff" fill-rule="evenodd" stroke-width=".947"/>
  <path class="cls-1" d="M112.38 76.916V58.221c0-2.423 1.184-3.682 3.333-3.786a3.341 3.341 0 0 1 3.786 3.37c.085 3.029 0 6.058.048 9.087 0 1.344-.843.947-1.543 1.013-.7.066-1.335.095-1.297-1.05.094-2.84 0-5.68 0-8.52 0-.672 0-1.448-.88-1.458-.88-.01-.9.776-.9 1.439v37.21c0 .767.104 1.581 1.032 1.524.928-.057.757-.899.757-1.552V86.42c0-1.126.246-1.486 1.44-1.505 1.192-.019 1.41.549 1.39 1.59v9.258c0 2.518-1.315 3.834-3.663 3.786-2.347-.047-3.436-1.24-3.445-3.786-.067-6.267-.057-12.552-.057-18.847z" id="path64" fill="#fff" fill-rule="evenodd" stroke-width=".947"/>
  <path class="cls-1" d="M79.733 76.897c0-6.824.066-13.65-.047-20.474 0-1.714.52-2.168 2.082-1.979a14.568 14.568 0 0 0 2.49 0c.946 0 1.543 0 1.514 1.25-.028 1.25-.615 1.24-1.438 1.126-1.136-.16-1.505.228-1.487 1.42.076 4.866.067 9.731 0 14.597 0 1.173.322 1.637 1.487 1.448.994-.161 1.438.095 1.448 1.287.01 1.193-.511 1.41-1.467 1.26-1.165-.19-1.477.264-1.468 1.429.067 5.755.076 11.52 0 17.265 0 1.344.322 1.818 1.657 1.628a3.786 3.786 0 0 1 1.893.076c.653.275.237 1.06.294 1.619.056.558-.417.729-.947.72-1.543 0-3.095-.077-4.629 0-1.23.084-1.458-.408-1.458-1.525.095-7.024.076-14.085.076-21.147z" id="path66" fill="#fff" fill-rule="evenodd" stroke-width=".947"/>
  <path class="cls-2" d="M136.595 58.013c0-2.338-1.174-3.502-3.474-3.55-2.622-.056-3.938 1.288-3.938 4.1v36.992c0 2.669 1.23 4.013 3.625 4.023 2.395.01 3.787-1.345 3.787-4.042V77.039c.01-6.342.018-12.684 0-19.026zM132.95 97.07c-1.107 0-.946-.946-.946-1.732V58.534c0-.625-.17-1.458.7-1.619 1.316-.227 1.193.795 1.193 1.628v36.822c-.038.758.265 1.704-.947 1.704z" id="path68" fill="#fff" stroke-width=".947"/>
  <path class="cls-2" d="M62.23 147.939a6.626 6.626 0 0 1 1.629-4.733 5.566 5.566 0 0 1 4.174-1.742 5.85 5.85 0 0 1 3.048.814 5.263 5.263 0 0 1 2.064 2.243 7.336 7.336 0 0 1 .71 3.276 7.156 7.156 0 0 1-.748 3.322 5.055 5.055 0 0 1-2.12 2.215 6.077 6.077 0 0 1-2.963.757 5.831 5.831 0 0 1-3.076-.833 5.414 5.414 0 0 1-2.055-2.271 6.948 6.948 0 0 1-.662-3.048zm1.667 0a4.922 4.922 0 0 0 1.183 3.474 3.91 3.91 0 0 0 2.972 1.268 3.872 3.872 0 0 0 3.001-1.287 5.168 5.168 0 0 0 1.183-3.635 6.124 6.124 0 0 0-.51-2.594 3.786 3.786 0 0 0-1.468-1.723 3.995 3.995 0 0 0-2.177-.615 4.165 4.165 0 0 0-2.954 1.174c-.823.814-1.23 2.13-1.23 3.966z" id="path70" fill="#fff" stroke-width=".947"/>
  <path class="cls-2" d="M75.483 153.864v-8.84h1.344v1.343a3.606 3.606 0 0 1 .947-1.24 1.638 1.638 0 0 1 .946-.303 2.934 2.934 0 0 1 1.543.483l-.52 1.392a2.12 2.12 0 0 0-1.098-.322 1.43 1.43 0 0 0-.88.293 1.58 1.58 0 0 0-.56.814 6.068 6.068 0 0 0-.245 1.751v4.63z" id="path72" fill="#fff" stroke-width=".947"/>
  <path class="cls-2" d="M80.604 154.612l1.458.218a1.373 1.373 0 0 0 .51.946 2.48 2.48 0 0 0 1.515.407 2.698 2.698 0 0 0 1.61-.407 2.073 2.073 0 0 0 .766-1.173 9.466 9.466 0 0 0 .105-1.894 3.067 3.067 0 0 1-2.443 1.155 3.35 3.35 0 0 1-2.84-1.316 5.102 5.102 0 0 1-.946-3.133 5.926 5.926 0 0 1 .464-2.338 3.663 3.663 0 0 1 1.325-1.647 3.578 3.578 0 0 1 2.045-.587 3.162 3.162 0 0 1 2.574 1.269v-1.07h1.382v7.639a7.383 7.383 0 0 1-.416 2.925 3.095 3.095 0 0 1-1.335 1.363 4.629 4.629 0 0 1-2.243.492 4.25 4.25 0 0 1-2.556-.71 2.414 2.414 0 0 1-.975-2.139zm1.24-5.31a3.786 3.786 0 0 0 .691 2.537 2.187 2.187 0 0 0 1.732.804 2.234 2.234 0 0 0 1.733-.795 3.786 3.786 0 0 0 .69-2.499 3.597 3.597 0 0 0-.719-2.442 2.206 2.206 0 0 0-1.732-.824 2.168 2.168 0 0 0-1.694.814 3.606 3.606 0 0 0-.7 2.405z" id="path74" fill="#fff" stroke-width=".947"/>
  <path class="cls-2" d="M95.835 152.785a5.68 5.68 0 0 1-1.61 1.004 4.733 4.733 0 0 1-1.647.293 3.2 3.2 0 0 1-2.234-.71 2.366 2.366 0 0 1-.785-1.817 2.452 2.452 0 0 1 1.07-2.055 3.786 3.786 0 0 1 1.078-.492 10.299 10.299 0 0 1 1.326-.217 14.133 14.133 0 0 0 2.67-.521v-.388a1.666 1.666 0 0 0-.417-1.288 2.518 2.518 0 0 0-1.714-.51 2.622 2.622 0 0 0-1.552.368 2.224 2.224 0 0 0-.748 1.316l-1.467-.199a3.53 3.53 0 0 1 .662-1.524 2.84 2.84 0 0 1 1.316-.89 5.916 5.916 0 0 1 2.007-.312 5.197 5.197 0 0 1 1.836.265 2.452 2.452 0 0 1 1.042.672 2.329 2.329 0 0 1 .473 1.023 9.03 9.03 0 0 1 .066 1.382v1.988a20.143 20.143 0 0 0 .104 2.65 3.171 3.171 0 0 0 .379 1.06h-1.571a3.171 3.171 0 0 1-.284-1.098zm-.133-3.341a10.412 10.412 0 0 1-2.442.568 5.32 5.32 0 0 0-1.306.303 1.193 1.193 0 0 0-.587.482 1.268 1.268 0 0 0-.209.71 1.297 1.297 0 0 0 .455 1.004 1.94 1.94 0 0 0 1.325.397 3.124 3.124 0 0 0 1.534-.378 2.29 2.29 0 0 0 .946-1.042 3.588 3.588 0 0 0 .237-1.495z" id="path76" fill="#fff" stroke-width=".947"/>
  <path class="cls-2" d="M99.27 153.864v-8.84h1.345v1.268a3.18 3.18 0 0 1 2.84-1.458 3.786 3.786 0 0 1 1.476.284 2.404 2.404 0 0 1 1.004.757 3.076 3.076 0 0 1 .463 1.108 8.32 8.32 0 0 1 .086 1.457v5.424h-1.534v-5.376a4.137 4.137 0 0 0-.17-1.373 1.391 1.391 0 0 0-.625-.72 1.96 1.96 0 0 0-1.041-.274 2.461 2.461 0 0 0-1.647.606 3 3 0 0 0-.7 2.31v4.827z" id="path78" fill="#fff" stroke-width=".947"/>
  <path class="cls-2" d="M108.443 143.452v-1.723h1.505v1.723zm0 10.478v-8.84h1.505v8.774z" id="path80" fill="#fff" stroke-width=".947"/>
  <path class="cls-2" d="M111.14 153.864v-1.22l5.624-6.457c-.635 0-1.193.057-1.685.057h-3.597v-1.22h7.213v.946l-4.78 5.604-.947 1.022c.672 0 1.306-.076 1.893-.076h4.09v1.344z" id="path82" fill="#fff" stroke-width=".947"/>
  <path class="cls-2" d="M125.927 152.785a5.604 5.604 0 0 1-1.6 1.004 4.733 4.733 0 0 1-1.647.293 3.218 3.218 0 0 1-2.244-.71 2.357 2.357 0 0 1-.776-1.817 2.452 2.452 0 0 1 1.07-2.055 3.569 3.569 0 0 1 1.07-.492 10.214 10.214 0 0 1 1.334-.217 14.133 14.133 0 0 0 2.67-.521v-.388a1.628 1.628 0 0 0-.426-1.288 2.48 2.48 0 0 0-1.704-.51 2.679 2.679 0 0 0-1.562.368 2.272 2.272 0 0 0-.739 1.316l-1.467-.199a3.644 3.644 0 0 1 .653-1.524 2.906 2.906 0 0 1 1.326-.89 5.916 5.916 0 0 1 2.006-.312 5.235 5.235 0 0 1 1.837.265 2.452 2.452 0 0 1 1.041.672 2.32 2.32 0 0 1 .464 1.023 8.67 8.67 0 0 1 .076 1.382v1.988a20.825 20.825 0 0 0 .094 2.65 3.389 3.389 0 0 0 .379 1.06h-1.562a3.389 3.389 0 0 1-.294-1.098zm-.124-3.341a10.412 10.412 0 0 1-2.442.568 5.32 5.32 0 0 0-1.306.303 1.259 1.259 0 0 0-.596.482 1.354 1.354 0 0 0-.209.71 1.297 1.297 0 0 0 .455 1.004 1.96 1.96 0 0 0 1.325.397 3.152 3.152 0 0 0 1.543-.378 2.348 2.348 0 0 0 .994-1.042 3.588 3.588 0 0 0 .236-1.495z" id="path84" fill="#fff" stroke-width=".947"/>
  <path class="cls-2" d="M135.118 150.646l1.467.19a3.834 3.834 0 0 1-1.23 2.385 3.625 3.625 0 0 1-2.443.861 3.786 3.786 0 0 1-2.915-1.183 4.828 4.828 0 0 1-1.108-3.408 6.19 6.19 0 0 1 .474-2.499 3.341 3.341 0 0 1 1.448-1.61 4.25 4.25 0 0 1 2.11-.539 3.663 3.663 0 0 1 2.348.73 3.304 3.304 0 0 1 1.174 2.063l-1.448.227a2.404 2.404 0 0 0-.739-1.335 1.893 1.893 0 0 0-1.277-.454 2.31 2.31 0 0 0-1.837.814 3.786 3.786 0 0 0-.71 2.565 3.966 3.966 0 0 0 .682 2.584 2.224 2.224 0 0 0 1.78.814 2.082 2.082 0 0 0 1.476-.549 2.688 2.688 0 0 0 .748-1.656zm-3.474 4.345l.435-1.468h1.117l-.274.89a1.742 1.742 0 0 1 1.06.436 1.098 1.098 0 0 1 .36.785 1.4 1.4 0 0 1-.597 1.108 2.906 2.906 0 0 1-1.808.473 6.522 6.522 0 0 1-1.202-.094l.095-.947h.785a1.988 1.988 0 0 0 1.098-.218.473.473 0 0 0 .237-.407.398.398 0 0 0-.094-.265.795.795 0 0 0-.35-.199 3.37 3.37 0 0 0-.862-.094z" id="path86" fill="#fff" stroke-width=".947"/>
  <path class="cls-2" d="M143.344 152.785a5.604 5.604 0 0 1-1.6 1.004 4.733 4.733 0 0 1-1.647.293 3.218 3.218 0 0 1-2.244-.71 2.357 2.357 0 0 1-.776-1.817 2.423 2.423 0 0 1 .294-1.193 2.508 2.508 0 0 1 .766-.862 3.786 3.786 0 0 1 1.08-.492 10.214 10.214 0 0 1 1.334-.217 14.133 14.133 0 0 0 2.67-.521v-.388a1.628 1.628 0 0 0-.426-1.288 2.48 2.48 0 0 0-1.704-.51 2.66 2.66 0 0 0-1.562.368 2.272 2.272 0 0 0-.748 1.316l-1.458-.199a3.644 3.644 0 0 1 .654-1.524 2.84 2.84 0 0 1 1.325-.89 5.878 5.878 0 0 1 2.007-.312 5.272 5.272 0 0 1 1.836.265 2.508 2.508 0 0 1 1.041.672 2.32 2.32 0 0 1 .464 1.023 8.67 8.67 0 0 1 .057 1.382v1.988a20.825 20.825 0 0 0 .094 2.65 3.389 3.389 0 0 0 .379 1.06h-1.562a3.171 3.171 0 0 1-.274-1.098zm-4.98-9.05a1.893 1.893 0 0 1 .474-1.381 1.571 1.571 0 0 1 1.212-.511 3.53 3.53 0 0 1 1.41.445 1.827 1.827 0 0 0 .776.255.511.511 0 0 0 .407-.151 1.032 1.032 0 0 0 .199-.578h1.089a2.064 2.064 0 0 1-.483 1.42 1.505 1.505 0 0 1-1.155.483 3.133 3.133 0 0 1-1.373-.473 2.035 2.035 0 0 0-.823-.294.577.577 0 0 0-.454.199.795.795 0 0 0-.17.587zm4.857 5.68a10.488 10.488 0 0 1-2.443.568 5.32 5.32 0 0 0-1.306.303 1.259 1.259 0 0 0-.596.483 1.354 1.354 0 0 0-.208.71 1.297 1.297 0 0 0 .454 1.003 1.96 1.96 0 0 0 1.325.398 3.18 3.18 0 0 0 1.543-.379 2.395 2.395 0 0 0 .994-1.041 3.588 3.588 0 0 0 .237-1.496z" id="path88" fill="#fff" stroke-width=".947"/>
  <path class="cls-2" d="M146.212 149.463a4.553 4.553 0 0 1 1.363-3.635 4.108 4.108 0 0 1 2.773-.947 3.957 3.957 0 0 1 2.982 1.193 4.563 4.563 0 0 1 1.155 3.303 5.84 5.84 0 0 1-.511 2.68 3.663 3.663 0 0 1-1.486 1.523 4.354 4.354 0 0 1-2.14.54 3.947 3.947 0 0 1-2.99-1.202 4.733 4.733 0 0 1-1.146-3.455zm1.533 0a3.71 3.71 0 0 0 .748 2.508 2.442 2.442 0 0 0 3.71 0 3.786 3.786 0 0 0 .749-2.584 3.692 3.692 0 0 0-.748-2.49 2.461 2.461 0 0 0-3.71 0 3.692 3.692 0 0 0-.749 2.566z" id="path90" fill="#fff" stroke-width=".947"/>
  <path class="cls-2" d="M18.858 171.395v-1.117a2.755 2.755 0 0 1-2.47 1.316 3.465 3.465 0 0 1-1.893-.587 3.786 3.786 0 0 1-1.373-1.628 5.68 5.68 0 0 1-.483-2.395 6.323 6.323 0 0 1 .436-2.404 3.483 3.483 0 0 1 3.246-2.197 2.925 2.925 0 0 1 1.43.341 3.01 3.01 0 0 1 1.013.871v-4.373h1.486v12.201zm-4.733-4.411a3.786 3.786 0 0 0 .72 2.537 2.158 2.158 0 0 0 1.685.842 2.13 2.13 0 0 0 1.666-.804 3.682 3.682 0 0 0 .69-2.452 4.137 4.137 0 0 0-.7-2.66 2.149 2.149 0 0 0-1.723-.852 2.082 2.082 0 0 0-1.666.814 4.051 4.051 0 0 0-.672 2.575z" id="path92" fill="#fff" stroke-width=".947"/>
  <path class="cls-2" d="M28.078 170.297a5.604 5.604 0 0 1-1.6 1.003 4.733 4.733 0 0 1-1.647.294 3.218 3.218 0 0 1-2.234-.691 2.357 2.357 0 0 1-.776-1.818 2.452 2.452 0 0 1 1.07-2.054 3.569 3.569 0 0 1 1.07-.492 10.214 10.214 0 0 1 1.334-.218 14.133 14.133 0 0 0 2.67-.52v-.388a1.628 1.628 0 0 0-.426-1.288 2.48 2.48 0 0 0-1.704-.51 2.679 2.679 0 0 0-1.562.368 2.272 2.272 0 0 0-.739 1.316l-1.467-.199a3.644 3.644 0 0 1 .653-1.524 2.906 2.906 0 0 1 1.326-.89 5.916 5.916 0 0 1 2.006-.312 5.235 5.235 0 0 1 1.837.265 2.452 2.452 0 0 1 1.041.672 2.32 2.32 0 0 1 .464 1.022 8.67 8.67 0 0 1 .076 1.382v1.988a20.825 20.825 0 0 0 .094 2.65 3.389 3.389 0 0 0 .379 1.06H28.38a3.389 3.389 0 0 1-.303-1.116zm-.123-3.341a10.412 10.412 0 0 1-2.442.567 5.32 5.32 0 0 0-1.306.303 1.259 1.259 0 0 0-.597.483 1.354 1.354 0 0 0-.208.71 1.297 1.297 0 0 0 .454 1.003 1.96 1.96 0 0 0 1.326.398 3.152 3.152 0 0 0 1.542-.379 2.395 2.395 0 0 0 .947-1.04 3.588 3.588 0 0 0 .237-1.496z" id="path94" fill="#fff" stroke-width=".947"/>
  <path class="cls-2" d="M30.899 168.754l1.486-.237a2.11 2.11 0 0 0 .691 1.373 2.461 2.461 0 0 0 1.6.473 2.31 2.31 0 0 0 1.524-.426 1.25 1.25 0 0 0 .501-.946.88.88 0 0 0-.444-.795 6.418 6.418 0 0 0-1.524-.512 13.347 13.347 0 0 1-2.291-.719 2.196 2.196 0 0 1-.947-.842 2.13 2.13 0 0 1-.331-1.184 2.3 2.3 0 0 1 .265-1.098 2.49 2.49 0 0 1 .738-.833 3.228 3.228 0 0 1 .947-.435 4.364 4.364 0 0 1 1.287-.18 5.093 5.093 0 0 1 1.827.303 2.385 2.385 0 0 1 1.164.814 3.048 3.048 0 0 1 .512 1.363l-1.458.199a1.619 1.619 0 0 0-.578-1.06 2.13 2.13 0 0 0-1.353-.388 2.461 2.461 0 0 0-1.477.34.947.947 0 0 0-.435.805.814.814 0 0 0 .18.52 1.297 1.297 0 0 0 .577.398c.151.057.587.19 1.316.388a17.748 17.748 0 0 1 2.224.691 2.262 2.262 0 0 1 .947.786 2.187 2.187 0 0 1 .36 1.278 2.49 2.49 0 0 1-.445 1.41 2.726 2.726 0 0 1-1.26 1.022 4.487 4.487 0 0 1-1.893.37 4.118 4.118 0 0 1-2.546-.73 3.36 3.36 0 0 1-1.164-2.148z" id="path96" fill="#fff" stroke-width=".947"/>
  <path class="cls-2" d="M44.369 171.395v-12.202h1.656l6.409 9.58v-9.58h1.543v12.202H52.32l-6.399-9.589v9.589z" id="path98" fill="#fff" stroke-width=".947"/>
  <path class="cls-2" d="M61.956 170.297a5.736 5.736 0 0 1-1.6 1.003 4.733 4.733 0 0 1-1.656.294 3.209 3.209 0 0 1-2.234-.71 2.366 2.366 0 0 1-.786-1.818 2.518 2.518 0 0 1 1.07-2.054 3.786 3.786 0 0 1 1.08-.492 10.214 10.214 0 0 1 1.334-.218 14.473 14.473 0 0 0 2.67-.52v-.388a1.628 1.628 0 0 0-.427-1.288 2.508 2.508 0 0 0-1.704-.51 2.641 2.641 0 0 0-1.561.368 2.224 2.224 0 0 0-.748 1.316l-1.458-.199a3.644 3.644 0 0 1 .653-1.524 2.84 2.84 0 0 1 1.325-.89 5.878 5.878 0 0 1 2.007-.312 5.272 5.272 0 0 1 1.837.265 2.508 2.508 0 0 1 1.04.672 2.433 2.433 0 0 1 .502.985 8.67 8.67 0 0 1 .076 1.382v1.988a20.825 20.825 0 0 0 .095 2.65 3.389 3.389 0 0 0 .379 1.06h-1.59a3.171 3.171 0 0 1-.304-1.06zm-.123-3.341a10.583 10.583 0 0 1-2.451.567 5.32 5.32 0 0 0-1.307.303 1.23 1.23 0 0 0-.587.483 1.268 1.268 0 0 0-.208.71 1.297 1.297 0 0 0 .455 1.003 1.96 1.96 0 0 0 1.325.398 3.18 3.18 0 0 0 1.543-.379 2.32 2.32 0 0 0 .946-1.04 3.569 3.569 0 0 0 .246-1.496z" id="path100" fill="#fff" stroke-width=".947"/>
  <path class="cls-2" d="M71.138 168.158l1.477.189a3.834 3.834 0 0 1-1.23 2.385 3.644 3.644 0 0 1-2.443.862 3.786 3.786 0 0 1-2.925-1.183 4.865 4.865 0 0 1-1.098-3.408 6.19 6.19 0 0 1 .473-2.5 3.304 3.304 0 0 1 1.449-1.608 4.24 4.24 0 0 1 2.139-.512 3.673 3.673 0 0 1 2.357.73 3.304 3.304 0 0 1 1.174 2.063l-1.458.227a2.3 2.3 0 0 0-.738-1.335 1.893 1.893 0 0 0-1.269-.454 2.348 2.348 0 0 0-1.893.814 3.881 3.881 0 0 0-.7 2.565 3.966 3.966 0 0 0 .681 2.585 2.215 2.215 0 0 0 1.78.814 2.045 2.045 0 0 0 1.467-.55 2.632 2.632 0 0 0 .757-1.684zm-3.464 4.344l.435-1.467h1.108l-.275.89a1.77 1.77 0 0 1 1.07.435 1.098 1.098 0 0 1 .36.786 1.391 1.391 0 0 1-.606 1.108 2.84 2.84 0 0 1-1.799.473 6.446 6.446 0 0 1-1.202-.095l.095-.946h.776a1.95 1.95 0 0 0 1.098-.218.483.483 0 0 0 .246-.407.398.398 0 0 0-.095-.265.776.776 0 0 0-.36-.199 3.285 3.285 0 0 0-.851-.094z" id="path102" fill="#fff" stroke-width=".947"/>
  <path class="cls-2" d="M73.05 166.974a4.553 4.553 0 0 1 1.363-3.634 4.118 4.118 0 0 1 2.783-.947 3.947 3.947 0 0 1 2.973 1.193 4.515 4.515 0 0 1 1.154 3.303 5.84 5.84 0 0 1-.51 2.68 3.663 3.663 0 0 1-1.487 1.523 4.345 4.345 0 0 1-2.13.54 3.957 3.957 0 0 1-3-1.193 4.733 4.733 0 0 1-1.146-3.465zm1.354-5.68a1.95 1.95 0 0 1 .473-1.381 1.59 1.59 0 0 1 1.221-.511 3.493 3.493 0 0 1 1.401.445 1.893 1.893 0 0 0 .786.255.53.53 0 0 0 .407-.151 1.032 1.032 0 0 0 .199-.578h1.079a2.064 2.064 0 0 1-.473 1.42 1.524 1.524 0 0 1-1.155.483 3.124 3.124 0 0 1-1.382-.473 2.007 2.007 0 0 0-.814-.294.606.606 0 0 0-.464.199.833.833 0 0 0-.17.587zm.18 5.68a3.786 3.786 0 0 0 .748 2.537 2.461 2.461 0 0 0 3.72 0 3.862 3.862 0 0 0 .738-2.584 3.644 3.644 0 0 0-.748-2.49 2.461 2.461 0 0 0-3.71 0 3.786 3.786 0 0 0-.748 2.537z" id="path104" fill="#fff" stroke-width=".947"/>
  <path class="cls-2" d="M88.858 168.546l1.553.19a3.786 3.786 0 0 1-1.363 2.11 4.6 4.6 0 0 1-5.604-.445 4.667 4.667 0 0 1-1.136-3.35 4.894 4.894 0 0 1 1.155-3.465 3.881 3.881 0 0 1 2.972-1.23 3.786 3.786 0 0 1 2.897 1.21 4.79 4.79 0 0 1 1.126 3.39v.397h-6.626a3.427 3.427 0 0 0 .823 2.234 2.461 2.461 0 0 0 1.894.776 2.338 2.338 0 0 0 1.363-.407 2.84 2.84 0 0 0 .946-1.41zm-4.931-2.376h4.931a2.963 2.963 0 0 0-.568-1.666 2.3 2.3 0 0 0-1.893-.871 2.404 2.404 0 0 0-1.732.691 2.707 2.707 0 0 0-.738 1.846z" id="path106" fill="#fff" stroke-width=".947"/>
  <path class="cls-2" d="M91.376 168.754l1.486-.237a2.11 2.11 0 0 0 .691 1.373 2.461 2.461 0 0 0 1.6.473 2.31 2.31 0 0 0 1.524-.426 1.25 1.25 0 0 0 .502-.946.88.88 0 0 0-.445-.795 6.418 6.418 0 0 0-1.524-.512 13.347 13.347 0 0 1-2.29-.719 2.196 2.196 0 0 1-.947-.842 2.13 2.13 0 0 1-.332-1.184 2.3 2.3 0 0 1 .265-1.098 2.49 2.49 0 0 1 .739-.833 3.228 3.228 0 0 1 .946-.435 4.364 4.364 0 0 1 1.288-.18 5.093 5.093 0 0 1 1.826.303 2.385 2.385 0 0 1 1.165.814 3.048 3.048 0 0 1 .51 1.363l-1.457.199a1.619 1.619 0 0 0-.577-1.06 2.13 2.13 0 0 0-1.354-.388 2.461 2.461 0 0 0-1.477.34.947.947 0 0 0-.435.805.814.814 0 0 0 .18.52 1.297 1.297 0 0 0 .577.398c.152.057.587.19 1.316.388a17.748 17.748 0 0 1 2.225.691 2.262 2.262 0 0 1 .946.786 2.187 2.187 0 0 1 .36 1.278 2.556 2.556 0 0 1-.436 1.41 2.84 2.84 0 0 1-1.268 1.022 4.487 4.487 0 0 1-1.893.37 4.118 4.118 0 0 1-2.622-.72 3.36 3.36 0 0 1-1.089-2.158z" id="path108" fill="#fff" stroke-width=".947"/>
  <path class="cls-2" d="M112.845 159.194h1.618v7.052a8.387 8.387 0 0 1-.416 2.915 3.55 3.55 0 0 1-1.524 1.742 5.291 5.291 0 0 1-2.84.681 5.831 5.831 0 0 1-2.84-.596 3.323 3.323 0 0 1-1.552-1.704 8.122 8.122 0 0 1-.473-3.057v-7.052h1.618v7.042a6.796 6.796 0 0 0 .294 2.338 2.29 2.29 0 0 0 1.013 1.165 3.616 3.616 0 0 0 1.76.407 3.38 3.38 0 0 0 2.537-.805 4.629 4.629 0 0 0 .757-3.105z" id="path110" fill="#fff" stroke-width=".947"/>
  <path class="cls-2" d="M116.669 171.395v-8.841h1.344v1.259a3.18 3.18 0 0 1 2.84-1.458 3.786 3.786 0 0 1 1.477.284 2.32 2.32 0 0 1 .946.757 2.934 2.934 0 0 1 .473 1.108 8.604 8.604 0 0 1 .076 1.458v5.433h-1.496v-5.377a4.137 4.137 0 0 0-.17-1.372 1.439 1.439 0 0 0-.625-.72 1.96 1.96 0 0 0-1.04-.274 2.442 2.442 0 0 0-1.648.606 3 3 0 0 0-.7 2.31v4.827z" id="path112" fill="#fff" stroke-width=".947"/>
  <path class="cls-2" d="M125.86 160.916v-1.722h1.496v1.722zm0 10.479v-8.841h1.496v8.841z" id="path114" fill="#fff" stroke-width=".947"/>
  <path class="cls-2" d="M135.08 171.395v-1.117a2.755 2.755 0 0 1-2.47 1.316 3.465 3.465 0 0 1-1.941-.587 3.786 3.786 0 0 1-1.373-1.628 5.68 5.68 0 0 1-.482-2.395 6.323 6.323 0 0 1 .435-2.404 3.483 3.483 0 0 1 3.294-2.225 2.887 2.887 0 0 1 1.42.34 2.953 2.953 0 0 1 1.022.872v-4.374h1.486v12.202zm-4.733-4.411a3.786 3.786 0 0 0 .72 2.537 2.158 2.158 0 0 0 1.684.842 2.13 2.13 0 0 0 1.666-.804 3.682 3.682 0 0 0 .691-2.452 4.137 4.137 0 0 0-.7-2.66 2.149 2.149 0 0 0-1.723-.852 2.082 2.082 0 0 0-1.666.814 4.051 4.051 0 0 0-.672 2.575z" id="path116" fill="#fff" stroke-width=".947"/>
  <path class="cls-2" d="M144.3 170.297a5.604 5.604 0 0 1-1.6 1.003 4.733 4.733 0 0 1-1.647.294 3.218 3.218 0 0 1-2.243-.71 2.357 2.357 0 0 1-.777-1.818 2.452 2.452 0 0 1 1.07-2.054 3.569 3.569 0 0 1 1.07-.492 10.214 10.214 0 0 1 1.334-.218 14.133 14.133 0 0 0 2.67-.52v-.388a1.628 1.628 0 0 0-.426-1.288 2.48 2.48 0 0 0-1.704-.51 2.679 2.679 0 0 0-1.562.368 2.272 2.272 0 0 0-.738 1.316l-1.468-.199a3.644 3.644 0 0 1 .654-1.524 2.84 2.84 0 0 1 1.325-.89 5.916 5.916 0 0 1 2.007-.312 5.235 5.235 0 0 1 1.836.265 2.508 2.508 0 0 1 1.041.672 2.32 2.32 0 0 1 .511.985 8.67 8.67 0 0 1 .076 1.382v1.988a20.825 20.825 0 0 0 .095 2.65 3.389 3.389 0 0 0 .378 1.06h-1.562a3.389 3.389 0 0 1-.34-1.06zm-.123-3.341a10.412 10.412 0 0 1-2.443.567 5.32 5.32 0 0 0-1.306.303 1.259 1.259 0 0 0-.596.483 1.354 1.354 0 0 0-.208.71 1.297 1.297 0 0 0 .454 1.003 1.96 1.96 0 0 0 1.325.398 3.152 3.152 0 0 0 1.543-.379 2.395 2.395 0 0 0 .994-1.04 3.588 3.588 0 0 0 .237-1.496z" id="path118" fill="#fff" stroke-width=".947"/>
  <path class="cls-2" d="M147.12 168.754l1.487-.237a2.11 2.11 0 0 0 .69 1.373 2.442 2.442 0 0 0 1.6.473 2.31 2.31 0 0 0 1.524-.426 1.25 1.25 0 0 0 .502-.946.947.947 0 0 0-.445-.795 6.418 6.418 0 0 0-1.524-.512 13.347 13.347 0 0 1-2.29-.719 2.272 2.272 0 0 1-.947-.842 2.196 2.196 0 0 1-.322-1.184 2.3 2.3 0 0 1 .265-1.098 2.49 2.49 0 0 1 .738-.833 3.228 3.228 0 0 1 .947-.435 4.364 4.364 0 0 1 1.287-.18 5.093 5.093 0 0 1 1.827.303 2.385 2.385 0 0 1 1.165.814 3.162 3.162 0 0 1 .51 1.363l-1.457.199a1.619 1.619 0 0 0-.577-1.06 2.13 2.13 0 0 0-1.354-.388 2.461 2.461 0 0 0-1.477.34.947.947 0 0 0-.435.805.814.814 0 0 0 .18.52 1.297 1.297 0 0 0 .577.398c.142.057.587.19 1.316.388a17.748 17.748 0 0 1 2.224.691 2.262 2.262 0 0 1 .947.786 2.187 2.187 0 0 1 .36 1.278 2.49 2.49 0 0 1-.445 1.41 2.726 2.726 0 0 1-1.26 1.022 4.487 4.487 0 0 1-1.892.37 4.118 4.118 0 0 1-2.622-.72 3.36 3.36 0 0 1-1.098-2.158z" id="path120" fill="#fff" stroke-width=".947"/>
  <path class="cls-2" d="M27.027 192.286v-12.22h1.363v1.155a3.218 3.218 0 0 1 1.089-1.013 2.991 2.991 0 0 1 1.477-.341 3.465 3.465 0 0 1 1.988.587 3.54 3.54 0 0 1 1.306 1.637 6.37 6.37 0 0 1 0 4.733 3.73 3.73 0 0 1-1.42 1.666 3.682 3.682 0 0 1-1.95.578 2.745 2.745 0 0 1-1.344-.322 3 3 0 0 1-.947-.795v4.297zm1.354-7.752a3.786 3.786 0 0 0 .691 2.517 2.11 2.11 0 0 0 1.675.824 2.149 2.149 0 0 0 1.704-.852 3.985 3.985 0 0 0 .71-2.612 3.89 3.89 0 0 0-.69-2.528 2.092 2.092 0 0 0-1.657-.842 2.177 2.177 0 0 0-1.695.89 4.023 4.023 0 0 0-.738 2.603z" id="path122" fill="#fff" stroke-width=".947"/>
  <path class="cls-2" d="M41.974 187.809a5.604 5.604 0 0 1-1.6 1.003 4.733 4.733 0 0 1-1.647.294 3.218 3.218 0 0 1-2.243-.71 2.357 2.357 0 0 1-.776-1.818 2.423 2.423 0 0 1 .293-1.192 2.508 2.508 0 0 1 .767-.862 3.786 3.786 0 0 1 1.079-.492 10.214 10.214 0 0 1 1.334-.218 14.133 14.133 0 0 0 2.67-.52v-.389a1.628 1.628 0 0 0-.426-1.287 2.48 2.48 0 0 0-1.704-.511 2.66 2.66 0 0 0-1.562.37 2.272 2.272 0 0 0-.748 1.315l-1.457-.199a3.644 3.644 0 0 1 .653-1.524 2.84 2.84 0 0 1 1.325-.89 5.878 5.878 0 0 1 2.007-.312 5.272 5.272 0 0 1 1.836.265 2.508 2.508 0 0 1 1.041.672 2.32 2.32 0 0 1 .464 1.022 8.67 8.67 0 0 1 .076 1.382v1.988a20.825 20.825 0 0 0 .095 2.65 3.389 3.389 0 0 0 .378 1.06h-1.552a3.171 3.171 0 0 1-.303-1.097zm-.123-3.342a10.488 10.488 0 0 1-2.442.568 5.32 5.32 0 0 0-1.307.303 1.259 1.259 0 0 0-.596.483 1.354 1.354 0 0 0-.208.71 1.297 1.297 0 0 0 .454 1.003 1.96 1.96 0 0 0 1.325.398 3.18 3.18 0 0 0 1.543-.379 2.395 2.395 0 0 0 .947-1.041 3.588 3.588 0 0 0 .237-1.496z" id="path124" fill="#fff" stroke-width=".947"/>
  <path class="cls-2" d="M45.382 188.888v-8.841h1.344v1.344a3.72 3.72 0 0 1 .946-1.24 1.685 1.685 0 0 1 .947-.303 2.915 2.915 0 0 1 1.543.483l-.511 1.391a2.149 2.149 0 0 0-1.098-.322 1.439 1.439 0 0 0-.89.294 1.638 1.638 0 0 0-.559.814 6.068 6.068 0 0 0-.246 1.751v4.629z" id="path126" fill="#fff" stroke-width=".947"/>
  <path class="cls-2" d="M56.551 187.809a5.68 5.68 0 0 1-1.609 1.003 4.733 4.733 0 0 1-1.647.294 3.237 3.237 0 0 1-2.243-.71 2.357 2.357 0 0 1-.777-1.818 2.452 2.452 0 0 1 1.07-2.054 3.521 3.521 0 0 1 1.08-.492 10.299 10.299 0 0 1 1.324-.218 14.133 14.133 0 0 0 2.67-.52v-.389a1.628 1.628 0 0 0-.426-1.287 2.48 2.48 0 0 0-1.704-.511 2.679 2.679 0 0 0-1.562.37 2.272 2.272 0 0 0-.738 1.315l-1.467-.199a3.53 3.53 0 0 1 .662-1.524 2.84 2.84 0 0 1 1.316-.89 5.916 5.916 0 0 1 2.007-.312 5.197 5.197 0 0 1 1.836.265 2.452 2.452 0 0 1 1.041.672 2.215 2.215 0 0 1 .464 1.022 7.648 7.648 0 0 1 .076 1.382v1.988a22.955 22.955 0 0 0 .095 2.65 3.389 3.389 0 0 0 .378 1.06h-1.562a3.171 3.171 0 0 1-.284-1.097zm-.132-3.342a10.412 10.412 0 0 1-2.442.568 5.32 5.32 0 0 0-1.307.303 1.193 1.193 0 0 0-.587.483 1.268 1.268 0 0 0-.208.71 1.325 1.325 0 0 0 .445 1.003 1.969 1.969 0 0 0 1.335.398 3.124 3.124 0 0 0 1.533-.379 2.29 2.29 0 0 0 .947-1.041 3.588 3.588 0 0 0 .236-1.496z" id="path128" fill="#fff" stroke-width=".947"/>
  <path class="cls-2" d="M70.182 187.809a5.68 5.68 0 0 1-1.609 1.003 4.733 4.733 0 0 1-1.647.294 3.237 3.237 0 0 1-2.244-.71 2.357 2.357 0 0 1-.776-1.818 2.452 2.452 0 0 1 1.07-2.054 3.521 3.521 0 0 1 1.079-.492 10.299 10.299 0 0 1 1.325-.218 14.133 14.133 0 0 0 2.67-.52v-.389a1.628 1.628 0 0 0-.426-1.287 2.48 2.48 0 0 0-1.704-.511 2.679 2.679 0 0 0-1.562.37 2.272 2.272 0 0 0-.738 1.315l-1.468-.199a3.644 3.644 0 0 1 .654-1.524 2.906 2.906 0 0 1 1.325-.89 5.916 5.916 0 0 1 2.007-.312 5.235 5.235 0 0 1 1.836.265 2.452 2.452 0 0 1 1.041.672 2.215 2.215 0 0 1 .464 1.022 7.648 7.648 0 0 1 .076 1.382v1.988a22.955 22.955 0 0 0 .094 2.65 3.389 3.389 0 0 0 .379 1.06h-1.562a3.171 3.171 0 0 1-.284-1.097zm-.132-3.342a10.412 10.412 0 0 1-2.443.568 5.32 5.32 0 0 0-1.306.303 1.193 1.193 0 0 0-.587.483 1.268 1.268 0 0 0-.208.71 1.325 1.325 0 0 0 .445 1.003 1.969 1.969 0 0 0 1.335.398 3.124 3.124 0 0 0 1.533-.379 2.29 2.29 0 0 0 .947-1.041 3.588 3.588 0 0 0 .236-1.496z" id="path130" fill="#fff" stroke-width=".947"/>
  <path class="cls-2" d="M78.266 188.888v-12.183h8.822v1.44h-7.203v3.738h6.74v1.43h-6.74v4.155h7.487v1.42z" id="path132" fill="#fff" stroke-width=".947"/>
  <path class="cls-2" d="M94.85 188.888v-1.117a2.755 2.755 0 0 1-2.47 1.316 3.446 3.446 0 0 1-1.94-.587 3.786 3.786 0 0 1-1.373-1.628 5.5 5.5 0 0 1-.493-2.395 6.323 6.323 0 0 1 .445-2.405 3.398 3.398 0 0 1 1.325-1.647 3.483 3.483 0 0 1 1.97-.577 2.915 2.915 0 0 1 1.42.34 2.84 2.84 0 0 1 1.012.872v-4.374h1.496v12.202zm-4.733-4.411a3.862 3.862 0 0 0 .71 2.537 2.177 2.177 0 0 0 1.695.842 2.13 2.13 0 0 0 1.666-.805 3.73 3.73 0 0 0 .69-2.451 4.137 4.137 0 0 0-.7-2.66 2.158 2.158 0 0 0-1.723-.852 2.073 2.073 0 0 0-1.666.814 3.995 3.995 0 0 0-.672 2.594z" id="path134" fill="#fff" stroke-width=".947"/>
  <path class="cls-2" d="M104.098 188.888v-1.297a3.256 3.256 0 0 1-2.84 1.496 3.588 3.588 0 0 1-1.457-.303 2.348 2.348 0 0 1-1.004-.748 2.84 2.84 0 0 1-.463-1.117 7.876 7.876 0 0 1-.095-1.392v-5.48h1.505v4.903a9.362 9.362 0 0 0 .085 1.58 1.59 1.59 0 0 0 .597.947 1.893 1.893 0 0 0 1.135.332 2.527 2.527 0 0 0 1.269-.341 1.893 1.893 0 0 0 .833-.947 4.8 4.8 0 0 0 .246-1.732v-4.733h1.496v8.832z" id="path136" fill="#fff" stroke-width=".947"/>
  <path class="cls-2" d="M113.252 185.67l1.476.189a3.843 3.843 0 0 1-1.24 2.385 3.625 3.625 0 0 1-2.442.862 3.786 3.786 0 0 1-2.915-1.184 4.865 4.865 0 0 1-1.098-3.407 6.19 6.19 0 0 1 .473-2.5 3.256 3.256 0 0 1 1.448-1.609 4.24 4.24 0 0 1 2.102-.54 3.673 3.673 0 0 1 2.357.73 3.304 3.304 0 0 1 1.173 2.063l-1.457.228a2.3 2.3 0 0 0-.739-1.335 1.893 1.893 0 0 0-1.268-.455 2.348 2.348 0 0 0-1.893.815 3.786 3.786 0 0 0-.7 2.565 3.966 3.966 0 0 0 .68 2.584 2.215 2.215 0 0 0 1.78.814 2.045 2.045 0 0 0 1.468-.549 2.632 2.632 0 0 0 .795-1.657z" id="path138" fill="#fff" stroke-width=".947"/>
  <path class="cls-2" d="M121.487 187.809a5.736 5.736 0 0 1-1.6 1.003 4.8 4.8 0 0 1-1.656.294 3.209 3.209 0 0 1-2.234-.71 2.366 2.366 0 0 1-.786-1.818 2.452 2.452 0 0 1 1.07-2.054 3.786 3.786 0 0 1 1.079-.492 10.299 10.299 0 0 1 1.325-.218 14.435 14.435 0 0 0 2.679-.52v-.389a1.628 1.628 0 0 0-.417-1.287 2.518 2.518 0 0 0-1.713-.511 2.622 2.622 0 0 0-1.552.37 2.224 2.224 0 0 0-.748 1.315l-1.467-.199a3.644 3.644 0 0 1 .662-1.524 2.84 2.84 0 0 1 1.326-.89 5.821 5.821 0 0 1 1.997-.312 5.291 5.291 0 0 1 1.893.265 2.47 2.47 0 0 1 1.032.672 2.329 2.329 0 0 1 .473 1.022 8.67 8.67 0 0 1 .076 1.382v1.988a20.825 20.825 0 0 0 .094 2.65 3.171 3.171 0 0 0 .38 1.06h-1.572a3.171 3.171 0 0 1-.341-1.097zm-.123-3.342a10.583 10.583 0 0 1-2.452.568 5.32 5.32 0 0 0-1.306.303 1.193 1.193 0 0 0-.587.483 1.268 1.268 0 0 0-.208.71 1.297 1.297 0 0 0 .454 1.003 1.94 1.94 0 0 0 1.325.398 3.18 3.18 0 0 0 1.543-.379 2.32 2.32 0 0 0 .947-1.041 3.569 3.569 0 0 0 .246-1.496z" id="path140" fill="#fff" stroke-width=".947"/>
  <path class="cls-2" d="M130.669 185.67l1.477.189a3.843 3.843 0 0 1-1.24 2.385 3.625 3.625 0 0 1-2.443.862 3.786 3.786 0 0 1-2.915-1.184 4.865 4.865 0 0 1-1.098-3.407 6.19 6.19 0 0 1 .473-2.5 3.285 3.285 0 0 1 1.439-1.609 4.297 4.297 0 0 1 2.11-.54 3.673 3.673 0 0 1 2.358.73 3.341 3.341 0 0 1 1.174 2.063l-1.458.228a2.348 2.348 0 0 0-.738-1.335 1.893 1.893 0 0 0-1.278-.455 2.338 2.338 0 0 0-1.837.815 3.786 3.786 0 0 0-.71 2.565 3.91 3.91 0 0 0 .691 2.584 2.215 2.215 0 0 0 1.78.814 2.045 2.045 0 0 0 1.467-.549 2.632 2.632 0 0 0 .748-1.657zm-3.465 4.344l.426-1.467h1.117l-.274.89a1.77 1.77 0 0 1 1.088.397 1.098 1.098 0 0 1 .36.786 1.42 1.42 0 0 1-.606 1.108 2.84 2.84 0 0 1-1.798.473 6.38 6.38 0 0 1-1.202-.095l.094-.946h.776a1.969 1.969 0 0 0 1.098-.218.483.483 0 0 0 .247-.407.454.454 0 0 0-.095-.265.833.833 0 0 0-.36-.199 3.285 3.285 0 0 0-.87-.057z" id="path142" fill="#fff" stroke-width=".947"/>
  <path class="cls-2" d="M138.904 187.809a5.68 5.68 0 0 1-1.609 1.003 4.733 4.733 0 0 1-1.647.294 3.2 3.2 0 0 1-2.234-.71 2.366 2.366 0 0 1-.786-1.818 2.452 2.452 0 0 1 1.07-2.054 3.786 3.786 0 0 1 1.08-.492 10.299 10.299 0 0 1 1.324-.218 14.133 14.133 0 0 0 2.67-.52v-.389a1.666 1.666 0 0 0-.417-1.287 2.518 2.518 0 0 0-1.713-.511 2.622 2.622 0 0 0-1.553.37 2.224 2.224 0 0 0-.747 1.315l-1.468-.199a3.53 3.53 0 0 1 .663-1.524 2.84 2.84 0 0 1 1.316-.89 5.916 5.916 0 0 1 2.007-.312 5.197 5.197 0 0 1 1.836.265 2.452 2.452 0 0 1 1.041.672 2.329 2.329 0 0 1 .473 1.022 9.03 9.03 0 0 1 .067 1.382v1.988a20.143 20.143 0 0 0 .104 2.65 3.171 3.171 0 0 0 .379 1.06h-1.572a3.171 3.171 0 0 1-.284-1.097zm-4.988-9.05a1.95 1.95 0 0 1 .473-1.382 1.59 1.59 0 0 1 1.221-.51 3.493 3.493 0 0 1 1.401.444 1.893 1.893 0 0 0 .786.256.511.511 0 0 0 .407-.152 1.032 1.032 0 0 0 .199-.577h1.079a2.064 2.064 0 0 1-.474 1.42 1.524 1.524 0 0 1-1.155.482 3.124 3.124 0 0 1-1.382-.473 2.007 2.007 0 0 0-.814-.293.568.568 0 0 0-.454.199.842.842 0 0 0-.18.586zm4.856 5.68a10.412 10.412 0 0 1-2.443.568 5.32 5.32 0 0 0-1.306.303 1.193 1.193 0 0 0-.587.483 1.268 1.268 0 0 0-.208.71 1.297 1.297 0 0 0 .454 1.003 1.94 1.94 0 0 0 1.326.397 3.124 3.124 0 0 0 1.533-.378 2.29 2.29 0 0 0 .947-1.041 3.588 3.588 0 0 0 .236-1.496z" id="path144" fill="#fff" stroke-width=".947"/>
  <path class="cls-2" d="M141.763 184.486a4.553 4.553 0 0 1 1.363-3.635 4.137 4.137 0 0 1 2.783-.946 3.985 3.985 0 0 1 2.982 1.192 4.563 4.563 0 0 1 1.155 3.304 5.84 5.84 0 0 1-.512 2.679 3.682 3.682 0 0 1-1.495 1.524 4.345 4.345 0 0 1-2.13.54 3.976 3.976 0 0 1-3-1.203 4.733 4.733 0 0 1-1.146-3.455zm1.543 0a3.786 3.786 0 0 0 .738 2.537 2.461 2.461 0 0 0 3.72 0 3.862 3.862 0 0 0 .739-2.584 3.644 3.644 0 0 0-.748-2.49 2.366 2.366 0 0 0-1.846-.842 2.385 2.385 0 0 0-1.893.842 3.786 3.786 0 0 0-.71 2.537z" id="path146" fill="#fff" stroke-width=".947"/>
  <path class="cls-2" d="M151.9 188.888v-1.713h1.705v1.713a3.067 3.067 0 0 1-.332 1.514 2.168 2.168 0 0 1-1.06.89l-.416-.634a1.4 1.4 0 0 0 .7-.615 2.575 2.575 0 0 0 .256-1.155z" id="path148" fill="#fff" stroke-width=".947"/>
  <path class="cls-2" d="M8.692 205.32a5.68 5.68 0 0 1-1.61 1.004 4.733 4.733 0 0 1-1.646.293 3.2 3.2 0 0 1-2.234-.71 2.366 2.366 0 0 1-.786-1.817 2.452 2.452 0 0 1 1.07-2.054 3.786 3.786 0 0 1 1.079-.492 10.299 10.299 0 0 1 1.325-.218 14.133 14.133 0 0 0 2.67-.52v-.389a1.666 1.666 0 0 0-.417-1.287 2.518 2.518 0 0 0-1.713-.511 2.622 2.622 0 0 0-1.553.369 2.224 2.224 0 0 0-.748 1.316l-1.41-.2a3.53 3.53 0 0 1 .663-1.523 2.84 2.84 0 0 1 1.23-.89 5.916 5.916 0 0 1 2.007-.312 5.197 5.197 0 0 1 1.836.265 2.452 2.452 0 0 1 1.042.672 2.329 2.329 0 0 1 .473 1.022 9.03 9.03 0 0 1 .066 1.382v1.988a20.143 20.143 0 0 0 .104 2.65 3.171 3.171 0 0 0 .379 1.06H8.985a3.171 3.171 0 0 1-.293-1.097zm-.133-3.34a10.412 10.412 0 0 1-2.442.567 5.32 5.32 0 0 0-1.306.303 1.193 1.193 0 0 0-.587.483 1.268 1.268 0 0 0-.208.71 1.297 1.297 0 0 0 .454 1.003 1.94 1.94 0 0 0 1.325.398 3.124 3.124 0 0 0 1.534-.379 2.29 2.29 0 0 0 .994-1.041 3.588 3.588 0 0 0 .236-1.496z" id="path150" fill="#fff" stroke-width=".947"/>
  <path class="cls-2" d="M25.437 202.14l1.619.407a5.414 5.414 0 0 1-1.827 3.03 5.026 5.026 0 0 1-3.228 1.05 5.84 5.84 0 0 1-3.209-.805 5.017 5.017 0 0 1-1.893-2.328 8.178 8.178 0 0 1-.644-3.266 7.222 7.222 0 0 1 .72-3.323 5.074 5.074 0 0 1 2.073-2.158 6.058 6.058 0 0 1 2.962-.738 4.979 4.979 0 0 1 3.077.946 4.847 4.847 0 0 1 1.742 2.613l-1.59.379a3.786 3.786 0 0 0-1.231-1.94 3.285 3.285 0 0 0-2.035-.607 3.957 3.957 0 0 0-2.348.672 3.55 3.55 0 0 0-1.325 1.808 7.308 7.308 0 0 0-.388 2.348 7.46 7.46 0 0 0 .454 2.717 3.408 3.408 0 0 0 1.41 1.732 4.032 4.032 0 0 0 2.074.577 3.493 3.493 0 0 0 2.3-.785 3.995 3.995 0 0 0 1.287-2.329z" id="path152" fill="#fff" stroke-width=".947"/>
  <path class="cls-2" d="M28.58 195.94v-1.723h1.495v1.723zm0 10.479v-8.841h1.495v8.84z" id="path154" fill="#fff" stroke-width=".947"/>
  <path class="cls-2" d="M38.112 203.57l1.552.189a3.786 3.786 0 0 1-1.363 2.11 4.6 4.6 0 0 1-5.604-.444 4.667 4.667 0 0 1-1.136-3.351 4.894 4.894 0 0 1 1.155-3.465 3.862 3.862 0 0 1 2.973-1.23 3.786 3.786 0 0 1 2.896 1.211 4.79 4.79 0 0 1 1.127 3.39v.397h-6.627a3.427 3.427 0 0 0 .824 2.234 2.461 2.461 0 0 0 1.893.776 2.338 2.338 0 0 0 1.41-.436 2.84 2.84 0 0 0 .9-1.382zm-2.452-8.52l-.946 1.41H33.01l1.798-2.328h1.6l1.893 2.329h-1.723zm-2.46 6.143h4.93a2.963 2.963 0 0 0-.567-1.666 2.3 2.3 0 0 0-1.893-.87 2.385 2.385 0 0 0-1.714.643 2.707 2.707 0 0 0-.757 1.893z" id="path156" fill="#fff" stroke-width=".947"/>
  <path class="cls-2" d="M41.255 206.419v-8.841h1.344v1.258a3.18 3.18 0 0 1 2.84-1.457 3.72 3.72 0 0 1 1.467.284 2.348 2.348 0 0 1 1.003.757 2.783 2.783 0 0 1 .464 1.107 8.32 8.32 0 0 1 .085 1.458v5.434h-1.496v-5.377a3.862 3.862 0 0 0-.18-1.373 1.42 1.42 0 0 0-.615-.719 1.96 1.96 0 0 0-1.04-.274 2.461 2.461 0 0 0-1.705.624 3 3 0 0 0-.69 2.31v4.828z" id="path158" fill="#fff" stroke-width=".947"/>
  <path class="cls-2" d="M56.201 203.181l1.477.19a3.843 3.843 0 0 1-1.24 2.385 3.625 3.625 0 0 1-2.442.861 3.786 3.786 0 0 1-2.916-1.183 4.865 4.865 0 0 1-1.098-3.408 6.04 6.04 0 0 1 .473-2.499 3.285 3.285 0 0 1 1.44-1.609 4.297 4.297 0 0 1 2.11-.54 3.692 3.692 0 0 1 2.357.73 3.341 3.341 0 0 1 1.174 2.063l-1.458.227a2.404 2.404 0 0 0-.738-1.334 1.893 1.893 0 0 0-1.278-.455 2.338 2.338 0 0 0-1.837.814 3.786 3.786 0 0 0-.71 2.566 3.966 3.966 0 0 0 .682 2.584 2.234 2.234 0 0 0 1.79.814 2.064 2.064 0 0 0 1.466-.55 2.632 2.632 0 0 0 .748-1.656z" id="path160" fill="#fff" stroke-width=".947"/>
  <path class="cls-2" d="M58.672 195.94v-1.723h1.505v1.723zm0 10.479v-8.841h1.505v8.84z" id="path162" fill="#fff" stroke-width=".947"/>
  <path class="cls-2" d="M67.93 205.32a5.736 5.736 0 0 1-1.6 1.004 4.8 4.8 0 0 1-1.657.293 3.209 3.209 0 0 1-2.234-.71 2.366 2.366 0 0 1-.786-1.817 2.527 2.527 0 0 1 .294-1.193 2.442 2.442 0 0 1 .776-.861 3.786 3.786 0 0 1 1.08-.492 10.214 10.214 0 0 1 1.334-.218 14.473 14.473 0 0 0 2.67-.52v-.389a1.628 1.628 0 0 0-.427-1.287 2.508 2.508 0 0 0-1.704-.511 2.641 2.641 0 0 0-1.561.369 2.224 2.224 0 0 0-.748 1.316l-1.467-.2a3.644 3.644 0 0 1 .662-1.523 2.84 2.84 0 0 1 1.325-.89 5.86 5.86 0 0 1 1.998-.312 5.291 5.291 0 0 1 1.893.265 2.575 2.575 0 0 1 1.041.672 2.433 2.433 0 0 1 .464 1.022 8.67 8.67 0 0 1 .076 1.382v1.988a20.825 20.825 0 0 0 .094 2.65 3.171 3.171 0 0 0 .379 1.06H68.27a3.171 3.171 0 0 1-.34-1.097zm-.124-3.34a10.583 10.583 0 0 1-2.451.567 5.32 5.32 0 0 0-1.307.303 1.23 1.23 0 0 0-.587.483 1.268 1.268 0 0 0-.208.71 1.297 1.297 0 0 0 .455 1.003 1.94 1.94 0 0 0 1.325.398 3.18 3.18 0 0 0 1.543-.379 2.32 2.32 0 0 0 .946-1.041 3.569 3.569 0 0 0 .246-1.496z" id="path164" fill="#fff" stroke-width=".947"/>
  <path class="cls-2" d="M81.844 203.57l1.543.189a3.786 3.786 0 0 1-1.354 2.11 4.127 4.127 0 0 1-2.527.748 4.042 4.042 0 0 1-3.076-1.192 4.667 4.667 0 0 1-1.136-3.351 4.894 4.894 0 0 1 1.145-3.465 3.881 3.881 0 0 1 2.953-1.202 3.786 3.786 0 0 1 2.897 1.212 4.78 4.78 0 0 1 1.117 3.389v.397H76.78a3.323 3.323 0 0 0 .823 2.234 2.461 2.461 0 0 0 1.846.776 2.31 2.31 0 0 0 1.401-.435 2.897 2.897 0 0 0 .994-1.41zm-4.922-2.424h4.932a2.963 2.963 0 0 0-.559-1.666 2.31 2.31 0 0 0-1.893-.87 2.423 2.423 0 0 0-1.742.69 2.84 2.84 0 0 0-.738 1.893z" id="path166" fill="#fff" stroke-width=".947"/>
  <path class="cls-2" d="M95.19 205.32a5.736 5.736 0 0 1-1.599 1.004 4.8 4.8 0 0 1-1.656.293 3.209 3.209 0 0 1-2.234-.71 2.366 2.366 0 0 1-.786-1.817 2.527 2.527 0 0 1 .293-1.193 2.442 2.442 0 0 1 .777-.861 3.786 3.786 0 0 1 1.079-.492 10.214 10.214 0 0 1 1.334-.218 14.473 14.473 0 0 0 2.67-.52v-.389a1.628 1.628 0 0 0-.426-1.287 2.508 2.508 0 0 0-1.704-.511 2.641 2.641 0 0 0-1.562.369 2.224 2.224 0 0 0-.748 1.316l-1.467-.2a3.644 3.644 0 0 1 .663-1.523 2.84 2.84 0 0 1 1.325-.89 5.86 5.86 0 0 1 1.997-.312 5.291 5.291 0 0 1 1.893.265 2.47 2.47 0 0 1 1.032.672 2.329 2.329 0 0 1 .474 1.022 8.67 8.67 0 0 1 .075 1.382v1.988a20.825 20.825 0 0 0 .095 2.65 3.171 3.171 0 0 0 .379 1.06h-1.61a3.398 3.398 0 0 1-.293-1.097zm-.122-3.34a10.583 10.583 0 0 1-2.452.567 5.32 5.32 0 0 0-1.306.303 1.23 1.23 0 0 0-.587.483 1.268 1.268 0 0 0-.208.71 1.297 1.297 0 0 0 .454 1.003 1.94 1.94 0 0 0 1.325.398 3.18 3.18 0 0 0 1.543-.379 2.32 2.32 0 0 0 .947-1.041 3.569 3.569 0 0 0 .246-1.496z" id="path168" fill="#fff" stroke-width=".947"/>
  <path class="cls-2" d="M111.945 202.14l1.62.407a5.414 5.414 0 0 1-1.828 3.03 5.026 5.026 0 0 1-3.228 1.05 5.84 5.84 0 0 1-3.209-.805 5.017 5.017 0 0 1-1.893-2.328 8.178 8.178 0 0 1-.643-3.266 7.1 7.1 0 0 1 .728-3.323 4.998 4.998 0 0 1 2.064-2.158 6.058 6.058 0 0 1 2.963-.738 4.979 4.979 0 0 1 3.076.946 4.847 4.847 0 0 1 1.742 2.613l-1.59.379a3.786 3.786 0 0 0-1.23-1.94 3.266 3.266 0 0 0-2.036-.607 3.976 3.976 0 0 0-2.348.672 3.606 3.606 0 0 0-1.325 1.808 7.308 7.308 0 0 0-.388 2.348 7.46 7.46 0 0 0 .454 2.717 3.408 3.408 0 0 0 1.41 1.732 4.032 4.032 0 0 0 2.074.577 3.474 3.474 0 0 0 2.3-.785 3.995 3.995 0 0 0 1.287-2.329z" id="path170" fill="#fff" stroke-width=".947"/>
  <path class="cls-2" d="M120.862 206.419v-1.297a3.256 3.256 0 0 1-2.84 1.495 3.597 3.597 0 0 1-1.467-.302 2.414 2.414 0 0 1-1.003-.748 2.991 2.991 0 0 1-.464-1.117 8.103 8.103 0 0 1-.085-1.392v-5.48h1.496v4.903a9.362 9.362 0 0 0 .085 1.58 1.562 1.562 0 0 0 .606.947 1.827 1.827 0 0 0 1.126.332 2.499 2.499 0 0 0 1.268-.341 1.893 1.893 0 0 0 .833-.947 4.8 4.8 0 0 0 .247-1.732v-4.733h1.495v8.841z" id="path172" fill="#fff" stroke-width=".947"/>
  <path class="cls-2" d="M124.223 206.419v-12.202h1.495v12.202z" id="path174" fill="#fff" stroke-width=".947"/>
  <path class="cls-2" d="M131.02 205.074l.217 1.326a5.736 5.736 0 0 1-1.127.132 2.594 2.594 0 0 1-1.268-.255 1.42 1.42 0 0 1-.634-.682 5.386 5.386 0 0 1-.18-1.77v-5.083h-1.098v-1.164h1.098v-2.187l1.486-.947v3.086h1.505v1.164h-1.458v5.169a2.84 2.84 0 0 0 .076.823.663.663 0 0 0 .265.294 1.032 1.032 0 0 0 .511.104 5.055 5.055 0 0 0 .606-.01z" id="path176" fill="#fff" stroke-width=".947"/>
  <path class="cls-2" d="M137.986 206.419v-1.297a3.237 3.237 0 0 1-2.84 1.495 3.56 3.56 0 0 1-1.457-.302 2.385 2.385 0 0 1-1.013-.748 2.991 2.991 0 0 1-.464-1.117 8.103 8.103 0 0 1-.085-1.392v-5.48h1.495v4.903a8.169 8.169 0 0 0 .095 1.58 1.59 1.59 0 0 0 .596.947 1.827 1.827 0 0 0 1.127.332 2.499 2.499 0 0 0 1.268-.341 1.893 1.893 0 0 0 .833-.947 4.6 4.6 0 0 0 .246-1.732v-4.733h1.505v8.841z" id="path178" fill="#fff" stroke-width=".947"/>
  <path class="cls-2" d="M141.365 206.419v-8.841h1.344v1.344a3.72 3.72 0 0 1 .947-1.24 1.694 1.694 0 0 1 .947-.303 2.906 2.906 0 0 1 1.533.483l-.483 1.438a2.149 2.149 0 0 0-1.098-.322 1.439 1.439 0 0 0-.89.294 1.562 1.562 0 0 0-.548.814 5.755 5.755 0 0 0-.256 1.751v4.629z" id="path180" fill="#fff" stroke-width=".947"/>
  <path class="cls-2" d="M152.535 205.32a5.68 5.68 0 0 1-1.61 1.004 4.733 4.733 0 0 1-1.646.293 3.2 3.2 0 0 1-2.234-.71 2.366 2.366 0 0 1-.786-1.817 2.452 2.452 0 0 1 1.07-2.054 3.786 3.786 0 0 1 1.079-.492 10.299 10.299 0 0 1 1.325-.218 14.133 14.133 0 0 0 2.67-.52v-.389a1.666 1.666 0 0 0-.417-1.287 2.518 2.518 0 0 0-1.713-.511 2.622 2.622 0 0 0-1.553.369 2.224 2.224 0 0 0-.748 1.316l-1.467-.2a3.53 3.53 0 0 1 .663-1.523 2.84 2.84 0 0 1 1.316-.89 5.916 5.916 0 0 1 2.006-.312 5.197 5.197 0 0 1 1.837.265 2.452 2.452 0 0 1 1.041.672 2.329 2.329 0 0 1 .473 1.022 9.03 9.03 0 0 1 .067 1.382v1.988a20.143 20.143 0 0 0 .104 2.65 3.171 3.171 0 0 0 .378 1.06h-1.571a3.171 3.171 0 0 1-.284-1.097zm-.132-3.34a10.412 10.412 0 0 1-2.443.567 5.32 5.32 0 0 0-1.306.303 1.193 1.193 0 0 0-.587.483 1.268 1.268 0 0 0-.208.71 1.297 1.297 0 0 0 .454 1.003 1.94 1.94 0 0 0 1.325.398 3.124 3.124 0 0 0 1.534-.379 2.29 2.29 0 0 0 .947-1.041 3.588 3.588 0 0 0 .236-1.496z" id="path182" fill="#fff" stroke-width=".947"/>
  <path class="cls-2" d="M203.764 43.02l1.619.406a5.471 5.471 0 0 1-1.827 3.039 5.055 5.055 0 0 1-3.228 1.041 5.746 5.746 0 0 1-3.2-.805 4.941 4.941 0 0 1-1.893-2.328 8.34 8.34 0 0 1-.643-3.266 7.1 7.1 0 0 1 .729-3.322 4.97 4.97 0 0 1 2.073-2.159 6.001 6.001 0 0 1 2.953-.738 4.979 4.979 0 0 1 3.076.947 4.875 4.875 0 0 1 1.742 2.622l-1.59.369a3.786 3.786 0 0 0-1.23-1.893 3.266 3.266 0 0 0-2.026-.616 3.947 3.947 0 0 0-2.357.682 3.56 3.56 0 0 0-1.326 1.808 7.241 7.241 0 0 0-.378 2.338 7.421 7.421 0 0 0 .454 2.717 3.275 3.275 0 0 0 1.41 1.732 3.881 3.881 0 0 0 2.064.577 3.474 3.474 0 0 0 2.3-.785 3.957 3.957 0 0 0 1.278-2.367z" id="path184" fill="#fff" stroke-width=".947"/>
  <path class="cls-2" d="M206.33 42.877a4.553 4.553 0 0 1 1.363-3.635 4.156 4.156 0 0 1 2.782-.946 3.957 3.957 0 0 1 2.982 1.202 4.553 4.553 0 0 1 1.155 3.294 5.878 5.878 0 0 1-.511 2.688 3.663 3.663 0 0 1-1.496 1.515 4.316 4.316 0 0 1-2.13.54 3.976 3.976 0 0 1-3-1.193 4.733 4.733 0 0 1-1.146-3.465zm1.542 0a3.786 3.786 0 0 0 .739 2.546 2.385 2.385 0 0 0 1.893.843 2.357 2.357 0 0 0 1.893-.852 3.843 3.843 0 0 0 .738-2.584 3.663 3.663 0 0 0-.738-2.48 2.461 2.461 0 0 0-3.72 0 3.786 3.786 0 0 0-.805 2.527z" id="path186" fill="#fff" stroke-width=".947"/>
  <path class="cls-2" d="M215.52 42.877a4.553 4.553 0 0 1 1.364-3.635 4.108 4.108 0 0 1 2.773-.946 3.928 3.928 0 0 1 2.982 1.202 4.506 4.506 0 0 1 1.155 3.294 5.878 5.878 0 0 1-.511 2.688 3.635 3.635 0 0 1-1.486 1.515 4.354 4.354 0 0 1-2.14.54 3.947 3.947 0 0 1-3.01-1.231 4.733 4.733 0 0 1-1.126-3.427zm1.534 0a3.786 3.786 0 0 0 .748 2.546 2.452 2.452 0 0 0 3.71 0 3.786 3.786 0 0 0 .748-2.584 3.663 3.663 0 0 0-.747-2.48 2.452 2.452 0 0 0-3.711 0 3.71 3.71 0 0 0-.748 2.518z" id="path188" fill="#fff" stroke-width=".947"/>
  <path class="cls-2" d="M225.261 50.686v-12.22h1.363v1.145a3.417 3.417 0 0 1 1.089-1.012 2.991 2.991 0 0 1 1.476-.341 3.493 3.493 0 0 1 1.998.587 3.56 3.56 0 0 1 1.306 1.647 6.408 6.408 0 0 1-.047 4.733 3.682 3.682 0 0 1-3.36 2.243 2.84 2.84 0 0 1-1.345-.312 3.19 3.19 0 0 1-.946-.805v4.335zm1.354-7.752a3.881 3.881 0 0 0 .69 2.518 2.14 2.14 0 0 0 1.676.814 2.196 2.196 0 0 0 1.714-.843 4.032 4.032 0 0 0 .71-2.622 3.89 3.89 0 0 0-.701-2.527 2.092 2.092 0 0 0-1.657-.842 2.168 2.168 0 0 0-1.694.946 3.985 3.985 0 0 0-.738 2.556z" id="path190" fill="#fff" stroke-width=".947"/>
  <path class="cls-2" d="M240.501 44.449l1.543.198a3.834 3.834 0 0 1-1.354 2.102 4.6 4.6 0 0 1-5.603-.445 4.667 4.667 0 0 1-1.136-3.351 4.847 4.847 0 0 1 1.145-3.455 3.89 3.89 0 0 1 2.982-1.24 3.786 3.786 0 0 1 2.896 1.211 4.78 4.78 0 0 1 1.117 3.39v.406h-6.626a3.398 3.398 0 0 0 .824 2.225 2.442 2.442 0 0 0 1.893.776 2.272 2.272 0 0 0 1.41-.435 2.84 2.84 0 0 0 .91-1.382zm-4.922-2.414h4.932a3.039 3.039 0 0 0-.559-1.676 2.3 2.3 0 0 0-1.893-.861 2.414 2.414 0 0 0-1.742.681 2.764 2.764 0 0 0-.738 1.856z" id="path192" fill="#fff" stroke-width=".947"/>
  <path class="cls-2" d="M243.615 47.298v-8.832h1.354v1.335a3.72 3.72 0 0 1 .947-1.24 1.694 1.694 0 0 1 .946-.303 2.906 2.906 0 0 1 1.534.483l-.511 1.391a2.12 2.12 0 0 0-1.099-.322 1.391 1.391 0 0 0-.88.294 1.61 1.61 0 0 0-.558.823 5.68 5.68 0 0 0-.246 1.742v4.629z" id="path194" fill="#fff" stroke-width=".947"/>
  <path class="cls-2" d="M254.785 46.21a5.48 5.48 0 0 1-1.6.946 4.553 4.553 0 0 1-1.656.293 3.209 3.209 0 0 1-2.234-.71 2.348 2.348 0 0 1-.786-1.817 2.452 2.452 0 0 1 1.07-2.045 3.786 3.786 0 0 1 1.079-.492 11.7 11.7 0 0 1 1.335-.227 13.849 13.849 0 0 0 2.67-.511l-.001-.398a1.647 1.647 0 0 0-.426-1.287 2.508 2.508 0 0 0-1.704-.511 2.565 2.565 0 0 0-1.562.378 2.234 2.234 0 0 0-.747 1.306l-1.458-.198a3.701 3.701 0 0 1 .653-1.524 2.925 2.925 0 0 1 1.325-.89 5.878 5.878 0 0 1 2.007-.312 5.254 5.254 0 0 1 1.836.274 2.414 2.414 0 0 1 1.042.663 2.546 2.546 0 0 1 .463 1.022 8.756 8.756 0 0 1 .076 1.382v1.997a20.768 20.768 0 0 0 .095 2.641 3.389 3.389 0 0 0 .378 1.06h-1.561a3.114 3.114 0 0 1-.294-1.04zm-.123-3.352a10.583 10.583 0 0 1-2.452.568 5.803 5.803 0 0 0-1.306.303 1.354 1.354 0 0 0-.587.483 1.325 1.325 0 0 0 .246 1.713 1.96 1.96 0 0 0 1.326.398 3.086 3.086 0 0 0 1.542-.379 2.348 2.348 0 0 0 .947-1.032 3.644 3.644 0 0 0 .246-1.505z" id="path196" fill="#fff" stroke-width=".947"/>
  <path class="cls-2" d="M263.976 44.06l1.477.19a3.843 3.843 0 0 1-1.24 2.385 3.578 3.578 0 0 1-2.433.862 3.786 3.786 0 0 1-2.925-1.184 4.847 4.847 0 0 1-1.098-3.398 6.238 6.238 0 0 1 .474-2.508 3.294 3.294 0 0 1 1.448-1.61 4.24 4.24 0 0 1 2.101-.54 3.673 3.673 0 0 1 2.357.73 3.323 3.323 0 0 1 1.174 2.073l-1.458.217a2.357 2.357 0 0 0-.738-1.334 1.893 1.893 0 0 0-1.268-.445 2.338 2.338 0 0 0-1.846.804 3.843 3.843 0 0 0-.7 2.566 3.995 3.995 0 0 0 .68 2.593 2.206 2.206 0 0 0 1.78.805 2.082 2.082 0 0 0 1.468-.54 2.66 2.66 0 0 0 .747-1.666zm-3.464 4.355l.435-1.477h1.136l-.274.89a1.77 1.77 0 0 1 1.07.435 1.098 1.098 0 0 1 .36.786 1.391 1.391 0 0 1-.607 1.107 2.84 2.84 0 0 1-1.798.474 6.446 6.446 0 0 1-1.202-.095l.094-.947h.776a2.054 2.054 0 0 0 1.098-.217.492.492 0 0 0 .247-.407.426.426 0 0 0-.095-.275.776.776 0 0 0-.36-.199 3.389 3.389 0 0 0-.89-.075z" id="path198" fill="#fff" stroke-width=".947"/>
  <path class="cls-2" d="M272.202 46.21a5.48 5.48 0 0 1-1.6.946 4.59 4.59 0 0 1-1.656.293 3.209 3.209 0 0 1-2.234-.71 2.348 2.348 0 0 1-.786-1.817 2.461 2.461 0 0 1 .294-1.183 2.357 2.357 0 0 1 .776-.862 3.786 3.786 0 0 1 1.08-.492 11.851 11.851 0 0 1 1.324-.227 13.83 13.83 0 0 0 2.68-.511v-.398a1.647 1.647 0 0 0-.417-1.287 2.518 2.518 0 0 0-1.714-.511 2.546 2.546 0 0 0-1.552.378 2.234 2.234 0 0 0-.748 1.306l-1.467-.198a3.701 3.701 0 0 1 .663-1.524 2.925 2.925 0 0 1 1.325-.89 5.821 5.821 0 0 1 1.997-.312 5.272 5.272 0 0 1 1.846.274 2.376 2.376 0 0 1 1.032.663 2.433 2.433 0 0 1 .473 1.022 8.756 8.756 0 0 1 .076 1.382v1.997a20.768 20.768 0 0 0 .094 2.641 3.171 3.171 0 0 0 .379 1.06h-1.571a3.114 3.114 0 0 1-.294-1.04zm-4.988-9.05a1.893 1.893 0 0 1 .473-1.382 1.58 1.58 0 0 1 1.221-.52 3.35 3.35 0 0 1 1.401.454 1.96 1.96 0 0 0 .786.246.549.549 0 0 0 .407-.142 1.089 1.089 0 0 0 .199-.578h1.079a2.045 2.045 0 0 1-.474 1.42 1.552 1.552 0 0 1-1.154.473 3.124 3.124 0 0 1-1.382-.463 2.073 2.073 0 0 0-.815-.303.568.568 0 0 0-.454.198.852.852 0 0 0-.18.597zm4.865 5.68a10.583 10.583 0 0 1-2.451.567 5.803 5.803 0 0 0-1.307.303 1.297 1.297 0 0 0-.587.483 1.325 1.325 0 0 0 .247 1.713 1.94 1.94 0 0 0 1.325.398 3.086 3.086 0 0 0 1.543-.379 2.348 2.348 0 0 0 .946-1.032 3.644 3.644 0 0 0 .246-1.505z" id="path200" fill="#fff" stroke-width=".947"/>
  <path class="cls-2" d="M275.06 42.877a4.553 4.553 0 0 1 1.364-3.635 4.156 4.156 0 0 1 2.783-.946 3.957 3.957 0 0 1 2.982 1.202 4.553 4.553 0 0 1 1.155 3.294 5.878 5.878 0 0 1-.512 2.688 3.663 3.663 0 0 1-1.495 1.515 4.316 4.316 0 0 1-2.13.54 3.976 3.976 0 0 1-3-1.193 4.733 4.733 0 0 1-1.146-3.465zm1.544 0a3.786 3.786 0 0 0 .738 2.546 2.385 2.385 0 0 0 1.893.843 2.348 2.348 0 0 0 1.894-.852 3.843 3.843 0 0 0 .738-2.584 3.663 3.663 0 0 0-.738-2.48 2.461 2.461 0 0 0-3.72 0 3.786 3.786 0 0 0-.805 2.527z" id="path202" fill="#fff" stroke-width=".947"/>
  <path class="cls-2" d="M195.624 72.95V54.662h7.771a13.252 13.252 0 0 1 4.27.492 4.156 4.156 0 0 1 2.12 1.752 5.206 5.206 0 0 1 .804 2.84 4.922 4.922 0 0 1-1.212 3.407 5.803 5.803 0 0 1-3.625 1.732 8.955 8.955 0 0 1 1.978 1.534 21.639 21.639 0 0 1 2.111 2.972l2.234 3.569h-4.42l-2.67-3.976a24.375 24.375 0 0 0-1.95-2.688 2.934 2.934 0 0 0-1.107-.767 6.285 6.285 0 0 0-1.893-.208h-.748v7.639zm3.691-10.554h2.736a14.028 14.028 0 0 0 3.322-.227 1.988 1.988 0 0 0 1.032-.777 2.395 2.395 0 0 0 .379-1.372 2.215 2.215 0 0 0-.492-1.486 2.3 2.3 0 0 0-1.401-.72c-.294 0-1.193-.057-2.689-.057h-2.887z" id="path204" fill="#fff" stroke-width=".947"/>
  <path class="cls-2" d="M221.285 68.738l3.493.587a5.803 5.803 0 0 1-2.13 2.925 6.21 6.21 0 0 1-3.634 1.003 5.935 5.935 0 0 1-5.121-2.262 7.573 7.573 0 0 1-1.307-4.563 7.28 7.28 0 0 1 1.723-5.159 5.68 5.68 0 0 1 4.354-1.893 5.869 5.869 0 0 1 4.667 1.95q1.704 1.94 1.638 5.983h-8.785a3.512 3.512 0 0 0 .843 2.423 2.641 2.641 0 0 0 2.026.87 2.158 2.158 0 0 0 1.382-.416 2.764 2.764 0 0 0 .851-1.448zm.2-3.55a3.37 3.37 0 0 0-.786-2.31 2.537 2.537 0 0 0-3.72 0 3.228 3.228 0 0 0-.739 2.272z" id="path206" fill="#fff" stroke-width=".947"/>
  <path class="cls-2" d="M227.287 59.698h3.275v1.95a4.809 4.809 0 0 1 4.127-2.243 5.036 5.036 0 0 1 3.919 1.808 7.327 7.327 0 0 1 1.61 5.035 7.573 7.573 0 0 1-1.62 5.169 5.083 5.083 0 0 1-3.966 1.836 4.44 4.44 0 0 1-1.988-.435 6.778 6.778 0 0 1-1.893-1.496v6.626h-3.512zm3.474 6.408a5.112 5.112 0 0 0 .88 3.294 2.736 2.736 0 0 0 2.158 1.07 2.537 2.537 0 0 0 2.035-.946 5.045 5.045 0 0 0 .815-3.21 4.837 4.837 0 0 0-.833-3.095 2.594 2.594 0 0 0-2.073-1.013 2.698 2.698 0 0 0-2.14.947 4.458 4.458 0 0 0-.842 2.953z" id="path208" fill="#fff" stroke-width=".947"/>
  <path class="cls-2" d="M245.925 72.95h-3.512V59.698h3.256v1.893a5.68 5.68 0 0 1 1.506-1.76 2.764 2.764 0 0 1 1.514-.417 4.477 4.477 0 0 1 2.31.653l-1.08 3.058a3.133 3.133 0 0 0-1.646-.568 1.893 1.893 0 0 0-1.25.407 2.707 2.707 0 0 0-.804 1.467 20.531 20.531 0 0 0-.294 4.44z" id="path210" fill="#fff" stroke-width=".947"/>
  <path class="cls-2" d="M259.755 68.738l3.493.587a5.803 5.803 0 0 1-2.111 2.925 6.21 6.21 0 0 1-3.635 1.003 5.935 5.935 0 0 1-5.121-2.262 7.573 7.573 0 0 1-1.307-4.563 7.28 7.28 0 0 1 1.723-5.159 5.68 5.68 0 0 1 4.355-1.893 5.878 5.878 0 0 1 4.666 1.95q1.704 1.94 1.638 5.983h-8.794a3.56 3.56 0 0 0 .852 2.423 2.622 2.622 0 0 0 2.026.87 2.177 2.177 0 0 0 1.382-.444 2.84 2.84 0 0 0 .833-1.42zm.198-3.55a3.417 3.417 0 0 0-.785-2.31 2.537 2.537 0 0 0-3.72 0 3.228 3.228 0 0 0-.739 2.272z" id="path212" fill="#fff" stroke-width=".947"/>
  <path class="cls-2" d="M264.62 69.173l3.521-.501a2.584 2.584 0 0 0 .947 1.552 3.03 3.03 0 0 0 1.893.53 3.465 3.465 0 0 0 2.045-.492 1.117 1.117 0 0 0 .464-.947.947.947 0 0 0-.247-.662 2.783 2.783 0 0 0-1.173-.464q-4.25-.947-5.377-1.713a3.398 3.398 0 0 1-1.58-2.982 3.682 3.682 0 0 1 1.362-2.897 6.408 6.408 0 0 1 4.222-1.164 7.402 7.402 0 0 1 4.042.88 4.553 4.553 0 0 1 1.818 2.622l-3.304.616a2.035 2.035 0 0 0-.805-1.193 2.953 2.953 0 0 0-1.694-.407 3.72 3.72 0 0 0-1.978.388.824.824 0 0 0-.398.71.776.776 0 0 0 .34.634 13.252 13.252 0 0 0 3.285.947 9.769 9.769 0 0 1 3.91 1.562 3.256 3.256 0 0 1 1.098 2.612 4.023 4.023 0 0 1-1.524 3.133 6.75 6.75 0 0 1-4.506 1.307 7.412 7.412 0 0 1-4.288-1.098 5.036 5.036 0 0 1-2.073-2.973z" id="path214" fill="#fff" stroke-width=".947"/>
  <path class="cls-2" d="M287.31 68.738l3.493.587a5.68 5.68 0 0 1-2.13 2.925 6.21 6.21 0 0 1-3.635 1.003 5.935 5.935 0 0 1-5.112-2.262 7.573 7.573 0 0 1-1.315-4.563 7.317 7.317 0 0 1 1.722-5.159 5.68 5.68 0 0 1 4.355-1.893 5.85 5.85 0 0 1 4.666 1.95c1.146 1.297 1.685 3.294 1.638 5.983h-8.784a3.512 3.512 0 0 0 .852 2.423 2.622 2.622 0 0 0 2.016.87 2.158 2.158 0 0 0 1.382-.444 2.764 2.764 0 0 0 .852-1.42zm.199-3.55a3.332 3.332 0 0 0-.786-2.31 2.414 2.414 0 0 0-1.818-.795 2.442 2.442 0 0 0-1.893.833 3.313 3.313 0 0 0-.738 2.272z" id="path216" fill="#fff" stroke-width=".947"/>
  <path class="cls-2" d="M305.475 72.95h-3.512v-6.758a10.412 10.412 0 0 0-.227-2.783 1.893 1.893 0 0 0-.73-.947 2.035 2.035 0 0 0-1.21-.35 2.84 2.84 0 0 0-1.638.501 2.499 2.499 0 0 0-.994 1.326 11.482 11.482 0 0 0-.265 3.048v6.001h-3.512V59.736h3.256v1.95a5.32 5.32 0 0 1 4.373-2.244 5.168 5.168 0 0 1 2.12.417 3.578 3.578 0 0 1 1.458 1.06 4.06 4.06 0 0 1 .682 1.477 10.659 10.659 0 0 1 .199 2.357z" id="path218" fill="#fff" stroke-width=".947"/>
  <path class="cls-2" d="M314.666 59.698v2.84h-2.414v5.338a12.306 12.306 0 0 0 .076 1.894.7.7 0 0 0 .312.445.947.947 0 0 0 .587.18 4.506 4.506 0 0 0 1.41-.341l.304 2.726a7.137 7.137 0 0 1-2.774.52 4.316 4.316 0 0 1-1.713-.321 2.47 2.47 0 0 1-1.117-.824 3.237 3.237 0 0 1-.492-1.363 17.266 17.266 0 0 1-.105-2.47v-5.775h-1.6v-2.84h1.62v-2.64l3.492-2.045v4.676z" id="path220" fill="#fff" stroke-width=".947"/>
  <path class="cls-2" d="M319.295 63.74l-3.19-.568a4.97 4.97 0 0 1 1.846-2.84 6.796 6.796 0 0 1 3.9-.946 8.425 8.425 0 0 1 3.493.549 3.493 3.493 0 0 1 1.618 1.41 7.25 7.25 0 0 1 .436 3.162v4.089a14 14 0 0 0 .17 2.575 7.734 7.734 0 0 0 .625 1.78h-3.465a10.9 10.9 0 0 1-.34-1.033c-.057-.208-.095-.35-.124-.416a6.276 6.276 0 0 1-1.893 1.316 5.471 5.471 0 0 1-2.186.435 4.506 4.506 0 0 1-3.219-1.107 3.71 3.71 0 0 1-1.183-2.84 3.786 3.786 0 0 1 .54-2.007 3.465 3.465 0 0 1 1.505-1.344 11.454 11.454 0 0 1 2.783-.814 19.727 19.727 0 0 0 3.407-.862v-.34a1.817 1.817 0 0 0-.501-1.449 3 3 0 0 0-1.894-.426 2.092 2.092 0 0 0-2.3 1.657zm4.685 2.84a20.74 20.74 0 0 1-2.13.54 6.55 6.55 0 0 0-1.893.605 1.467 1.467 0 0 0-.681 1.24 1.704 1.704 0 0 0 .549 1.268 1.893 1.893 0 0 0 1.391.54 3.01 3.01 0 0 0 1.808-.625 2.168 2.168 0 0 0 .843-1.164 7.232 7.232 0 0 0 .132-1.704z" id="path222" fill="#fff" stroke-width=".947"/>
  <path class="cls-2" d="M342.003 63.617l-3.455.625a2.48 2.48 0 0 0-.795-1.562 2.376 2.376 0 0 0-1.6-.52 2.632 2.632 0 0 0-2.091.946 4.657 4.657 0 0 0-.777 3.029 5.348 5.348 0 0 0 .786 3.332 2.594 2.594 0 0 0 2.13.946 2.376 2.376 0 0 0 1.637-.568 3.446 3.446 0 0 0 .947-1.95l3.436.587a6.058 6.058 0 0 1-2.054 3.578 6.38 6.38 0 0 1-4.08 1.212 6.077 6.077 0 0 1-4.638-1.836 7.09 7.09 0 0 1-1.723-5.074 7.109 7.109 0 0 1 1.732-5.112 6.143 6.143 0 0 1 4.686-1.827 6.352 6.352 0 0 1 3.853 1.042 5.746 5.746 0 0 1 2.006 3.152zm-9.465 14.369v-1.477a21.771 21.771 0 0 0 2.357.142 2.773 2.773 0 0 0 1.647-.407.947.947 0 0 0 .416-.766.947.947 0 0 0-.388-.739 1.893 1.893 0 0 0-1.202-.312 5.86 5.86 0 0 0-1.628.246l.322-1.23a6.257 6.257 0 0 1 2.092-.341 3.56 3.56 0 0 1 2.375.69 2.11 2.11 0 0 1 .815 1.667 2.158 2.158 0 0 1-.9 1.789 5.604 5.604 0 0 1-3.474.946 11.141 11.141 0 0 1-2.414-.208z" id="path224" fill="#fff" stroke-width=".947"/>
  <path class="cls-2" d="M346.85 63.74l-3.18-.568a4.875 4.875 0 0 1 1.845-2.84 6.75 6.75 0 0 1 3.89-.946 8.425 8.425 0 0 1 3.494.549 3.493 3.493 0 0 1 1.618 1.41 7.25 7.25 0 0 1 .464 3.143v4.089a14 14 0 0 0 .17 2.575 7.364 7.364 0 0 0 .635 1.78h-3.474a15.637 15.637 0 0 1-.332-1.033c-.066-.208-.104-.35-.132-.416a6.352 6.352 0 0 1-1.893 1.316 5.528 5.528 0 0 1-2.187.435 4.534 4.534 0 0 1-3.228-1.107 3.71 3.71 0 0 1-1.183-2.84 3.786 3.786 0 0 1 .54-2.007 3.521 3.521 0 0 1 1.486-1.297 11.416 11.416 0 0 1 2.84-.814 19.727 19.727 0 0 0 3.407-.861v-.37a1.893 1.893 0 0 0-.502-1.448 3.02 3.02 0 0 0-1.893-.426 2.527 2.527 0 0 0-1.467.37 2.613 2.613 0 0 0-.918 1.306zm0-5.822h-1.6v-.454a2.906 2.906 0 0 1 .634-2.016 2.13 2.13 0 0 1 1.638-.7 3.2 3.2 0 0 1 .814.094 9.655 9.655 0 0 1 1.363.53 4.051 4.051 0 0 0 1.553.445.947.947 0 0 0 .672-.246 1.344 1.344 0 0 0 .34-.843h1.62a3.786 3.786 0 0 1-.626 2.414 2.007 2.007 0 0 1-1.59.72 4.174 4.174 0 0 1-.842-.086c-.19-.047-.663-.217-1.43-.51a5.367 5.367 0 0 0-1.675-.436.824.824 0 0 0-.625.246 1.259 1.259 0 0 0-.274.842zm4.733 8.671a21.771 21.771 0 0 1-2.14.54 6.55 6.55 0 0 0-1.893.605 1.467 1.467 0 0 0-.681 1.24 1.704 1.704 0 0 0 .549 1.269 1.893 1.893 0 0 0 1.391.54 3.057 3.057 0 0 0 1.818-.625 2.149 2.149 0 0 0 .833-1.165 6.626 6.626 0 0 0 .142-1.703z" id="path226" fill="#fff" stroke-width=".947"/>
  <path class="cls-2" d="M357.196 66.135a7.118 7.118 0 0 1 .861-3.38 5.85 5.85 0 0 1 2.471-2.49 7.185 7.185 0 0 1 3.521-.86 6.626 6.626 0 0 1 4.932 1.95 6.74 6.74 0 0 1 1.893 4.931 6.853 6.853 0 0 1-1.94 4.989 6.626 6.626 0 0 1-4.885 1.978 7.658 7.658 0 0 1-3.474-.823 5.68 5.68 0 0 1-2.518-2.414 8.027 8.027 0 0 1-.86-3.881zm3.597.19a4.345 4.345 0 0 0 .947 3.019 3.057 3.057 0 0 0 4.61 0 4.468 4.468 0 0 0 .946-3.039 4.392 4.392 0 0 0-.946-3 3.057 3.057 0 0 0-4.61 0 4.345 4.345 0 0 0-.947 3.02z" id="path228" fill="#fff" stroke-width=".947"/>
  <path class="cls-2" d="M207.645 100.401h-3.512v-6.758a10.412 10.412 0 0 0-.227-2.783 1.893 1.893 0 0 0-.729-.947 2.035 2.035 0 0 0-1.211-.35 2.84 2.84 0 0 0-1.638.501 2.499 2.499 0 0 0-.994 1.326 11.482 11.482 0 0 0-.265 3.048v6.001h-3.512V87.187h3.257v1.95a5.32 5.32 0 0 1 4.373-2.244 5.168 5.168 0 0 1 2.12.417 3.578 3.578 0 0 1 1.458 1.06 4.06 4.06 0 0 1 .681 1.477 10.659 10.659 0 0 1 .2 2.357z" id="path230" fill="#fff" stroke-width=".947"/>
  <path class="cls-2" d="M209.955 93.586a7.118 7.118 0 0 1 .861-3.38 5.831 5.831 0 0 1 2.433-2.49 7.25 7.25 0 0 1 3.53-.86 6.626 6.626 0 0 1 4.932 1.95 6.74 6.74 0 0 1 1.894 4.931 6.853 6.853 0 0 1-1.94 4.989 6.626 6.626 0 0 1-4.895 1.978 7.715 7.715 0 0 1-3.474-.823 5.623 5.623 0 0 1-2.508-2.414 8.027 8.027 0 0 1-.833-3.881zm3.587.189a4.383 4.383 0 0 0 .947 3.02 2.972 2.972 0 0 0 2.31 1.05 2.934 2.934 0 0 0 2.3-1.05 4.42 4.42 0 0 0 .946-3.039 4.354 4.354 0 0 0-.946-3 2.934 2.934 0 0 0-2.3-1.051 2.972 2.972 0 0 0-2.31 1.05 4.383 4.383 0 0 0-.947 3.02z" id="path232" fill="#fff" stroke-width=".947"/>
  <path class="cls-2" d="M232.644 82.113h7.308a21.033 21.033 0 0 1 3.247.18 4.667 4.667 0 0 1 1.893.748 4.79 4.79 0 0 1 1.41 1.533 4.373 4.373 0 0 1-.132 4.497 4.279 4.279 0 0 1-1.893 1.609 4.837 4.837 0 0 1 2.593 1.656 4.392 4.392 0 0 1 .9 2.755 5.528 5.528 0 0 1-.578 2.423 4.95 4.95 0 0 1-1.59 1.893 5.263 5.263 0 0 1-2.48.862c-.615.066-2.092.113-4.449.123h-6.229zm3.692 3.039v4.23h2.423c1.44 0 2.329 0 2.68-.056a2.414 2.414 0 0 0 1.495-.663 1.893 1.893 0 0 0 .54-1.429 1.997 1.997 0 0 0-.464-1.372 2.101 2.101 0 0 0-1.392-.644c-.37 0-1.42-.066-3.161-.066zm0 7.279v4.894h3.417a16.565 16.565 0 0 0 2.537-.114 2.329 2.329 0 0 0 1.344-.729 2.272 2.272 0 0 0 .511-1.552 2.395 2.395 0 0 0-.397-1.401 2.206 2.206 0 0 0-1.155-.833 12.23 12.23 0 0 0-3.228-.265z" id="path234" fill="#fff" stroke-width=".947"/>
  <path class="cls-2" d="M253.99 100.401h-3.512V87.15h3.256v1.893a5.68 5.68 0 0 1 1.505-1.76 2.736 2.736 0 0 1 1.515-.417 4.477 4.477 0 0 1 2.31.653l-1.089 3.058a3.076 3.076 0 0 0-1.647-.568 1.893 1.893 0 0 0-1.24.407 2.707 2.707 0 0 0-.805 1.467 20.531 20.531 0 0 0-.293 4.44z" id="path236" fill="#fff" stroke-width=".947"/>
  <path class="cls-2" d="M262.765 91.19l-3.19-.567a4.932 4.932 0 0 1 1.893-2.84 6.75 6.75 0 0 1 3.89-.946 8.425 8.425 0 0 1 3.493.549 3.493 3.493 0 0 1 1.619 1.41 7.25 7.25 0 0 1 .464 3.143v4.089a14 14 0 0 0 .17 2.575 7.364 7.364 0 0 0 .634 1.78h-3.474c-.094-.228-.198-.578-.33-1.033-.067-.208-.105-.35-.133-.416a6.276 6.276 0 0 1-1.894 1.316 5.452 5.452 0 0 1-2.177.435 4.515 4.515 0 0 1-3.228-1.107 3.71 3.71 0 0 1-1.183-2.84 3.786 3.786 0 0 1 .54-2.007 3.521 3.521 0 0 1 1.505-1.344 11.454 11.454 0 0 1 2.783-.814 19.244 19.244 0 0 0 3.408-.862v-.321a1.893 1.893 0 0 0-.493-1.449 3.039 3.039 0 0 0-1.893-.426 2.527 2.527 0 0 0-1.467.37 2.49 2.49 0 0 0-.937 1.306zm4.685 2.84a20.74 20.74 0 0 1-2.13.54 6.55 6.55 0 0 0-1.893.606 1.467 1.467 0 0 0-.681 1.24 1.704 1.704 0 0 0 .549 1.268 1.893 1.893 0 0 0 1.391.54 3.057 3.057 0 0 0 1.818-.625 2.196 2.196 0 0 0 .833-1.164 7.232 7.232 0 0 0 .132-1.704z" id="path238" fill="#fff" stroke-width=".947"/>
  <path class="cls-2" d="M272.685 96.624l3.521-.54a2.584 2.584 0 0 0 .947 1.553 3.03 3.03 0 0 0 1.893.53 3.465 3.465 0 0 0 2.045-.492 1.117 1.117 0 0 0 .464-.947.947.947 0 0 0-.247-.662 2.783 2.783 0 0 0-1.173-.464q-4.25-.947-5.386-1.713a3.417 3.417 0 0 1-1.572-2.982 3.682 3.682 0 0 1 1.363-2.897 6.39 6.39 0 0 1 4.222-1.164 7.402 7.402 0 0 1 4.042.88 4.553 4.553 0 0 1 1.817 2.622l-3.303.616a2.035 2.035 0 0 0-.805-1.193 2.953 2.953 0 0 0-1.694-.407 3.72 3.72 0 0 0-1.978.388.833.833 0 0 0-.408.71.786.786 0 0 0 .35.634 13.252 13.252 0 0 0 3.276.947 9.76 9.76 0 0 1 3.919 1.562 3.256 3.256 0 0 1 1.098 2.612 4.023 4.023 0 0 1-1.524 3.133 6.75 6.75 0 0 1-4.506 1.307 7.412 7.412 0 0 1-4.288-1.098 5.036 5.036 0 0 1-2.073-2.935z" id="path240" fill="#fff" stroke-width=".947"/>
  <path class="cls-2" d="M287.698 85.35v-3.237h3.512v3.237zm0 15.051V87.15h3.512V100.4z" id="path242" fill="#fff" stroke-width=".947"/>
  <path class="cls-2" d="M294.362 100.401V82.113h3.512v18.288z" id="path244" fill="#fff" stroke-width=".947"/>
</svg>
