<svg xmlns="http://www.w3.org/2000/svg" viewBox="0 0 468.13 212.6" height="200">
    <defs>
        <style>
            .cls-1,.cls-2{fill:#fff;}.cls-1{fill-rule:evenodd;}
        </style>
    </defs>
    <title>
        Unesco
    </title>
    <path class="cls-1" d="M234.67,0a8.48,8.48,0,0,1,.84,1.33,2,2,0,0,1-.61,2.4,1.58,1.58,0,0,1-2.25,0A2,2,0,0,1,232,1.36,9.19,9.19,0,0,1,232.78,0Z"/>
    <path class="cls-1" d="M235.68,9.57a1.88,1.88,0,0,1-1.86,1.9,1.86,1.86,0,0,1-1.94-2.05,1.89,1.89,0,0,1,1.84-2.17C234.83,7.22,235.57,8,235.68,9.57Z"/>
    <path class="cls-1" d="M233.79,91.07a1.93,1.93,0,0,1-1.91-2.16,1.82,1.82,0,0,1,2-2A1.85,1.85,0,0,1,235.66,89,1.87,1.87,0,0,1,233.79,91.07Z"/>
    <path class="cls-1" d="M235.7,109.92c-.12,1.19-.67,2.13-1.83,2.17a2.12,2.12,0,0,1-.2-4.21C234.85,107.82,235.49,108.62,235.7,109.92Z"/>
    <path class="cls-1" d="M235.68,168.51c-.09,1.34-.76,2.17-1.9,2.17a2.12,2.12,0,0,1,0-4.21C234.92,166.46,235.55,167.28,235.68,168.51Z"/>
    <path class="cls-1" d="M233.75,31.73a1.85,1.85,0,0,1,1.9,2.16,1.9,1.9,0,1,1-3.77-.19C231.93,32.42,232.64,31.71,233.75,31.73Z"/>
    <path class="cls-1" d="M233.86,97.12a1.9,1.9,0,0,1,1.78,2.16c0,1.26-.71,2.08-1.93,2a1.85,1.85,0,0,1-1.83-2.14A1.89,1.89,0,0,1,233.86,97.12Z"/>
    <path class="cls-1" d="M233.68,19.35a1.81,1.81,0,0,1-1.78-2.14c0-1.3.8-2.06,1.94-2a1.89,1.89,0,0,1,1.81,2.18C235.59,18.62,234.93,19.41,233.68,19.35Z"/>
    <path class="cls-1" d="M233.6,27.3c-1.08,0-1.73-.82-1.72-2.09s.71-2.11,1.89-2.08a1.9,1.9,0,0,1,1.88,2.13A1.85,1.85,0,0,1,233.6,27.3Z"/>
    <path class="cls-1" d="M233.53,81c-1-.08-1.68-.85-1.65-2.13a1.9,1.9,0,1,1,3.77.14A1.87,1.87,0,0,1,233.53,81Z"/>
    <path class="cls-1" d="M235.69,121.93c-.12,1.42-.63,2.31-1.85,2.34a1.82,1.82,0,0,1-2-2c0-1.26.56-2.09,1.79-2.15S235.44,120.91,235.69,121.93Z"/>
    <path class="cls-1" d="M235.66,42.36c-.14,1.3-.76,2.09-1.95,2.06s-1.84-.87-1.81-2.15a1.84,1.84,0,0,1,1.92-2C235,40.25,235.55,41.13,235.66,42.36Z"/>
    <path class="cls-1" d="M233.78,53.23A2.12,2.12,0,0,1,233.7,49c1.17-.05,1.9.73,1.93,2A1.92,1.92,0,0,1,233.78,53.23Z"/>
    <path class="cls-1" d="M233.79,62a2.11,2.11,0,0,1-.06-4.2c1.19,0,1.88.8,1.9,2.07A1.88,1.88,0,0,1,233.79,62Z"/>
    <path class="cls-1" d="M233.62,190.16a1.85,1.85,0,0,1-1.73-2.2,1.8,1.8,0,0,1,2-2,2.09,2.09,0,0,1-.25,4.16Z"/>
    <path class="cls-1" d="M235.69,135.58c-.18,1.39-.85,2.19-2,2.14a1.88,1.88,0,0,1-1.8-2.19c.07-1.26.75-2,2-2S235.53,134.49,235.69,135.58Z"/>
    <path class="cls-1" d="M233.64,208a2.1,2.1,0,0,1,.14,4.19,1.82,1.82,0,0,1-1.89-2.07A1.87,1.87,0,0,1,233.64,208Z"/>
    <path class="cls-1" d="M233.45,149.42a2.09,2.09,0,0,1,.39,4.16,1.82,1.82,0,0,1-2-2C231.85,150.3,232.47,149.51,233.45,149.42Z"/>
    <path class="cls-1" d="M235.67,69.33c-.09,1.3-.64,2.15-1.84,2.19a1.8,1.8,0,0,1-1.93-2,1.85,1.85,0,0,1,1.8-2.16C234.91,67.31,235.49,68.13,235.67,69.33Z"/>
    <path class="cls-1" d="M147.36,122.11q-32,0-63.93,0c-.74,0-1.91.49-2.15-.47a13.7,13.7,0,0,1,0-3.73c0-.11.4-.26.62-.29.43,0,.88,0,1.31,0q64.12,0,128.24,0c.69,0,1.84-.42,2,.36a11.42,11.42,0,0,1,0,3.91c-.07.44-.9.23-1.38.23H147.36Z"/>
    <path class="cls-1" d="M201.71,41.85l-20.82-6.28q-16.32-4.93-32.64-9.88a4.47,4.47,0,0,0-2.73.12q-25.8,7.92-51.61,15.77c-.17.06-.35.09-.82.2,0-1.48,0-2.87,0-4.27,0-1.11,1-1,1.64-1.18q21-6.51,42.1-13c3-.93,6.09-1.81,9.12-2.8a4.53,4.53,0,0,1,2.91,0C165.64,25.75,182.41,31,199.22,36c2,.6,2.82,1.41,2.5,3.44A17,17,0,0,0,201.71,41.85Z"/>
    <path class="cls-1" d="M147.15,114.39c-19.5,0-39,0-58.48.06-2.2,0-1.85-1.1-1.86-2.39s-.21-2.25,1.82-2.24q58.58.12,117.15,0c1.68,0,1.92.54,1.86,2-.12,2.56,0,2.56-2.58,2.56Z"/>
    <path class="cls-1" d="M147.34,106.55c-17.49,0-35,0-52.47,0-1.5,0-1.88-.41-1.81-1.86.11-2.69,0-2.69,2.66-2.69q52,0,104,0c.65,0,1.73-.51,1.91.51a10.06,10.06,0,0,1-.1,3.71c-.13.58-1.13.26-1.72.26Z"/>
    <path class="cls-1" d="M147.33,44.78c17.5,0,35,0,52.49,0,1.58,0,2.1.4,1.91,2-.15,1.27.47,2.6-1.91,2.59q-52.38-.13-104.77,0c-1.5,0-2.09-.26-2-1.9.14-2.58,0-2.58,2.56-2.58Z"/>
    <path class="cls-1" d="M191.48,41.59c-8,1-15.66-.3-23.2-3-6.42-2.26-13-4-19.51-6a4.67,4.67,0,0,0-2.91,0c-9.51,2.87-19,5.68-28.54,8.56a14.14,14.14,0,0,1-4.42.66c-3.44-.05-6.88,0-10.38-.3,4.49-1.38,9-2.78,13.48-4.15q15-4.59,30.11-9.18a3.77,3.77,0,0,1,2.35-.05q20.94,6.52,41.89,13A11.14,11.14,0,0,1,191.48,41.59Z"/>
    <path class="cls-1" d="M107,74.79V95.47c0,2.86-1.1,4.14-3.6,4.18s-3.92-1.28-3.92-4.09c0-14,0-27.95,0-41.92,0-1.29.28-1.78,1.64-1.69,1,.06,1.31.32,1.28,1.3,0,2.32,0,4.64,0,7q0,17.29,0,34.59c0,.25,0,.5,0,.75,0,.6-.19,1.42.72,1.46s1-.73,1-1.46q0-7,0-14.1V53.82c0-1-.26-1.9,1.41-1.9s1.55.9,1.55,2C107,60.87,107,67.83,107,74.79Z"/>
    <path class="cls-1" d="M122.44,74.68c0-7,0-14,0-21.06,0-1.07,0-1.83,1.46-1.66.75.09,1,.35.94,1,0,.32,0,.63,0,.94q0,21.92,0,43.83c0,.69.64,1.79-1,1.93s-1.55-.83-1.65-1.83c-.69-7.09-1.38-14.19-2.1-21.56a4.27,4.27,0,0,0-.41,2.55q0,9.6,0,19.19c0,.94.06,1.67-1.31,1.66s-1.14-.8-1.14-1.59V53.53c0-.78-.23-1.59,1.13-1.59s1.39.63,1.5,1.6c.76,7,1.55,14.05,2.33,21.08Z"/>
    <path class="cls-1" d="M156.42,89.09c.76-5.07-1.2-10.55-2.93-16-1.85-5.88-1.44-11.88-1.4-17.87,0-2.08,1.75-3.29,4.07-3.2a3.09,3.09,0,0,1,3.26,3.33c.05,3.26,0,6.52.05,9.77,0,1.36-.76,1.12-1.56,1.14s-1.55.09-1.51-1.2c.09-2.88,0-5.76,0-8.65,0-.66.34-1.78-.75-1.75s-.55,1.07-.61,1.69c-.71,8,.95,15.64,3.36,23.21,1.8,5.61.92,11.43,1,17.17,0,1.92-1.7,3-3.86,3s-3.41-1.17-3.46-3.19c-.08-3.76,0-7.52,0-11.28,0-1.3.89-.91,1.55-1s1.51-.19,1.48,1c-.05,3.07,0,6.14,0,9.22,0,.5,0,1,0,1.5s.15,1,.69,1,.65-.51.65-1Z"/>
    <path class="cls-1" d="M169.85,75.71c0-6.58,0-13.17,0-19.75,0-2.56,1.25-3.89,3.52-4a3.53,3.53,0,0,1,4,3.56c.09,3.2,0,6.4.05,9.6,0,1.42-.89,1-1.63,1.07s-1.41.1-1.37-1.11c.1-3,0-6,0-9,0-.71,0-1.53-.93-1.54s-.95.82-.95,1.52q0,19.67,0,39.31c0,.81.11,1.67,1.09,1.61s.8-.95.8-1.64c0-3.19,0-6.39,0-9.59,0-1.19.26-1.57,1.52-1.59s1.49.58,1.47,1.68c0,3.26,0,6.52,0,9.78,0,2.66-1.39,4.05-3.87,4s-3.63-1.31-3.64-4C169.84,89,169.85,82.36,169.85,75.71Z"/>
    <path class="cls-1" d="M135.36,75.69c0-7.21.07-14.42-.05-21.63,0-1.81.55-2.29,2.2-2.09a15.39,15.39,0,0,0,2.63,0c1,0,1.63,0,1.6,1.32s-.65,1.31-1.52,1.19c-1.2-.17-1.59.24-1.57,1.5.08,5.14.07,10.28,0,15.42,0,1.24.34,1.73,1.57,1.53,1.05-.17,1.52.1,1.53,1.36s-.54,1.49-1.55,1.33c-1.23-.2-1.56.28-1.55,1.51.07,6.08.08,12.17,0,18.24,0,1.42.34,1.92,1.75,1.72a4,4,0,0,1,2,.08c.69.29.25,1.12.31,1.71s-.44.77-1,.76c-1.63,0-3.27-.08-4.89,0-1.3.09-1.54-.43-1.54-1.61C135.38,90.61,135.36,83.15,135.36,75.69Z"/>
    <path class="cls-2" d="M195.43,55.74c0-2.47-1.24-3.7-3.67-3.75-2.77-.06-4.16,1.36-4.16,4.33q0,19.54,0,39.08c0,2.82,1.3,4.24,3.83,4.25s4-1.42,4-4.27V75.84C195.44,69.14,195.45,62.44,195.43,55.74ZM191.58,97c-1.17,0-1-1-1-1.83V56.29c0-.66-.18-1.54.74-1.71,1.39-.24,1.26.84,1.26,1.72V75.84c0,6.45,0,12.9,0,19.36C192.54,96,192.86,97,191.58,97Z"/>
    <path class="cls-2" d="M116.87,150.74a7,7,0,0,1,1.72-5A5.88,5.88,0,0,1,123,143.9a6.18,6.18,0,0,1,3.22.86,5.56,5.56,0,0,1,2.18,2.37,7.75,7.75,0,0,1,.75,3.46,7.56,7.56,0,0,1-.79,3.51,5.34,5.34,0,0,1-2.24,2.34,6.42,6.42,0,0,1-3.13.8,6.16,6.16,0,0,1-3.25-.88,5.72,5.72,0,0,1-2.17-2.4A7.34,7.34,0,0,1,116.87,150.74Zm1.76,0a5.2,5.2,0,0,0,1.25,3.67,4.13,4.13,0,0,0,3.14,1.34,4.09,4.09,0,0,0,3.17-1.36,5.46,5.46,0,0,0,1.25-3.84,6.47,6.47,0,0,0-.54-2.74,4,4,0,0,0-1.55-1.82,4.22,4.22,0,0,0-2.3-.65,4.4,4.4,0,0,0-3.12,1.24C119.06,147.44,118.63,148.83,118.63,150.77Z"/>
    <path class="cls-2" d="M130.87,157v-9.34h1.42v1.42a3.81,3.81,0,0,1,1-1.31,1.73,1.73,0,0,1,1-.32,3.1,3.1,0,0,1,1.63.51l-.55,1.47a2.24,2.24,0,0,0-1.16-.34,1.51,1.51,0,0,0-.93.31,1.67,1.67,0,0,0-.59.86,6.41,6.41,0,0,0-.26,1.85V157Z"/>
    <path class="cls-2" d="M136.28,157.79l1.54.23a1.45,1.45,0,0,0,.54,1,2.62,2.62,0,0,0,1.6.43,2.85,2.85,0,0,0,1.7-.43,2.19,2.19,0,0,0,.81-1.24,10,10,0,0,0,.11-2A3.24,3.24,0,0,1,140,157a3.54,3.54,0,0,1-3-1.39A5.39,5.39,0,0,1,136,152.3a6.26,6.26,0,0,1,.49-2.47,3.87,3.87,0,0,1,1.4-1.74,3.78,3.78,0,0,1,2.16-.62,3.34,3.34,0,0,1,2.72,1.34v-1.13h1.46v8.07a7.8,7.8,0,0,1-.44,3.09,3.27,3.27,0,0,1-1.41,1.44,4.89,4.89,0,0,1-2.37.52,4.49,4.49,0,0,1-2.7-.75A2.55,2.55,0,0,1,136.28,157.79Zm1.31-5.61a4,4,0,0,0,.73,2.68,2.31,2.31,0,0,0,1.83.85,2.36,2.36,0,0,0,1.83-.84,4,4,0,0,0,.73-2.64,3.8,3.8,0,0,0-.76-2.58,2.33,2.33,0,0,0-1.83-.87,2.29,2.29,0,0,0-1.79.86A3.81,3.81,0,0,0,137.59,152.18Z"/>
    <path class="cls-2" d="M152.37,155.86a6,6,0,0,1-1.7,1.06,5,5,0,0,1-1.74.31,3.38,3.38,0,0,1-2.36-.75,2.5,2.5,0,0,1-.83-1.92,2.59,2.59,0,0,1,1.13-2.17,4,4,0,0,1,1.14-.52,10.88,10.88,0,0,1,1.4-.23,14.93,14.93,0,0,0,2.82-.55c0-.21,0-.35,0-.41a1.76,1.76,0,0,0-.44-1.36,2.66,2.66,0,0,0-1.81-.54,2.77,2.77,0,0,0-1.64.39,2.35,2.35,0,0,0-.79,1.39l-1.55-.21a3.73,3.73,0,0,1,.7-1.61,3,3,0,0,1,1.39-.94,6.25,6.25,0,0,1,2.12-.33,5.49,5.49,0,0,1,1.94.28,2.59,2.59,0,0,1,1.1.71,2.46,2.46,0,0,1,.5,1.08,9.54,9.54,0,0,1,.07,1.46v2.1a21.28,21.28,0,0,0,.11,2.8,3.35,3.35,0,0,0,.4,1.12h-1.66A3.35,3.35,0,0,1,152.37,155.86Zm-.14-3.53a11,11,0,0,1-2.58.6,5.62,5.62,0,0,0-1.38.32,1.26,1.26,0,0,0-.62.51,1.34,1.34,0,0,0-.22.75,1.37,1.37,0,0,0,.48,1.06,2.05,2.05,0,0,0,1.4.42,3.3,3.3,0,0,0,1.62-.4,2.42,2.42,0,0,0,1-1.1,3.79,3.79,0,0,0,.25-1.58Z"/>
    <path class="cls-2" d="M156,157v-9.34h1.42V149a3.36,3.36,0,0,1,3-1.54,4,4,0,0,1,1.56.3,2.54,2.54,0,0,1,1.06.8,3.25,3.25,0,0,1,.49,1.17,8.79,8.79,0,0,1,.09,1.54V157H162v-5.68a4.37,4.37,0,0,0-.18-1.45,1.47,1.47,0,0,0-.66-.76,2.07,2.07,0,0,0-1.1-.29,2.6,2.6,0,0,0-1.74.64,3.17,3.17,0,0,0-.74,2.44V157Z"/>
    <path class="cls-2" d="M165.69,146v-1.82h1.59V146Zm0,11.07v-9.34h1.59V157Z"/>
    <path class="cls-2" d="M168.54,157v-1.29l5.94-6.82c-.67,0-1.26.06-1.78.06h-3.8v-1.29h7.62v1l-5.05,5.92-1,1.08c.71,0,1.38-.08,2-.08h4.32V157Z"/>
    <path class="cls-2" d="M184.16,155.86a5.92,5.92,0,0,1-1.69,1.06,5,5,0,0,1-1.74.31,3.4,3.4,0,0,1-2.37-.75,2.49,2.49,0,0,1-.82-1.92,2.59,2.59,0,0,1,1.13-2.17,3.77,3.77,0,0,1,1.13-.52,10.79,10.79,0,0,1,1.41-.23,14.93,14.93,0,0,0,2.82-.55c0-.21,0-.35,0-.41a1.72,1.72,0,0,0-.45-1.36,2.62,2.62,0,0,0-1.8-.54,2.83,2.83,0,0,0-1.65.39,2.4,2.4,0,0,0-.78,1.39l-1.55-.21a3.85,3.85,0,0,1,.69-1.61,3.07,3.07,0,0,1,1.4-.94,6.25,6.25,0,0,1,2.12-.33,5.53,5.53,0,0,1,1.94.28,2.59,2.59,0,0,1,1.1.71,2.45,2.45,0,0,1,.49,1.08,9.16,9.16,0,0,1,.08,1.46v2.1a22,22,0,0,0,.1,2.8,3.58,3.58,0,0,0,.4,1.12h-1.65A3.58,3.58,0,0,1,184.16,155.86Zm-.13-3.53a11,11,0,0,1-2.58.6,5.62,5.62,0,0,0-1.38.32,1.33,1.33,0,0,0-.63.51,1.43,1.43,0,0,0-.22.75,1.37,1.37,0,0,0,.48,1.06,2.07,2.07,0,0,0,1.4.42,3.33,3.33,0,0,0,1.63-.4,2.48,2.48,0,0,0,1.05-1.1,3.79,3.79,0,0,0,.25-1.58Z"/>
    <path class="cls-2" d="M193.87,153.6l1.55.2a4.05,4.05,0,0,1-1.3,2.52,3.83,3.83,0,0,1-2.58.91,4,4,0,0,1-3.08-1.25,5.1,5.1,0,0,1-1.17-3.6,6.54,6.54,0,0,1,.5-2.64,3.53,3.53,0,0,1,1.53-1.7,4.49,4.49,0,0,1,2.23-.57,3.87,3.87,0,0,1,2.48.77,3.49,3.49,0,0,1,1.24,2.18l-1.53.24a2.54,2.54,0,0,0-.78-1.41,2,2,0,0,0-1.35-.48,2.44,2.44,0,0,0-1.94.86,4,4,0,0,0-.75,2.71,4.19,4.19,0,0,0,.72,2.73,2.35,2.35,0,0,0,1.88.86,2.2,2.2,0,0,0,1.56-.58A2.84,2.84,0,0,0,193.87,153.6Zm-3.67,4.59.46-1.55h1.18l-.29.94a1.84,1.84,0,0,1,1.12.46,1.16,1.16,0,0,1,.38.83,1.48,1.48,0,0,1-.63,1.17,3.07,3.07,0,0,1-1.91.5,6.89,6.89,0,0,1-1.27-.1l.1-1,.83,0a2.1,2.1,0,0,0,1.16-.23.5.5,0,0,0,.25-.43.42.42,0,0,0-.1-.28.84.84,0,0,0-.37-.21A3.56,3.56,0,0,0,190.2,158.19Z"/>
    <path class="cls-2" d="M202.56,155.86a5.92,5.92,0,0,1-1.69,1.06,5,5,0,0,1-1.74.31,3.4,3.4,0,0,1-2.37-.75,2.49,2.49,0,0,1-.82-1.92,2.56,2.56,0,0,1,.31-1.26,2.65,2.65,0,0,1,.81-.91,4,4,0,0,1,1.14-.52,10.79,10.79,0,0,1,1.41-.23,14.93,14.93,0,0,0,2.82-.55c0-.21,0-.35,0-.41a1.72,1.72,0,0,0-.45-1.36,2.62,2.62,0,0,0-1.8-.54,2.81,2.81,0,0,0-1.65.39,2.4,2.4,0,0,0-.79,1.39l-1.54-.21a3.85,3.85,0,0,1,.69-1.61,3,3,0,0,1,1.4-.94,6.21,6.21,0,0,1,2.12-.33,5.57,5.57,0,0,1,1.94.28,2.65,2.65,0,0,1,1.1.71,2.45,2.45,0,0,1,.49,1.08A9.16,9.16,0,0,1,204,151v2.1a22,22,0,0,0,.1,2.8,3.58,3.58,0,0,0,.4,1.12h-1.65A3.35,3.35,0,0,1,202.56,155.86Zm-5.26-9.56a2,2,0,0,1,.5-1.46,1.66,1.66,0,0,1,1.28-.54,3.73,3.73,0,0,1,1.49.47,1.93,1.93,0,0,0,.82.27.54.54,0,0,0,.43-.16,1.09,1.09,0,0,0,.21-.61h1.15a2.18,2.18,0,0,1-.51,1.5,1.59,1.59,0,0,1-1.22.51,3.31,3.31,0,0,1-1.45-.5,2.15,2.15,0,0,0-.87-.31.61.61,0,0,0-.48.21.84.84,0,0,0-.18.62Zm5.13,6a11.08,11.08,0,0,1-2.58.6,5.62,5.62,0,0,0-1.38.32,1.33,1.33,0,0,0-.63.51,1.43,1.43,0,0,0-.22.75,1.37,1.37,0,0,0,.48,1.06,2.07,2.07,0,0,0,1.4.42,3.36,3.36,0,0,0,1.63-.4,2.53,2.53,0,0,0,1.05-1.1,3.79,3.79,0,0,0,.25-1.58Z"/>
    <path class="cls-2" d="M205.59,152.35a4.81,4.81,0,0,1,1.44-3.84,4.34,4.34,0,0,1,2.93-1,4.18,4.18,0,0,1,3.15,1.26,4.82,4.82,0,0,1,1.22,3.49,6.17,6.17,0,0,1-.54,2.83,3.87,3.87,0,0,1-1.57,1.61,4.6,4.6,0,0,1-2.26.57A4.17,4.17,0,0,1,206.8,156,5,5,0,0,1,205.59,152.35Zm1.62,0A3.92,3.92,0,0,0,208,155a2.58,2.58,0,0,0,3.92,0,4,4,0,0,0,.79-2.73,3.9,3.9,0,0,0-.79-2.63,2.6,2.6,0,0,0-3.92,0A3.9,3.9,0,0,0,207.21,152.35Z"/>
    <path class="cls-2" d="M71.05,175.52v-1.18a2.91,2.91,0,0,1-2.61,1.39,3.66,3.66,0,0,1-2-.62,4,4,0,0,1-1.45-1.72,6,6,0,0,1-.51-2.53,6.68,6.68,0,0,1,.46-2.54A3.68,3.68,0,0,1,68.37,166a3.09,3.09,0,0,1,1.51.36,3.18,3.18,0,0,1,1.07.92v-4.62h1.57v12.89Zm-5-4.66a4,4,0,0,0,.76,2.68,2.28,2.28,0,0,0,1.78.89,2.25,2.25,0,0,0,1.76-.85,3.89,3.89,0,0,0,.73-2.59,4.37,4.37,0,0,0-.74-2.81,2.27,2.27,0,0,0-1.82-.9,2.2,2.2,0,0,0-1.76.86A4.28,4.28,0,0,0,66.05,170.86Z"/>
    <path class="cls-2" d="M80.79,174.36a5.92,5.92,0,0,1-1.69,1.06,5,5,0,0,1-1.74.31A3.4,3.4,0,0,1,75,175a2.49,2.49,0,0,1-.82-1.92,2.59,2.59,0,0,1,1.13-2.17,3.77,3.77,0,0,1,1.13-.52,10.79,10.79,0,0,1,1.41-.23,14.93,14.93,0,0,0,2.82-.55c0-.21,0-.35,0-.41a1.72,1.72,0,0,0-.45-1.36,2.62,2.62,0,0,0-1.8-.54,2.83,2.83,0,0,0-1.65.39,2.4,2.4,0,0,0-.78,1.39l-1.55-.21a3.85,3.85,0,0,1,.69-1.61,3.07,3.07,0,0,1,1.4-.94,6.25,6.25,0,0,1,2.12-.33,5.53,5.53,0,0,1,1.94.28,2.59,2.59,0,0,1,1.1.71,2.45,2.45,0,0,1,.49,1.08,9.16,9.16,0,0,1,.08,1.46v2.1a22,22,0,0,0,.1,2.8,3.58,3.58,0,0,0,.4,1.12H81.11A3.58,3.58,0,0,1,80.79,174.36Zm-.13-3.53a11,11,0,0,1-2.58.6,5.62,5.62,0,0,0-1.38.32,1.33,1.33,0,0,0-.63.51,1.43,1.43,0,0,0-.22.75,1.37,1.37,0,0,0,.48,1.06,2.07,2.07,0,0,0,1.4.42,3.33,3.33,0,0,0,1.63-.4,2.53,2.53,0,0,0,1-1.1,3.79,3.79,0,0,0,.25-1.58Z"/>
    <path class="cls-2" d="M83.77,172.73l1.57-.25a2.23,2.23,0,0,0,.73,1.45,2.6,2.6,0,0,0,1.69.5,2.44,2.44,0,0,0,1.61-.45,1.32,1.32,0,0,0,.53-1,.93.93,0,0,0-.47-.84,6.78,6.78,0,0,0-1.61-.54,14.1,14.1,0,0,1-2.42-.76,2.32,2.32,0,0,1-1-.89,2.25,2.25,0,0,1-.35-1.25,2.43,2.43,0,0,1,.28-1.16,2.63,2.63,0,0,1,.78-.88,3.41,3.41,0,0,1,1-.46,4.61,4.61,0,0,1,1.36-.19,5.38,5.38,0,0,1,1.93.32,2.52,2.52,0,0,1,1.23.86,3.22,3.22,0,0,1,.54,1.44l-1.54.21a1.71,1.71,0,0,0-.61-1.12,2.25,2.25,0,0,0-1.43-.41,2.6,2.6,0,0,0-1.56.36,1,1,0,0,0-.46.85.86.86,0,0,0,.19.55,1.37,1.37,0,0,0,.61.42c.16.06.62.2,1.39.41a18.75,18.75,0,0,1,2.35.73,2.39,2.39,0,0,1,1,.83,2.31,2.31,0,0,1,.38,1.35,2.63,2.63,0,0,1-.47,1.49,2.88,2.88,0,0,1-1.33,1.08,4.74,4.74,0,0,1-2,.39A4.35,4.35,0,0,1,85,175,3.55,3.55,0,0,1,83.77,172.73Z"/>
    <path class="cls-2" d="M98,175.52V162.63h1.75l6.77,10.12V162.63h1.63v12.89h-1.75l-6.76-10.13v10.13Z"/>
    <path class="cls-2" d="M116.58,174.36a6.06,6.06,0,0,1-1.69,1.06,5,5,0,0,1-1.75.31,3.39,3.39,0,0,1-2.36-.75,2.5,2.5,0,0,1-.83-1.92,2.66,2.66,0,0,1,1.13-2.17,4,4,0,0,1,1.14-.52,10.79,10.79,0,0,1,1.41-.23,15.29,15.29,0,0,0,2.82-.55c0-.21,0-.35,0-.41a1.72,1.72,0,0,0-.45-1.36,2.65,2.65,0,0,0-1.8-.54,2.79,2.79,0,0,0-1.65.39,2.35,2.35,0,0,0-.79,1.39l-1.54-.21a3.85,3.85,0,0,1,.69-1.61,3,3,0,0,1,1.4-.94,6.21,6.21,0,0,1,2.12-.33,5.57,5.57,0,0,1,1.94.28,2.65,2.65,0,0,1,1.1.71A2.57,2.57,0,0,1,118,168a9.16,9.16,0,0,1,.08,1.46v2.1a22,22,0,0,0,.1,2.8,3.58,3.58,0,0,0,.4,1.12H116.9A3.35,3.35,0,0,1,116.58,174.36Zm-.13-3.53a11.18,11.18,0,0,1-2.59.6,5.62,5.62,0,0,0-1.38.32,1.3,1.3,0,0,0-.62.51,1.34,1.34,0,0,0-.22.75,1.37,1.37,0,0,0,.48,1.06,2.07,2.07,0,0,0,1.4.42,3.36,3.36,0,0,0,1.63-.4,2.45,2.45,0,0,0,1-1.1,3.77,3.77,0,0,0,.26-1.58Z"/>
    <path class="cls-2" d="M126.28,172.1l1.56.2a4.05,4.05,0,0,1-1.3,2.52,3.85,3.85,0,0,1-2.58.91,4,4,0,0,1-3.09-1.25,5.14,5.14,0,0,1-1.16-3.6,6.54,6.54,0,0,1,.5-2.64,3.49,3.49,0,0,1,1.53-1.7A4.48,4.48,0,0,1,124,166a3.88,3.88,0,0,1,2.49.77,3.49,3.49,0,0,1,1.24,2.18l-1.54.24a2.43,2.43,0,0,0-.78-1.41,2,2,0,0,0-1.34-.48,2.48,2.48,0,0,0-2,.86,4.1,4.1,0,0,0-.74,2.71,4.19,4.19,0,0,0,.72,2.73,2.34,2.34,0,0,0,1.88.86,2.16,2.16,0,0,0,1.55-.58A2.78,2.78,0,0,0,126.28,172.1Zm-3.66,4.59.46-1.55h1.17l-.29.94a1.87,1.87,0,0,1,1.13.46,1.16,1.16,0,0,1,.38.83,1.47,1.47,0,0,1-.64,1.17,3,3,0,0,1-1.9.5,6.81,6.81,0,0,1-1.27-.1l.1-1,.82,0a2.06,2.06,0,0,0,1.16-.23.51.51,0,0,0,.26-.43.42.42,0,0,0-.1-.28.82.82,0,0,0-.38-.21A3.47,3.47,0,0,0,122.62,176.69Z"/>
    <path class="cls-2" d="M128.3,170.85a4.81,4.81,0,0,1,1.44-3.84,4.35,4.35,0,0,1,2.94-1,4.17,4.17,0,0,1,3.14,1.26,4.77,4.77,0,0,1,1.22,3.49,6.17,6.17,0,0,1-.54,2.83,3.87,3.87,0,0,1-1.57,1.61,4.59,4.59,0,0,1-2.25.57,4.18,4.18,0,0,1-3.17-1.26A5,5,0,0,1,128.3,170.85Zm1.43-6a2.06,2.06,0,0,1,.5-1.46,1.68,1.68,0,0,1,1.29-.54,3.69,3.69,0,0,1,1.48.47,2,2,0,0,0,.83.27.56.56,0,0,0,.43-.16,1.09,1.09,0,0,0,.21-.61h1.14a2.18,2.18,0,0,1-.5,1.5,1.61,1.61,0,0,1-1.22.51,3.3,3.3,0,0,1-1.46-.5,2.12,2.12,0,0,0-.86-.31.64.64,0,0,0-.49.21.88.88,0,0,0-.18.62Zm.19,6a4,4,0,0,0,.79,2.68,2.6,2.6,0,0,0,3.93,0,4.08,4.08,0,0,0,.78-2.73,3.85,3.85,0,0,0-.79-2.63,2.6,2.6,0,0,0-3.92,0A4,4,0,0,0,129.92,170.85Z"/>
    <path class="cls-2" d="M145,172.51l1.64.2a4,4,0,0,1-1.44,2.23,4.86,4.86,0,0,1-5.92-.47,4.93,4.93,0,0,1-1.2-3.54,5.17,5.17,0,0,1,1.22-3.66,4.1,4.1,0,0,1,3.14-1.3,4,4,0,0,1,3.06,1.28,5.06,5.06,0,0,1,1.19,3.58c0,.1,0,.24,0,.42h-7a3.62,3.62,0,0,0,.87,2.36,2.6,2.6,0,0,0,2,.82A2.47,2.47,0,0,0,144,174,3,3,0,0,0,145,172.51ZM139.79,170H145a3.13,3.13,0,0,0-.6-1.76,2.43,2.43,0,0,0-2-.92,2.54,2.54,0,0,0-1.83.73A2.86,2.86,0,0,0,139.79,170Z"/>
    <path class="cls-2" d="M147.66,172.73l1.57-.25a2.23,2.23,0,0,0,.73,1.45,2.6,2.6,0,0,0,1.69.5,2.44,2.44,0,0,0,1.61-.45,1.32,1.32,0,0,0,.53-1,.93.93,0,0,0-.47-.84,6.78,6.78,0,0,0-1.61-.54,14.1,14.1,0,0,1-2.42-.76,2.32,2.32,0,0,1-1-.89,2.25,2.25,0,0,1-.35-1.25,2.43,2.43,0,0,1,.28-1.16,2.63,2.63,0,0,1,.78-.88,3.41,3.41,0,0,1,1-.46,4.61,4.61,0,0,1,1.36-.19,5.38,5.38,0,0,1,1.93.32,2.52,2.52,0,0,1,1.23.86,3.22,3.22,0,0,1,.54,1.44l-1.54.21a1.71,1.71,0,0,0-.61-1.12,2.25,2.25,0,0,0-1.43-.41,2.6,2.6,0,0,0-1.56.36,1,1,0,0,0-.46.85.86.86,0,0,0,.19.55,1.37,1.37,0,0,0,.61.42c.16.06.62.2,1.39.41a18.75,18.75,0,0,1,2.35.73,2.39,2.39,0,0,1,1,.83,2.31,2.31,0,0,1,.38,1.35,2.7,2.7,0,0,1-.46,1.49,3,3,0,0,1-1.34,1.08,4.74,4.74,0,0,1-2,.39,4.35,4.35,0,0,1-2.77-.76A3.55,3.55,0,0,1,147.66,172.73Z"/>
    <path class="cls-2" d="M170.34,162.63h1.71v7.45a8.86,8.86,0,0,1-.44,3.08A3.75,3.75,0,0,1,170,175a5.59,5.59,0,0,1-3,.72,6.16,6.16,0,0,1-3-.63,3.51,3.51,0,0,1-1.64-1.8,8.58,8.58,0,0,1-.5-3.23v-7.45h1.71v7.44a7.18,7.18,0,0,0,.31,2.47,2.42,2.42,0,0,0,1.07,1.23,3.82,3.82,0,0,0,1.86.43,3.57,3.57,0,0,0,2.68-.85,4.89,4.89,0,0,0,.8-3.28Z"/>
    <path class="cls-2" d="M174.38,175.52v-9.34h1.42v1.33a3.36,3.36,0,0,1,3-1.54,4,4,0,0,1,1.56.3,2.45,2.45,0,0,1,1,.8,3.1,3.1,0,0,1,.5,1.17,9.09,9.09,0,0,1,.08,1.54v5.74h-1.58v-5.68a4.37,4.37,0,0,0-.18-1.45,1.52,1.52,0,0,0-.66-.76,2.07,2.07,0,0,0-1.1-.29,2.58,2.58,0,0,0-1.74.64,3.17,3.17,0,0,0-.74,2.44v5.1Z"/>
    <path class="cls-2" d="M184.09,164.45v-1.82h1.58v1.82Zm0,11.07v-9.34h1.58v9.34Z"/>
    <path class="cls-2" d="M193.83,175.52v-1.18a2.91,2.91,0,0,1-2.61,1.39,3.66,3.66,0,0,1-2.05-.62,4,4,0,0,1-1.45-1.72,6,6,0,0,1-.51-2.53,6.68,6.68,0,0,1,.46-2.54,3.68,3.68,0,0,1,3.48-2.35,3.05,3.05,0,0,1,1.5.36,3.12,3.12,0,0,1,1.08.92v-4.62h1.57v12.89Zm-5-4.66a4,4,0,0,0,.76,2.68,2.28,2.28,0,0,0,1.78.89,2.25,2.25,0,0,0,1.76-.85,3.89,3.89,0,0,0,.73-2.59,4.37,4.37,0,0,0-.74-2.81,2.27,2.27,0,0,0-1.82-.9,2.2,2.2,0,0,0-1.76.86A4.28,4.28,0,0,0,188.83,170.86Z"/>
    <path class="cls-2" d="M203.57,174.36a5.92,5.92,0,0,1-1.69,1.06,5,5,0,0,1-1.74.31,3.4,3.4,0,0,1-2.37-.75,2.49,2.49,0,0,1-.82-1.92,2.59,2.59,0,0,1,1.13-2.17,3.77,3.77,0,0,1,1.13-.52,10.79,10.79,0,0,1,1.41-.23,14.93,14.93,0,0,0,2.82-.55c0-.21,0-.35,0-.41a1.72,1.72,0,0,0-.45-1.36,2.62,2.62,0,0,0-1.8-.54,2.83,2.83,0,0,0-1.65.39,2.4,2.4,0,0,0-.78,1.39l-1.55-.21a3.85,3.85,0,0,1,.69-1.61,3,3,0,0,1,1.4-.94,6.25,6.25,0,0,1,2.12-.33,5.53,5.53,0,0,1,1.94.28,2.65,2.65,0,0,1,1.1.71A2.45,2.45,0,0,1,205,168a9.16,9.16,0,0,1,.08,1.46v2.1a22,22,0,0,0,.1,2.8,3.58,3.58,0,0,0,.4,1.12h-1.65A3.58,3.58,0,0,1,203.57,174.36Zm-.13-3.53a11,11,0,0,1-2.58.6,5.62,5.62,0,0,0-1.38.32,1.33,1.33,0,0,0-.63.51,1.43,1.43,0,0,0-.22.75,1.37,1.37,0,0,0,.48,1.06,2.07,2.07,0,0,0,1.4.42,3.33,3.33,0,0,0,1.63-.4,2.53,2.53,0,0,0,1.05-1.1,3.79,3.79,0,0,0,.25-1.58Z"/>
    <path class="cls-2" d="M206.55,172.73l1.57-.25a2.23,2.23,0,0,0,.73,1.45,2.58,2.58,0,0,0,1.69.5,2.44,2.44,0,0,0,1.61-.45,1.32,1.32,0,0,0,.53-1,1,1,0,0,0-.47-.84,6.78,6.78,0,0,0-1.61-.54,14.1,14.1,0,0,1-2.42-.76,2.4,2.4,0,0,1-1-.89,2.32,2.32,0,0,1-.34-1.25,2.43,2.43,0,0,1,.28-1.16,2.63,2.63,0,0,1,.78-.88,3.41,3.41,0,0,1,1-.46,4.61,4.61,0,0,1,1.36-.19,5.38,5.38,0,0,1,1.93.32,2.52,2.52,0,0,1,1.23.86,3.34,3.34,0,0,1,.54,1.44l-1.54.21a1.71,1.71,0,0,0-.61-1.12,2.25,2.25,0,0,0-1.43-.41,2.6,2.6,0,0,0-1.56.36,1,1,0,0,0-.46.85.86.86,0,0,0,.19.55,1.37,1.37,0,0,0,.61.42c.15.06.62.2,1.39.41a18.75,18.75,0,0,1,2.35.73,2.39,2.39,0,0,1,1,.83,2.31,2.31,0,0,1,.38,1.35,2.63,2.63,0,0,1-.47,1.49,2.88,2.88,0,0,1-1.33,1.08,4.74,4.74,0,0,1-2,.39,4.35,4.35,0,0,1-2.77-.76A3.55,3.55,0,0,1,206.55,172.73Z"/>
    <path class="cls-2" d="M79.68,197.59V184.68h1.44v1.22a3.4,3.4,0,0,1,1.15-1.07,3.16,3.16,0,0,1,1.56-.36,3.66,3.66,0,0,1,2.1.62,3.74,3.74,0,0,1,1.38,1.73,6.73,6.73,0,0,1,0,5,3.94,3.94,0,0,1-1.5,1.76,3.89,3.89,0,0,1-2.06.61,2.9,2.9,0,0,1-1.42-.34,3.17,3.17,0,0,1-1-.84v4.54Zm1.43-8.19a4,4,0,0,0,.73,2.66,2.23,2.23,0,0,0,1.77.87,2.27,2.27,0,0,0,1.8-.9,4.21,4.21,0,0,0,.75-2.76,4.11,4.11,0,0,0-.73-2.67,2.21,2.21,0,0,0-1.75-.89,2.3,2.3,0,0,0-1.79.94A4.25,4.25,0,0,0,81.11,189.4Z"/>
    <path class="cls-2" d="M95.47,192.86a5.92,5.92,0,0,1-1.69,1.06,5,5,0,0,1-1.74.31,3.4,3.4,0,0,1-2.37-.75,2.49,2.49,0,0,1-.82-1.92,2.56,2.56,0,0,1,.31-1.26,2.65,2.65,0,0,1,.81-.91,4,4,0,0,1,1.14-.52,10.79,10.79,0,0,1,1.41-.23,14.93,14.93,0,0,0,2.82-.55c0-.21,0-.35,0-.41a1.72,1.72,0,0,0-.45-1.36,2.62,2.62,0,0,0-1.8-.54,2.81,2.81,0,0,0-1.65.39,2.4,2.4,0,0,0-.79,1.39l-1.54-.21a3.85,3.85,0,0,1,.69-1.61,3,3,0,0,1,1.4-.94,6.21,6.21,0,0,1,2.12-.33,5.57,5.57,0,0,1,1.94.28,2.65,2.65,0,0,1,1.1.71,2.45,2.45,0,0,1,.49,1.08,9.16,9.16,0,0,1,.08,1.46v2.1a22,22,0,0,0,.1,2.8,3.58,3.58,0,0,0,.4,1.12H95.79A3.35,3.35,0,0,1,95.47,192.86Zm-.13-3.53a11.08,11.08,0,0,1-2.58.6,5.62,5.62,0,0,0-1.38.32,1.33,1.33,0,0,0-.63.51,1.43,1.43,0,0,0-.22.75,1.37,1.37,0,0,0,.48,1.06,2.07,2.07,0,0,0,1.4.42,3.36,3.36,0,0,0,1.63-.4,2.53,2.53,0,0,0,1-1.1,3.79,3.79,0,0,0,.25-1.58Z"/>
    <path class="cls-2" d="M99.07,194v-9.34h1.42v1.42a3.93,3.93,0,0,1,1-1.31,1.78,1.78,0,0,1,1-.32,3.08,3.08,0,0,1,1.63.51l-.54,1.47a2.27,2.27,0,0,0-1.16-.34,1.52,1.52,0,0,0-.94.31,1.73,1.73,0,0,0-.59.86,6.41,6.41,0,0,0-.26,1.85V194Z"/>
    <path class="cls-2" d="M110.87,192.86a6,6,0,0,1-1.7,1.06,5,5,0,0,1-1.74.31,3.42,3.42,0,0,1-2.37-.75,2.49,2.49,0,0,1-.82-1.92,2.59,2.59,0,0,1,1.13-2.17,3.72,3.72,0,0,1,1.14-.52,10.88,10.88,0,0,1,1.4-.23,14.93,14.93,0,0,0,2.82-.55c0-.21,0-.35,0-.41a1.72,1.72,0,0,0-.45-1.36,2.62,2.62,0,0,0-1.8-.54,2.83,2.83,0,0,0-1.65.39,2.4,2.4,0,0,0-.78,1.39l-1.55-.21a3.73,3.73,0,0,1,.7-1.61,3,3,0,0,1,1.39-.94,6.25,6.25,0,0,1,2.12-.33,5.49,5.49,0,0,1,1.94.28,2.59,2.59,0,0,1,1.1.71,2.34,2.34,0,0,1,.49,1.08,8.08,8.08,0,0,1,.08,1.46v2.1a24.25,24.25,0,0,0,.1,2.8,3.58,3.58,0,0,0,.4,1.12h-1.65A3.35,3.35,0,0,1,110.87,192.86Zm-.14-3.53a11,11,0,0,1-2.58.6,5.62,5.62,0,0,0-1.38.32,1.26,1.26,0,0,0-.62.51,1.34,1.34,0,0,0-.22.75,1.4,1.4,0,0,0,.47,1.06,2.08,2.08,0,0,0,1.41.42,3.3,3.3,0,0,0,1.62-.4,2.42,2.42,0,0,0,1-1.1,3.79,3.79,0,0,0,.25-1.58Z"/>
    <path class="cls-2" d="M125.27,192.86a6,6,0,0,1-1.7,1.06,5,5,0,0,1-1.74.31,3.42,3.42,0,0,1-2.37-.75,2.49,2.49,0,0,1-.82-1.92,2.59,2.59,0,0,1,1.13-2.17,3.72,3.72,0,0,1,1.14-.52,10.88,10.88,0,0,1,1.4-.23,14.93,14.93,0,0,0,2.82-.55c0-.21,0-.35,0-.41a1.72,1.72,0,0,0-.45-1.36,2.62,2.62,0,0,0-1.8-.54,2.83,2.83,0,0,0-1.65.39,2.4,2.4,0,0,0-.78,1.39l-1.55-.21a3.85,3.85,0,0,1,.69-1.61,3.07,3.07,0,0,1,1.4-.94,6.25,6.25,0,0,1,2.12-.33,5.53,5.53,0,0,1,1.94.28,2.59,2.59,0,0,1,1.1.71,2.34,2.34,0,0,1,.49,1.08,8.08,8.08,0,0,1,.08,1.46v2.1a24.25,24.25,0,0,0,.1,2.8,3.58,3.58,0,0,0,.4,1.12h-1.65A3.35,3.35,0,0,1,125.27,192.86Zm-.14-3.53a11,11,0,0,1-2.58.6,5.62,5.62,0,0,0-1.38.32,1.26,1.26,0,0,0-.62.51,1.34,1.34,0,0,0-.22.75,1.4,1.4,0,0,0,.47,1.06,2.08,2.08,0,0,0,1.41.42,3.3,3.3,0,0,0,1.62-.4,2.42,2.42,0,0,0,1-1.1,3.79,3.79,0,0,0,.25-1.58Z"/>
    <path class="cls-2" d="M133.81,194V181.13h9.32v1.52h-7.61v3.95h7.12v1.51h-7.12v4.39h7.91V194Z"/>
    <path class="cls-2" d="M151.33,194v-1.18a2.91,2.91,0,0,1-2.61,1.39,3.64,3.64,0,0,1-2.05-.62,4,4,0,0,1-1.45-1.72,5.81,5.81,0,0,1-.52-2.53,6.68,6.68,0,0,1,.47-2.54,3.59,3.59,0,0,1,1.4-1.74,3.68,3.68,0,0,1,2.08-.61,3.08,3.08,0,0,1,1.5.36,3,3,0,0,1,1.07.92v-4.62h1.58V194Zm-5-4.66a4.08,4.08,0,0,0,.75,2.68,2.3,2.3,0,0,0,1.79.89,2.25,2.25,0,0,0,1.76-.85,3.94,3.94,0,0,0,.73-2.59,4.37,4.37,0,0,0-.74-2.81,2.28,2.28,0,0,0-1.82-.9,2.19,2.19,0,0,0-1.76.86A4.22,4.22,0,0,0,146.33,189.36Z"/>
    <path class="cls-2" d="M161.1,194v-1.37a3.44,3.44,0,0,1-3,1.58,3.79,3.79,0,0,1-1.54-.32,2.48,2.48,0,0,1-1.06-.79,3,3,0,0,1-.49-1.18,8.32,8.32,0,0,1-.1-1.47v-5.79h1.59v5.18a9.89,9.89,0,0,0,.09,1.67,1.68,1.68,0,0,0,.63,1,2,2,0,0,0,1.2.35,2.67,2.67,0,0,0,1.34-.36,2,2,0,0,0,.88-1,5.07,5.07,0,0,0,.26-1.83v-5h1.58V194Z"/>
    <path class="cls-2" d="M170.77,190.6l1.56.2a4.06,4.06,0,0,1-1.31,2.52,3.83,3.83,0,0,1-2.58.91,4,4,0,0,1-3.08-1.25,5.14,5.14,0,0,1-1.16-3.6,6.54,6.54,0,0,1,.5-2.64,3.44,3.44,0,0,1,1.53-1.7,4.48,4.48,0,0,1,2.22-.57,3.88,3.88,0,0,1,2.49.77,3.49,3.49,0,0,1,1.24,2.18l-1.54.24a2.43,2.43,0,0,0-.78-1.41,2,2,0,0,0-1.34-.48,2.48,2.48,0,0,0-2,.86,4,4,0,0,0-.74,2.71,4.19,4.19,0,0,0,.72,2.73,2.34,2.34,0,0,0,1.88.86,2.16,2.16,0,0,0,1.55-.58A2.78,2.78,0,0,0,170.77,190.6Z"/>
    <path class="cls-2" d="M179.47,192.86a6.06,6.06,0,0,1-1.69,1.06,5.07,5.07,0,0,1-1.75.31,3.39,3.39,0,0,1-2.36-.75,2.5,2.5,0,0,1-.83-1.92,2.59,2.59,0,0,1,1.13-2.17,4,4,0,0,1,1.14-.52,10.88,10.88,0,0,1,1.4-.23,15.25,15.25,0,0,0,2.83-.55v-.41a1.72,1.72,0,0,0-.44-1.36,2.66,2.66,0,0,0-1.81-.54,2.77,2.77,0,0,0-1.64.39,2.35,2.35,0,0,0-.79,1.39l-1.55-.21a3.85,3.85,0,0,1,.7-1.61,3,3,0,0,1,1.4-.94,6.15,6.15,0,0,1,2.11-.33,5.59,5.59,0,0,1,2,.28,2.61,2.61,0,0,1,1.09.71,2.46,2.46,0,0,1,.5,1.08,9.16,9.16,0,0,1,.08,1.46v2.1a22,22,0,0,0,.1,2.8,3.35,3.35,0,0,0,.4,1.12h-1.66A3.35,3.35,0,0,1,179.47,192.86Zm-.13-3.53a11.18,11.18,0,0,1-2.59.6,5.62,5.62,0,0,0-1.38.32,1.26,1.26,0,0,0-.62.51,1.34,1.34,0,0,0-.22.75,1.37,1.37,0,0,0,.48,1.06,2.05,2.05,0,0,0,1.4.42,3.36,3.36,0,0,0,1.63-.4,2.45,2.45,0,0,0,1-1.1,3.77,3.77,0,0,0,.26-1.58Z"/>
    <path class="cls-2" d="M189.17,190.6l1.56.2a4.06,4.06,0,0,1-1.31,2.52,3.83,3.83,0,0,1-2.58.91,4,4,0,0,1-3.08-1.25,5.14,5.14,0,0,1-1.16-3.6,6.54,6.54,0,0,1,.5-2.64,3.47,3.47,0,0,1,1.52-1.7,4.54,4.54,0,0,1,2.23-.57,3.88,3.88,0,0,1,2.49.77,3.53,3.53,0,0,1,1.24,2.18l-1.54.24a2.48,2.48,0,0,0-.78-1.41,2,2,0,0,0-1.35-.48,2.47,2.47,0,0,0-1.94.86,4,4,0,0,0-.75,2.71,4.13,4.13,0,0,0,.73,2.73,2.34,2.34,0,0,0,1.88.86,2.16,2.16,0,0,0,1.55-.58A2.78,2.78,0,0,0,189.17,190.6Zm-3.66,4.59.45-1.55h1.18l-.29.94A1.87,1.87,0,0,1,188,195a1.16,1.16,0,0,1,.38.83,1.5,1.5,0,0,1-.64,1.17,3,3,0,0,1-1.9.5,6.74,6.74,0,0,1-1.27-.1l.1-1,.82,0a2.08,2.08,0,0,0,1.16-.23.51.51,0,0,0,.26-.43.48.48,0,0,0-.1-.28.88.88,0,0,0-.38-.21A3.47,3.47,0,0,0,185.51,195.19Z"/>
    <path class="cls-2" d="M197.87,192.86a6,6,0,0,1-1.7,1.06,5,5,0,0,1-1.74.31,3.38,3.38,0,0,1-2.36-.75,2.5,2.5,0,0,1-.83-1.92,2.59,2.59,0,0,1,1.13-2.17,4,4,0,0,1,1.14-.52,10.88,10.88,0,0,1,1.4-.23,14.93,14.93,0,0,0,2.82-.55c0-.21,0-.35,0-.41a1.76,1.76,0,0,0-.44-1.36,2.66,2.66,0,0,0-1.81-.54,2.77,2.77,0,0,0-1.64.39,2.35,2.35,0,0,0-.79,1.39l-1.55-.21a3.73,3.73,0,0,1,.7-1.61,3,3,0,0,1,1.39-.94,6.25,6.25,0,0,1,2.12-.33,5.49,5.49,0,0,1,1.94.28,2.59,2.59,0,0,1,1.1.71,2.46,2.46,0,0,1,.5,1.08,9.54,9.54,0,0,1,.07,1.46v2.1a21.28,21.28,0,0,0,.11,2.8,3.35,3.35,0,0,0,.4,1.12h-1.66A3.35,3.35,0,0,1,197.87,192.86Zm-5.27-9.56a2.06,2.06,0,0,1,.5-1.46,1.68,1.68,0,0,1,1.29-.54,3.69,3.69,0,0,1,1.48.47,2,2,0,0,0,.83.27.54.54,0,0,0,.43-.16,1.09,1.09,0,0,0,.21-.61h1.14a2.18,2.18,0,0,1-.5,1.5,1.61,1.61,0,0,1-1.22.51,3.3,3.3,0,0,1-1.46-.5,2.12,2.12,0,0,0-.86-.31.6.6,0,0,0-.48.21.89.89,0,0,0-.19.62Zm5.13,6a11,11,0,0,1-2.58.6,5.62,5.62,0,0,0-1.38.32,1.26,1.26,0,0,0-.62.51,1.34,1.34,0,0,0-.22.75,1.37,1.37,0,0,0,.48,1.06,2.05,2.05,0,0,0,1.4.42,3.3,3.3,0,0,0,1.62-.4,2.42,2.42,0,0,0,1-1.1,3.79,3.79,0,0,0,.25-1.58Z"/>
    <path class="cls-2" d="M200.89,189.35a4.81,4.81,0,0,1,1.44-3.84,4.37,4.37,0,0,1,2.94-1,4.21,4.21,0,0,1,3.15,1.26,4.82,4.82,0,0,1,1.22,3.49,6.17,6.17,0,0,1-.54,2.83,3.89,3.89,0,0,1-1.58,1.61,4.59,4.59,0,0,1-2.25.57A4.2,4.2,0,0,1,202.1,193,5,5,0,0,1,200.89,189.35Zm1.63,0a4,4,0,0,0,.78,2.68,2.6,2.6,0,0,0,3.93,0,4.08,4.08,0,0,0,.78-2.73,3.85,3.85,0,0,0-.79-2.63,2.5,2.5,0,0,0-1.95-.89,2.52,2.52,0,0,0-2,.89A4,4,0,0,0,202.52,189.35Z"/>
    <path class="cls-2" d="M211.6,194v-1.81h1.8V194a3.24,3.24,0,0,1-.35,1.6,2.29,2.29,0,0,1-1.12.94l-.44-.67a1.48,1.48,0,0,0,.74-.65,2.72,2.72,0,0,0,.27-1.22Z"/>
    <path class="cls-2" d="M60.31,211.36a6,6,0,0,1-1.7,1.06,5,5,0,0,1-1.74.31,3.38,3.38,0,0,1-2.36-.75,2.5,2.5,0,0,1-.83-1.92,2.59,2.59,0,0,1,1.13-2.17,4,4,0,0,1,1.14-.52,10.88,10.88,0,0,1,1.4-.23,14.93,14.93,0,0,0,2.82-.55c0-.21,0-.35,0-.41a1.76,1.76,0,0,0-.44-1.36,2.66,2.66,0,0,0-1.81-.54,2.77,2.77,0,0,0-1.64.39,2.35,2.35,0,0,0-.79,1.39L54,205.85a3.73,3.73,0,0,1,.7-1.61A3,3,0,0,1,56,203.3a6.25,6.25,0,0,1,2.12-.33,5.49,5.49,0,0,1,1.94.28,2.59,2.59,0,0,1,1.1.71,2.46,2.46,0,0,1,.5,1.08,9.54,9.54,0,0,1,.07,1.46v2.1a21.28,21.28,0,0,0,.11,2.8,3.35,3.35,0,0,0,.4,1.12H60.62A3.35,3.35,0,0,1,60.31,211.36Zm-.14-3.53a11,11,0,0,1-2.58.6,5.62,5.62,0,0,0-1.38.32,1.26,1.26,0,0,0-.62.51,1.34,1.34,0,0,0-.22.75,1.37,1.37,0,0,0,.48,1.06,2.05,2.05,0,0,0,1.4.42,3.3,3.3,0,0,0,1.62-.4,2.42,2.42,0,0,0,1.05-1.1,3.79,3.79,0,0,0,.25-1.58Z"/>
    <path class="cls-2" d="M78,208l1.71.43a5.72,5.72,0,0,1-1.93,3.2,5.31,5.31,0,0,1-3.41,1.11,6.17,6.17,0,0,1-3.39-.85,5.3,5.3,0,0,1-2-2.46,8.64,8.64,0,0,1-.68-3.45,7.63,7.63,0,0,1,.76-3.51,5.36,5.36,0,0,1,2.19-2.28,6.4,6.4,0,0,1,3.13-.78,5.26,5.26,0,0,1,3.25,1,5.12,5.12,0,0,1,1.84,2.76l-1.68.4a4,4,0,0,0-1.3-2.05,3.47,3.47,0,0,0-2.15-.64,4.18,4.18,0,0,0-2.48.71,3.75,3.75,0,0,0-1.4,1.91,7.72,7.72,0,0,0-.41,2.48,7.88,7.88,0,0,0,.48,2.87,3.6,3.6,0,0,0,1.49,1.83,4.26,4.26,0,0,0,2.19.61,3.69,3.69,0,0,0,2.43-.83A4.22,4.22,0,0,0,78,208Z"/>
    <path class="cls-2" d="M81.32,201.45v-1.82H82.9v1.82Zm0,11.07v-9.34H82.9v9.34Z"/>
    <path class="cls-2" d="M91.39,209.51l1.64.2a4,4,0,0,1-1.44,2.23,4.86,4.86,0,0,1-5.92-.47,4.93,4.93,0,0,1-1.2-3.54,5.17,5.17,0,0,1,1.22-3.66,4.08,4.08,0,0,1,3.14-1.3,4,4,0,0,1,3.06,1.28,5.06,5.06,0,0,1,1.19,3.58c0,.1,0,.24,0,.42h-7a3.62,3.62,0,0,0,.87,2.36,2.6,2.6,0,0,0,2,.82,2.47,2.47,0,0,0,1.49-.46A3,3,0,0,0,91.39,209.51Zm-2.59-9-1,1.49H86l1.9-2.46h1.69l2,2.46H89.77ZM86.2,207h5.21a3.13,3.13,0,0,0-.6-1.76,2.43,2.43,0,0,0-2-.92A2.52,2.52,0,0,0,87,205,2.86,2.86,0,0,0,86.2,207Z"/>
    <path class="cls-2" d="M94.71,212.52v-9.34h1.42v1.33a3.36,3.36,0,0,1,3-1.54,3.93,3.93,0,0,1,1.55.3,2.48,2.48,0,0,1,1.06.8,2.94,2.94,0,0,1,.49,1.17,8.79,8.79,0,0,1,.09,1.54v5.74h-1.58v-5.68a4.08,4.08,0,0,0-.19-1.45,1.5,1.5,0,0,0-.65-.76,2.07,2.07,0,0,0-1.1-.29A2.6,2.6,0,0,0,97,205a3.17,3.17,0,0,0-.73,2.44v5.1Z"/>
    <path class="cls-2" d="M110.5,209.1l1.56.2a4.06,4.06,0,0,1-1.31,2.52,3.83,3.83,0,0,1-2.58.91,4,4,0,0,1-3.08-1.25,5.14,5.14,0,0,1-1.16-3.6,6.38,6.38,0,0,1,.5-2.64,3.47,3.47,0,0,1,1.52-1.7,4.54,4.54,0,0,1,2.23-.57,3.9,3.9,0,0,1,2.49.77,3.53,3.53,0,0,1,1.24,2.18l-1.54.24a2.54,2.54,0,0,0-.78-1.41,2,2,0,0,0-1.35-.48,2.47,2.47,0,0,0-1.94.86,4,4,0,0,0-.75,2.71,4.19,4.19,0,0,0,.72,2.73,2.36,2.36,0,0,0,1.89.86,2.18,2.18,0,0,0,1.55-.58A2.78,2.78,0,0,0,110.5,209.1Z"/>
    <path class="cls-2" d="M113.11,201.45v-1.82h1.59v1.82Zm0,11.07v-9.34h1.59v9.34Z"/>
    <path class="cls-2" d="M122.89,211.36a6.06,6.06,0,0,1-1.69,1.06,5.07,5.07,0,0,1-1.75.31,3.39,3.39,0,0,1-2.36-.75,2.5,2.5,0,0,1-.83-1.92,2.67,2.67,0,0,1,.31-1.26,2.58,2.58,0,0,1,.82-.91,4,4,0,0,1,1.14-.52,10.79,10.79,0,0,1,1.41-.23,15.29,15.29,0,0,0,2.82-.55c0-.21,0-.35,0-.41a1.72,1.72,0,0,0-.45-1.36,2.65,2.65,0,0,0-1.8-.54,2.79,2.79,0,0,0-1.65.39,2.35,2.35,0,0,0-.79,1.39l-1.55-.21a3.85,3.85,0,0,1,.7-1.61,3,3,0,0,1,1.4-.94,6.19,6.19,0,0,1,2.11-.33,5.59,5.59,0,0,1,2,.28,2.72,2.72,0,0,1,1.1.71,2.57,2.57,0,0,1,.49,1.08,9.16,9.16,0,0,1,.08,1.46v2.1a22,22,0,0,0,.1,2.8,3.35,3.35,0,0,0,.4,1.12h-1.65A3.35,3.35,0,0,1,122.89,211.36Zm-.13-3.53a11.18,11.18,0,0,1-2.59.6,5.62,5.62,0,0,0-1.38.32,1.3,1.3,0,0,0-.62.51,1.34,1.34,0,0,0-.22.75,1.37,1.37,0,0,0,.48,1.06,2.05,2.05,0,0,0,1.4.42,3.36,3.36,0,0,0,1.63-.4,2.45,2.45,0,0,0,1-1.1,3.77,3.77,0,0,0,.26-1.58Z"/>
    <path class="cls-2" d="M137.59,209.51l1.63.2a4,4,0,0,1-1.43,2.23,4.36,4.36,0,0,1-2.67.79,4.27,4.27,0,0,1-3.25-1.26,4.93,4.93,0,0,1-1.2-3.54,5.17,5.17,0,0,1,1.21-3.66A4.1,4.1,0,0,1,135,203a4,4,0,0,1,3.06,1.28,5.05,5.05,0,0,1,1.18,3.58v.42h-7a3.51,3.51,0,0,0,.87,2.36,2.6,2.6,0,0,0,1.95.82,2.44,2.44,0,0,0,1.48-.46A3.06,3.06,0,0,0,137.59,209.51Zm-5.2-2.56h5.21a3.13,3.13,0,0,0-.59-1.76,2.44,2.44,0,0,0-2-.92,2.56,2.56,0,0,0-1.84.73A3,3,0,0,0,132.39,207Z"/>
    <path class="cls-2" d="M151.69,211.36a6.06,6.06,0,0,1-1.69,1.06,5.07,5.07,0,0,1-1.75.31,3.39,3.39,0,0,1-2.36-.75,2.5,2.5,0,0,1-.83-1.92,2.67,2.67,0,0,1,.31-1.26,2.58,2.58,0,0,1,.82-.91,4,4,0,0,1,1.14-.52,10.79,10.79,0,0,1,1.41-.23,15.29,15.29,0,0,0,2.82-.55c0-.21,0-.35,0-.41a1.72,1.72,0,0,0-.45-1.36,2.65,2.65,0,0,0-1.8-.54,2.79,2.79,0,0,0-1.65.39,2.35,2.35,0,0,0-.79,1.39l-1.55-.21a3.85,3.85,0,0,1,.7-1.61,3,3,0,0,1,1.4-.94,6.19,6.19,0,0,1,2.11-.33,5.59,5.59,0,0,1,2,.28,2.61,2.61,0,0,1,1.09.71,2.46,2.46,0,0,1,.5,1.08,9.16,9.16,0,0,1,.08,1.46v2.1a22,22,0,0,0,.1,2.8,3.35,3.35,0,0,0,.4,1.12H152A3.59,3.59,0,0,1,151.69,211.36Zm-.13-3.53a11.18,11.18,0,0,1-2.59.6,5.62,5.62,0,0,0-1.38.32,1.3,1.3,0,0,0-.62.51,1.34,1.34,0,0,0-.22.75,1.37,1.37,0,0,0,.48,1.06,2.05,2.05,0,0,0,1.4.42,3.36,3.36,0,0,0,1.63-.4,2.45,2.45,0,0,0,1-1.1,3.77,3.77,0,0,0,.26-1.58Z"/>
    <path class="cls-2" d="M169.39,208l1.71.43a5.72,5.72,0,0,1-1.93,3.2,5.31,5.31,0,0,1-3.41,1.11,6.17,6.17,0,0,1-3.39-.85,5.3,5.3,0,0,1-2-2.46,8.64,8.64,0,0,1-.68-3.45,7.5,7.5,0,0,1,.77-3.51,5.28,5.28,0,0,1,2.18-2.28,6.4,6.4,0,0,1,3.13-.78,5.26,5.26,0,0,1,3.25,1,5.12,5.12,0,0,1,1.84,2.76l-1.68.4a4,4,0,0,0-1.3-2.05,3.45,3.45,0,0,0-2.15-.64,4.2,4.2,0,0,0-2.48.71,3.81,3.81,0,0,0-1.4,1.91,7.72,7.72,0,0,0-.41,2.48,7.88,7.88,0,0,0,.48,2.87,3.6,3.6,0,0,0,1.49,1.83,4.26,4.26,0,0,0,2.19.61,3.67,3.67,0,0,0,2.43-.83A4.22,4.22,0,0,0,169.39,208Z"/>
    <path class="cls-2" d="M178.81,212.52v-1.37a3.44,3.44,0,0,1-3,1.58,3.8,3.8,0,0,1-1.55-.32,2.55,2.55,0,0,1-1.06-.79,3.16,3.16,0,0,1-.49-1.18,8.56,8.56,0,0,1-.09-1.47v-5.79h1.58v5.18a9.89,9.89,0,0,0,.09,1.67,1.65,1.65,0,0,0,.64,1,1.93,1.93,0,0,0,1.19.35,2.64,2.64,0,0,0,1.34-.36,2,2,0,0,0,.88-1,5.07,5.07,0,0,0,.26-1.83v-5h1.58v9.34Z"/>
    <path class="cls-2" d="M182.36,212.52V199.63h1.58v12.89Z"/>
    <path class="cls-2" d="M189.54,211.1l.23,1.4a6.06,6.06,0,0,1-1.19.14,2.74,2.74,0,0,1-1.34-.27,1.5,1.5,0,0,1-.67-.72,5.69,5.69,0,0,1-.19-1.87v-5.37h-1.16v-1.23h1.16v-2.31l1.57-1v3.26h1.59v1.23H188v5.46a3,3,0,0,0,.08.87.7.7,0,0,0,.28.31,1.09,1.09,0,0,0,.54.11A5.34,5.34,0,0,0,189.54,211.1Z"/>
    <path class="cls-2" d="M196.9,212.52v-1.37a3.42,3.42,0,0,1-3,1.58,3.76,3.76,0,0,1-1.54-.32,2.52,2.52,0,0,1-1.07-.79,3.16,3.16,0,0,1-.49-1.18,8.56,8.56,0,0,1-.09-1.47v-5.79h1.58v5.18a8.63,8.63,0,0,0,.1,1.67,1.68,1.68,0,0,0,.63,1,1.93,1.93,0,0,0,1.19.35,2.64,2.64,0,0,0,1.34-.36,2,2,0,0,0,.88-1,4.86,4.86,0,0,0,.26-1.83v-5h1.59v9.34Z"/>
    <path class="cls-2" d="M200.47,212.52v-9.34h1.42v1.42a3.93,3.93,0,0,1,1-1.31,1.79,1.79,0,0,1,1-.32,3.07,3.07,0,0,1,1.62.51L205,205a2.27,2.27,0,0,0-1.16-.34,1.52,1.52,0,0,0-.94.31,1.65,1.65,0,0,0-.58.86,6.08,6.08,0,0,0-.27,1.85v4.89Z"/>
    <path class="cls-2" d="M212.27,211.36a6,6,0,0,1-1.7,1.06,5,5,0,0,1-1.74.31,3.38,3.38,0,0,1-2.36-.75,2.5,2.5,0,0,1-.83-1.92,2.59,2.59,0,0,1,1.13-2.17,4,4,0,0,1,1.14-.52,10.88,10.88,0,0,1,1.4-.23,14.93,14.93,0,0,0,2.82-.55c0-.21,0-.35,0-.41a1.76,1.76,0,0,0-.44-1.36,2.66,2.66,0,0,0-1.81-.54,2.77,2.77,0,0,0-1.64.39,2.35,2.35,0,0,0-.79,1.39l-1.55-.21a3.73,3.73,0,0,1,.7-1.61,3,3,0,0,1,1.39-.94,6.25,6.25,0,0,1,2.12-.33,5.49,5.49,0,0,1,1.94.28,2.59,2.59,0,0,1,1.1.71,2.46,2.46,0,0,1,.5,1.08,9.54,9.54,0,0,1,.07,1.46v2.1a21.28,21.28,0,0,0,.11,2.8,3.35,3.35,0,0,0,.4,1.12h-1.66A3.35,3.35,0,0,1,212.27,211.36Zm-.14-3.53a11,11,0,0,1-2.58.6,5.62,5.62,0,0,0-1.38.32,1.26,1.26,0,0,0-.62.51,1.34,1.34,0,0,0-.22.75,1.37,1.37,0,0,0,.48,1.06,2.05,2.05,0,0,0,1.4.42,3.3,3.3,0,0,0,1.62-.4,2.42,2.42,0,0,0,1-1.1,3.79,3.79,0,0,0,.25-1.58Z"/>
    <path class="cls-2" d="M266.39,39.9l1.71.43a5.78,5.78,0,0,1-1.93,3.21,5.34,5.34,0,0,1-3.41,1.1,6.07,6.07,0,0,1-3.38-.85,5.22,5.22,0,0,1-2-2.46,8.81,8.81,0,0,1-.68-3.45,7.5,7.5,0,0,1,.77-3.51,5.25,5.25,0,0,1,2.19-2.28,6.34,6.34,0,0,1,3.12-.78,5.26,5.26,0,0,1,3.25,1,5.15,5.15,0,0,1,1.84,2.77l-1.68.39a4,4,0,0,0-1.3-2,3.45,3.45,0,0,0-2.14-.65,4.17,4.17,0,0,0-2.49.72,3.76,3.76,0,0,0-1.4,1.91,7.65,7.65,0,0,0-.4,2.47,7.84,7.84,0,0,0,.48,2.87,3.46,3.46,0,0,0,1.49,1.83,4.1,4.1,0,0,0,2.18.61,3.67,3.67,0,0,0,2.43-.83A4.18,4.18,0,0,0,266.39,39.9Z"/>
    <path class="cls-2" d="M269.1,39.75a4.81,4.81,0,0,1,1.44-3.84,4.39,4.39,0,0,1,2.94-1,4.18,4.18,0,0,1,3.15,1.27,4.81,4.81,0,0,1,1.22,3.48,6.21,6.21,0,0,1-.54,2.84,3.87,3.87,0,0,1-1.58,1.6,4.56,4.56,0,0,1-2.25.57,4.2,4.2,0,0,1-3.17-1.26A5,5,0,0,1,269.1,39.75Zm1.63,0a4,4,0,0,0,.78,2.69,2.52,2.52,0,0,0,2,.89,2.49,2.49,0,0,0,2-.9,4.06,4.06,0,0,0,.78-2.73,3.87,3.87,0,0,0-.78-2.62,2.6,2.6,0,0,0-3.93,0A4,4,0,0,0,270.73,39.75Z"/>
    <path class="cls-2" d="M278.81,39.75a4.81,4.81,0,0,1,1.44-3.84,4.34,4.34,0,0,1,2.93-1,4.15,4.15,0,0,1,3.15,1.27,4.76,4.76,0,0,1,1.22,3.48,6.21,6.21,0,0,1-.54,2.84,3.84,3.84,0,0,1-1.57,1.6,4.6,4.6,0,0,1-2.26.57A4.17,4.17,0,0,1,280,43.37,5,5,0,0,1,278.81,39.75Zm1.62,0a4,4,0,0,0,.79,2.69,2.59,2.59,0,0,0,3.92,0,4,4,0,0,0,.79-2.73,3.87,3.87,0,0,0-.79-2.62,2.59,2.59,0,0,0-3.92,0A3.92,3.92,0,0,0,280.43,39.75Z"/>
    <path class="cls-2" d="M289.1,48V35.09h1.44V36.3a3.61,3.61,0,0,1,1.15-1.07,3.16,3.16,0,0,1,1.56-.36,3.69,3.69,0,0,1,2.11.62,3.76,3.76,0,0,1,1.38,1.74,6.77,6.77,0,0,1-.05,5,3.89,3.89,0,0,1-3.55,2.37,3,3,0,0,1-1.42-.33,3.37,3.37,0,0,1-1-.85V48Zm1.43-8.19a4.1,4.1,0,0,0,.73,2.66,2.26,2.26,0,0,0,1.77.86,2.32,2.32,0,0,0,1.81-.89,4.26,4.26,0,0,0,.75-2.77,4.11,4.11,0,0,0-.74-2.67,2.21,2.21,0,0,0-1.75-.89,2.29,2.29,0,0,0-1.79,1A4.21,4.21,0,0,0,290.53,39.81Z"/>
    <path class="cls-2" d="M305.2,41.41l1.63.21a4.05,4.05,0,0,1-1.43,2.22,4.86,4.86,0,0,1-5.92-.47,4.93,4.93,0,0,1-1.2-3.54,5.12,5.12,0,0,1,1.21-3.65,4.11,4.11,0,0,1,3.15-1.31,4,4,0,0,1,3.06,1.28,5.05,5.05,0,0,1,1.18,3.58c0,.1,0,.24,0,.43h-7a3.59,3.59,0,0,0,.87,2.35,2.58,2.58,0,0,0,2,.82,2.4,2.4,0,0,0,1.49-.46A3,3,0,0,0,305.2,41.41ZM300,38.86h5.21a3.21,3.21,0,0,0-.59-1.77,2.43,2.43,0,0,0-2-.91,2.55,2.55,0,0,0-1.84.72A2.92,2.92,0,0,0,300,38.86Z"/>
    <path class="cls-2" d="M308.49,44.42V35.09h1.43V36.5a3.93,3.93,0,0,1,1-1.31,1.79,1.79,0,0,1,1-.32,3.07,3.07,0,0,1,1.62.51L313,36.85a2.24,2.24,0,0,0-1.16-.34,1.47,1.47,0,0,0-.93.31,1.7,1.7,0,0,0-.59.87,6,6,0,0,0-.26,1.84v4.89Z"/>
    <path class="cls-2" d="M320.29,43.27a5.79,5.79,0,0,1-1.69,1,4.81,4.81,0,0,1-1.75.31,3.39,3.39,0,0,1-2.36-.75,2.48,2.48,0,0,1-.83-1.92,2.59,2.59,0,0,1,1.13-2.16,4,4,0,0,1,1.14-.52,12.36,12.36,0,0,1,1.41-.24,14.63,14.63,0,0,0,2.82-.54c0-.22,0-.36,0-.42a1.74,1.74,0,0,0-.45-1.36,2.65,2.65,0,0,0-1.8-.54,2.71,2.71,0,0,0-1.65.4,2.36,2.36,0,0,0-.79,1.38l-1.54-.21a3.91,3.91,0,0,1,.69-1.61,3.09,3.09,0,0,1,1.4-.94,6.21,6.21,0,0,1,2.12-.33,5.55,5.55,0,0,1,1.94.29,2.55,2.55,0,0,1,1.1.7,2.69,2.69,0,0,1,.49,1.08,9.25,9.25,0,0,1,.08,1.46v2.11a21.94,21.94,0,0,0,.1,2.79,3.58,3.58,0,0,0,.4,1.12h-1.65A3.29,3.29,0,0,1,320.29,43.27Zm-.13-3.54a11.18,11.18,0,0,1-2.59.6,6.13,6.13,0,0,0-1.38.32,1.43,1.43,0,0,0-.62.51,1.4,1.4,0,0,0,.26,1.81,2.07,2.07,0,0,0,1.4.42,3.26,3.26,0,0,0,1.63-.4,2.48,2.48,0,0,0,1-1.09,3.85,3.85,0,0,0,.26-1.59Z"/>
    <path class="cls-2" d="M330,41l1.56.2a4.06,4.06,0,0,1-1.31,2.52,3.78,3.78,0,0,1-2.57.91,4,4,0,0,1-3.09-1.25,5.12,5.12,0,0,1-1.16-3.59,6.59,6.59,0,0,1,.5-2.65,3.48,3.48,0,0,1,1.53-1.7,4.48,4.48,0,0,1,2.22-.57,3.88,3.88,0,0,1,2.49.77,3.51,3.51,0,0,1,1.24,2.19l-1.54.23a2.49,2.49,0,0,0-.78-1.41,2,2,0,0,0-1.34-.47,2.47,2.47,0,0,0-1.95.85,4.06,4.06,0,0,0-.74,2.71,4.22,4.22,0,0,0,.72,2.74,2.33,2.33,0,0,0,1.88.85,2.2,2.2,0,0,0,1.55-.57A2.81,2.81,0,0,0,330,41Zm-3.66,4.6.46-1.56H328l-.29.94a1.87,1.87,0,0,1,1.13.46,1.16,1.16,0,0,1,.38.83,1.47,1.47,0,0,1-.64,1.17,3,3,0,0,1-1.9.5,6.81,6.81,0,0,1-1.27-.1l.1-1,.82,0a2.17,2.17,0,0,0,1.16-.23.52.52,0,0,0,.26-.43.45.45,0,0,0-.1-.29.82.82,0,0,0-.38-.21A3.58,3.58,0,0,0,326.33,45.6Z"/>
    <path class="cls-2" d="M338.69,43.27a5.79,5.79,0,0,1-1.69,1,4.85,4.85,0,0,1-1.75.31,3.39,3.39,0,0,1-2.36-.75,2.48,2.48,0,0,1-.83-1.92,2.6,2.6,0,0,1,.31-1.25,2.49,2.49,0,0,1,.82-.91,4,4,0,0,1,1.14-.52,12.52,12.52,0,0,1,1.4-.24,14.61,14.61,0,0,0,2.83-.54v-.42a1.74,1.74,0,0,0-.44-1.36,2.66,2.66,0,0,0-1.81-.54,2.69,2.69,0,0,0-1.64.4,2.36,2.36,0,0,0-.79,1.38l-1.55-.21a3.91,3.91,0,0,1,.7-1.61,3.09,3.09,0,0,1,1.4-.94,6.15,6.15,0,0,1,2.11-.33,5.57,5.57,0,0,1,1.95.29,2.51,2.51,0,0,1,1.09.7,2.57,2.57,0,0,1,.5,1.08,9.25,9.25,0,0,1,.08,1.46v2.11a21.94,21.94,0,0,0,.1,2.79,3.35,3.35,0,0,0,.4,1.12H339A3.29,3.29,0,0,1,338.69,43.27Zm-5.27-9.56a2,2,0,0,1,.5-1.46,1.67,1.67,0,0,1,1.29-.55,3.54,3.54,0,0,1,1.48.48,2.07,2.07,0,0,0,.83.26.58.58,0,0,0,.43-.15,1.15,1.15,0,0,0,.21-.61h1.14a2.16,2.16,0,0,1-.5,1.5,1.64,1.64,0,0,1-1.22.5,3.3,3.3,0,0,1-1.46-.49,2.19,2.19,0,0,0-.86-.32.6.6,0,0,0-.48.21.9.9,0,0,0-.19.63Zm5.14,6a11.18,11.18,0,0,1-2.59.6,6.13,6.13,0,0,0-1.38.32,1.37,1.37,0,0,0-.62.51,1.4,1.4,0,0,0,.26,1.81,2.05,2.05,0,0,0,1.4.42,3.26,3.26,0,0,0,1.63-.4,2.48,2.48,0,0,0,1-1.09,3.85,3.85,0,0,0,.26-1.59Z"/>
    <path class="cls-2" d="M341.71,39.75a4.81,4.81,0,0,1,1.44-3.84,4.39,4.39,0,0,1,2.94-1,4.18,4.18,0,0,1,3.15,1.27,4.81,4.81,0,0,1,1.22,3.48,6.21,6.21,0,0,1-.54,2.84,3.87,3.87,0,0,1-1.58,1.6,4.56,4.56,0,0,1-2.25.57,4.2,4.2,0,0,1-3.17-1.26A5,5,0,0,1,341.71,39.75Zm1.63,0a4,4,0,0,0,.78,2.69,2.52,2.52,0,0,0,2,.89,2.48,2.48,0,0,0,2-.9,4.06,4.06,0,0,0,.78-2.73,3.87,3.87,0,0,0-.78-2.62,2.6,2.6,0,0,0-3.93,0A4,4,0,0,0,343.34,39.75Z"/>
    <path class="cls-2" d="M257.79,71.52V52.2H266a14,14,0,0,1,4.51.52,4.39,4.39,0,0,1,2.24,1.85,5.5,5.5,0,0,1,.85,3,5.2,5.2,0,0,1-1.28,3.6A6.13,6.13,0,0,1,268.49,63a9.46,9.46,0,0,1,2.09,1.62,22.86,22.86,0,0,1,2.23,3.14l2.36,3.77H270.5l-2.82-4.2a25.75,25.75,0,0,0-2.06-2.84,3.1,3.1,0,0,0-1.17-.81,6.64,6.64,0,0,0-2-.22h-.79v8.07Zm3.9-11.15h2.89a14.82,14.82,0,0,0,3.51-.24,2.1,2.1,0,0,0,1.09-.82,2.53,2.53,0,0,0,.4-1.45,2.34,2.34,0,0,0-.52-1.57,2.43,2.43,0,0,0-1.48-.76c-.31,0-1.26-.06-2.84-.06h-3.05Z"/>
    <path class="cls-2" d="M284.9,67.07l3.69.62a6.13,6.13,0,0,1-2.25,3.09,6.56,6.56,0,0,1-3.84,1.06,6.27,6.27,0,0,1-5.41-2.39,8,8,0,0,1-1.38-4.82,7.69,7.69,0,0,1,1.82-5.45,6,6,0,0,1,4.6-2,6.2,6.2,0,0,1,4.93,2.06q1.8,2.05,1.73,6.32h-9.28a3.71,3.71,0,0,0,.89,2.56,2.79,2.79,0,0,0,2.14.92A2.28,2.28,0,0,0,284,68.6,2.92,2.92,0,0,0,284.9,67.07Zm.21-3.75a3.56,3.56,0,0,0-.83-2.44,2.68,2.68,0,0,0-3.93,0,3.41,3.41,0,0,0-.78,2.4Z"/>
    <path class="cls-2" d="M291.24,57.52h3.46v2.06a5.08,5.08,0,0,1,4.36-2.37,5.32,5.32,0,0,1,4.14,1.91,7.74,7.74,0,0,1,1.7,5.32,8,8,0,0,1-1.71,5.46A5.37,5.37,0,0,1,299,71.84a4.69,4.69,0,0,1-2.1-.46,7.16,7.16,0,0,1-2-1.58v7h-3.71Zm3.67,6.77a5.4,5.4,0,0,0,.93,3.48,2.89,2.89,0,0,0,2.28,1.13,2.68,2.68,0,0,0,2.15-1,5.33,5.33,0,0,0,.86-3.39,5.11,5.11,0,0,0-.88-3.27,2.74,2.74,0,0,0-2.19-1.07,2.85,2.85,0,0,0-2.26,1A4.71,4.71,0,0,0,294.91,64.29Z"/>
    <path class="cls-2" d="M310.93,71.52h-3.71v-14h3.44v2a6,6,0,0,1,1.59-1.86,2.92,2.92,0,0,1,1.6-.44,4.73,4.73,0,0,1,2.44.69l-1.14,3.23a3.31,3.31,0,0,0-1.74-.6,2,2,0,0,0-1.32.43,2.86,2.86,0,0,0-.85,1.55,21.69,21.69,0,0,0-.31,4.69Z"/>
    <path class="cls-2" d="M325.54,67.07l3.69.62A6.13,6.13,0,0,1,327,70.78a6.56,6.56,0,0,1-3.84,1.06,6.27,6.27,0,0,1-5.41-2.39,8,8,0,0,1-1.38-4.82,7.69,7.69,0,0,1,1.82-5.45,6,6,0,0,1,4.6-2,6.21,6.21,0,0,1,4.93,2.06q1.8,2.05,1.73,6.32h-9.29a3.76,3.76,0,0,0,.9,2.56,2.77,2.77,0,0,0,2.14.92,2.3,2.3,0,0,0,1.46-.47A3,3,0,0,0,325.54,67.07Zm.21-3.75a3.61,3.61,0,0,0-.83-2.44,2.68,2.68,0,0,0-3.93,0,3.41,3.41,0,0,0-.78,2.4Z"/>
    <path class="cls-2" d="M330.68,67.53,334.4,67a2.73,2.73,0,0,0,1,1.64,3.2,3.2,0,0,0,2,.56,3.66,3.66,0,0,0,2.16-.52,1.18,1.18,0,0,0,.49-1,1,1,0,0,0-.26-.7,2.94,2.94,0,0,0-1.24-.49q-4.49-1-5.68-1.81a3.59,3.59,0,0,1-1.67-3.15,3.89,3.89,0,0,1,1.44-3.06,6.77,6.77,0,0,1,4.46-1.23,7.82,7.82,0,0,1,4.27.93,4.81,4.81,0,0,1,1.92,2.77l-3.49.65a2.15,2.15,0,0,0-.85-1.26,3.12,3.12,0,0,0-1.79-.43,3.93,3.93,0,0,0-2.09.41.87.87,0,0,0-.42.75.82.82,0,0,0,.36.67,14,14,0,0,0,3.47,1,10.32,10.32,0,0,1,4.13,1.65,3.44,3.44,0,0,1,1.16,2.76,4.25,4.25,0,0,1-1.61,3.31,7.13,7.13,0,0,1-4.76,1.38,7.83,7.83,0,0,1-4.53-1.16A5.32,5.32,0,0,1,330.68,67.53Z"/>
    <path class="cls-2" d="M354.65,67.07l3.69.62a6,6,0,0,1-2.25,3.09,6.56,6.56,0,0,1-3.84,1.06,6.27,6.27,0,0,1-5.4-2.39,8,8,0,0,1-1.39-4.82,7.73,7.73,0,0,1,1.82-5.45,6,6,0,0,1,4.6-2,6.18,6.18,0,0,1,4.93,2.06c1.21,1.37,1.78,3.48,1.73,6.32h-9.28a3.71,3.71,0,0,0,.9,2.56,2.77,2.77,0,0,0,2.13.92,2.28,2.28,0,0,0,1.46-.47A2.92,2.92,0,0,0,354.65,67.07Zm.21-3.75a3.52,3.52,0,0,0-.83-2.44,2.55,2.55,0,0,0-1.92-.84,2.58,2.58,0,0,0-2,.88,3.5,3.5,0,0,0-.78,2.4Z"/>
    <path class="cls-2" d="M373.84,71.52h-3.71V64.38a11,11,0,0,0-.24-2.94,2,2,0,0,0-.77-1,2.15,2.15,0,0,0-1.28-.37,3,3,0,0,0-1.73.53A2.64,2.64,0,0,0,365.06,62a12.13,12.13,0,0,0-.28,3.22v6.34h-3.71v-14h3.44v2.06a5.62,5.62,0,0,1,4.62-2.37,5.46,5.46,0,0,1,2.24.44,3.78,3.78,0,0,1,1.54,1.12,4.29,4.29,0,0,1,.72,1.56,11.26,11.26,0,0,1,.21,2.49Z"/>
    <path class="cls-2" d="M383.55,57.52v3H381v5.64a13,13,0,0,0,.08,2,.74.74,0,0,0,.33.47,1,1,0,0,0,.62.19,4.76,4.76,0,0,0,1.49-.36l.32,2.88a7.54,7.54,0,0,1-2.93.55,4.56,4.56,0,0,1-1.81-.34,2.61,2.61,0,0,1-1.18-.87,3.42,3.42,0,0,1-.52-1.44,18.24,18.24,0,0,1-.11-2.61v-6.1H375.6v-3h1.71V54.74L381,52.58v4.94Z"/>
    <path class="cls-2" d="M388.44,61.79l-3.37-.6a5.25,5.25,0,0,1,1.95-3,7.18,7.18,0,0,1,4.12-1,8.9,8.9,0,0,1,3.69.58,3.69,3.69,0,0,1,1.71,1.49A7.66,7.66,0,0,1,397,62.6l0,4.32a14.79,14.79,0,0,0,.18,2.72,8.17,8.17,0,0,0,.66,1.88h-3.66c-.1-.24-.22-.61-.36-1.09-.06-.22-.1-.37-.13-.44a6.63,6.63,0,0,1-2,1.39,5.78,5.78,0,0,1-2.31.46,4.76,4.76,0,0,1-3.4-1.17,3.92,3.92,0,0,1-1.25-3,4,4,0,0,1,.57-2.12,3.66,3.66,0,0,1,1.59-1.42,12.1,12.1,0,0,1,2.94-.86,20.84,20.84,0,0,0,3.6-.91V62a1.92,1.92,0,0,0-.53-1.53,3.17,3.17,0,0,0-2-.45,2.21,2.21,0,0,0-2.43,1.75Zm4.95,3a21.91,21.91,0,0,1-2.25.57,6.92,6.92,0,0,0-2,.64,1.55,1.55,0,0,0-.72,1.31,1.8,1.8,0,0,0,.58,1.34,2,2,0,0,0,1.47.57,3.18,3.18,0,0,0,1.91-.66,2.29,2.29,0,0,0,.89-1.23,7.64,7.64,0,0,0,.14-1.8Z"/>
    <path class="cls-2" d="M412.43,61.66l-3.65.66a2.62,2.62,0,0,0-.84-1.65,2.51,2.51,0,0,0-1.69-.55,2.78,2.78,0,0,0-2.21,1,4.92,4.92,0,0,0-.82,3.2,5.65,5.65,0,0,0,.83,3.52,2.74,2.74,0,0,0,2.25,1,2.51,2.51,0,0,0,1.73-.6,3.64,3.64,0,0,0,1-2.06l3.63.62a6.4,6.4,0,0,1-2.17,3.78,6.74,6.74,0,0,1-4.31,1.28,6.42,6.42,0,0,1-4.9-1.94,7.49,7.49,0,0,1-1.82-5.36,7.51,7.51,0,0,1,1.83-5.4,6.49,6.49,0,0,1,4.95-1.93,6.71,6.71,0,0,1,4.07,1.1A6.07,6.07,0,0,1,412.43,61.66Zm-10,15.18V75.28a23,23,0,0,0,2.49.15,2.93,2.93,0,0,0,1.74-.43,1,1,0,0,0,.44-.81,1,1,0,0,0-.41-.78,2,2,0,0,0-1.27-.33,6.19,6.19,0,0,0-1.72.26l.34-1.3a6.61,6.61,0,0,1,2.21-.36,3.76,3.76,0,0,1,2.51.73,2.23,2.23,0,0,1,.86,1.76,2.28,2.28,0,0,1-.95,1.89,5.92,5.92,0,0,1-3.67,1A11.77,11.77,0,0,1,402.45,76.84Z"/>
    <path class="cls-2" d="M417.55,61.79l-3.36-.6a5.15,5.15,0,0,1,1.95-3,7.13,7.13,0,0,1,4.11-1,8.9,8.9,0,0,1,3.69.58,3.69,3.69,0,0,1,1.71,1.49,7.66,7.66,0,0,1,.49,3.32l0,4.32a14.79,14.79,0,0,0,.18,2.72,7.78,7.78,0,0,0,.67,1.88h-3.67c-.09-.24-.21-.61-.35-1.09-.07-.22-.11-.37-.14-.44a6.71,6.71,0,0,1-2,1.39,5.84,5.84,0,0,1-2.31.46,4.79,4.79,0,0,1-3.41-1.17,3.92,3.92,0,0,1-1.25-3,4,4,0,0,1,.57-2.12A3.72,3.72,0,0,1,416,64.16a12.06,12.06,0,0,1,3-.86,20.84,20.84,0,0,0,3.6-.91V62a2,2,0,0,0-.53-1.53,3.19,3.19,0,0,0-2-.45,2.67,2.67,0,0,0-1.55.39A2.76,2.76,0,0,0,417.55,61.79Zm0-6.15h-1.69c0-.21,0-.36,0-.48a3.07,3.07,0,0,1,.67-2.13,2.25,2.25,0,0,1,1.73-.74,3.38,3.38,0,0,1,.86.1,10.2,10.2,0,0,1,1.44.56,4.28,4.28,0,0,0,1.64.47,1,1,0,0,0,.71-.26,1.42,1.42,0,0,0,.36-.89h1.71a4,4,0,0,1-.66,2.55,2.12,2.12,0,0,1-1.68.76,4.41,4.41,0,0,1-.89-.09c-.2-.05-.7-.23-1.51-.54a5.67,5.67,0,0,0-1.77-.46.87.87,0,0,0-.66.26A1.33,1.33,0,0,0,417.52,55.64Zm5,9.16a23,23,0,0,1-2.26.57,6.92,6.92,0,0,0-2,.64,1.55,1.55,0,0,0-.72,1.31,1.8,1.8,0,0,0,.58,1.34,2,2,0,0,0,1.47.57,3.23,3.23,0,0,0,1.92-.66,2.27,2.27,0,0,0,.88-1.23,7,7,0,0,0,.15-1.8Z"/>
    <path class="cls-2" d="M428.48,64.32a7.52,7.52,0,0,1,.91-3.57A6.18,6.18,0,0,1,432,58.12a7.59,7.59,0,0,1,3.72-.91,7,7,0,0,1,5.21,2.06,7.12,7.12,0,0,1,2,5.21,7.24,7.24,0,0,1-2.05,5.27,7,7,0,0,1-5.16,2.09,8.09,8.09,0,0,1-3.67-.87,6,6,0,0,1-2.66-2.55A8.48,8.48,0,0,1,428.48,64.32Zm3.8.2a4.59,4.59,0,0,0,1,3.19,3.23,3.23,0,0,0,4.87,0,4.72,4.72,0,0,0,1-3.21,4.64,4.64,0,0,0-1-3.17,3.23,3.23,0,0,0-4.87,0A4.59,4.59,0,0,0,432.28,64.52Z"/>
    <path class="cls-2" d="M270.49,100.52h-3.71V93.38a11,11,0,0,0-.24-2.94,2,2,0,0,0-.77-1,2.15,2.15,0,0,0-1.28-.37,3,3,0,0,0-1.73.53A2.64,2.64,0,0,0,261.71,91a12.13,12.13,0,0,0-.28,3.22v6.34h-3.71v-14h3.44v2.06a5.62,5.62,0,0,1,4.62-2.37,5.46,5.46,0,0,1,2.24.44,3.78,3.78,0,0,1,1.54,1.12,4.29,4.29,0,0,1,.72,1.56,11.26,11.26,0,0,1,.21,2.49Z"/>
    <path class="cls-2" d="M272.93,93.32a7.52,7.52,0,0,1,.91-3.57,6.16,6.16,0,0,1,2.57-2.63,7.66,7.66,0,0,1,3.73-.91,7,7,0,0,1,5.21,2.06,7.12,7.12,0,0,1,2,5.21,7.24,7.24,0,0,1-2.05,5.27,7,7,0,0,1-5.17,2.09,8.15,8.15,0,0,1-3.67-.87,5.94,5.94,0,0,1-2.65-2.55A8.48,8.48,0,0,1,272.93,93.32Zm3.79.2a4.63,4.63,0,0,0,1,3.19,3.14,3.14,0,0,0,2.44,1.11,3.1,3.1,0,0,0,2.43-1.11,4.67,4.67,0,0,0,1-3.21,4.6,4.6,0,0,0-1-3.17,3.1,3.1,0,0,0-2.43-1.11,3.14,3.14,0,0,0-2.44,1.11A4.63,4.63,0,0,0,276.72,93.52Z"/>
    <path class="cls-2" d="M296.9,81.2h7.72a22.22,22.22,0,0,1,3.43.19,4.93,4.93,0,0,1,2,.79,5.06,5.06,0,0,1,1.49,1.62,4.62,4.62,0,0,1-.14,4.75,4.52,4.52,0,0,1-2,1.7A5.11,5.11,0,0,1,312.14,92a4.64,4.64,0,0,1,.95,2.91,5.84,5.84,0,0,1-.61,2.56,5.23,5.23,0,0,1-1.68,2,5.56,5.56,0,0,1-2.62.91c-.65.07-2.21.12-4.7.13H296.9Zm3.9,3.21v4.47h2.56c1.52,0,2.46,0,2.83-.06a2.55,2.55,0,0,0,1.58-.7,2,2,0,0,0,.57-1.51,2.11,2.11,0,0,0-.49-1.45,2.22,2.22,0,0,0-1.47-.68c-.39,0-1.5-.07-3.34-.07Zm0,7.69v5.17h3.61a17.5,17.5,0,0,0,2.68-.12,2.46,2.46,0,0,0,1.42-.77,2.4,2.4,0,0,0,.54-1.64,2.53,2.53,0,0,0-.42-1.48,2.33,2.33,0,0,0-1.22-.88A12.92,12.92,0,0,0,304,92.1Z"/>
    <path class="cls-2" d="M319.45,100.52h-3.71v-14h3.44v2a6,6,0,0,1,1.59-1.86,2.89,2.89,0,0,1,1.6-.44,4.73,4.73,0,0,1,2.44.69l-1.15,3.23a3.25,3.25,0,0,0-1.74-.6,2,2,0,0,0-1.31.43,2.86,2.86,0,0,0-.85,1.55,21.69,21.69,0,0,0-.31,4.69Z"/>
    <path class="cls-2" d="M328.72,90.79l-3.37-.6a5.21,5.21,0,0,1,2-3,7.13,7.13,0,0,1,4.11-1,8.9,8.9,0,0,1,3.69.58,3.69,3.69,0,0,1,1.71,1.49,7.66,7.66,0,0,1,.49,3.32l0,4.32a14.79,14.79,0,0,0,.18,2.72,7.78,7.78,0,0,0,.67,1.88h-3.67c-.1-.24-.21-.61-.35-1.09-.07-.22-.11-.37-.14-.44a6.63,6.63,0,0,1-2,1.39,5.76,5.76,0,0,1-2.3.46,4.77,4.77,0,0,1-3.41-1.17,3.92,3.92,0,0,1-1.25-3,4,4,0,0,1,.57-2.12,3.72,3.72,0,0,1,1.59-1.42,12.1,12.1,0,0,1,2.94-.86,20.33,20.33,0,0,0,3.6-.91V91a2,2,0,0,0-.52-1.53,3.21,3.21,0,0,0-2-.45,2.67,2.67,0,0,0-1.55.39A2.63,2.63,0,0,0,328.72,90.79Zm4.95,3a21.91,21.91,0,0,1-2.25.57,6.92,6.92,0,0,0-2,.64,1.55,1.55,0,0,0-.72,1.31,1.8,1.8,0,0,0,.58,1.34,2,2,0,0,0,1.47.57,3.23,3.23,0,0,0,1.92-.66,2.32,2.32,0,0,0,.88-1.23,7.64,7.64,0,0,0,.14-1.8Z"/>
    <path class="cls-2" d="M339.2,96.53l3.72-.57a2.73,2.73,0,0,0,1,1.64,3.2,3.2,0,0,0,2,.56,3.66,3.66,0,0,0,2.16-.52,1.18,1.18,0,0,0,.49-1,1,1,0,0,0-.26-.7,2.94,2.94,0,0,0-1.24-.49q-4.49-1-5.69-1.81a3.61,3.61,0,0,1-1.66-3.15,3.89,3.89,0,0,1,1.44-3.06,6.75,6.75,0,0,1,4.46-1.23,7.82,7.82,0,0,1,4.27.93,4.81,4.81,0,0,1,1.92,2.77l-3.49.65a2.15,2.15,0,0,0-.85-1.26,3.12,3.12,0,0,0-1.79-.43,3.93,3.93,0,0,0-2.09.41.88.88,0,0,0-.43.75.83.83,0,0,0,.37.67,14,14,0,0,0,3.46,1,10.31,10.31,0,0,1,4.14,1.65,3.44,3.44,0,0,1,1.16,2.76,4.25,4.25,0,0,1-1.61,3.31,7.13,7.13,0,0,1-4.76,1.38,7.83,7.83,0,0,1-4.53-1.16A5.32,5.32,0,0,1,339.2,96.53Z"/>
    <path class="cls-2" d="M355.06,84.62V81.2h3.71v3.42Zm0,15.9v-14h3.71v14Z"/>
    <path class="cls-2" d="M362.1,100.52V81.2h3.71v19.32Z"/>
</svg>
