<svg id="Camada_1" data-name="Camada 1" xmlns="http://www.w3.org/2000/svg" viewBox="0 0 78.1 16.5"><defs><style>.cls-1{fill:#a2bd2e;}.cls-2{fill:#fff;}.cls-3{fill:#c0144b;}.cls-4{fill:#1475b9;}</style></defs><title>Libro aberto_Prancheta_</title><path class="cls-1" d="M64.59,5.88v5.78a.55.55,0,0,0,.55.55h1.39a.55.55,0,0,0,.55-.55h0V5.11a.6.6,0,0,0-.14-.37Z"/><path class="cls-2" d="M66.53,12.36H65.14a.7.7,0,0,1-.7-.7V5.79L67,4.55l.08.09a.8.8,0,0,1,.18.47v6.55A.7.7,0,0,1,66.53,12.36ZM64.74,6v5.69a.4.4,0,0,0,.4.4h1.39a.4.4,0,0,0,.4-.4V5.11a.41.41,0,0,0-.05-.18Z"/><path class="cls-3" d="M69.18,3.85h-.43l-1,.47v7.32a.57.57,0,0,0,.57.57h1.35a.58.58,0,0,0,.58-.56h0v-7Z"/><path class="cls-2" d="M69.68,12.36H68.33a.72.72,0,0,1-.73-.72V4.22l1.15-.52h.48l1.17.86v7.08A.72.72,0,0,1,69.68,12.36ZM67.9,4.42v7.22a.42.42,0,0,0,.42.42h1.35a.41.41,0,0,0,.3-.12.46.46,0,0,0,.13-.29V4.72l-1-.72h-.35Z"/><path class="cls-4" d="M71.65,5.7l-.72-.53v6.48a.57.57,0,0,0,.57.56h1.36a.56.56,0,0,0,.57-.55h0v-7Z"/><path class="cls-2" d="M72.87,12.36H71.5a.72.72,0,0,1-.72-.71V4.87l.87.65,1.93-1.13v7.26A.72.72,0,0,1,72.87,12.36ZM71.08,5.47v6.18a.41.41,0,0,0,.42.41h1.36a.42.42,0,0,0,.42-.4V4.91l-1.64,1Z"/><path class="cls-2" d="M30.14,12.18a2.25,2.25,0,0,1-.19-.57,1.84,1.84,0,0,1-1.52.69,2.22,2.22,0,0,1-1.52-.54,1.71,1.71,0,0,1-.64-1.36A1.75,1.75,0,0,1,27,8.84a3.88,3.88,0,0,1,2.24-.53h.6V8q0-.87-.75-.87a.61.61,0,0,0-.7.51.54.54,0,0,0,0,.18h-2a1.74,1.74,0,0,1,.78-1.49,3.29,3.29,0,0,1,2-.57,2.88,2.88,0,0,1,1.91.59A2.09,2.09,0,0,1,31.84,8v2.81a2.55,2.55,0,0,0,.27,1.33v.1ZM28.9,10.89a1.14,1.14,0,0,0,.62-.15,1,1,0,0,0,.34-.36v-1h-.59c-.69,0-1,.31-1,.93a.55.55,0,0,0,.18.44A.64.64,0,0,0,28.9,10.89Z"/><path class="cls-2" d="M38.82,9.07a3.87,3.87,0,0,1-.64,2.39,2.2,2.2,0,0,1-1.82.84,1.9,1.9,0,0,1-1.56-.77l-.08.65H33v-9h2V6.35a1.78,1.78,0,0,1,1.42-.62,2.15,2.15,0,0,1,1.83.85A3.91,3.91,0,0,1,38.82,9Zm-2-.13a2.65,2.65,0,0,0-.24-1.3.82.82,0,0,0-.75-.39.94.94,0,0,0-.92.51v2.51a1,1,0,0,0,.94.51.84.84,0,0,0,.88-.68,5.63,5.63,0,0,0,.11-1.16Z"/><path class="cls-2" d="M42.76,12.3a3.27,3.27,0,0,1-2.36-.87,3,3,0,0,1-.9-2.27V9a3.8,3.8,0,0,1,.36-1.72,2.65,2.65,0,0,1,1-1.15,3.12,3.12,0,0,1,1.64-.4,2.79,2.79,0,0,1,2.11.82,3.31,3.31,0,0,1,.77,2.32v.76H41.51a1.38,1.38,0,0,0,.46.84,1.41,1.41,0,0,0,.93.31,1.77,1.77,0,0,0,1.46-.66l.9,1.07a2.59,2.59,0,0,1-1,.81A3.58,3.58,0,0,1,42.76,12.3Zm-.22-5.05c-.58,0-.92.38-1,1.15h2V8.25a1.06,1.06,0,0,0-.27-.74A1,1,0,0,0,42.54,7.25Z"/><path class="cls-2" d="M50.06,7.63h-.65a1.15,1.15,0,0,0-1.14.54v4h-2V5.84h1.85l.07.82a1.5,1.5,0,0,1,1.39-.93,2.08,2.08,0,0,1,.55.07Z"/><path class="cls-2" d="M53.37,4.27V5.84h1V7.21h-1v2.9a.68.68,0,0,0,.13.5c.08.1.25.14.51.14h.49v1.41a3.9,3.9,0,0,1-1.12.17,2.07,2.07,0,0,1-1.5-.48,2,2,0,0,1-.49-1.46V7.21h-.81V5.84h.81V4.27Z"/><path class="cls-2" d="M57.85,9.25A.36.36,0,0,1,57.52,9a.37.37,0,0,1,.18-.48L69,3.41a.35.35,0,0,1,.37,0l2.4,1.89,2.79-1.79a.35.35,0,0,1,.49.11h0a.38.38,0,0,1-.11.5l-3,1.93a.4.4,0,0,1-.42,0l-2.43-1.9L58,9.22Z"/><path class="cls-2" d="M73.17,3.48l1.28,1.93a.11.11,0,0,0,.19,0l1-1.93a.11.11,0,0,0-.1-.16h-2.3A.11.11,0,0,0,73.17,3.48Z"/><path class="cls-2" d="M57.87,12.31A3.32,3.32,0,1,1,61.19,9,3.32,3.32,0,0,1,57.87,12.31Zm0-5A1.72,1.72,0,1,0,59.59,9,1.72,1.72,0,0,0,57.87,7.27Z"/><path class="cls-2" d="M3.78,12.3H2.84V3.52h.94Z"/><path class="cls-2" d="M5.69,4.44A.59.59,0,0,1,5.85,4a.54.54,0,0,1,.39-.15A.56.56,0,0,1,6.63,4a.61.61,0,0,1,.17.47.61.61,0,0,1-.17.47.56.56,0,0,1-.39.15.54.54,0,0,1-.39-.15A.61.61,0,0,1,5.69,4.44Zm1,7.86H5.77V6.11h.94Z"/><path class="cls-2" d="M10.05,12.3,7.7,6.11h1L10,9.78a16.52,16.52,0,0,1,.53,1.68h0a12.45,12.45,0,0,1,.4-1.24c.22-.63.71-2,1.48-4.11h1L11.14,12.3Z"/><path class="cls-2" d="M17.31,6a3.38,3.38,0,0,1,.74.07l-.13.87a3,3,0,0,0-.68-.09A1.65,1.65,0,0,0,16,7.46,2.23,2.23,0,0,0,15.42,9V12.3h-.93V6.11h.77l.11,1.15h0a2.8,2.8,0,0,1,.83-.93A1.88,1.88,0,0,1,17.31,6Z"/><path class="cls-2" d="M24.55,9.2a3.43,3.43,0,0,1-.77,2.37,2.69,2.69,0,0,1-2.1.85A2.76,2.76,0,0,1,20.21,12a2.6,2.6,0,0,1-1-1.12,4,4,0,0,1-.35-1.71,3.36,3.36,0,0,1,.76-2.35A2.64,2.64,0,0,1,21.72,6a2.61,2.61,0,0,1,2.06.87A3.38,3.38,0,0,1,24.55,9.2Zm-4.72,0A2.93,2.93,0,0,0,20.31,11a1.64,1.64,0,0,0,1.39.62A1.66,1.66,0,0,0,23.1,11a2.89,2.89,0,0,0,.48-1.81,2.87,2.87,0,0,0-.48-1.79,1.68,1.68,0,0,0-1.41-.61,1.66,1.66,0,0,0-1.39.6A2.91,2.91,0,0,0,19.83,9.2Z"/></svg>