<svg id="Layer_1" data-name="Layer 1" xmlns="http://www.w3.org/2000/svg" viewBox="0 0 20 20"><defs><style>.cls-1{fill:#80a685;}</style></defs><title>Artboard 18</title><path class="cls-1" d="M18.71,16.54a.8.8,0,0,1,.25.6.78.78,0,0,1-.25.59l-1,1a.78.78,0,0,1-.59.25.8.8,0,0,1-.6-.25L13,15.21a.81.81,0,0,1-.24-.59v-.56A7.1,7.1,0,0,1,8.32,15.6a7.12,7.12,0,0,1-3.66-1A7.5,7.5,0,0,1,2,12,7.12,7.12,0,0,1,1,8.32,7.12,7.12,0,0,1,2,4.66,7.58,7.58,0,0,1,4.66,2,7.12,7.12,0,0,1,8.32,1,7.12,7.12,0,0,1,12,2a7.5,7.5,0,0,1,2.64,2.64,7.12,7.12,0,0,1,1,3.66,7.1,7.1,0,0,1-1.54,4.48h.56a.81.81,0,0,1,.59.24ZM8.32,12.8a4.42,4.42,0,0,0,2.26-.6,4.2,4.2,0,0,0,1.62-1.62,4.56,4.56,0,0,0,0-4.52,4.27,4.27,0,0,0-1.62-1.62,4.56,4.56,0,0,0-4.52,0A4.34,4.34,0,0,0,4.44,6.06a4.56,4.56,0,0,0,0,4.52A4.27,4.27,0,0,0,6.06,12.2,4.42,4.42,0,0,0,8.32,12.8Z"/></svg>