<svg id="icon-whatsapp" xmlns="http://www.w3.org/2000/svg" viewBox="0 0 25 25">
    <title>
        Whatsapp
    </title>
    <path d="M21,3.91a12.59,12.59,0,0,1,2.67,3.91A11.62,11.62,0,0,1,23,18.39a12.32,12.32,0,0,1-4.43,4.38,12,12,0,0,1-11.76.16L.39,24.61l1.73-6.22a11.64,11.64,0,0,1-1.62-6,11.64,11.64,0,0,1,1.62-6A12.18,12.18,0,0,1,6.5,2a11.87,11.87,0,0,1,10.57-.7A12.59,12.59,0,0,1,21,3.91ZM12.5,22.39a9.85,9.85,0,0,0,5-1.35,10.27,10.27,0,0,0,3.7-3.65,9.53,9.53,0,0,0,1.38-5,9.25,9.25,0,0,0-.81-3.78,10.5,10.5,0,0,0-2.25-3.27,9.87,9.87,0,0,0-7-2.95,9.69,9.69,0,0,0-5,1.35A10.14,10.14,0,0,0,3.85,7.39a9.69,9.69,0,0,0-1.35,5,9.56,9.56,0,0,0,1.57,5.3l.21.38-1,3.67,3.78-1,.38.22A9.69,9.69,0,0,0,12.5,22.39ZM18,14.88l.16.11c.25.1.4.19.43.27a1.25,1.25,0,0,1,0,.54,2.83,2.83,0,0,1-.22.89,2.26,2.26,0,0,1-.86.92,2.87,2.87,0,0,1-1.16.51,5.1,5.1,0,0,1-1.46,0,11.14,11.14,0,0,1-2.16-.76,12.19,12.19,0,0,1-5-4.43l-.11-.11A5.45,5.45,0,0,1,6.39,9.74a3.43,3.43,0,0,1,1-2.43l0,0a1.1,1.1,0,0,1,.81-.38h.65A.72.72,0,0,1,9.23,7a.72.72,0,0,1,.24.41l.92,2.21a.6.6,0,0,1,.06.54,3.57,3.57,0,0,1-.71,1,1.49,1.49,0,0,0-.27.36.27.27,0,0,0,.11.29A7.1,7.1,0,0,0,11.36,14a13.65,13.65,0,0,0,2.28,1.35c.28.14.5.13.64-.05.47-.54.8-.94,1-1.19s.16-.22.27-.22a1.54,1.54,0,0,1,.38.06C16.19,14,16.88,14.34,18,14.88Z"/>
</svg>
