<svg id="icon-twitter" xmlns="http://www.w3.org/2000/svg" viewBox="0 0 29.5 25">
    <title>
        Twitter
    </title>
    <path d="M25.78,7.58a15.89,15.89,0,0,1-1.9,7.51,15.35,15.35,0,0,1-5.45,6.11,15.56,15.56,0,0,1-8.81,2.54A15.7,15.7,0,0,1,.91,21.2q.6.06,1.35.06a11.24,11.24,0,0,0,7.09-2.44A5.33,5.33,0,0,1,6,17.72a5.68,5.68,0,0,1-2-2.79,9.29,9.29,0,0,0,1,.06,7.13,7.13,0,0,0,1.51-.17,5.62,5.62,0,0,1-3.24-2,5.39,5.39,0,0,1-1.3-3.56V9.15a5.37,5.37,0,0,0,2.54.76A6.29,6.29,0,0,1,2.75,7.85a5.52,5.52,0,0,1,.11-5.57A15.57,15.57,0,0,0,8,6.5a15.69,15.69,0,0,0,6.51,1.73,8,8,0,0,1-.1-1.3,5.63,5.63,0,0,1,.75-2.83A5.59,5.59,0,0,1,17.24,2a5.5,5.5,0,0,1,2.81-.75,5.43,5.43,0,0,1,2.29.48A6.47,6.47,0,0,1,24.21,3a11.45,11.45,0,0,0,3.62-1.35,5.59,5.59,0,0,1-2.49,3.13,12.37,12.37,0,0,0,3.25-.91,12.65,12.65,0,0,1-2.87,3A2.89,2.89,0,0,1,25.78,7.58Z"/>
</svg>
