<svg xmlns="http://www.w3.org/2000/svg" viewBox="0 0 283.46 283.46" height="200">
    <defs>
        <style>
            .cls-1,.cls-2{fill:#fff;}.cls-1{fill-rule:evenodd;}.cls-3{fill:none;stroke:#2e3192;stroke-miterlimit:22.93;stroke-width:0.22px;}
        </style>
    </defs>
    <title>
        Prefeitura de SP
    </title>
    <path class="cls-1" d="M234.75,172.59a8.75,8.75,0,0,0-.72,3.85,14.6,14.6,0,0,0,.47,3.67,10.45,10.45,0,0,0,1.35,3.15,6.8,6.8,0,0,0,2.31,2.1,5.6,5.6,0,0,0,2.69.68h.51a7.28,7.28,0,0,0,3.15-1,5.34,5.34,0,0,0,2.07-2.36,8.61,8.61,0,0,0,.7-3.65,15.39,15.39,0,0,0-.51-3.85,10.06,10.06,0,0,0-1.43-3.31,6.16,6.16,0,0,0-2.17-2,5.53,5.53,0,0,0-2.58-.63h-.89a5,5,0,0,0-2.9.88,6,6,0,0,0-2.05,2.48m3.89-10.15h1.61a20.57,20.57,0,0,1,7.2,1.34,12.38,12.38,0,0,1,5.67,3.9,15.39,15.39,0,0,1,2.78,5,17.58,17.58,0,0,1,.73,5,18.92,18.92,0,0,1-1,5.9A11.81,11.81,0,0,1,252,189a14,14,0,0,1-5.57,3,21.66,21.66,0,0,1-5.6.82,20.44,20.44,0,0,1-6.21-.93,14,14,0,0,1-5.35-3.13,13.6,13.6,0,0,1-3.52-5.26,17.38,17.38,0,0,1-1.14-6.12c0-.54,0-1,0-1.28s.18-1.24.45-2.79a12.9,12.9,0,0,1,2.39-5.11,11.13,11.13,0,0,1,4.6-3.91,27,27,0,0,1,3.93-1.47A10.38,10.38,0,0,1,238.64,162.44Zm-35.09.5h9.15v22.29h11.51v7H203.55Zm-28.87,0h9.14v17.92a9,9,0,0,0,.41,3.24,3.15,3.15,0,0,0,1.28,1.51,6.67,6.67,0,0,0,5.44,0,2.8,2.8,0,0,0,1.26-1.68,10.73,10.73,0,0,0,.29-2.69V162.94h8.34v17.84A20.11,20.11,0,0,1,200,187a6.35,6.35,0,0,1-3,3.71,14.19,14.19,0,0,1-4.42,1.66,26.81,26.81,0,0,1-4.83.4,25.92,25.92,0,0,1-4.81-.44,14.39,14.39,0,0,1-4.59-1.81,6.28,6.28,0,0,1-3-3.75,24.42,24.42,0,0,1-.7-6.6Zm-18.87,17.75h5.8l-2.8-8.92Zm8-18.08,10.71,29.62h-9.77l-1.66-5.56h-8.89l-1.73,5.56h-9.14l10.92-29.62Zm-33,13.75h1.44a10.24,10.24,0,0,0,3.13-.34,2.65,2.65,0,0,0,1.46-1.23,3.72,3.72,0,0,0,.48-1.78,3.9,3.9,0,0,0-.63-2.19,2.85,2.85,0,0,0-1.5-1.23,7.65,7.65,0,0,0-2.31-.28h-2.07Zm-9.15-13.42h12.49a19.63,19.63,0,0,1,6.6,1.11,7.65,7.65,0,0,1,4.47,3.67,11.17,11.17,0,0,1,1.33,5.2,10.13,10.13,0,0,1-1.61,5.6,7.86,7.86,0,0,1-4.76,3.36,26.19,26.19,0,0,1-6.88.85h-2.49v9.5h-9.15ZM89,172.59a8.61,8.61,0,0,0-.72,3.85,14.59,14.59,0,0,0,.46,3.67,10.46,10.46,0,0,0,1.36,3.15,6.78,6.78,0,0,0,2.3,2.1,5.63,5.63,0,0,0,2.69.68h.51a7.2,7.2,0,0,0,3.15-1,5.42,5.42,0,0,0,2.08-2.36,8.77,8.77,0,0,0,.7-3.65,15.39,15.39,0,0,0-.51-3.85,10.28,10.28,0,0,0-1.44-3.31,6.15,6.15,0,0,0-2.16-2,5.59,5.59,0,0,0-2.58-.63H94a5,5,0,0,0-2.9.88A6,6,0,0,0,89,172.59Zm3.89-10.15h1.61a20.61,20.61,0,0,1,7.2,1.34,12.33,12.33,0,0,1,5.67,3.9,15.35,15.35,0,0,1,2.77,5,17.25,17.25,0,0,1,.75,5,19,19,0,0,1-1.06,5.9,11.89,11.89,0,0,1-3.56,5.33,14.08,14.08,0,0,1-5.57,3,21.67,21.67,0,0,1-5.61.82,20.42,20.42,0,0,1-6.2-.93,13.91,13.91,0,0,1-5.35-3.13,13.49,13.49,0,0,1-3.52-5.26,17.38,17.38,0,0,1-1.14-6.12c0-.54,0-1,0-1.28s.18-1.24.44-2.79a13.08,13.08,0,0,1,2.4-5.11,11.1,11.1,0,0,1,4.59-3.91,27.4,27.4,0,0,1,3.94-1.47A10.26,10.26,0,0,1,92.93,162.44ZM61.52,180.82h5.75L64.48,172ZM71,156.24l1.87.13a8.64,8.64,0,0,1-1,2.39,4,4,0,0,1-1.44,1.36,5.05,5.05,0,0,1-1.48.57,6.25,6.25,0,0,1-1.25.13,11.18,11.18,0,0,1-2.37-.31l-2-.49-1.57-.43c-.31-.08-.67-.17-1.08-.25a4.64,4.64,0,0,0-.95-.13,4.48,4.48,0,0,0-1,.3,2.35,2.35,0,0,0-.84.84l-1.78-.08a12.08,12.08,0,0,1,1.16-2.61,4,4,0,0,1,1.64-1.46,9.36,9.36,0,0,1,3.06-.51,10.57,10.57,0,0,1,2.37.31c.91.22.74.39,1.42.53l2,.55a6.06,6.06,0,0,0,1.48.27A2.91,2.91,0,0,0,71,156.24Zm-1.57,6.7,10.59,29.29H70.41l-1.65-5.51H60l-1.74,5.51H49.19L60,162.94Zm-21.09.68-1.31,7.26a27.87,27.87,0,0,0-3.6-.91,22.09,22.09,0,0,0-4.2-.53,3.65,3.65,0,0,0-2.59.72,1.45,1.45,0,0,0-.45,1.61,1.79,1.79,0,0,0,1.22,1.15c1,.29,1.7.5,2.21.64l1.81.55A18.42,18.42,0,0,1,46.24,176a5.59,5.59,0,0,1,2.39,3,10.2,10.2,0,0,1,.68,3.21,11.29,11.29,0,0,1-.66,3.69,9.84,9.84,0,0,1-2.24,3.58A9.41,9.41,0,0,1,42.07,192a21.55,21.55,0,0,1-6.1.8,29.15,29.15,0,0,1-3.42-.19,30,30,0,0,1-3-.49l-2.67-.5,1.4-7.64c.76.2,2.37.47,4.84.8a45.34,45.34,0,0,0,5,.51,2.92,2.92,0,0,0,1.61-.34,1.3,1.3,0,0,0,.51-1.18,2.88,2.88,0,0,0-.17-.85c-.12-.34-.5-.64-1.15-.9l-2.28-.68L35.25,181c-3-.85-4.92-1.64-5.71-2.36A5.7,5.7,0,0,1,27.89,176a11.21,11.21,0,0,1-.47-3.13A12.43,12.43,0,0,1,28,169a9.18,9.18,0,0,1,2.09-3.46,8.64,8.64,0,0,1,4.09-2.33,21.56,21.56,0,0,1,5.8-.72,28.09,28.09,0,0,1,3.63.21c1.08.14,2.12.33,3.14.55Z"/>
    <path class="cls-1" d="M123.46,146.68h2.31l-1.12-3.55Zm3.2-7.21,4.27,11.82H127l-.66-2.22h-3.53l-.7,2.22H118.5l4.35-11.82ZM111.27,142v2.71h.5a5.25,5.25,0,0,0,1.19-.1,1.09,1.09,0,0,0,.66-.42,1.43,1.43,0,0,0,.23-.83,1.64,1.64,0,0,0-.18-.66,1.07,1.07,0,0,0-.67-.54,4.32,4.32,0,0,0-1.23-.16Zm-3.64-2.43h5.31a8.32,8.32,0,0,1,2.32.29,2.86,2.86,0,0,1,1.65,1.26,4,4,0,0,1,.61,2.2,3.45,3.45,0,0,1-.23,1.3,2.87,2.87,0,0,1-.6,1,3.07,3.07,0,0,1-1.07.66,4.71,4.71,0,0,1,.68.81,8.22,8.22,0,0,1,.58,1l1.45,3.15h-3.84l-1-2.42c-.36-.85-.57-1.35-.65-1.5s-.35-.21-.85-.21h-.69v4.13h-3.64Zm-11.5,0h3.64v7.14a3.56,3.56,0,0,0,.16,1.29,1.2,1.2,0,0,0,.51.6,2,2,0,0,0,1.07.23,2.06,2.06,0,0,0,1.1-.24,1.09,1.09,0,0,0,.5-.67,4.12,4.12,0,0,0,.11-1.08v-7.27h3.33v7.11a7.89,7.89,0,0,1-.33,2.47,2.51,2.51,0,0,1-1.2,1.47,5.53,5.53,0,0,1-1.76.67,11.41,11.41,0,0,1-1.93.16,9.8,9.8,0,0,1-1.9-.18,5.86,5.86,0,0,1-1.84-.72,2.56,2.56,0,0,1-1.19-1.5,10,10,0,0,1-.27-2.63Zm-11,0H95.37v2.86h-3.3v8.82H88.42v-8.82h-3.3Zm-4.55,0h3.64v11.68H80.57Zm-9.46,0h8.22v2.8H74.75v1.65H79v2.71H74.75v1.82h4.71v2.7H71.11Zm-9,0H70.3v2.8H65.71v1.65H70v2.71H65.71v4.52H62.07Zm-9.45,0h8.22v2.8H56.25v1.65h4.24v2.71H56.25v1.82H61v2.7H52.62ZM44.84,142v2.71h.51a5.31,5.31,0,0,0,1.19-.1,1.1,1.1,0,0,0,.65-.42,1.36,1.36,0,0,0,.23-.83,1.64,1.64,0,0,0-.18-.66,1,1,0,0,0-.67-.54,4.25,4.25,0,0,0-1.22-.16Zm-3.64-2.43h5.31a8.35,8.35,0,0,1,2.33.29,2.87,2.87,0,0,1,1.64,1.26,4,4,0,0,1,.61,2.2,3.45,3.45,0,0,1-.23,1.3,2.72,2.72,0,0,1-.6,1,3.07,3.07,0,0,1-1.07.66,5.28,5.28,0,0,1,.69.81,11.79,11.79,0,0,1,.58,1l1.44,3.15H48.06l-1-2.42c-.37-.85-.58-1.35-.66-1.5s-.35-.21-.85-.21h-.69v4.13H41.2Zm-7,5.35h.58a4,4,0,0,0,1.24-.14,1,1,0,0,0,.58-.49,1.47,1.47,0,0,0,.2-.71,1.64,1.64,0,0,0-.25-.88,1.13,1.13,0,0,0-.6-.48,2.89,2.89,0,0,0-.92-.12H34.2Zm-3.64-5.35h5a7.63,7.63,0,0,1,2.62.44,3,3,0,0,1,1.78,1.46,4.52,4.52,0,0,1,.53,2.07,4,4,0,0,1-.64,2.24,3.14,3.14,0,0,1-1.9,1.34,10.22,10.22,0,0,1-2.73.33h-1v3.8H30.56Z"/>
    <path class="cls-1" d="M153.62,146.7h2.31l-1.11-3.55Zm3.21-7.21,4.26,11.82H157.2l-.66-2.22H153l-.69,2.22h-3.64L153,139.49Zm-16.09,9.28h1a4.53,4.53,0,0,0,1.51-.21,1.69,1.69,0,0,0,.9-.72,3.53,3.53,0,0,0,.44-1.16,6.7,6.7,0,0,0,.11-1.28,6.48,6.48,0,0,0-.08-1.12,3.59,3.59,0,0,0-.43-1.12,1.69,1.69,0,0,0-1.08-.8,7.66,7.66,0,0,0-1.91-.19h-.51Zm-3.64-9.14h5a9.08,9.08,0,0,1,3.35.57,4.46,4.46,0,0,1,2.28,2.1,6.69,6.69,0,0,1,.84,3.27,7.45,7.45,0,0,1-.2,1.7,7.58,7.58,0,0,1-.89,2,3.74,3.74,0,0,1-2.17,1.59,11,11,0,0,1-3.4.48H137.1Z"/>
    <path class="cls-1" d="M217.52,139.63h8.23v2.81h-4.59v1.64h4.23v2.71h-4.23v1.83h4.71v2.69h-8.35Zm-8.46,9.14h1a4.49,4.49,0,0,0,1.51-.21,1.61,1.61,0,0,0,.9-.72,3.27,3.27,0,0,0,.44-1.15,6.88,6.88,0,0,0,.12-1.29,7.66,7.66,0,0,0-.08-1.12,3.59,3.59,0,0,0-.43-1.12,1.64,1.64,0,0,0-1.08-.79,7.2,7.2,0,0,0-1.91-.2h-.51Zm-3.64-9.14h5a9.08,9.08,0,0,1,3.35.57,4.44,4.44,0,0,1,2.29,2.1,6.69,6.69,0,0,1,.84,3.27,6.94,6.94,0,0,1-.21,1.7,7.19,7.19,0,0,1-.88,2,3.77,3.77,0,0,1-2.17,1.59,11.12,11.12,0,0,1-3.4.48h-4.77ZM197,146.7h2.31l-1.12-3.55Zm3.21-7.21,4.26,11.82h-3.9l-.66-2.22h-3.53l-.7,2.22H192l4.35-11.82Zm-16.09,9.28h1a4.47,4.47,0,0,0,1.5-.21,1.67,1.67,0,0,0,.91-.72,3.26,3.26,0,0,0,.43-1.15,6.88,6.88,0,0,0,.12-1.29,6.48,6.48,0,0,0-.08-1.12,3.4,3.4,0,0,0-.44-1.12,1.6,1.6,0,0,0-1.07-.79,7.24,7.24,0,0,0-1.92-.2h-.5Zm-3.64-9.14h5a9.17,9.17,0,0,1,3.36.57,4.46,4.46,0,0,1,2.28,2.1,6.69,6.69,0,0,1,.84,3.27,7.45,7.45,0,0,1-.2,1.7,7.26,7.26,0,0,1-.89,2,3.74,3.74,0,0,1-2.17,1.59,11.12,11.12,0,0,1-3.4.48h-4.77Zm-5,0h3.65v11.68h-3.65Zm-.93.19-.5,2.89a5.5,5.5,0,0,0-1.11-.34,5.92,5.92,0,0,0-1.38-.17,4.34,4.34,0,0,0-1.15.13,2.14,2.14,0,0,0-.92.5,2.11,2.11,0,0,0-.62,1.09,5.9,5.9,0,0,0-.18,1.43,6.64,6.64,0,0,0,0,.68,4.48,4.48,0,0,0,.33,1.12,2,2,0,0,0,.8,1,3.08,3.08,0,0,0,1.05.4,5.67,5.67,0,0,0,1.09.1c.35,0,.69,0,1,0l1.06-.16.45,2.67c-.48.11-1,.21-1.55.28a13.67,13.67,0,0,1-1.68.11,9.17,9.17,0,0,1-2.79-.41,4.73,4.73,0,0,1-2.07-1.33,5.33,5.33,0,0,1-1.12-2.08,8.58,8.58,0,0,1-.33-2.37,9.34,9.34,0,0,1,.08-1.24,9.7,9.7,0,0,1,.44-1.58,4.3,4.3,0,0,1,1.35-1.86,4.5,4.5,0,0,1,2.15-1,12.11,12.11,0,0,1,2-.19,14.39,14.39,0,0,1,1.81.11A13.21,13.21,0,0,1,174.54,139.82Z"/>
    <path class="cls-1" d="M244.56,139.62h8.23v2.81H248.2v1.64h4.23v2.71H248.2v1.83h4.71v2.69h-8.35Zm-8.46,9.14h1a4.8,4.8,0,0,0,1.51-.2,1.67,1.67,0,0,0,.9-.73,3.48,3.48,0,0,0,.44-1.15,6.88,6.88,0,0,0,.12-1.29,6.32,6.32,0,0,0-.09-1.11,3.09,3.09,0,0,0-.43-1.12,1.61,1.61,0,0,0-1.07-.8,7.2,7.2,0,0,0-1.91-.2h-.51Zm-3.64-9.14h4.95a8.87,8.87,0,0,1,3.35.58,4.42,4.42,0,0,1,2.29,2.09,6.69,6.69,0,0,1,.84,3.27,6.94,6.94,0,0,1-.21,1.7,7.19,7.19,0,0,1-.88,2,3.73,3.73,0,0,1-2.17,1.59,11.19,11.19,0,0,1-3.41.48h-4.76Z"/>
    <path class="cls-2" d="M81,210.28H75.43v3H80.7v4H75.43v3.11H81v4H70.74V206.3H81Z"/>
    <path class="cls-2" d="M84.39,206.3h7a8.17,8.17,0,0,1,3.47.75,9.36,9.36,0,0,1,2.82,2,9.11,9.11,0,0,1,1.91,2.88,8.91,8.91,0,0,1,0,6.85,9.1,9.1,0,0,1-1.89,2.89,9.46,9.46,0,0,1-2.83,2,8.34,8.34,0,0,1-3.49.74h-7Zm4.7,14.09h1.08a5.76,5.76,0,0,0,2.18-.38A4.7,4.7,0,0,0,94,219a4.35,4.35,0,0,0,1-1.59,5.5,5.5,0,0,0,.35-2,5.61,5.61,0,0,0-.36-2,4.66,4.66,0,0,0-1-1.6,4.75,4.75,0,0,0-1.61-1.06,5.9,5.9,0,0,0-2.16-.38H89.09Z"/>
    <path class="cls-2" d="M107.93,206.3v9.83c0,.53,0,1.06.06,1.61a4.35,4.35,0,0,0,.36,1.5,2.41,2.41,0,0,0,.94,1.09,3.33,3.33,0,0,0,1.82.42,3.25,3.25,0,0,0,1.81-.42,2.56,2.56,0,0,0,1-1.09,4.14,4.14,0,0,0,.37-1.5c0-.55.06-1.08.06-1.61V206.3H119v10.47q0,4.23-1.93,6.16c-1.28,1.3-3.26,1.94-5.93,1.94s-4.65-.64-5.94-1.94-1.94-3.34-1.94-6.16V206.3Z"/>
    <path class="cls-2" d="M135.77,212.34a5,5,0,0,0-4-2,4.86,4.86,0,0,0-2,.39,4.6,4.6,0,0,0-1.54,1,4.68,4.68,0,0,0-1,1.57,5.07,5.07,0,0,0-.37,2,5.15,5.15,0,0,0,.37,2,4.75,4.75,0,0,0,1,1.58,4.73,4.73,0,0,0,3.46,1.44,5.44,5.44,0,0,0,4.05-1.92V224l-.48.17a12.33,12.33,0,0,1-2,.56,9.74,9.74,0,0,1-1.85.18,9.32,9.32,0,0,1-3.58-.7,9.45,9.45,0,0,1-3-2,10,10,0,0,1-2.1-3.05,9.35,9.35,0,0,1-.79-3.84,9.22,9.22,0,0,1,.78-3.82,9.57,9.57,0,0,1,2.09-3,9.65,9.65,0,0,1,6.65-2.67,10,10,0,0,1,2.12.23,12.81,12.81,0,0,1,2.19.7Z"/>
    <path class="cls-2" d="M150.24,221.23h-6.71l-1.07,3.14h-5l6.87-18.07h5.13l6.88,18.07h-5ZM149,217.66l-2.11-6-2.11,6Z"/>
    <path class="cls-2" d="M170.73,212.34a5,5,0,0,0-4-2,4.86,4.86,0,0,0-2,.39,4.6,4.6,0,0,0-1.54,1,4.84,4.84,0,0,0-1,1.57,5.07,5.07,0,0,0-.37,2,5.15,5.15,0,0,0,.37,2,4.75,4.75,0,0,0,1,1.58,4.8,4.8,0,0,0,1.55,1.06,4.86,4.86,0,0,0,1.91.38,5.44,5.44,0,0,0,4-1.92V224l-.48.17a12.33,12.33,0,0,1-2,.56,9.74,9.74,0,0,1-1.85.18,9.32,9.32,0,0,1-3.58-.7,9.45,9.45,0,0,1-3-2,9.79,9.79,0,0,1-2.09-3.05,9.19,9.19,0,0,1-.79-3.84,9.38,9.38,0,0,1,.77-3.82,9.57,9.57,0,0,1,2.09-3,9.65,9.65,0,0,1,6.65-2.67,10,10,0,0,1,2.12.23,12.81,12.81,0,0,1,2.19.7ZM168,227.49l-3.73,3.64-2.11-1.46,3.16-4.08Z"/>
    <path class="cls-2" d="M185.21,221.23H178.5l-1.08,3.14h-5l6.88-18.07h5.12l6.88,18.07h-5Zm-8.61-16.82a4.44,4.44,0,0,1,.82-2.82,2.54,2.54,0,0,1,2.08-1,4.45,4.45,0,0,1,1.13.16c.41.1.83.21,1.23.33l1.13.33a3.47,3.47,0,0,0,.83.14c.51,0,.85-.33,1-1h2.37a5.38,5.38,0,0,1-1,3,2.85,2.85,0,0,1-2.17.86,5.3,5.3,0,0,1-1.32-.16c-.43-.1-.84-.21-1.22-.33s-.73-.23-1-.34a2.58,2.58,0,0,0-.77-.15.62.62,0,0,0-.46.19,2,2,0,0,0-.35.79ZM184,217.66l-2.11-6-2.11,6Z"/>
    <path class="cls-2" d="M192.56,215.34a9.32,9.32,0,0,1,2.81-6.78,9.19,9.19,0,0,1,3.15-2,11.49,11.49,0,0,1,8.06,0,9.38,9.38,0,0,1,3.17,2,9.26,9.26,0,0,1,2.08,3,9.87,9.87,0,0,1,0,7.5,9.26,9.26,0,0,1-2.08,3,9.35,9.35,0,0,1-3.17,2,11.49,11.49,0,0,1-8.06,0,9.17,9.17,0,0,1-3.15-2,9.38,9.38,0,0,1-2.07-3A9.54,9.54,0,0,1,192.56,215.34Zm4.91,0a4.85,4.85,0,0,0,.41,2,5.16,5.16,0,0,0,1.1,1.58,5.29,5.29,0,0,0,1.62,1,5.35,5.35,0,0,0,3.91,0,5.34,5.34,0,0,0,1.63-1,5,5,0,0,0,1.11-1.58,5,5,0,0,0,0-4,4.8,4.8,0,0,0-1.11-1.58,5.18,5.18,0,0,0-1.63-1.05,5.35,5.35,0,0,0-3.91,0,5.14,5.14,0,0,0-1.62,1.05,4.93,4.93,0,0,0-1.1,1.58A4.82,4.82,0,0,0,197.47,215.34Z"/>
    <path class="cls-3" d="M139,116h0m0,0h0"/>
    <path class="cls-1" d="M120.68,113.13l-.08,0c-1.08-.17-2.19-.27-3.26-.52l-.13-.07v0a11.79,11.79,0,0,1,2.52.06,3.27,3.27,0,0,1,.92.54l0,.06Z"/>
    <path class="cls-1" d="M152.38,95.46s6.1,3.59,5.56,8.93a12.88,12.88,0,0,0-5.4-8.23c-.79-.74-.16-.7-.16-.7Z"/>
    <path class="cls-1" d="M120.86,112.85l-.16-.14-.53-.39-.06-.23c0-1,0-2,0-3a4,4,0,0,1,.4.87,1,1,0,0,0,0,.17,4.74,4.74,0,0,0,0,1.68c.1.31.21.63.32.94v0Z"/>
    <path class="cls-1" d="M121.27,112.85v-.22a4.42,4.42,0,0,1,1.56-2.31c-.11.34-.23.68-.34,1s-.84.61-1,1a1.46,1.46,0,0,0-.2.44l0,0Z"/>
    <path class="cls-1" d="M121,112.28c0-.12-.08-.25-.11-.37,0-.78.68-1.41,1.19-1.92l.6-.52c.22-.23.44-.46.67-.68s.17-.26.26-.38a.69.69,0,0,0,0,.13,1.06,1.06,0,0,0,0,.25,3,3,0,0,1-.49.73c-.5.52-1,1-1.51,1.61l-.4.59c0,.08-.09.17-.13.25a2.83,2.83,0,0,0-.11.31Z"/>
    <path class="cls-1" d="M117.11,112.18a2,2,0,0,1-.49-.11c-.7-.38-1.39-.76-2.08-1.12l1.56.29.53.06c.57,0,1.14,0,1.71,0a.58.58,0,0,1,.18,0l1,.87c-.8,0-1.62,0-2.41,0Z"/>
    <path class="cls-1" d="M119.8,112l-.56-.53a2.56,2.56,0,0,1,0-.27l-.18-3.87.69,1.11c0,.12.06.25.1.39.09,1,0,2.1,0,3.14l0,0Z"/>
    <path class="cls-1" d="M118.89,111.2l-.13-.13a7.31,7.31,0,0,1-.89-.78c-.14-.07-.11-.43-.13-.58,0-.31,0-.61,0-.92a18.21,18.21,0,0,1,.15-2.45,13.19,13.19,0,0,0,0-1.54c0-.13,0-.26,0-.38l.36.33.24.21a8.49,8.49,0,0,1,.31,2.07c.06,1.39.12,2.77.19,4.17Z"/>
    <path class="cls-1" d="M120.76,111.12c0-.2,0-.4.07-.6a3.76,3.76,0,0,1,.67-1.14c.38-.41.75-.82,1.14-1.23a2.85,2.85,0,0,0,.53-.74h0l.18.47h0a2,2,0,0,0,0,.23,1.85,1.85,0,0,1-.49.72c-.53.5-1.1,1-1.61,1.52l-.09.13a2.29,2.29,0,0,0-.42.64Z"/>
    <path class="cls-1" d="M116.76,111c-.88-.1-1.78-.3-2.65-.47a1.23,1.23,0,0,0-.4-.75c-.21-.12-.44-.21-.66-.31a1.73,1.73,0,0,0-.45-.52,4.56,4.56,0,0,1,1,.49,7.52,7.52,0,0,0,1,.2l.52.18,1,.18a4.76,4.76,0,0,1,1.25.23c.24.23.49.47.75.7l-1.35.07Z"/>
    <path class="cls-1" d="M117.46,109.89c-.08-.08-.21-.17-.25-.27l-.49-.51a.85.85,0,0,0-.21-.25c0-.18,0-.35-.05-.53a11.19,11.19,0,0,1,.06-2.24c.07-.36.14-.73.22-1.1a12.36,12.36,0,0,0,0-1.72l.59.64a3.41,3.41,0,0,1,.3,1.42c0,.85-.15,1.71-.19,2.56,0,.67,0,1.34.07,2Z"/>
    <path class="cls-1" d="M116.89,109.81c-.52,0-1-.13-1.54-.23l-.91-.28a2.91,2.91,0,0,1-.65-.09c-.52-.34-1.15-.56-1.69-.88l-.28-.47a4.52,4.52,0,0,1-.36-.88l.47.28,1.41.62,2.44.7.18.1c.29.38.64.77,1,1.12,0,0,0,0,0,0Z"/>
    <path class="cls-1" d="M121,109.57c0-.4.07-.81.12-1.2a2,2,0,0,1,.12-.29,5.71,5.71,0,0,1,1.14-1.11,5,5,0,0,0,.47-.64,4.59,4.59,0,0,0,.15.44,1.49,1.49,0,0,1-.06.51c-.08.12-.16.24-.23.37l-.81.88a5.51,5.51,0,0,0-.9,1Z"/>
    <path class="cls-1" d="M120.65,109.45c0-.06-.07-.12-.1-.19-.45-.79-1-1.54-1.42-2.34a2.41,2.41,0,0,0-.18-.43c0-.13,0-.25,0-.35a7.88,7.88,0,0,1,.54.83,11.82,11.82,0,0,0,1.23,2.12c0,.11,0,.24,0,.36Z"/>
    <path class="cls-1" d="M120.74,108.65c-.46-.68-.77-1.46-1.18-2.16-.13-.19-.25-.38-.38-.56s-.22-.26-.34-.38-.11-.49-.16-.72a.94.94,0,0,1,.09-.12c.06-.33.13-.68.21-1h0a6.5,6.5,0,0,0,1.08,2.11,13.07,13.07,0,0,1,.67,1.94,1.3,1.3,0,0,0,0,.21,4.24,4.24,0,0,1,0,.69Z"/>
    <path class="cls-1" d="M116.16,108.44c0-.07-.21-.34-.29-.36-.13-.19-.33-.38-.43-.56s-.17-.28-.25-.31l-.12-.16a7.7,7.7,0,0,1,.05-1.36c.17-1.22.4-2.44.45-3.66a.71.71,0,0,0,.09.07c.18.21.37.42.55.64s.16.41.18.61c0,.44,0,.89.07,1.33a11.38,11.38,0,0,1-.24,1.42,4.35,4.35,0,0,0-.06.52v1.82Z"/>
    <path class="cls-1" d="M115.54,108.2l-1.84-.52a9.25,9.25,0,0,1-2.26-1.09l-.17-.15a2.25,2.25,0,0,1-.18-1.15c.43.18.88.38,1.29.6l.61.41.47.25.37.1.55.13.32.23a4.62,4.62,0,0,0,.84,1.13v.06Z"/>
    <path class="cls-1" d="M121.09,107.69a6.32,6.32,0,0,1,.23-1.3c.1-.17.19-.32.3-.48a5.78,5.78,0,0,0,.81-1l.12.53h0c0,.15,0,.31.06.47-.12.55-.51.82-.91,1.19-.22.09-.38.37-.56.52l0,0Z"/>
    <path class="cls-1" d="M120.88,107.06a8.46,8.46,0,0,0-.48-1.36c-.16-.23-.31-.47-.46-.7a3.27,3.27,0,0,1-.63-2.61,3.33,3.33,0,0,0,.41-.74h0c.11.61.24,1.22.36,1.83,0,.12.08.24.12.36s.11.16.16.24a4.44,4.44,0,0,1,.69.68l.06.17a2.62,2.62,0,0,0,0,.28l-.09.46-.15,1.39Z"/>
    <path class="cls-1" d="M114.4,106.47l-.66-.15-.56-.27-.41-.3a18.4,18.4,0,0,0-1.74-.82,5.41,5.41,0,0,0-.32-1.06,1.48,1.48,0,0,1,0-.21h.06l1.68,1.14.47.27,1,.44a.19.19,0,0,0,0,.07c.16.29.32.57.47.86,0,0,0,0,0,0Z"/>
    <path class="cls-1" d="M114.75,106.39c-.15-.26-.29-.52-.43-.78a.77.77,0,0,0-.12-.24,14.38,14.38,0,0,1,.37-3.39,6.14,6.14,0,0,0,0-1c.22,0,.54.55.65.72a7,7,0,0,1-.1,1.82,19.21,19.21,0,0,0-.36,2.83Z"/>
    <path class="cls-1" d="M121.37,105.72c.23-.9.47-1.8.7-2.69,0,.27.09.54.13.81a1.89,1.89,0,0,1,.08.58,3.53,3.53,0,0,1-.91,1.3Z"/>
    <path class="cls-1" d="M113.68,105.09c-.31-.15-.66-.32-1-.49-.66-.44-1.31-.93-2-1.31,0-.32,0-.65,0-1h0c.67.41,1.33.92,2,1.31.26.36.51.73.77,1.1l.17.33a.05.05,0,0,0,0,0Z"/>
    <path class="cls-1" d="M113.87,104.66a8.87,8.87,0,0,1-.51-.74l-.23-.32c0-.2.08-.4.13-.6,0-.84-.1-1.67-.1-2.51a2,2,0,0,0,0-.24c.27.15.56.23.82.38l.16.1a2.59,2.59,0,0,1,.12.84c-.09,1-.37,2.05-.43,3.09Z"/>
    <path class="cls-1" d="M121.27,104.48a3.23,3.23,0,0,0-.55-.5l-.22-.3a13.28,13.28,0,0,1-.43-1.89c-.06-.32-.11-.62-.15-.93,0-.15,0-.28,0-.42a2.9,2.9,0,0,1,.52-.59,3.8,3.8,0,0,0,.12.74,10.57,10.57,0,0,1,.73,3.89Z"/>
    <path class="cls-1" d="M121.57,103.68c0-.09,0-.18,0-.27a17,17,0,0,0-.73-3c0-.18-.07-.35-.1-.51v-.59c.16-.41.32-.82.47-1.22,0,.2.06.4.08.61a12.67,12.67,0,0,0,.49,1.47l.09.37c0,.56.08,1.12.11,1.68-.13.48-.26,1-.4,1.43Z"/>
    <path class="cls-1" d="M112.91,103.27l-.25-.36c-.21-.5-.38-1-.57-1.53a3.05,3.05,0,0,1,.13-.32c0-.2,0-.4,0-.6a3.44,3.44,0,0,1-.05-.72l.72.35-.06.31c0,.17,0,.34,0,.52.05.66.12,1.34.12,2a2.14,2.14,0,0,0-.06.35Z"/>
    <path class="cls-1" d="M112.32,103c-.1-.13-.37-.22-.46-.35l-.6-.37a2,2,0,0,0-.53-.31c0-.38,0-.77.07-1.15l.21.16c.24.2.43.46.67.64l.21.13.47,1.25Z"/>
    <path class="cls-1" d="M111.71,101.23c0-.09-.16-.16-.22-.25a1.54,1.54,0,0,0-.68-.48,5.66,5.66,0,0,1,.08-1.09,3.55,3.55,0,0,0-.16-.92h0c.11.34.23.68.35,1l.24,1a3.46,3.46,0,0,0,.34.63.5.5,0,0,1,0,.13Z"/>
    <path class="cls-1" d="M111.93,100.91l-.3-.54a13.87,13.87,0,0,0-.64-2.08c.08.12.17.22.26.35a.9.9,0,0,0,.21.3l.18.34.25.26a5.7,5.7,0,0,1,0,1.37Z"/>
    <path class="cls-1" d="M112.75,99.69v0a0,0,0,0,1,0,0Z"/>
    <path class="cls-1" d="M121.84,99.5l-.24-.73a2.22,2.22,0,0,1,0-1c.1-.11.19-.21.29-.3,0,.68,0,1.36,0,2Z"/>
    <path class="cls-1" d="M115.13,97.67c-.06-.22-.14-.44-.21-.65a1.83,1.83,0,0,1,0-1,2.6,2.6,0,0,1,.51-.8,2.44,2.44,0,0,0,.26.57c0,.06,0,.13,0,.2s0,.08,0,.12a1.57,1.57,0,0,1-.3.37c-.06.09-.11.2-.17.31s0,.12,0,.18a3.49,3.49,0,0,0,0,.65.67.67,0,0,0-.12.06Z"/>
    <path class="cls-1" d="M116.08,97.56a1.2,1.2,0,0,0-.54-.06,1.85,1.85,0,0,1,0-.23v-.16c.08-.42.45-.67.56-1.07,0,.13.09.25.13.37,0,.39-.08.77-.08,1.15Z"/>
    <path class="cls-1" d="M116.63,97.54c.06-.25.13-.5.19-.74.43-.94,1.71-1.39,2.56-1.81.69-.29,1.39-.63,2.06-1l.42-.3a.27.27,0,0,0,0,.13l-1.16.84a7.41,7.41,0,0,0-.65.72,11.18,11.18,0,0,1-2.53,1.46,2.79,2.79,0,0,0-.91.68Z"/>
    <path class="cls-1" d="M114.74,97.48l-.12-.1a12.44,12.44,0,0,1-1.51-1.28,2.63,2.63,0,0,0-.39-.59l-.86-.74c-.1-.14-.3-.32-.26-.53.13.11.23.31.38.41s.19.18.25.23l1.27.79a7.09,7.09,0,0,1,.65.58l.47.88q.06.16.12.36Z"/>
    <path class="cls-1" d="M116.48,96.92c0-.21,0-.41,0-.61a1.06,1.06,0,0,0-.59-.8,1.43,1.43,0,0,1-.18-.67V93.68c.07-.22.16-.43.24-.64a12,12,0,0,0,.49,1.17l.18.59c0,.25.07.5.12.76v.6c-.1.25-.19.51-.27.76Z"/>
    <path class="cls-1" d="M114.57,96.37a2.76,2.76,0,0,0-.25-.45,5.52,5.52,0,0,1-.1-.71,11.17,11.17,0,0,1,.61-1.43c.35-.67.69-1.34,1-2a4.72,4.72,0,0,1-.11.92l-.35.84-.09,1.16c0,.1-.09.19-.12.29a2.14,2.14,0,0,0-.63,1.39Z"/>
    <path class="cls-1" d="M117.27,95.8a.14.14,0,0,1,0-.07c.1-.2.21-.4.33-.59a3.89,3.89,0,0,1,.36-.34l.81-.47,2.57-1c.16-.1.34-.21.52-.3,0,.38-.44.59-.73.77a28.25,28.25,0,0,0-3.88,2Z"/>
    <path class="cls-1" d="M114,95.63a1,1,0,0,0-.29-.22l-.18-.13-1-.59c-.11-.09-.21-.18-.31-.25-.26-.29-.52-.61-.79-.88a5.75,5.75,0,0,0-.42-.63.76.76,0,0,1-.21-.19c-.06-.13-.12-.26-.19-.39-.08-.31-.14-.63-.21-.93v0a14.82,14.82,0,0,1,1.11,1.4,2.58,2.58,0,0,0,.38.36l.15.16a16.89,16.89,0,0,1,1.45,1.21l.42.82c0,.1.05.21.07.31Z"/>
    <path class="cls-1" d="M117.05,95.54a6.59,6.59,0,0,0-.3-1.44,7,7,0,0,1-.6-1.71c0-.22,0-.45,0-.68s0-.29,0-.44c.16-.36.35-.74.48-1.1.19.18,0,.86,0,1s0,.32,0,.49c.13.4.32.82.49,1.21,0,.14.08.28.13.43a11,11,0,0,1,.15,1.52c-.12.23-.24.45-.35.68Z"/>
    <path class="cls-1" d="M114,94.88c-.11-.17-.19-.4-.3-.56a4.6,4.6,0,0,1-.06-.52,8.41,8.41,0,0,1,.61-1.37c.32-.62.65-1.23,1-1.84a6.76,6.76,0,0,0,.36-1c0-.26.08-.52.13-.77,0-.07.12-.54.26-.47.17.31.35.63.52,1a3.47,3.47,0,0,1-.3,1.09c-.71,1.42-1.51,2.83-2.14,4.29a.85.85,0,0,0-.06.17Z"/>
    <path class="cls-1" d="M118,94.41a2.55,2.55,0,0,1,.47-.93l.32-.23c.08,0,.16-.09.24-.12l2.18-.86a2.26,2.26,0,0,0,.65-.44c0,.25,0,.49,0,.74a2.18,2.18,0,0,1-.85.61,24.2,24.2,0,0,0-2.82,1.1l-.21.13Z"/>
    <path class="cls-1" d="M117.69,94.32a9.22,9.22,0,0,0-.24-1.41l-.53-1.29v-.27c0-.28.08-.55.1-.83a2.69,2.69,0,0,0-.23-.84l0-.37.25-.18.24-.29q0,.25.06.54c.1.5.34,1,.44,1.48a6.49,6.49,0,0,0,.2,2.32,2.38,2.38,0,0,1-.32,1.14Z"/>
    <path class="cls-1" d="M113.34,94l-.25-.22-.66-.51a2.3,2.3,0,0,0-.38-.32c0-.1-.23-.18-.25-.27s-.34-.41-.38-.5h0a1.9,1.9,0,0,0-.29-.37c-.07-.2-.34-.33-.41-.52a5.94,5.94,0,0,1-.67-.83A3.22,3.22,0,0,1,109.9,89a2,2,0,0,1,.58.55c.42.51.84,1,1.25,1.53s.8.83,1.18,1.24c.08.16.15.33.24.51l.18.93a1.93,1.93,0,0,0,0,.24Z"/>
    <path class="cls-1" d="M113.55,93.21c0-.2-.09-.39-.12-.58a1.71,1.71,0,0,1-.26-.61,7.36,7.36,0,0,1,.24-.8c.55-1.22,1.38-2.3,2-3.48.06-.14.11-.27.17-.4l0,0c.07.22.16.45.25.67-.39,0-.51,1.34-.54,1.54s-.09.27-.12.4c-.51,1.08-1.13,2.15-1.64,3.23Z"/>
    <path class="cls-1" d="M118.29,93.07c-.06-.35-.14-.7-.21-1s0-.86,0-1.29a11,11,0,0,0-.39-1.23c0-.15,0-.3-.08-.45V88.5a2.18,2.18,0,0,1,.64-1.42,8,8,0,0,0,.06,1.83,14.79,14.79,0,0,1,.54,2.46,3.2,3.2,0,0,1-.24,1.43,2.88,2.88,0,0,0-.34.27Z"/>
    <path class="cls-1" d="M119.12,92.75c.08-.18.17-.35.26-.51a3,3,0,0,1,.28-.41,4.49,4.49,0,0,1,1.62-.77l.43-.24a.83.83,0,0,1,.17-.15v.53a1.64,1.64,0,0,1-.31.48,11.44,11.44,0,0,1-2.45,1.07Z"/>
    <path class="cls-1" d="M119.15,92v-.75a12.29,12.29,0,0,0-.52-2.39c0-.24-.07-.49-.11-.73v-.66a2.57,2.57,0,0,1,.82-1.84v.61l.15,1.25,0,1.09.33,1.54c0,.17,0,.36,0,.54s-.06.23-.08.35l-.57.89a.33.33,0,0,0-.06.1Z"/>
    <path class="cls-1" d="M112.89,91.78l-.84-.86a2.83,2.83,0,0,0-.41-.46c0-.12-.22-.21-.26-.34s-.27-.42-.42-.51c0-.08-.21-.26-.25-.34s-.24-.25-.35-.36l-.43-.29a8.62,8.62,0,0,1,.21-1.4l0-.08c.11,0,.54.88.59,1l.63.78c.11.09.21.26.33.34s.23.18.26.27.23.24.36.32a.83.83,0,0,0,.21.24,10,10,0,0,0,.41,1.39,3.06,3.06,0,0,0,0,.32Z"/>
    <path class="cls-1" d="M120.07,91.18a4.67,4.67,0,0,1,.89-1.31,4.1,4.1,0,0,0,.92-.58v.51c0,.17-.1.33-.15.51a2,2,0,0,1-.28.3l-.18.12-1.2.46Z"/>
    <path class="cls-1" d="M113.15,91l-.31-1a3.86,3.86,0,0,1,.62-1.5,24.48,24.48,0,0,0,1.59-2.7h0c.11.34.21.68.32,1A3.3,3.3,0,0,1,115,87.9c-.37.6-.74,1.19-1.1,1.8a7.42,7.42,0,0,0-.7,1.3Z"/>
    <path class="cls-1" d="M120.19,90.35c-.09-.66-.33-1.31-.39-2V87.6c-.07-.49-.13-1-.18-1.45a1.84,1.84,0,0,1,.2-1,2.08,2.08,0,0,1,.46-.43s.15-.21.24-.21,0,.22,0,.34c0,.73,0,1.47,0,2.21l.27,1.67a3.41,3.41,0,0,1-.06.71c-.18.3-.35.6-.51.89Z"/>
    <path class="cls-1" d="M112.49,89.56q-.4-.42-.81-.81c0-.12-.22-.2-.26-.32a5,5,0,0,1-.79-1.24c-.06-.08-.28-.33-.28-.43a4.45,4.45,0,0,0,.29-1c.18.32.36.63.56,1l.74.9a1.46,1.46,0,0,1,.36.34h0c0,.41.09.82.14,1.24,0,.1,0,.21,0,.33Z"/>
    <path class="cls-1" d="M121.09,89.43c.11-.24.23-.48.36-.71s.28-.4.43-.6v.42a1.17,1.17,0,0,1-.79.89Z"/>
    <path class="cls-1" d="M112.77,89.11a7.33,7.33,0,0,1-.11-1.24c.41-1.34,1.38-2.45,1.89-3.75a.3.3,0,0,1,0-.1h0c.09.34.18.69.28,1a2.82,2.82,0,0,1-.41,1.19c-.48.77-1,1.55-1.42,2.33a5.36,5.36,0,0,0-.28.53Z"/>
    <path class="cls-1" d="M121.06,88.78c-.06-.6-.19-1.21-.27-1.81a9.94,9.94,0,0,0,0-1.22V85a2.55,2.55,0,0,1,.18-.76l.37-.29a7.49,7.49,0,0,1,0,1.42v.58a8,8,0,0,1,.08,2.12c0,.1-.07.21-.1.31l-.24.41a.05.05,0,0,0,0,0Z"/>
    <path class="cls-1" d="M121.78,87.72a23.68,23.68,0,0,1-.12-2.66l0-1.39.29-.21v4.12c-.07,0-.09.11-.14.14Z"/>
    <path class="cls-1" d="M112.3,87.52c-.13-.12-.37-.29-.43-.45l-.19-.2a6.77,6.77,0,0,1-.61-1l-.24-.38c-.08,0-.11-.14-.14-.19L110.9,84c.3.29.5.68.77,1,.09.14.16.28.24.43a1.76,1.76,0,0,0,.21.58c.06.51.14,1,.18,1.52Z"/>
    <path class="cls-1" d="M112.58,87.19c-.06-.48-.11-.94-.16-1.41a3,3,0,0,0,.57-1,8.73,8.73,0,0,1,.83-2.12c.09.14.19.29.29.42s.16.28.23.42a2.86,2.86,0,0,1-.42,1.23l-1.12,2c-.07.14-.14.31-.2.46Z"/>
    <path class="cls-1" d="M112.16,85.21a4.07,4.07,0,0,0-.31-.53c-.15-.08-.24-.41-.4-.49,0-.19-.37-.36-.44-.53l-.05-.07c0-.18.08-.37.12-.55a4.08,4.08,0,0,1,.19-.42c.28.39.44,1,.84,1.28l.06.73a2.74,2.74,0,0,1,0,.58Z"/>
    <path class="cls-1" d="M112.5,85.12c0-.57-.07-1.14-.11-1.71a.24.24,0,0,1,0-.08,2.21,2.21,0,0,0,.43-.66c.08-.28.15-.54.24-.8.17.18.34.37.52.55a15.92,15.92,0,0,0-1.1,2.7Z"/>
    <path class="cls-1" d="M112.08,83.4a6.79,6.79,0,0,0-.51-.92,1.53,1.53,0,0,0-.18-.18,3.49,3.49,0,0,1,.26-.77,2.22,2.22,0,0,0,.32-.61h0a14.08,14.08,0,0,0,.07,1.45c0,.14.08.28.12.43s-.09.4-.09.6Z"/>
    <path class="cls-1" d="M112.48,82.71a3.74,3.74,0,0,1-.12-.45c0-.43-.06-.85-.08-1.28h0a1.78,1.78,0,0,0,.54.65c0,.09-.08.2-.12.3s-.17.52-.24.78Z"/>
    <path class="cls-1" d="M117.74,81.79c0-.43,0-.85-.08-1.28a3,3,0,0,1-.29-.63c0-.21.08-.42.12-.63.13.24.26.5.4.75a1.63,1.63,0,0,1,.15,1c-.09.25-.19.5-.27.76Z"/>
    <path class="cls-1" d="M119,81.73l-.69-.06c0-.12.25-.22.32-.27a2,2,0,0,1,1,.31l-.58,0Z"/>
    <path class="cls-1" d="M120,81.69a1.26,1.26,0,0,0-.87-.51v0l.39-.14a3.55,3.55,0,0,1,1.5.39h0l-.67.21a2.14,2.14,0,0,0-.35.06Z"/>
    <path class="cls-1" d="M117.42,81.65l-.5-.74c-.17,0-.3-.55-.46-.63s-.21-.33-.3-.49c-.16-.48-.38-1-.5-1.51l.74.84c.22.29.46.58.65.87s.2.42.31.63,0,.68.06,1Z"/>
    <path class="cls-1" d="M118.28,81.26a.63.63,0,0,1,.35-.44s0,0,0,0l.9-.49A13.69,13.69,0,0,0,121.91,79a1.07,1.07,0,0,1-.1.4l-.27.33c-.26.15-.52.32-.77.49l-1.69.68a6,6,0,0,0-.8.41Z"/>
    <path class="cls-1" d="M121.31,81.26a1.87,1.87,0,0,0-1.24-.44v0a1.88,1.88,0,0,1,.3-.12l.35,0a2.8,2.8,0,0,1,1,.06c-.05.22-.28.36-.45.49Z"/>
    <path class="cls-1" d="M112,80.87v0h0v0h0Z"/>
    <path class="cls-1" d="M121.92,80.51c-.19-.19-.68-.1-.92-.1a3.92,3.92,0,0,0,.92-.68,5.07,5.07,0,0,1,0,.78Z"/>
    <path class="cls-1" d="M118.6,80.46a1.73,1.73,0,0,1,.42-.79,4.49,4.49,0,0,1,.42-.24,17.06,17.06,0,0,0,2.5-1.23v.26a2.78,2.78,0,0,1-.43.41c-.77.51-1.64.91-2.45,1.34-.17.08-.31.17-.46.25Z"/>
    <path class="cls-1" d="M118.33,80.28a3.47,3.47,0,0,0-.31-.68,7.85,7.85,0,0,1-.42-.88v-.89a4,4,0,0,1,.51-1c0,.09,0,.2,0,.3a10.31,10.31,0,0,1,.45,2.38,4.09,4.09,0,0,1-.27.79Z"/>
    <path class="cls-1" d="M117.12,79.55a3.63,3.63,0,0,0-.38-.52,10.71,10.71,0,0,1-.83-.94l-.07-.11c-.4-.33-.17-.87-.11-1.29,0,0,0,0,0,0l1,1.3a2.76,2.76,0,0,1,.51,1.08c0,.17-.07.33-.09.51Z"/>
    <path class="cls-1" d="M119.12,79.24a2.27,2.27,0,0,1,.27-.59,2.61,2.61,0,0,1,.62-.42l1.62-.58.33-.15a2.3,2.3,0,0,0,0,.28,3.07,3.07,0,0,1-.79.54c-.68.28-1.36.59-2,.92Z"/>
    <path class="cls-1" d="M118.89,79c-.09-.53-.23-1.08-.36-1.6a2.34,2.34,0,0,1-.09-1.14l.45-.81c.08.66.15,1.32.22,2a2.48,2.48,0,0,1-.22,1.57Z"/>
    <path class="cls-1" d="M117.29,78.33a11.42,11.42,0,0,0-.73-1.13,1.37,1.37,0,0,1-.29-.39s-.11-.17-.17-.19a.06.06,0,0,0,0-.06,2.92,2.92,0,0,1-.22-.43c0-.13,0-.26,0-.38s.19-.46.28-.68c.14.21.28.43.43.64a8.79,8.79,0,0,1,.67,1.29c0,.12,0,.25.06.38v1Z"/>
    <path class="cls-1" d="M119.66,78.06a2.62,2.62,0,0,1,.34-.64l.29-.19.27-.12c.35-.11.71-.23,1.07-.33l.33-.14c0,.16,0,.31,0,.47a6.43,6.43,0,0,1-1.65.67l-.63.28Z"/>
    <path class="cls-1" d="M119.44,77.78c-.09-.77-.17-1.54-.25-2.3a1.81,1.81,0,0,1,.06-.77c.15-.15.31-.32.47-.46,0,.81.08,1.64.08,2.45,0,.14,0,.28-.07.43s-.2.43-.29.65Z"/>
    <path class="cls-1" d="M117.62,77c0-.29,0-.58,0-.87,0-.07,0-.14,0-.21s.36-.31.53-.37.28-.29.36-.29c-.3.59-.67,1.16-1,1.74Z"/>
    <path class="cls-1" d="M120.22,76.93a1.7,1.7,0,0,1,.47-.7l.18-.1a10.42,10.42,0,0,0,1.1-.28,1.3,1.3,0,0,1,0,.4l-.3.19a8.5,8.5,0,0,0-1.42.49Z"/>
    <path class="cls-1" d="M117.35,76.46l-.34-.62c-.24-.38-.49-.75-.73-1.12l-.11-.26c.14-.32.28-.63.43-.94l0,0a17.81,17.81,0,0,1,.67,2.11,7.91,7.91,0,0,1,.06.85Z"/>
    <path class="cls-1" d="M120.1,76.46c0-.77-.09-1.56-.06-2.33l.07-.25c.16-.15.31-.29.48-.43a5.81,5.81,0,0,1,0,2.2,3,3,0,0,0-.4.73.24.24,0,0,0-.06.08Z"/>
    <path class="cls-1" d="M120.83,75.84c0-.13.2-.32.28-.41a2.05,2.05,0,0,1,.7-.41l.15-.09v.54l-.35.18-.78.19Z"/>
    <path class="cls-1" d="M117.84,75.48c0-.27.09-.54.13-.82l.62-.66c.35-.31.74-.63,1.06-1h0l.16.61-.89.91c-.38.3-.74.61-1.11.93Z"/>
    <path class="cls-1" d="M117.54,75.36c-.19-.76-.47-1.52-.72-2.27a1.37,1.37,0,0,1,.34-.56c.13.36.27.71.41,1.07a3.1,3.1,0,0,1,0,1.76Z"/>
    <path class="cls-1" d="M121,75c0-.59-.08-1.19-.08-1.78a2.42,2.42,0,0,1,.69-.45c-.07.54-.13,1.07-.19,1.61-.13.21-.28.4-.42.62Z"/>
    <path class="cls-1" d="M121.45,74.84a5.38,5.38,0,0,1,.75-1,.51.51,0,0,1,.16-.09c.24-.06.48-.11.73-.15,0,.2,0,.41-.07.61l-1,0a3,3,0,0,0,0,.31,1.63,1.63,0,0,1-.51.34Z"/>
    <path class="cls-1" d="M118.06,74.07l.33-.77a9.07,9.07,0,0,1,.86-1h0c0,.12.22.32.22.43-.43.49-1,.89-1.43,1.34Z"/>
    <path class="cls-1" d="M121.76,73.8l.15-1.23.23-.12.71-.23,0,0c-.14.19-.26.39-.39.59l-.73,1Z"/>
    <path class="cls-1" d="M117.88,73.64c-.1-.5-.35-1-.49-1.48.08-.18.24-.27.39-.42.11.45.23.91.36,1.37-.08.18-.16.35-.23.53Z"/>
    <path class="cls-1" d="M122.49,73.36l.68-1c0,.11,0,.22,0,.35s0,.28,0,.42a1,1,0,0,1-.68.25Z"/>
    <path class="cls-1" d="M118.31,72.56c-.09-.36-.19-.71-.28-1.06l.53-.51c0,.33-.07.66-.11,1a5.27,5.27,0,0,1-.14.57Z"/>
    <path class="cls-1" d="M118.68,72.46c.09-.4.12-.82.17-1.23l.12.28c0,.14.09.28.13.41s-.32.44-.42.54Z"/>
    <path class="cls-1" d="M160.53,113a3.91,3.91,0,0,1,.77-.53l.69-.16,2,0a.43.43,0,0,1,0,0,3.86,3.86,0,0,1-.76.2l-2.66.39Z"/>
    <path class="cls-1" d="M160.34,112.71a7.93,7.93,0,0,0,.42-1.44c0-.13,0-.27,0-.38,0-.33-.06-.64-.09-1a2.9,2.9,0,0,1,.4-.94c0,1,0,1.94,0,2.91a1.86,1.86,0,0,0,0,.27,4.28,4.28,0,0,0-.71.54Z"/>
    <path class="cls-1" d="M159.94,112.7a2.67,2.67,0,0,0-.45-.81,2.27,2.27,0,0,1-.75-.76,7,7,0,0,1-.29-.95c.65.72,1.52,1.47,1.52,2.52Z"/>
    <path class="cls-1" d="M159.56,112.61v0h0v0Z"/>
    <path class="cls-1" d="M160.22,112.12l-.19-.49c-.1-.17-.21-.33-.3-.49,0,0-.41-.52-.48-.57s-.2-.19-.25-.27c-.24-.25-.48-.51-.73-.75,0-.08-.14-.14-.18-.22a1.78,1.78,0,0,1-.28-.32c0-.1.08-.19.11-.28H158c.53.58,1.17,1.1,1.71,1.67l.27.35a6.53,6.53,0,0,1,.35.7,2.17,2.17,0,0,0,0,.36c-.05.11-.08.21-.12.32Z"/>
    <path class="cls-1" d="M161.69,112a4.84,4.84,0,0,1,.74-.69l.3-.22a3.62,3.62,0,0,1,.93,0c.4,0,.82,0,1.21,0l1.74-.32-2.05,1.12L164,112l-1.88,0-.44.06Z"/>
    <path class="cls-1" d="M161.39,111.87a27.42,27.42,0,0,1,.05-3.27.71.71,0,0,0,.06-.25c.23-.38.45-.76.69-1.13-.05,1.35-.07,2.74-.2,4.07a4.11,4.11,0,0,1-.6.58Z"/>
    <path class="cls-1" d="M162.31,111.05c.07-1.9.12-3.82.36-5.71a4.94,4.94,0,0,1,.15-.55,5.37,5.37,0,0,0,.57-.5c0,.27,0,.53-.07.8,0,.74.08,1.47.15,2.21s0,1.29,0,1.93c0,.3-.07.59-.11.89l-1.05.93Z"/>
    <path class="cls-1" d="M160.46,111a4.16,4.16,0,0,0-.23-.42s-.3-.43-.38-.45-.21-.19-.28-.3-.17-.22-.26-.25l-.45-.41c-.06,0-.15-.15-.22-.19a6.19,6.19,0,0,1-.55-.59l.24-.67,1.27,1.36.07.09a3.76,3.76,0,0,1,.71,1.15,5.05,5.05,0,0,1,.08.68Z"/>
    <path class="cls-1" d="M164,110.87c-.31,0-.62-.06-.94-.07.24-.23.49-.48.74-.69l.22-.1a18.24,18.24,0,0,0,2.21-.39l.41-.15a2.79,2.79,0,0,0,.87-.16,7.4,7.4,0,0,1,1-.52,4.27,4.27,0,0,0-.36.38,1,1,0,0,0-.11.17c-.56.23-.95.41-1,1.06-.84.16-1.71.36-2.56.46Z"/>
    <path class="cls-1" d="M163.73,109.75a24.26,24.26,0,0,0,0-2.56c0-.37-.09-.74-.12-1.11a4.49,4.49,0,0,1,.26-2.3c.19-.22.39-.43.58-.64,0,.27,0,.55,0,.83s0,.69,0,1,.14.7.22,1.06a12.08,12.08,0,0,1,0,2.62c-.29.36-.63.72-.94,1.06Z"/>
    <path class="cls-1" d="M164.23,109.67c.27-.38.64-.74,1-1.11l.36-.19c.58-.16,1.17-.33,1.76-.48a12.18,12.18,0,0,0,2.36-1.06,6.12,6.12,0,0,1-.36.83c-.09.18-.19.36-.28.55a.12.12,0,0,0-.08,0c-.53.3-1.11.53-1.64.86a3.41,3.41,0,0,0-.84.12,9.32,9.32,0,0,1-1,.3l-1.2.16Z"/>
    <path class="cls-1" d="M160.27,109.41a5.54,5.54,0,0,0-.78-.9s-.73-.81-.78-.85-.18-.21-.22-.3a2.49,2.49,0,0,1,.21-.74c.08,0,.46.41.57.52s.22.17.33.27.21.17.25.29a1.88,1.88,0,0,1,.31.51c0,.18,0,.35,0,.53l.09.67Z"/>
    <path class="cls-1" d="M160.58,109.29c0-.12,0-.23-.05-.34l.32-.43a20.89,20.89,0,0,1,1.41-2.53c0,.11,0,.23,0,.35a2.08,2.08,0,0,0-.12.32c-.4.78-.9,1.52-1.36,2.26l-.18.37Z"/>
    <path class="cls-1" d="M160.48,108.49a1.37,1.37,0,0,1,0-.45,1.43,1.43,0,0,0,0-.41c.13-.52.29-1.06.47-1.57q.1-.23.21-.42c.22-.37.45-.75.69-1.11.07-.19.16-.38.24-.56s.09-.3.13-.44a9.7,9.7,0,0,0,.23,1.07.52.52,0,0,1,.07.11c-.06.23-.11.47-.16.71s-.23.24-.33.37l-.45.7c-.26.49-.51,1-.76,1.47-.11.18-.23.35-.33.53Z"/>
    <path class="cls-1" d="M165,108.3a18.44,18.44,0,0,0,0-2.23c-.09-.42-.16-.85-.24-1.27a10.2,10.2,0,0,1,.12-2.07,8.18,8.18,0,0,1,.73-.83c0,1.35.32,2.71.5,4v1a4.45,4.45,0,0,1-.42.53l-.25.33-.41.52Z"/>
    <path class="cls-1" d="M165.61,108c.21-.33.5-.66.74-1,.2-.5.72-.5,1.18-.61a5.08,5.08,0,0,0,1.06-.62c.31-.17.64-.33,1-.49.15,0,.3-.18.46-.18,0,.18,0,.37,0,.55s-.12.37-.17.57a5.05,5.05,0,0,1-1.15.75l-.54.24-1,.36-1.5.41Z"/>
    <path class="cls-1" d="M160.13,107.54l-.7-.69-.11-.07c-.12-.19-.38-.33-.48-.54a.2.2,0,0,1,0-.07c.09-.33.17-.66.27-1,.15.16.29.33.45.49s.22.33.33.5.06.17.09.27c.05.36.1.73.16,1.1Z"/>
    <path class="cls-1" d="M160.34,106.92c-.06-.61-.13-1.25-.25-1.85a.88.88,0,0,1,.31-.73,2.06,2.06,0,0,0,.59-.62,4.62,4.62,0,0,0,.24-1c.08-.4.17-.8.25-1.2.12.33.35.62.48.93,0,.09,0,.17,0,.26V103a4.56,4.56,0,0,1-.55,1.59c-.2.33-.4.66-.62,1a10.47,10.47,0,0,0-.49,1.36Z"/>
    <path class="cls-1" d="M166.7,106.33l.52-1a1,1,0,0,1,.17-.1,6.29,6.29,0,0,0,1.35-.67l1.6-1.09h0v.2a6.86,6.86,0,0,0-.31,1.07l-1.46.67c-.33.21-.67.46-1,.64l-.41.12-.48.11Z"/>
    <path class="cls-1" d="M166.39,106.25c-.08-1.24-.33-2.49-.49-3.74,0-.24-.09-.82.1-1a1.65,1.65,0,0,1,.57-.63l0,.22c0,1.31.43,2.58.43,3.89a2,2,0,0,0,0,.26l-.54,1Z"/>
    <path class="cls-1" d="M159.86,105.57c-.12-.18-.37-.35-.47-.55a.79.79,0,0,1-.2-.3,4.91,4.91,0,0,1,.22-1c0,.08,0,.16,0,.24.14.52.3,1.07.41,1.59Z"/>
    <path class="cls-1" d="M167.42,105l.13-.3c.26-.39.53-.77.8-1.15.64-.43,1.28-.87,1.93-1.29,0,0,.05,0,.07,0,0,.32,0,.65,0,1a15.82,15.82,0,0,0-1.62,1.09,7.59,7.59,0,0,1-1.32.7Z"/>
    <path class="cls-1" d="M167.26,104.53a27,27,0,0,0-.39-2.68c0-.22,0-.45,0-.67a2.23,2.23,0,0,1,.12-.57,8,8,0,0,1,1-.5,2.51,2.51,0,0,1,.06.87,8.48,8.48,0,0,0,0,2.36.34.34,0,0,1,.06.12c-.22.3-.43.61-.65.92a1.19,1.19,0,0,0-.09.15Z"/>
    <path class="cls-1" d="M160,104.33c0-.32,0-.64,0-1a17.64,17.64,0,0,1,.76-3.11c0-.19.05-.37.08-.55.16.17.31.34.47.53,0,.12,0,.26,0,.4-.07.76-.28,1.51-.42,2.24a1.57,1.57,0,0,1-.35.93l-.58.51Z"/>
    <path class="cls-1" d="M159.65,103.53c0-.19-.08-.39-.13-.58s.08-.65.12-1c0-.51.08-1,.13-1.49s0-.91,0-1.36c.06-.18.11-.36.16-.53s0-.43.07-.64c.16.42.31.83.48,1.25a6,6,0,0,1-.06,1c-.17.55-.33,1.12-.49,1.68s-.23,1.12-.29,1.68Z"/>
    <path class="cls-1" d="M168.22,103.14a6.28,6.28,0,0,1,0-2v-.84c0-.11,0-.21-.05-.32l.7-.34c0,.21,0,.43,0,.64s-.05.74.17,1c-.19.51-.38,1-.55,1.53-.09.13-.18.26-.26.4Z"/>
    <path class="cls-1" d="M168.78,102.85c.14-.42.29-.85.44-1.26a.92.92,0,0,0,.3-.18l.5-.55c.1,0,.17-.18.29-.18,0,.38,0,.76.06,1.15a9.78,9.78,0,0,0-1.59,1Z"/>
    <path class="cls-1" d="M164,102.15v0h0v0Z"/>
    <path class="cls-1" d="M169.4,101.09c0-.2.23-.48.33-.66.12-.47.24-.92.36-1.38l.26-.68c0,.19-.09.39-.14.59,0,.46.06.92.06,1.39a2.07,2.07,0,0,0-.87.74Z"/>
    <path class="cls-1" d="M169.16,100.78c0-.46.05-.92.05-1.38a1.33,1.33,0,0,0,.42-.57c.16-.24.31-.47.47-.69-.12.32-.23.66-.35,1s-.21.78-.3,1.17c-.1.15-.19.31-.29.47Z"/>
    <path class="cls-1" d="M166,97.52l-.09-.07a3.06,3.06,0,0,1,0-.32,1.31,1.31,0,0,0-.25-.83.64.64,0,0,1-.27-.59l.23-.43a1,1,0,0,1,.06-.2,2.51,2.51,0,0,1,.47.74,1.85,1.85,0,0,1,0,1,2.41,2.41,0,0,0-.2.66Z"/>
    <path class="cls-1" d="M165.07,97.43c0-.27,0-.53-.08-.79,0-.1,0-.71.13-.71,0,.31.33.51.47.79a1.18,1.18,0,0,0,.07.2,1.24,1.24,0,0,1,0,.43,1.91,1.91,0,0,0-.54.08Z"/>
    <path class="cls-1" d="M164.52,97.4a3.45,3.45,0,0,0-.56-.52l-1-.42c-.62-.39-1.28-.78-1.88-1.21l-.3-.34-.22-.28-.83-.62a.66.66,0,0,1,0-.14c.78.44,1.62.8,2.43,1.17a5.29,5.29,0,0,1,2,1.4,2.89,2.89,0,0,1,.29,1Z"/>
    <path class="cls-1" d="M166.4,97.35a5.79,5.79,0,0,1,.59-1.23q.18-.2.39-.39c.13-.11.27-.21.42-.32a7.26,7.26,0,0,0,1.48-1l.23-.27a1,1,0,0,1-.29.57l-.83.72-.3.37a2.44,2.44,0,0,1-.1.24c-.1.09-.19.2-.29.3l-.53.43a6.44,6.44,0,0,0-.77.61Z"/>
    <path class="cls-1" d="M164.69,96.8a4.86,4.86,0,0,0-.28-.81,8.4,8.4,0,0,1,.07-1,4.81,4.81,0,0,1,.52-1.52c.07-.19.13-.37.21-.55a2.5,2.5,0,0,1,.23.7c0,.41,0,.83,0,1.25,0,.12-.05.24-.08.37a1,1,0,0,0-.12.17c-.58.31-.56.8-.54,1.39Z"/>
    <path class="cls-1" d="M166.57,96.21A2.06,2.06,0,0,0,166,94.9l-.12-.22a10.6,10.6,0,0,1-.14-1.37c-.13-.28-.25-.55-.36-.83s-.06-.57-.09-.85a33,33,0,0,1,1.65,3.45,3.78,3.78,0,0,1-.12.75c-.07.12-.13.26-.2.38Z"/>
    <path class="cls-1" d="M163.89,95.65c-1.25-.91-2.79-1.33-4.11-2.14,0-.11,0-.22,0-.32l2.42.92.57.27a3.93,3.93,0,0,1,.66.47c.1.11.53.74.47.8Z"/>
    <path class="cls-1" d="M167.17,95.51a.78.78,0,0,1,.07-.31c.12-.25.25-.49.38-.72a12.47,12.47,0,0,1,1.79-1.61l.7-.9.62-.73a11.69,11.69,0,0,1-.3,1.2A3.87,3.87,0,0,1,170,93c-.08.12-.16.24-.23.37a11.43,11.43,0,0,1-1.18,1.23,8.67,8.67,0,0,0-1.4.92Z"/>
    <path class="cls-1" d="M164.13,95.41c-.11-.22-.22-.42-.34-.63a7.55,7.55,0,0,1,.08-1.26L164,93c.18-.49.44-1,.57-1.49v-.35a4.57,4.57,0,0,1-.1-.48v-.34a2.68,2.68,0,0,1,.07-.27l.49,1.1c0,.13,0,.27,0,.4,0,.31,0,.62,0,.91s-.09.33-.13.49c-.2.51-.44,1-.6,1.55,0,.17-.07.33-.1.5s0,.28,0,.42Z"/>
    <path class="cls-1" d="M167.12,94.75c-.08-.23-.17-.45-.26-.67-.46-1-1-2-1.51-3a5.11,5.11,0,0,1-.68-1.9c.08-.16.17-.3.26-.45l.28-.55a1.56,1.56,0,0,1,.2.41,8.59,8.59,0,0,0,.27,1.32l.24.54a29.79,29.79,0,0,1,1.55,3.16c0,.16,0,.32,0,.47l-.33.64Z"/>
    <path class="cls-1" d="M163.18,94.28l-.51-.29c-.95-.4-2-.68-2.9-1.16,0-.28,0-.55,0-.82l.49.26.37.13c.53.19,1.09.39,1.6.63l.21.14c.14,0,.4.33.47.43s.1.28.15.42l.11.26Z"/>
    <path class="cls-1" d="M163.49,94.19a3.46,3.46,0,0,1-.33-1.08,8.84,8.84,0,0,0,.23-1.09,6.43,6.43,0,0,1,0-1.58c.07-.21.16-.43.24-.63s.07-.26.11-.39.06-.47.1-.69l.22.27.27.18c0,.12,0,.24,0,.37a2.35,2.35,0,0,0-.23,1,5.31,5.31,0,0,1,.11.8c0,.08,0,.15-.06.24a11.88,11.88,0,0,0-.58,1.54,6.94,6.94,0,0,0-.13,1Z"/>
    <path class="cls-1" d="M167.77,93.83a10.6,10.6,0,0,1,.24-1.25,4.07,4.07,0,0,1,.35-.6l1.23-1.31c.34-.45.69-.89,1-1.32a2.71,2.71,0,0,1,.55-.52,4.88,4.88,0,0,1-.1,1.43q-.17.21-.3.42c-.21.15-.33.47-.53.62l-.57.73a5.6,5.6,0,0,0-.36.49,17.86,17.86,0,0,1-1.55,1.31Z"/>
    <path class="cls-1" d="M167.58,93.07c-.27-.69-.68-1.35-1-2a7.58,7.58,0,0,1-.7-1.5c-.07-.4-.14-.78-.21-1.16,0-.1-.21-.48-.34-.48a2.38,2.38,0,0,1,.25-.69h0a.25.25,0,0,0,0,.08c.49,1,1.17,2,1.74,3l.25.47c.1.25.19.5.28.75s.05.28.08.42a2.47,2.47,0,0,0-.36,1.09Z"/>
    <path class="cls-1" d="M162.89,92.94a1.38,1.38,0,0,1-.31-.28c-.05-.09-.09-.19-.13-.28s-.07-.27-.09-.4a6,6,0,0,1,0-1.34,17.1,17.1,0,0,1,.43-1.71,9.39,9.39,0,0,0,.13-1.5c0-.16,0-.31,0-.47a2.51,2.51,0,0,1,.57,2.34c-.1.46-.31.89-.41,1.34a10.1,10.1,0,0,1,0,1.74c0,.18-.11.36-.15.56Z"/>
    <path class="cls-1" d="M162.09,92.63l0,0a11.49,11.49,0,0,1-2.28-1v-.79c.44.19.89.37,1.35.55l.41.29a6.07,6.07,0,0,1,.56.95Z"/>
    <path class="cls-1" d="M162,91.88c-.18-.29-.37-.58-.55-.85l-.12-.29c0-.09,0-.19,0-.27a8.29,8.29,0,0,1,.34-1.84c0-.12,0-.24,0-.36v-.79c0-.41.1-.8.15-1.2s0-.52,0-.79a3.3,3.3,0,0,1,.46.6c.06.13.12.29.18.43s.08.35.13.54a4.05,4.05,0,0,0,0,.48,6.36,6.36,0,0,1-.12,1.24c-.13.46-.25.91-.37,1.35L162,91.24v.64Z"/>
    <path class="cls-1" d="M168.22,91.66l-.06-.33c.13-.45.26-.9.39-1.33a3,3,0,0,1,.22-.28,15.52,15.52,0,0,0,1.49-1.64c.2-.36.41-.71.62-1.07h0c.08.5.17,1,.25,1.51a1.37,1.37,0,0,0-.73.61.71.71,0,0,0-.25.29l-.66.85-1.27,1.38s0,0,0,0Z"/>
    <path class="cls-1" d="M161.13,91.07a2.06,2.06,0,0,0-.26-.12,6.51,6.51,0,0,1-1.12-.48v-1l.37.18a1.9,1.9,0,0,1,.42.38c.2.34.41.68.62,1l0,0Z"/>
    <path class="cls-1" d="M168,90.88c-.11-.22-.21-.45-.32-.66l-1.12-1.87-.43-.71-.24-.55a2,2,0,0,1-.06-.23,1.69,1.69,0,0,1,0-.23,9.54,9.54,0,0,1,.33-1,1.21,1.21,0,0,0,0,.14c.57,1.16,1.35,2.23,1.93,3.39a2.36,2.36,0,0,1,.2.62c-.1.34-.21.69-.3,1v.06Z"/>
    <path class="cls-1" d="M161,90.24c-.12-.26-.3-.51-.44-.75a1.42,1.42,0,0,1-.05-.16,7.73,7.73,0,0,1,.19-2.39c0-.27,0-.53,0-.79,0-.47,0-.93,0-1.38a2.47,2.47,0,0,1,0-.36s.2.15.22.22c.17.13.31.31.48.43a4.64,4.64,0,0,1,0,2.34,8.51,8.51,0,0,1-.06,1.24c-.09.39-.19.78-.28,1.17,0,.14,0,.28-.06.43Z"/>
    <path class="cls-1" d="M168.62,89.42c.06-.51.1-1,.16-1.54a1.94,1.94,0,0,1,.2-.21c.08,0,.53-.54.55-.56.14-.17.26-.35.4-.52l.53-.94a4.84,4.84,0,0,0,.27,1c0,.11-.17.3-.22.37L170,88l-.72.85-.64.62Z"/>
    <path class="cls-1" d="M160.13,89.31l-.38-.2a5,5,0,0,1,0-.55q.16.38.36.75Z"/>
    <path class="cls-1" d="M168.35,89a1.51,1.51,0,0,1-.09-.18l-.18-.37c-.5-.83-1-1.66-1.5-2.5a.9.9,0,0,0-.12-.24l-.18-.54a3.41,3.41,0,0,1,.29-1.29c.46,1.39,1.48,2.53,1.91,3.93,0,.31-.07.65-.1,1l0,.24Z"/>
    <path class="cls-1" d="M160.16,88.65l-.24-.45c0-.13-.09-.25-.12-.36a8.14,8.14,0,0,1,.09-2c0-.34,0-.72,0-1.06s0-.63,0-1c.07,0,.32.23.36.25a3.83,3.83,0,0,1,.18.64l0,1.62a10.32,10.32,0,0,1-.24,2.21s0,.13,0,.13Z"/>
    <path class="cls-1" d="M168.82,87.4c0-.51.1-1,.17-1.52a2,2,0,0,0,.2-.55,5.65,5.65,0,0,1,1-1.37l0,0c0,.28.08.57.13.85s.06.3.09.44a8,8,0,0,0-.78,1.29c-.16.18-.32.37-.47.56,0,.06-.26.29-.33.34Z"/>
    <path class="cls-1" d="M168.54,87.07l-.32-.66-1-1.73a3.87,3.87,0,0,1-.44-1.29,7.28,7.28,0,0,1,.53-.83l.25.47c.2.58.4,1.18.61,1.78a2.64,2.64,0,0,0,.51.85q-.09.7-.15,1.41Z"/>
    <path class="cls-1" d="M168.94,85.09a.77.77,0,0,1,0-.15c0-.39.06-.78.09-1.17l.29-.34a7.65,7.65,0,0,1,.52-.93,3.48,3.48,0,0,1,.31,1c0,.11-.24.31-.32.4s-.36.45-.53.69-.23.36-.34.54Z"/>
    <path class="cls-1" d="M168.61,85a1.84,1.84,0,0,0-.17-.38,14,14,0,0,0-.79-2.16l-.12-.14a1.55,1.55,0,0,1,.54-.57c.06.24.12.47.19.71a2.3,2.3,0,0,0,.18.43c.08.1.18.21.27.33,0,.58-.07,1.18-.1,1.78Z"/>
    <path class="cls-1" d="M169,83.26c0-.2-.07-.4-.11-.59s.08-.29.12-.42c0-.49.08-1,.08-1.47a1.42,1.42,0,0,0,.3.6q.13.36.27.75s0,0,0,.06a5.1,5.1,0,0,0-.65,1.07Z"/>
    <path class="cls-1" d="M168.62,82.56c-.11-.33-.23-.67-.33-1,0,0,0,0,0-.06.15-.17.3-.34.46-.49s.05-.11.08-.15c0,.36-.05.75-.06,1.13,0,.18-.13.39-.13.57Z"/>
    <path class="cls-1" d="M163.43,81.67a6.9,6.9,0,0,1-.31-.94c0-.13,0-.25,0-.37l.18-.49c.13-.25.26-.47.4-.71a2.3,2.3,0,0,1,.07.78,4.23,4.23,0,0,0-.25.47c0,.42-.07.84-.1,1.26Z"/>
    <path class="cls-1" d="M161.63,81.62c.08-.25.73-.3.93-.34a1.43,1.43,0,0,1,.33.25q-.62.07-1.26.09Z"/>
    <path class="cls-1" d="M161.13,81.56a2.2,2.2,0,0,1-.88-.26c.23-.31,1.14-.33,1.46-.38a2,2,0,0,1,.38.15l-.34.08a2.15,2.15,0,0,0-.52.39l-.1,0Z"/>
    <path class="cls-1" d="M163.75,81.55c0-.34,0-.69.07-1s.25-.49.38-.73a12,12,0,0,1,1-1.3,3.76,3.76,0,0,1,.25-.31v.07c-.17.48-.33,1-.48,1.46-.41.58-.82,1.18-1.22,1.78a.24.24,0,0,0,0,.07Z"/>
    <path class="cls-1" d="M159.91,81.14l-.2-.15c0-.13,0-.27,0-.4l1.14,0s.31.1.31.14a2.08,2.08,0,0,0-1.26.43Z"/>
    <path class="cls-1" d="M162.9,81.14c-.92-.62-2.09-.82-3-1.43l-.18-.15c0-.15,0-.29,0-.43.53.33,1.12.6,1.66.91.19,0,.36.21.53.25a4.49,4.49,0,0,1,.93.6,1.83,1.83,0,0,0,.08.25Z"/>
    <path class="cls-1" d="M162.6,80.35c-.88-.54-1.87-.94-2.75-1.49l-.16-.11c0-.14,0-.26,0-.4a13.41,13.41,0,0,0,1.6.73,4,4,0,0,1,1,.63c.09.21.17.42.26.64Z"/>
    <path class="cls-1" d="M160.12,80.31l-.41,0c0-.1,0-.21,0-.31l.41.26a.56.56,0,0,1,.13.07Z"/>
    <path class="cls-1" d="M162.86,80.17a4.51,4.51,0,0,1-.28-.83,14.23,14.23,0,0,1,.5-2.65l.16.26c.11.26.25.54.35.81v.84a7.73,7.73,0,0,1-.47,1c-.09.2-.17.39-.26.61Z"/>
    <path class="cls-1" d="M164.05,79.44l-.09-.61a11,11,0,0,1,1.44-2.27h0c0,.31.11.65.11,1a2.33,2.33,0,0,1-.51.7,11.27,11.27,0,0,0-1,1.21Z"/>
    <path class="cls-1" d="M162.09,79.14l-.59-.3a16.35,16.35,0,0,1-1.8-.85c0-.14,0-.28,0-.41l.16,0a6.69,6.69,0,0,1,1.88.81,1.49,1.49,0,0,0,.12.14c.08.18.15.37.24.56Z"/>
    <path class="cls-1" d="M162.3,78.84q-.09-.23-.18-.42a2.93,2.93,0,0,1-.05-.29,26.23,26.23,0,0,1,.23-2.79h0l.43.77a2.41,2.41,0,0,1,.07.37c-.11.8-.42,1.57-.49,2.37Z"/>
    <path class="cls-1" d="M163.89,78.23c0-.37,0-.74,0-1.11a3.84,3.84,0,0,1,.44-1.07c.23-.37.47-.73.71-1.09a1.73,1.73,0,0,0,.25.7,2.91,2.91,0,0,0,0,.31.77.77,0,0,0,0,.19c-.38.52-.75,1-1.13,1.58l-.28.49Z"/>
    <path class="cls-1" d="M161.53,78a13.6,13.6,0,0,0-1.84-.69v-.55a3.46,3.46,0,0,1,1.59.69c.09.17.17.36.27.55Z"/>
    <path class="cls-1" d="M161.77,77.68l-.19-.42-.07-.11a13.34,13.34,0,0,1,0-3l.45.43a1.75,1.75,0,0,1,.08.73c-.08.67-.14,1.34-.21,2l0,.38Z"/>
    <path class="cls-1" d="M163.55,76.9l-.19-.37-.09-.14c-.24-.42-.46-.83-.69-1.24l.41.33c0,.09.37.29.48.36a2.25,2.25,0,0,0,.06.36c0,.23,0,.47,0,.7Z"/>
    <path class="cls-1" d="M161,76.83l-.36-.16a6.17,6.17,0,0,1-.95-.3c0-.17,0-.33,0-.5a3.64,3.64,0,0,1,.84.24l.17.13.31.59Z"/>
    <path class="cls-1" d="M161.1,76.35a1.05,1.05,0,0,1,0-.19,2.33,2.33,0,0,1-.34-.52,3,3,0,0,1-.17-.72,13.61,13.61,0,0,1,.1-1.56,2.87,2.87,0,0,1,.46.4,2.81,2.81,0,0,1,.08.31c0,.75,0,1.53-.06,2.28Z"/>
    <path class="cls-1" d="M163.83,76.33a1.77,1.77,0,0,1,0-.22,10.82,10.82,0,0,1,.69-2.61l.05-.09c.14.3.28.61.43.92v.07c-.33.65-.79,1.27-1.14,1.93Z"/>
    <path class="cls-1" d="M160.36,75.72l-.67-.16V75a1.78,1.78,0,0,1,.71.68Z"/>
    <path class="cls-1" d="M163.34,75.38l-.29-.26a2.93,2.93,0,0,1-.54-.46,11.41,11.41,0,0,1-.95-.9c0-.05-.15-.18-.19-.21a5.79,5.79,0,0,1,.18-.63c.36.36.77.71,1.15,1.08l.5.55c.05.28.09.55.14.83Z"/>
    <path class="cls-1" d="M163.63,75.24c0-.26-.09-.52-.13-.77v-.35a7.77,7.77,0,0,1,.52-1.7,1.87,1.87,0,0,1,.34.56c-.24.74-.52,1.48-.7,2.24l0,0Z"/>
    <path class="cls-1" d="M160.24,74.86l-.41-.63c-.06-.53-.12-1.06-.17-1.6l.42.22.24.22c0,.6-.08,1.19-.08,1.79Z"/>
    <path class="cls-1" d="M159.77,74.74c-.43-.22-.86-.43-1.3-.63h-.23c0-.22-.05-.44-.08-.65a2.31,2.31,0,0,1,.89.24,7.29,7.29,0,0,1,.73,1s0,0,0,0Z"/>
    <path class="cls-1" d="M163.12,74c-.43-.41-.92-.81-1.32-1.25,0-.07-.09-.07-.07-.16s.14-.23.2-.35h0a12.14,12.14,0,0,1,.81.94c.11.25.23.49.34.76v0Z"/>
    <path class="cls-1" d="M159.49,73.73l-.17-.23c-.31-.45-.65-.91-.94-1.37,0,0,0,0,0,0l.7.25.24.12c0,.42.11.84.16,1.27Z"/>
    <path class="cls-1" d="M163.29,73.52a4.38,4.38,0,0,1-.23-.54c.1-.44.22-.87.33-1.3,0,0,0,0,0,0s.42.3.37.5a11.81,11.81,0,0,0-.47,1.38h0Z"/>
    <path class="cls-1" d="M158.77,73.28l-.34-.06-.27-.13a.19.19,0,0,0-.07-.06,5,5,0,0,1,0-.86q.34.56.72,1.11Z"/>
    <path class="cls-1" d="M162.88,72.45a5.82,5.82,0,0,1-.19-1.5l.45.43a.11.11,0,0,0,0,.05c-.08.33-.17.68-.25,1Z"/>
    <path class="cls-1" d="M162.52,72.37a2,2,0,0,0-.4-.43c-.11-.18.18-.69.25-.86,0,.36.07.74.11,1.11a1.16,1.16,0,0,0,0,.18Z"/>
    <path class="cls-1" d="M156.54,68.87l-.48-.19a0,0,0,0,1,0,0c.31-.88.69-1.79,1-2.66a11.67,11.67,0,0,1,1.52-2.74l.29-.26a2.2,2.2,0,0,1,.32-.21,2.34,2.34,0,0,1,.62-.15,5.27,5.27,0,0,1,.56,0l.53.19,0,0c0,.13-.1.26-.16.39a2.25,2.25,0,0,0-1.65.25,6.39,6.39,0,0,0-1.65,2.78c-.31.84-.62,1.68-.92,2.53l0,0Z"/>
    <path class="cls-1" d="M124.58,68.79l0,0c-.39-1.07-.78-2.14-1.19-3.19l-.18-.42a3.65,3.65,0,0,0-1.51-1.86,4.37,4.37,0,0,0-.49-.12,8.06,8.06,0,0,0-.85,0c-.06-.14-.11-.28-.16-.4a2.68,2.68,0,0,1,.72-.25h.35c1.29.08,1.86,1.46,2.38,2.46a5.5,5.5,0,0,1,.36.87l.11.19c.33.86.66,1.7,1,2.55l-.5.17Z"/>
    <path class="cls-1" d="M157.08,73.31c-.29-.11-.8-.33-1-.39a2.11,2.11,0,0,1,.24-.72h.05l1,.41a.24.24,0,0,0,0,.09,2.36,2.36,0,0,1-.29.62Z"/>
    <path class="cls-1" d="M124.27,73.26a3.48,3.48,0,0,1-.33-.87l1-.41h0c.09.3.18.59.28.88-.33.13-.67.26-1,.4Z"/>
    <path class="cls-1" d="M155.75,72.82l0,0-1.24-.42a1.71,1.71,0,0,1,.24-.72l1.29.42c-.09.25-.17.5-.25.75Z"/>
    <path class="cls-1" d="M125.56,72.76c-.09-.3-.22-.6-.29-.89.43-.16.86-.32,1.3-.46h.07c.07.28.15.58.24.87l-1.32.48Z"/>
    <path class="cls-1" d="M157.5,72.32a1.07,1.07,0,0,0-.53-.2v-.06c.09-.26.19-.52.29-.78l.59.2c-.12.27-.23.54-.33.82a0,0,0,0,0,0,0Z"/>
    <path class="cls-1" d="M154.15,72.28q-.69-.23-1.38-.42c.08-.25.15-.49.24-.73l.86.24.54.17-.26.74Z"/>
    <path class="cls-1" d="M127.18,72.19c-.08-.3-.17-.59-.26-.89l1.39-.41c.07.29.15.59.23.9l-1.36.4Z"/>
    <path class="cls-1" d="M123.81,72.1l-.33-.86a1.57,1.57,0,0,1,.46-.16c.11.28.21.56.33.85l-.46.17Z"/>
    <path class="cls-1" d="M156.66,72l-1-.38.3-.77,1,.3.06,0c-.09.27-.19.53-.27.81Z"/>
    <path class="cls-1" d="M124.54,71.81c-.11-.28-.2-.56-.3-.84l1.1-.38h0a4.67,4.67,0,0,1,.25.82l-1.1.4Z"/>
    <path class="cls-1" d="M152.45,71.79l-.17-.07-1.23-.3.18-.76,1.49.38c-.09.24-.17.49-.25.75Z"/>
    <path class="cls-1" d="M128.84,71.69l-.24-.87,0,0,1.38-.35c.06.27.13.55.19.83v.07l-1.35.36Z"/>
    <path class="cls-1" d="M155.3,71.53l-1.46-.47c.07-.26.15-.51.21-.76,0,0,.07,0,.08,0,.49.16,1,.3,1.48.45,0,0,0,0,0,0-.1.25-.19.5-.28.75l0,0Z"/>
    <path class="cls-1" d="M150.72,71.35,149.27,71c0-.25.11-.51.17-.76l1.51.33c-.07.24-.15.49-.2.75l0,0Z"/>
    <path class="cls-1" d="M126,71.3a3.92,3.92,0,0,1-.25-.84l1.3-.39c.07.27.15.54.23.82L126,71.3Z"/>
    <path class="cls-1" d="M130.51,71.25l-.21-.88,1.43-.32h0c.06.29.11.58.17.87l-1.43.32Z"/>
    <path class="cls-1" d="M149,71l-1.33-.26.15-.75c.46.07.91.15,1.37.24-.06.25-.12.51-.17.77Z"/>
    <path class="cls-1" d="M153.51,71l-1.34-.38.18-.77,1.4.36,0,0c-.09.25-.15.5-.22.76h-.05Z"/>
    <path class="cls-1" d="M132.26,70.88l-.18-.89c.44-.08.88-.16,1.33-.22h.05c0,.29.09.58.14.86l-1.34.24Z"/>
    <path class="cls-1" d="M127.52,70.8l-.21-.82a13.72,13.72,0,0,1,1.53-.39c.06.26.12.53.18.78l-1.5.43Z"/>
    <path class="cls-1" d="M147.24,70.66l-1.25-.2c0-.26.07-.52.11-.77l1.39.21-.15.76Z"/>
    <path class="cls-1" d="M133.89,70.58c0-.29-.09-.57-.13-.86l1.37-.17c0,.28.07.57.1.87l-1.34.16Z"/>
    <path class="cls-1" d="M151.86,70.51l-1.43-.36c0-.25.1-.51.16-.77l1.45.34a4.43,4.43,0,0,1-.16.79Z"/>
    <path class="cls-1" d="M145.6,70.43l-1.3-.16c0-.26,0-.52,0-.78.48,0,1,.1,1.45.16,0,.26-.07.52-.1.78Z"/>
    <path class="cls-1" d="M135.53,70.37c0-.29-.07-.57-.11-.86l1.51-.13c0,.28,0,.57,0,.86-.48,0-1,.08-1.45.13Z"/>
    <path class="cls-1" d="M129.33,70.29a2.61,2.61,0,0,1-.18-.78c.45-.12.9-.22,1.35-.33h.13c0,.25.09.52.14.78l-1.44.34Z"/>
    <path class="cls-1" d="M143.92,70.27l-1.5-.12c0-.27,0-.54,0-.81l1.62.12c0,.27,0,.54-.06.81Z"/>
    <path class="cls-1" d="M137.27,70.22l-.06-.86,1.4-.07c0,.28,0,.57.06.86-.47,0-.94,0-1.4.07Z"/>
    <path class="cls-1" d="M141.89,70.15c-.45,0-.9,0-1.36,0,0-.29,0-.57,0-.84l1.59,0c0,.26,0,.53,0,.8l-.23,0Z"/>
    <path class="cls-1" d="M139,70.13l-.06-.84h1.36c0,.27,0,.54,0,.81l-1.26,0Z"/>
    <path class="cls-1" d="M150.05,70.08l-1.47-.3c0-.26.08-.51.13-.76l1.58.3c-.06.24-.12.5-.17.75Z"/>
    <path class="cls-1" d="M131.07,69.89c0-.27-.1-.53-.15-.77.45-.1.9-.17,1.35-.25q0,.38.12.75l-1.32.27Z"/>
    <path class="cls-1" d="M148.2,69.72,147,69.51c0-.26.05-.51.09-.76l1.38.21c0,.24-.11.49-.15.74l-.07,0Z"/>
    <path class="cls-1" d="M132.68,69.58c0-.26-.08-.52-.11-.77l1.53-.22c0,.23.05.45.08.69a.17.17,0,0,0,0,.07l-1.49.23Z"/>
    <path class="cls-1" d="M146.57,69.46l-1.4-.18.06-.78,1.52.2c0,.25-.07.5-.1.76Z"/>
    <path class="cls-1" d="M134.49,69.32a3.32,3.32,0,0,1-.1-.77c.49,0,1-.16,1.51-.16,0,.26,0,.52,0,.78h-.3l-1.16.14Z"/>
    <path class="cls-1" d="M144.85,69.24l-1.54-.12c0-.26,0-.53.07-.79l1.57.14c0,.26,0,.51-.07.77Z"/>
    <path class="cls-1" d="M136.26,69.14c0-.26,0-.52-.07-.77l1.41-.1c0,.26,0,.52,0,.78-.46,0-.91,0-1.36.09Z"/>
    <path class="cls-1" d="M142.8,69.08,141.49,69c0-.26,0-.52,0-.77l1.56.08c0,.25,0,.51,0,.77Z"/>
    <path class="cls-1" d="M137.9,69c0-.27,0-.53,0-.78l1.47-.05.06.78L137.9,69Z"/>
    <path class="cls-1" d="M140.93,69h-1.21c0-.26,0-.52-.05-.78l1.55,0c0,.25,0,.5,0,.76Z"/>
    <path class="cls-1" d="M155.72,68.58q-.3-.12-.6-.21l.2-.53.29-.69.58.23a1.16,1.16,0,0,0,0,.18c-.14.32-.27.67-.4,1l0,0Z"/>
    <path class="cls-1" d="M125.37,68.5l-.44-1.19.59-.22.49,1.2-.64.21Z"/>
    <path class="cls-1" d="M154.53,68.28l-.65-.18c.1-.45.19-.88.29-1.31a4.54,4.54,0,0,1,.5.12c0,.45-.07.91-.09,1.37Z"/>
    <path class="cls-1" d="M126.57,68.17c0-.42-.07-.85-.1-1.27l.51-.14q.12.6.27,1.2l-.68.21Z"/>
    <path class="cls-1" d="M154.88,68.11c.05-.83.11-1.66.17-2.49l.79.2c-.33.77-.65,1.53-1,2.29Z"/>
    <path class="cls-1" d="M126.25,68.08l-.39-1v0a2.55,2.55,0,0,1,.33-.11c0,.36,0,.74.06,1.11Z"/>
    <path class="cls-1" d="M153.56,68l-.53-.15c.11-.44.21-.89.31-1.33l.54.16c-.09.4-.19.82-.29,1.24V68Z"/>
    <path class="cls-1" d="M127.54,67.9c-.09-.42-.19-.83-.28-1.23l.55-.14c.09.41.18.82.28,1.23a5.54,5.54,0,0,0-.55.14Z"/>
    <path class="cls-1" d="M152.69,67.81a1.23,1.23,0,0,0-.51-.12c.23-1.16.5-2.32.71-3.48,0-.24.06-.48.1-.72s0-.56,0-.84a3,3,0,0,0-.27-1l-.18-.25a2.71,2.71,0,0,0-.77-.46l-.54-.12a3.66,3.66,0,0,0-1,0,2,2,0,0,0-.51.25,2.85,2.85,0,0,0-.8,1.29,34.51,34.51,0,0,0-.81,4.56q-.3-.06-.6-.09a.11.11,0,0,1,0,0c.15-.93.32-1.86.48-2.78a7.58,7.58,0,0,1,1.05-2.93,2.44,2.44,0,0,1,1-.72,3.4,3.4,0,0,1,1.92.1l.41.19c.19.14.38.27.57.42s.18.22.26.35a4.73,4.73,0,0,1,.3.82c0,.17,0,.35.06.54a11.59,11.59,0,0,1-.19,1.94c-.21,1-.43,2-.65,3.09Z"/>
    <path class="cls-1" d="M128.37,67.69c-.2-1-.4-1.9-.59-2.83a13.22,13.22,0,0,1-.22-2.08,3.64,3.64,0,0,1,.3-1.28,2.59,2.59,0,0,1,.42-.54l.42-.31a5.29,5.29,0,0,1,1.06-.36,2,2,0,0,1,.35,0h.49a4.75,4.75,0,0,1,.63.14,2.84,2.84,0,0,1,.77.55l.17.23c.09.15.17.31.27.47s.18.43.28.65l.36,1.41c.17,1,.36,2,.54,3l-.61.08-.48-3.07a4.88,4.88,0,0,0-1-2.63l-.29-.19-.32-.12a3,3,0,0,0-1.2,0l-.42.12a1.49,1.49,0,0,0-.74.53c-.61.82-.37,2.07-.24,3l.66,3.11a5.78,5.78,0,0,0-.57.12Z"/>
    <path class="cls-1" d="M156.31,67.1l-.55-.24a0,0,0,0,1,0,0q.21-.52.42-1s0,0,0,0l.56.24-.45,1.07Z"/>
    <path class="cls-1" d="M124.8,67c-.13-.35-.27-.69-.4-1a.08.08,0,0,1,0,0,2.06,2.06,0,0,1,.57-.23,5,5,0,0,1,.41,1.08l-.56.23Z"/>
    <path class="cls-1" d="M125.73,66.84c-.17-.41-.34-.81-.5-1.21.07-.07.15-.07.26-.11.11.4.24.8.37,1.21v.06l-.13,0Z"/>
    <path class="cls-1" d="M147.18,66.8l-.53-.07c.07-.46.14-.91.22-1.35.19,0,.38,0,.57.06,0,.45-.21.91-.21,1.36Z"/>
    <path class="cls-1" d="M126.1,66.7l-.36-1.24.32-.07c0,.42.06.86.09,1.29l-.05,0Z"/>
    <path class="cls-1" d="M133.91,66.7c-.08-.44-.14-.86-.21-1.29l.55-.06.09.34c0,.31.09.62.14,1a5.51,5.51,0,0,0-.57.06Z"/>
    <path class="cls-1" d="M146.3,66.7l-.62-.08c.13-.45.27-.9.41-1.35a4.3,4.3,0,0,1,.46.07,10.89,10.89,0,0,1-.2,1.36Z"/>
    <path class="cls-1" d="M134.78,66.6c-.07-.43-.13-.86-.21-1.3l.49,0,.39,1.28-.67.06Z"/>
    <path class="cls-1" d="M154.67,66.6l-1.28-.35c.08-.39.16-.77.25-1.15l1.12.27c0,.41,0,.82-.06,1.23Z"/>
    <path class="cls-1" d="M126.47,66.58c0-.42-.07-.83-.1-1.24l1.12-.27c.08.37.16.74.25,1.12s-1,.2-1.27.39Z"/>
    <path class="cls-1" d="M145.09,66.58l-.65-.07.06-1.45.51,0,.18,1.48Z"/>
    <path class="cls-1" d="M135.76,66.51c-.15-.43-.28-.86-.41-1.3l.61,0c-.05.44-.1.88-.14,1.32Z"/>
    <path class="cls-1" d="M136.12,66.48c0-.44.09-.89.14-1.32.15,0,.31,0,.47,0s0,.08,0,.12l0,1.2-.66,0Z"/>
    <path class="cls-1" d="M144,66.48l-.37,0,0-1.46.59,0-.06,1.44Z"/>
    <path class="cls-1" d="M143.23,66.44l-.53,0,0-3.7a5.64,5.64,0,0,0-.33-1.91c-.08-.14-.15-.28-.23-.41l-.23-.24-.42-.24a4.87,4.87,0,0,0-.52-.12,4.74,4.74,0,0,0-1.19.07l-.31.13a1,1,0,0,0-.48.39c-.19.09-.33.58-.38.75s-.07.28-.1.43l-.06.54c0,.49,0,1,0,1.46,0,.93.07,1.86.12,2.8l-.61,0c0-.67,0-1.32-.06-2a8.83,8.83,0,0,1,.5-4,2.1,2.1,0,0,1,.59-.67,3,3,0,0,1,3.19,0l.35.32a4.78,4.78,0,0,1,.5.95c.06.27.13.55.19.82a38,38,0,0,1,0,4.65Z"/>
    <path class="cls-1" d="M137.09,66.42c0-.44,0-.89,0-1.33.19,0,.38,0,.58,0l0,1.33-.58,0Z"/>
    <path class="cls-1" d="M145.45,66.29c-.09-.79-.19-1.58-.29-2.37l1,.07c-.23.76-.47,1.53-.69,2.3Z"/>
    <path class="cls-1" d="M156.84,65.74a1.81,1.81,0,0,0-.53-.23v-.05c.14-.34.28-.69.43-1,0,0,0,0,0,0,.18.11.42.15.59.26l-.48,1,0,0Z"/>
    <path class="cls-1" d="M124.26,65.66c-.08-.17-.16-.34-.23-.51a4.49,4.49,0,0,1-.26-.54c.09,0,.52-.29.61-.25l.45,1.09-.57.21Z"/>
    <path class="cls-1" d="M155.91,65.52c-.27-.08-.55-.14-.83-.2,0-.39,0-.77.08-1.15h.12l1.1.33c-.14.33-.28.67-.41,1Z"/>
    <path class="cls-1" d="M125.11,65.32c-.09-.21-.16-.41-.24-.61a1,1,0,0,1-.17-.43l.37-.11c.3-.09.6-.16.91-.24a8.85,8.85,0,0,1,0,1.15l-.92.24Z"/>
    <path class="cls-1" d="M147.45,65.15,146.2,65s0,0,0,0c.11-.37.23-.74.34-1.1l1.2.13c-.07.38-.14.76-.2,1.16Z"/>
    <path class="cls-1" d="M133.64,65.12c-.07-.39-.14-.77-.2-1.14l1.18-.13L135,65l-1.31.17Z"/>
    <path class="cls-1" d="M154.75,65.06l-1-.26c0-.34.08-.68.13-1l1,.23c0,.34-.05.69-.07,1Z"/>
    <path class="cls-1" d="M126.35,65c0-.36,0-.71-.07-1.06l1-.23c0,.33.09.68.15,1l-1.1.26Z"/>
    <path class="cls-1" d="M135.27,65c-.11-.37-.21-.73-.32-1.09l.47-.06.09,1.14Z"/>
    <path class="cls-1" d="M135.79,64.92c0-.38,0-.77,0-1.14l.36,0c0,.38-.09.76-.13,1.14l-.19,0Z"/>
    <path class="cls-1" d="M136.29,64.86l.12-1.17c.39-.06.79-.08,1.18-.11,0,.39,0,.78,0,1.17l-1.35.11Z"/>
    <path class="cls-1" d="M144.87,64.79l-1.24-.08c0-.4,0-.8,0-1.19l1.16,0L145,64.8h-.09Z"/>
    <path class="cls-1" d="M157.47,64.39q-.28-.14-.57-.24s0,0,0,0c.13-.3.25-.61.37-.9l.07,0a3.93,3.93,0,0,1,.7.31c-.17.29-.33.58-.5.89Z"/>
    <path class="cls-1" d="M123.62,64.31l-.5-.85v0l.76-.31c.12.32.25.64.38,1-.22.08-.43.15-.64.24Z"/>
    <path class="cls-1" d="M156.5,64.22l-.5-.17a4.3,4.3,0,0,1,.26-1,2.86,2.86,0,0,1,.64.16c-.14.33-.27.67-.4,1Z"/>
    <path class="cls-1" d="M124.58,64a1,1,0,0,0-.08-.15c-.08-.22-.17-.43-.26-.65,0-.06,0-.13-.06-.18l.64-.2c.09.34.19.67.29,1l-.53.18Z"/>
    <path class="cls-1" d="M155.67,64l-.48-.14c0-.34,0-.69.05-1,.24,0,.48.1.73.17-.1.32-.19.65-.28,1l0,0Z"/>
    <path class="cls-1" d="M125.4,63.76q-.15-.49-.27-1l.75-.19c0,.34,0,.69.07,1l-.56.14Z"/>
    <path class="cls-1" d="M146.14,63.7l-1-.08c-.06-.39-.11-.79-.16-1.18l1.63.17c-.11.36-.23.71-.33,1.08a.24.24,0,0,0-.12,0Z"/>
    <path class="cls-1" d="M147.67,63.7l-1-.12c.11-.35.21-.71.32-1.06a9.63,9.63,0,0,1,1.08.11,4.36,4.36,0,0,0-.24,1.07Z"/>
    <path class="cls-1" d="M154.85,63.7c-.33-.07-.65-.15-1-.24,0-.35,0-.71,0-1.05l1.1.24c0,.35-.05.7-.08,1.05Z"/>
    <path class="cls-1" d="M133.39,63.68l0-.06c-.08-.35-.16-.69-.23-1l1.06-.11c.12.35.23.71.34,1.08l-1.14.13Z"/>
    <path class="cls-1" d="M126.26,63.67c0-.34-.05-.69-.07-1l1.09-.26c0,.35,0,.7,0,1l-1,.24Z"/>
    <path class="cls-1" d="M134.86,63.58c-.12-.37-.24-.74-.35-1.1l.5-.08,1.26-.11c-.05.38-.09.76-.13,1.16-.43,0-.85.08-1.28.13Z"/>
    <path class="cls-1" d="M136.46,63.4c0-.38.07-.76.11-1.13l1.09-.1c0,.37,0,.74,0,1.12l-1.15.11Z"/>
    <path class="cls-1" d="M144.54,63.26l-.91,0c0-.36,0-.7,0-1l1,0c0,.34.09.69.15,1Z"/>
    <path class="cls-1" d="M158.21,63.25c-.28-.12-.54-.25-.81-.35a.1.1,0,0,1,0,0c.15-.37.3-.74.46-1.1l.8.26c-.13.38-.25.76-.38,1.15l-.06.08Z"/>
    <path class="cls-1" d="M122.9,63.17l-.06-.1L122.48,62l.79-.28c.15.36.3.73.46,1.1v0c-.27.09-.56.25-.83.35Z"/>
    <path class="cls-1" d="M157,63l-1.75-.47c0-.44.06-.87.1-1.29.71.16,1.43.35,2.14.55v0c-.16.38-.33.77-.49,1.17Z"/>
    <path class="cls-1" d="M124,62.75c-.16-.4-.32-.8-.49-1.2l2.18-.58h0c0,.43,0,.86.08,1.29-.61.14-1.23.3-1.82.49Z"/>
    <path class="cls-1" d="M158.76,62.71l.18-.57a4.76,4.76,0,0,1,.6.21,1.48,1.48,0,0,0-.78.36Z"/>
    <path class="cls-1" d="M122.36,62.63a1.82,1.82,0,0,0-.79-.35,2.42,2.42,0,0,1,.62-.22c0,.19.11.37.17.57Z"/>
    <path class="cls-1" d="M161,62.58l0,0-.82-.3a3.54,3.54,0,0,1,.28-.89h0l.93.35c-.12.29-.23.59-.34.88Z"/>
    <path class="cls-1" d="M120.05,62.51l-.23-.6a.91.91,0,0,1-.1-.29l.88-.34h.07a4.48,4.48,0,0,0,.29.9c-.3.11-.61.21-.91.33Z"/>
    <path class="cls-1" d="M154.93,62.35l-1.09-.26c-.05-.05-.05-.18-.07-.25.09-.35.17-.7.26-1l1,.28c0,.42-.05.84-.07,1.27Z"/>
    <path class="cls-1" d="M126.17,62.34c0-.38-.06-.76-.09-1.13a.57.57,0,0,1,0-.14c.32-.1.63-.2,1-.28h.07c.08.33.17.67.25,1a2,2,0,0,1-.05.24c-.38.09-.78.18-1.15.3Z"/>
    <path class="cls-1" d="M148.08,62.34l-1-.12c.09-.34.19-.67.3-1,.38,0,.77.06,1.16.12a5.49,5.49,0,0,0-.4,1Z"/>
    <path class="cls-1" d="M146.59,62.32l-.64-.09c.05-.35.1-.7.15-1l.9.08c-.11.35-.21.69-.32,1l-.09,0Z"/>
    <path class="cls-1" d="M133,62.3a5.63,5.63,0,0,0-.4-.95v0l1.15-.13c.1.33.2.66.31,1L133,62.3Z"/>
    <path class="cls-1" d="M145.58,62.22l-.66-.06-.15-1.06,1,.07c-.05.34-.11.69-.15,1l-.07,0Z"/>
    <path class="cls-1" d="M134.42,62.18c-.11-.34-.21-.69-.31-1l1-.11c0,.34.08.69.14,1l-.87.1Z"/>
    <path class="cls-1" d="M159.85,62.14c-.61-.24-1.24-.47-1.88-.67a4.65,4.65,0,0,1,.37-.86h.06l1.76.62,0,0c-.1.29-.22.6-.3.89Z"/>
    <path class="cls-1" d="M121.25,62.06c-.11-.29-.21-.59-.31-.89l1.86-.64c.11.29.24.57.36.87-.65.21-1.28.44-1.91.66Z"/>
    <path class="cls-1" d="M135.59,62.06l-.15-1,1-.08L136.29,62l-.7.07Z"/>
    <path class="cls-1" d="M136.6,62c0-.35.08-.7.11-1l1.16-.1c-.07.35-.14.7-.2,1l-1.07.1Z"/>
    <path class="cls-1" d="M144.32,61.91l-.76,0a7.23,7.23,0,0,0-.21-1l1.09,0,0,0c0,.33.09.67.13,1Z"/>
    <path class="cls-1" d="M157.61,61.47l-.5-.17c.1-.33.2-.67.31-1l.08,0,.56.15c-.14.33-.27.67-.4,1a.1.1,0,0,0,0,0Z"/>
    <path class="cls-1" d="M161.49,61.41l0,0-1.68-.62a5,5,0,0,1,.27-.86l.08-.15,1.17.43a.58.58,0,0,1,.15.06l.46.17a.8.8,0,0,0,0,.18c-.11.26-.22.54-.32.82Z"/>
    <path class="cls-1" d="M153.56,61.35a2.38,2.38,0,0,0-.75-.83,4,4,0,0,1,.94.21c-.07.2-.13.41-.19.62Z"/>
    <path class="cls-1" d="M119.6,61.34c0-.08-.06-.13-.08-.2-.1-.26-.21-.51-.3-.76v0l1.75-.65h0c.11.33.23.66.35,1h-.09c-.56.21-1.13.41-1.68.63Z"/>
    <path class="cls-1" d="M127.57,61.34c-.06-.22-.12-.43-.17-.64l.9-.22h0a2.34,2.34,0,0,0-.77.85Z"/>
    <path class="cls-1" d="M123.43,61.25l-.42-1,.63-.17,0,0c.1.33.2.66.29,1l-.54.15Z"/>
    <path class="cls-1" d="M148.58,61.07l-1.14-.15c.12-.42.25-.83.38-1.24.35,0,.7.06,1.06.11-.07.42-.13.85-.19,1.28Z"/>
    <path class="cls-1" d="M132.48,61l0-.06c-.06-.4-.11-.81-.17-1.21l.52-.08.55,0c0,.42.31.82.36,1.24-.37,0-.72.08-1.08.12l-.13,0Z"/>
    <path class="cls-1" d="M147.08,61c-.77-.1-1.56-.16-2.33-.22-.06-.44-.11-.87-.17-1.31l2.89.26L147.1,61l0,0Z"/>
    <path class="cls-1" d="M155.85,61l-.48-.15c0-.34,0-.67.07-1,.2,0,.6,0,.7.2-.08.32-.16.64-.23,1Z"/>
    <path class="cls-1" d="M134,60.86c-.13-.41-.26-.83-.37-1.24l1-.12,2-.17c0,.41-.07.87-.11,1.29l-2.44.24Z"/>
    <path class="cls-1" d="M125.2,60.8l-.24-1c.12-.2.51-.19.72-.21,0,.34,0,.68.08,1l-.56.16Z"/>
    <path class="cls-1" d="M155.05,60.77,154,60.46l-.92-.22c.08-.3.16-.6.25-.9.6.16,1.24.3,1.83.51,0,.3,0,.6,0,.92Z"/>
    <path class="cls-1" d="M126.05,60.76c0-.32,0-.63-.06-.94h.09c.58-.18,1.18-.35,1.76-.47.08.29.16.6.25.9a15.23,15.23,0,0,0-2,.52Z"/>
    <path class="cls-1" d="M159.44,60.65c-.32-.12-.65-.23-1-.33a.08.08,0,0,1,0,0c.13-.32.25-.64.39-1,.32.1.64.2,1,.32l-.35,1Z"/>
    <path class="cls-1" d="M136.74,60.62c0-.43.09-.87.14-1.29l1.08-.11c0,.41,0,.82,0,1.23a.14.14,0,0,0,0,.07l-1.25.1Z"/>
    <path class="cls-1" d="M121.66,60.58c-.12-.33-.24-.65-.35-1v0l1-.32.38.88a.65.65,0,0,0,0,.11l-1,.34Z"/>
    <path class="cls-1" d="M144.2,60.58l-1-.06a1.59,1.59,0,0,0-.08-.18c0-.38,0-.76,0-1.12l1.06.08c.05.43.11.85.17,1.28Z"/>
    <path class="cls-1" d="M132.06,60.56c0-.15-.44-.34-.57-.41l-.23-.09-.35-.08L132,59.8c0,.25.07.5.1.76Z"/>
    <path class="cls-1" d="M149.08,60.56c0-.24.06-.49.1-.73l1.06.17a3,3,0,0,0-1,.45,1.31,1.31,0,0,0-.12.11Z"/>
    <path class="cls-1" d="M152.76,60.19l-2.28-.46c0-.31.08-.64.14-.95l2.38.48q-.13.47-.24.93Z"/>
    <path class="cls-1" d="M128.37,60.16c-.07-.31-.14-.61-.22-.92l2.37-.49c0,.31.1.64.15,1l-2.3.45Z"/>
    <path class="cls-1" d="M162,60.13a2.55,2.55,0,0,0-.7-.27h-.08l.33-1A1.18,1.18,0,0,1,162,59l.42.16c-.11.31-.24.65-.36,1Z"/>
    <path class="cls-1" d="M119.1,60.06a9.82,9.82,0,0,1-.39-1l.83-.33.36,1-.81.29Z"/>
    <path class="cls-1" d="M138.28,60c0-.26,0-.51,0-.76a8.36,8.36,0,0,1,1.09,0,2.33,2.33,0,0,0-.88.56c-.06.08-.12.15-.17.23Z"/>
    <path class="cls-1" d="M142.86,59.88l-.16-.2a3,3,0,0,0-.75-.49l1,0c0,.21,0,.44-.06.67Z"/>
    <path class="cls-1" d="M160.9,59.73l0,0-1.72-.61-.15,0V59c.13-.31.26-.62.4-.92.62.2,1.25.44,1.87.66v.1c-.11.29-.21.59-.31.88,0,0,0,0,0,0Z"/>
    <path class="cls-1" d="M150.1,59.67c-.72-.12-1.46-.21-2.19-.3.09-.31.19-.62.29-.92a13.94,13.94,0,0,1,2.13.27c-.05.31-.1.63-.16,1h-.07Z"/>
    <path class="cls-1" d="M120.19,59.67a4.81,4.81,0,0,1-.34-1L121.7,58h.06l.39,1-1.15.4-.81.31Z"/>
    <path class="cls-1" d="M131,59.67c-.05-.33-.11-.66-.15-1l2.13-.27c.09.3.18.61.28.92-.75.09-1.51.21-2.26.33Z"/>
    <path class="cls-1" d="M155.12,59.52l-.36-.11c-.24-.07-.48-.15-.71-.2.08-.34.18-.68.27-1l.91.25-.06,1.08Z"/>
    <path class="cls-1" d="M126,59.51c0-.37-.06-.73-.08-1.09l.93-.26c.08.34.2.7.25,1.05-.37.09-.74.2-1.1.3Z"/>
    <path class="cls-1" d="M147.52,59.45l-.71-.08a3.67,3.67,0,0,1,.24-1.09,8.54,8.54,0,0,1,.86.07c-.11.36-.23.72-.33,1.1Z"/>
    <path class="cls-1" d="M133.54,59.3c-.11-.36-.23-.72-.33-1.08.34,0,.68-.09,1-.09a.41.41,0,0,1,.11.23c0,.29.09.58.14.86l-.93.08Z"/>
    <path class="cls-1" d="M145.35,59.25l-.79-.07c-.05-.35-.1-.69-.14-1a5.24,5.24,0,0,1,1,0c.1.07.08.2.07.31s-.08.52-.11.78Z"/>
    <path class="cls-1" d="M153.73,59.14c-.59-.15-1.18-.28-1.78-.42.08-.35.16-.69.25-1a11.43,11.43,0,0,1,1.82.42c-.09.34-.17.69-.26,1Z"/>
    <path class="cls-1" d="M127.39,59.12a6.16,6.16,0,0,1-.26-1l1.76-.41h.05c.08.34.15.69.24,1l-1.79.42Z"/>
    <path class="cls-1" d="M135.87,59.1c0-.34-.08-.68-.11-1,0-.06.08-.08.14-.1h.83c0,.34-.09.69-.13,1l-.73.07Z"/>
    <path class="cls-1" d="M136.91,59c0-.33.07-.65.11-1,.71-.07,1.43-.12,2.15-.14,0,.32,0,.65,0,1-.77,0-1.54.07-2.3.14Z"/>
    <path class="cls-1" d="M144.05,59l-1.91-.11c0-.32,0-.64.06-1l1.91.14c0,.3.08.61.11.93h-.17Z"/>
    <path class="cls-1" d="M162.56,58.88c-1-.39-2.06-.79-3.1-1.1V56.61a2.72,2.72,0,0,1,.62.12c.82.26,1.66.57,2.46.9.3.19.71.3,1,.51a6.82,6.82,0,0,1-.94.73Z"/>
    <path class="cls-1" d="M139.5,58.87c0-.32,0-.65,0-1l2.43,0c0,.31,0,.63,0,.95Z"/>
    <path class="cls-1" d="M118.53,58.83c-.31-.24-.65-.51-1-.73v0a18.93,18.93,0,0,1,2.7-1.16,8.87,8.87,0,0,1,1.43-.38c0,.38,0,.77,0,1.16-.27.08-.53.18-.79.27l-2.35.87Z"/>
    <path class="cls-1" d="M151.59,58.66l-1.74-.33c.05-.36.12-.7.18-1l1.87.34-.24,1Z"/>
    <path class="cls-1" d="M129.48,58.64l-.24-1c.62-.11,1.24-.23,1.87-.33,0,.35.1.7.16,1.06l-1.79.31Z"/>
    <path class="cls-1" d="M149.49,58.3l-1.2-.16c.11-.34.21-.69.32-1a10.36,10.36,0,0,1,1.12.12c-.06.35-.11.71-.16,1.07Z"/>
    <path class="cls-1" d="M131.58,58.28c-.05-.36-.11-.71-.16-1.07l1.12-.13c.1.34.2.69.31,1l-1.27.17Z"/>
    <path class="cls-1" d="M155.23,58.13c-.55-.16-1.11-.33-1.68-.45a.2.2,0,0,1,0-.07c.09-.31.18-.63.26-.94h.08l1.66.44-.17.26a.6.6,0,0,0-.06.19c0,.19,0,.38-.05.57Z"/>
    <path class="cls-1" d="M125.88,58.1c0-.23-.06-.46-.08-.68s-.15-.23-.19-.33c.57-.17,1.16-.33,1.73-.45.09.33.18.67.28,1-.58.14-1.17.29-1.74.45Z"/>
    <path class="cls-1" d="M163.81,57.93l-.2-.13-1-.46a1.78,1.78,0,0,1,.27-.66c.05-.13.11-.33.24-.39a2,2,0,0,1,1.09.53.35.35,0,0,1,.06.09,2.18,2.18,0,0,1-.47,1Z"/>
    <path class="cls-1" d="M117.3,57.86c-.07-.13-.23-.27-.26-.43s-.07-.12-.09-.17-.07-.29-.11-.42c.17-.34.7-.51,1-.61l.18,0c.16.32.31.66.47,1l-.91.44-.31.18Z"/>
    <path class="cls-1" d="M143.91,57.77l-1-.08c0-.37,0-.73.06-1.1l1,.08c0,.36.09.73.14,1.1Z"/>
    <path class="cls-1" d="M137.05,57.74c0-.37.08-.73.12-1.1l1.13-.08c0,.35,0,.71,0,1.07-.42,0-.85.06-1.27.11Z"/>
    <path class="cls-1" d="M142.38,57.66l-1.63-.06c0-.37,0-.72.05-1.08.62,0,1.26,0,1.88.07,0,.35-.05.71-.07,1.07Z"/>
    <path class="cls-1" d="M138.63,57.63c0-.37,0-.72,0-1.08.63,0,1.27,0,1.9,0,0,.36,0,.71,0,1.08-.62,0-1.23,0-1.84,0Z"/>
    <path class="cls-1" d="M153.18,57.6,152,57.33l-1-.19c.05-.35.1-.69.16-1,.78.14,1.57.32,2.34.48a.11.11,0,0,0,0,0c-.09.32-.17.64-.25,1Z"/>
    <path class="cls-1" d="M127.91,57.58c-.09-.34-.18-.67-.26-1l2.35-.47c.05.34.11.68.17,1l-2.26.47Z"/>
    <path class="cls-1" d="M150.62,57.08l-1.9-.27c.05-.19.09-.38.14-.56s0-.29,0-.43a14.17,14.17,0,0,1,2,.23c-.05.34-.1.68-.14,1Z"/>
    <path class="cls-1" d="M130.47,57.07c-.05-.35-.12-.7-.17-1l.82-.13.74-.1h.4a3.67,3.67,0,0,0,.17,1c-.59,0-1.19.15-1.77.23l-.19,0Z"/>
    <path class="cls-1" d="M155.75,56.87c-.94-.27-1.89-.5-2.84-.72l-1.2-.24c-.91-.15-1.82-.3-2.73-.4h-.12a9.25,9.25,0,0,0-.39-1,51.83,51.83,0,0,1,7.23,1.27l1.1.28a4.11,4.11,0,0,1-.77.62.74.74,0,0,1-.28.22Z"/>
    <path class="cls-1" d="M125.36,56.85l-.27-.25a6.74,6.74,0,0,1-.75-.57l0,0,.91-.24a65.71,65.71,0,0,1,7-1.28l.44,0a4.33,4.33,0,0,0-.38,1l-.12,0a42.6,42.6,0,0,0-6.62,1.31l-.2.07Z"/>
    <path class="cls-1" d="M160.9,56.68a7.91,7.91,0,0,0-1.43-.37,1.48,1.48,0,0,1,.32-1.11,5.53,5.53,0,0,1,1.2.23c.13,0,.3.1.3.27s-.24.61-.36.93v0Z"/>
    <path class="cls-1" d="M120.2,56.61l-.36-.94c0-.14,0-.15.13-.24a6.59,6.59,0,0,1,1.31-.32c.21.11.25.3.32.5s0,.41.06.62a10.81,10.81,0,0,0-1.46.38Z"/>
    <path class="cls-1" d="M143.72,56.37l-1.61-.11c0-.35,0-.71.06-1.06l1.81.13c-.22.14-.12.83-.09,1Z"/>
    <path class="cls-1" d="M137.2,56.34c0-.2,0-.4,0-.6s0-.27-.05-.41l.64-.08c.44,0,.88,0,1.33-.06,0,.34,0,.69,0,1-.66,0-1.33,0-2,.11Z"/>
    <path class="cls-1" d="M141.47,56.25c-.66,0-1.32,0-2,0,0-.35,0-.7-.05-1h2.43c0,.34,0,.69-.07,1Z"/>
    <path class="cls-1" d="M157,55.79l-1.49-.4s0-.09.07-.13c.08-.35.17-.69.26-1a1.91,1.91,0,0,1,1.49.48,1.21,1.21,0,0,1,.08.34c-.13.24-.25.49-.36.74Z"/>
    <path class="cls-1" d="M124.09,55.74a4.28,4.28,0,0,1-.36-.71.54.54,0,0,1,.19-.47,2.36,2.36,0,0,1,1.33-.38s0,0,0,0a6,6,0,0,0,.31,1.16c-.49.13-1,.28-1.52.37Z"/>
    <path class="cls-1" d="M144.14,55.05l-1-.09-1.7-.08h-2.22l-2.09.12s-.09-.07-.12-.08a8.88,8.88,0,0,0-.52-.83,61.06,61.06,0,0,1,7-.16L145,54a3.4,3.4,0,0,0-.23.3,5.61,5.61,0,0,0-.63.73Z"/>
    <path class="cls-1" d="M153.66,55c-.63-.15-1.3-.26-1.94-.37l0-.05.21-.93c.07-.15.14-.16.29-.16l1.28.24a.36.36,0,0,1,.23.14,1,1,0,0,0,0,.17,2.73,2.73,0,0,0-.09.94l0,0Z"/>
    <path class="cls-1" d="M127.45,55a6.77,6.77,0,0,0-.09-1.09.38.38,0,0,1,.14-.14,10.19,10.19,0,0,1,1.46-.29c.11,0,.14.07.2.16.07.27.13.56.18.85l.08.13-2,.38Z"/>
    <path class="cls-1" d="M149.79,54.34c-.48-.08-1-.12-1.44-.16,0-.37,0-.75,0-1.11.21-.33,1.46-.23,1.65.08-.05.23-.09.46-.13.7a1.47,1.47,0,0,0,0,.47.1.1,0,0,0-.07,0Z"/>
    <path class="cls-1" d="M131.27,54.32c0-.16,0-.32,0-.47a2.65,2.65,0,0,1-.09-.78l.26-.13c.31-.06,1.19-.24,1.37.11,0,.36,0,.73,0,1.1l-.51,0c-.34,0-.67.08-1,.14Z"/>
    <path class="cls-1" d="M136.34,53.8l-.24-1c0-.24.55-.32.7-.35s.82-.11.94.13a3,3,0,0,0,.11,1.15l-1.52.11Z"/>
    <path class="cls-1" d="M145.12,53.74c-.5,0-1-.08-1.47-.1l0,0a1.18,1.18,0,0,0,.07-.39l0-.77c.2-.2.79-.09,1.06,0l.39.12c.1,0,.19.24.24.33a2,2,0,0,1-.23.87Z"/>
    <path class="cls-1" d="M139.74,53.61c.12-.36-.22-1.1.28-1.22a7.32,7.32,0,0,1,1.48,0,.29.29,0,0,1,.14.21,2.41,2.41,0,0,0,.1,1Z"/>
    <path class="cls-1" d="M124.12,74.65c-.4-.26-.28-.61,0-.91,1.15-.48,2.32-.89,3.5-1.28.55-.16,1.11-.33,1.67-.48l2-.49c1.16-.22,2.32-.44,3.48-.6.33,0,.66-.09,1-.12l1.34-.13,2.29-.11c1.1,0,2.2,0,3.3.06a47.94,47.94,0,0,1,5.85.73q2.49.51,4.92,1.22c.51.15,1,.31,1.52.48s1.36.45,2,.74a.56.56,0,0,1,0,.86h-.61l-3.14-1-1.82-.48c-1.87-.44-3.75-.82-5.66-1.09l-1-.13c-.8,0-1.6-.12-2.39-.18-1.53-.05-3.07-.05-4.59,0a47.27,47.27,0,0,0-5.45.74,58.94,58.94,0,0,0-7.63,2.09l-.49,0Z"/>
    <path class="cls-1" d="M158,71.18l-1.44-.49c-1.38-.46-2.79-.85-4.19-1.23l0,0-2.51-.56c-1.22-.21-2.44-.44-3.66-.6L143.87,68,142,67.9c-1.75,0-3.52,0-5.28.06a50.51,50.51,0,0,0-5.62.73c-1.37.28-2.72.61-4.07,1s-2.65.86-4,1.32a.52.52,0,0,1-.58-.36c0-.3.09-.38.28-.6l2.67-1,1.61-.48c.64-.16,1.27-.33,1.91-.48l1.13-.25c1.63-.3,3.25-.55,4.89-.73l1.44-.12,1.68-.1c1.66,0,3.36,0,5,.05l1.69.12a54.64,54.64,0,0,1,9.58,1.7c1.25.36,2.51.79,3.75,1.22l.32.14a.63.63,0,0,1,.19.48,1,1,0,0,1-.25.47l-.24.11Z"/>
    <path class="cls-1" d="M164,103.25a.87.87,0,1,1-.86-.86.86.86,0,0,1,.86.86Z"/>
    <path class="cls-1" d="M169,98.11a1.17,1.17,0,1,1-1.17-1.18A1.17,1.17,0,0,1,169,98.11Z"/>
    <path class="cls-1" d="M166.25,86.12a.82.82,0,0,1-1.64,0,.82.82,0,0,1,1.64,0Z"/>
    <path class="cls-1" d="M164.88,87.15a1.1,1.1,0,1,1-1.09-1.1,1.09,1.09,0,0,1,1.09,1.1Z"/>
    <path class="cls-1" d="M164.77,85.24a1,1,0,0,1,.68-.26.94.94,0,0,1,.61.21,1.13,1.13,0,1,0-1.82-.9,1.16,1.16,0,0,0,.53.95Z"/>
    <path class="cls-1" d="M164,84a1.17,1.17,0,1,1-1.17-1.17A1.17,1.17,0,0,1,164,84Z"/>
    <path class="cls-1" d="M164.75,83.11v0a1.17,1.17,0,0,0-1.17-1.17,1.19,1.19,0,0,0-1.1.78,1.36,1.36,0,0,1,.36-.05,1.4,1.4,0,0,1,1.35,1,1.29,1.29,0,0,1,.56-.55Z"/>
    <path class="cls-1" d="M165.57,80.59a1.17,1.17,0,0,0-1.18,1.17,1.1,1.1,0,0,0,0,.18,1.17,1.17,0,0,1,.53.81,1.19,1.19,0,0,0,.63.18,1.17,1.17,0,1,0,0-2.34Z"/>
    <path class="cls-1" d="M163.63,99.79a1.42,1.42,0,0,1,1.1-1.38,1.17,1.17,0,1,0-1.15,1.42h0v0Z"/>
    <path class="cls-1" d="M165.07,98.63a1.17,1.17,0,0,0-1.18,1.17,1.34,1.34,0,0,0,.09.45h0a1.07,1.07,0,0,1,1,.73h0a1.17,1.17,0,1,0,0-2.34Z"/>
    <path class="cls-1" d="M164.75,101.33a.87.87,0,1,1-.87-.87.86.86,0,0,1,.87.87Z"/>
    <path class="cls-1" d="M162.93,101.54a.48.48,0,0,1-.48.49.49.49,0,0,1,0-1,.48.48,0,0,1,.48.49Z"/>
    <path class="cls-1" d="M145.36,90.37l-.93-1.22-2.27,0L141.5,91l.66.77-4.07.31L139.57,91l.82-1.8-2,0s-.61.4-2,1.37a17.75,17.75,0,0,1,1.51-3.9l.76,1h2.22l.48-1.69a12.83,12.83,0,0,0-.93-1.06,15.35,15.35,0,0,1,4.44-.47l-1.74,1.42-.42,1.78,2.22,0,1.74-.9c0,.34-1.37,3.65-1.37,3.65Zm-.56-3.31-1.45.08.26-1,2.78-2.25s-5-.15-6.77.8c.8.9,1.22,1.32,1.22,1.32l-.29,1.08-1.59,0-1.08-1.37s-2,3.19-2,5.73c1.49-1,2.73-1.9,2.73-1.9h1l-.45,1L137,92.56l5.94-.4L142,90.87l.44-1.24,1.78,0,1.32,1.84a48.67,48.67,0,0,0,1.79-5.52c-.79.45-2.56,1.16-2.56,1.16Z"/>
    <polygon class="cls-1" points="144.62 88.01 141.84 88.1 142.54 85.98 141.92 86.05 141.21 88.12 138.78 88.2 138.59 88.81 141 88.75 140.3 90.79 140.96 90.79 141.63 88.74 144.46 88.67 144.62 88.01 144.62 88.01"/>
    <path class="cls-1" d="M157.09,104.9l-5.46-5.5-1.23-1.23.93-.63,6.67,6.6-.91.76ZM155.88,106l-6.45-6.68.8-.52,6.63,6.48-1,.72Zm-5.82,4.22a7,7,0,0,0-4.45-6.23l3.71-4,5.77,6.14c-1.15,1-3.45,2.84-5,4.07Zm-4.52-5.56a5.94,5.94,0,0,1,3.94,5.52c-.78-.31-3-.69-3.94-5.52Zm.8,9.46c-1.12,0-4.56-2.21-4.56-2.21,3.06-1.67,3.2-2.88,3.54-6.38.46,4.8,4.1,5.39,4.1,5.39s-2,3.2-3.08,3.2Zm-1.52-8.63c0,4.22-2.11,5.14-2.79,5.59-.14-4.56,2.79-5.59,2.79-5.59Zm-9.74,2.78c2.06-.26,5.87-1.22,7.09-4.77l3,1.15s-4.14.82-3.68,7.59l-6.42-4ZM131,104.41a12.31,12.31,0,0,0,1.48-3.43l0,0c0-.06,0-.13,0-.19s0-.11,0-.16a6.54,6.54,0,0,0-.54-2.06l-.21-.53c-.16-.38-.35-.81-.58-1.29-.92-.47-2.05-1-2.05-1a5.88,5.88,0,0,1-.38.88,4.54,4.54,0,0,1-.53.81h0a1.31,1.31,0,0,1-.34.3,1.51,1.51,0,0,1-.51.25c1-2.18,1.05-2.47,1.05-2.47l-.11-1.1A19.76,19.76,0,0,1,132,96.16s.87,2.72,1.26,3.45c.7,1,4.26,1.9,8.58,3.22-.3,1.07-1.89,5.22-8.1,5L131,104.41Zm-3.1-1,.4-1,.71-.7-.11-.55.34-.14.33-.58-.14-.47.18.08a4.53,4.53,0,0,0,.78,2l.42-.23s-1.8-2.53,0-4.74l-1.23-.37s-.43.65-.71.71c.31-.52.54-1,.54-1l1.43.64a26.38,26.38,0,0,1,1.21,3.26,8,8,0,0,1-1.24,3.57l-2.92-.5Zm-2.34,5.12v0l-1.27-.49h0l.12,0,2-5.31h0v0l.33-.87,0,0,.93.41-2.33,6.17.12,0Zm.85-6.81-.28.72a4,4,0,0,1-.57-1.09l.85.37ZM125.08,100s.27-.26.27-.26l3,1.35.15.48-.4.38a29.82,29.82,0,0,1-2.84-1.22.75.75,0,0,1-.18-.73Zm.39-1.13a.62.62,0,0,1,.31-.49l3.16,1.65a.8.8,0,0,1,.13.39c0,.19-.31.32-.31.32l-3.25-1.46s-.08,0,0-.41Zm.55-1.56c0-.2.41-.29.41-.29s.34.18.74.43l-.4.94a3.77,3.77,0,0,1-.63-.35,1.74,1.74,0,0,1-.12-.73Zm2.92.7a1.58,1.58,0,0,0,.94-.79l.22.09a4.67,4.67,0,0,0-.42,1.19l-.74-.49Zm.57,1a4.18,4.18,0,0,1-.09.68s-1.53-.72-2.5-1.2a1.48,1.48,0,0,0,.55,0,2.19,2.19,0,0,0,.69-.44,9.39,9.39,0,0,1,1.35.92Zm-2.59-3.06a1.29,1.29,0,0,1,.44-.07l.39.22-.38.9-.68-.45a1.56,1.56,0,0,1,.23-.6Zm7.64-19.69A2.47,2.47,0,0,0,133.29,79a3.38,3.38,0,0,0,1.27,1.59,1.26,1.26,0,0,0-.59,1.08.76.76,0,0,0,0,.15h0c-2.78-.56-2.86,1.83-2.86,3.78-5.87-8.13,3.45-9.45,3.45-9.45Zm3.65-1.57c.61,4.66-.68,5.63-1.92,6.38a1.28,1.28,0,0,0-1.06-.57l-.16,0c-.36-4.54,3.14-5.83,3.14-5.83Zm-2,7.88a1,1,0,0,0,.28-.87c1,.52,1.91,1.06,1.91,1.06a8.86,8.86,0,0,1-2.19-.19Zm-2-.8a1,1,0,0,1,1-1,1,1,0,1,1,0,2,1,1,0,0,1-1-1Zm0,.76a1.28,1.28,0,0,0,1,.47h0L130.62,95l-1-.48,4.62-12.06Zm23.7,1s-1.48,1.81-5.71,2.35a12.71,12.71,0,0,0,4.73,1.7A9.39,9.39,0,0,1,150.59,89c1.61.94,3.35,1.79,4.4,1.79-.65.65-2.47,1.23-5.38.94,0,0,2.13,2,3.88,2.23-1.64,1.26-7.78-.09-10.49-.24s-9.87,2.42-11.87,1.17l4.36-11.39a10.14,10.14,0,0,0,6-.16c3.26-1.21,8.2-2.22,16.47.15Zm-.45,19.44-6-5.88.95-.83,0,0a12.82,12.82,0,0,1,5,6.68Zm-4.8-7.23c2.1-4.89,5.38-5.86,6.25-6l0-15H122.4l-.11,25.56S123,119,140.68,119c12.28,0,16.33-8.92,17.66-14.41l-.07.07c-.2-5.44-4.49-8.34-5.56-9Z"/>
    <path class="cls-1" d="M117.13,103.25a.86.86,0,1,0,.86-.86.85.85,0,0,0-.86.86Z"/>
    <path class="cls-1" d="M112.15,98.11a1.17,1.17,0,1,0,1.17-1.18,1.17,1.17,0,0,0-1.17,1.18Z"/>
    <path class="cls-1" d="M114.87,86.12a.82.82,0,0,0,.81.82.82.82,0,0,0,.82-.82.82.82,0,0,0-.82-.81.81.81,0,0,0-.81.81Z"/>
    <path class="cls-1" d="M116.23,87.15a1.1,1.1,0,1,0,1.09-1.1,1.09,1.09,0,0,0-1.09,1.1Z"/>
    <path class="cls-1" d="M116.34,85.24a1,1,0,0,0-.68-.26.94.94,0,0,0-.61.21,1.13,1.13,0,1,1,1.82-.9,1.12,1.12,0,0,1-.53.95Z"/>
    <path class="cls-1" d="M117.11,84a1.18,1.18,0,1,0,1.17-1.17A1.17,1.17,0,0,0,117.11,84Z"/>
    <path class="cls-1" d="M116.36,83.11v0a1.17,1.17,0,0,1,2.27-.39,1.34,1.34,0,0,0-.35-.05,1.41,1.41,0,0,0-1.36,1,1.24,1.24,0,0,0-.56-.55Z"/>
    <path class="cls-1" d="M115.55,80.59a1.17,1.17,0,0,1,1.17,1.17,1.1,1.1,0,0,1,0,.18,1.17,1.17,0,0,0-.53.81,1.18,1.18,0,0,1-.62.18,1.17,1.17,0,0,1,0-2.34Z"/>
    <path class="cls-1" d="M117.48,99.79a1.42,1.42,0,0,0-1.1-1.38,1.18,1.18,0,0,1,1.15-.92,1.16,1.16,0,0,1,1.17,1.17,1.17,1.17,0,0,1-1.17,1.17h0v0Z"/>
    <path class="cls-1" d="M116.05,98.63a1.17,1.17,0,0,1,1.17,1.17,1.13,1.13,0,0,1-.09.45h0a1.06,1.06,0,0,0-1,.73h0a1.17,1.17,0,1,1,0-2.34Z"/>
    <path class="cls-1" d="M116.37,101.33a.86.86,0,0,0,1.72,0,.86.86,0,1,0-1.72,0Z"/>
    <path class="cls-1" d="M118.18,101.54a.49.49,0,1,0,.49-.49.49.49,0,0,0-.49.49Z"/>
    <path class="cls-1" d="M145.33,131.24,145,131a8.9,8.9,0,0,1-1.07-.64l-.39-.37a.79.79,0,0,1-.19.48c-.2,0-.46-.24-.63-.35l-.48-.2-.61-.37c-.16-.06-.42.21-.54.3l.5.42a6.82,6.82,0,0,0,.58.49l0,.44.07.11.66,0c.24.09.49.18.74.29a9.81,9.81,0,0,1,1.67,1.17,2.78,2.78,0,0,1-.14-1.15c.06-.14.13-.29.2-.43Zm-4.19-1.81,1.56-1,.21-.18c-.48,0-1,.08-1.49.1h0l-1.36,1.16c-.2.11-.42.23-.61.36l-.55.25c-.15.09-.29.19-.43.29h-.1l-.12-.15a1.61,1.61,0,0,1-.06-.33l-.55.48-1.27.77.16.27a2,2,0,0,1-.09,1.31,7.18,7.18,0,0,1,2.42-1.48l.64,0,.07-.08c0-.17,0-.33,0-.48.52-.43,1-.91,1.59-1.31Zm-6.64-.61c.09-.15.19-.3.28-.43a1.39,1.39,0,0,0,.23-.25l-.69-.11-1,1.32c-.08.14-.16.27-.23.42l1-.2a2.57,2.57,0,0,0,.32-.22,3.07,3.07,0,0,1,.06-.53Zm.39,4.35-.11,0c-.34-.09.38-.91.53-1.07a.71.71,0,0,1,.31-.13l0,.16a2.06,2.06,0,0,1-.76,1Zm1.14-1.82a3.47,3.47,0,0,0-.46.13,3.32,3.32,0,0,0-.36.26c-.19.14-.38.3-.56.45a1.62,1.62,0,0,0-.18.2,1.2,1.2,0,0,0,0,1.24l.24.16.44,0,.27-.17a6.14,6.14,0,0,0,.62-.73,1.62,1.62,0,0,0,.26-1.11c-.05-.1-.14-.33-.24-.39ZM134,128l-.74-.13-.15.11c-.42.55-.83,1.08-1.24,1.64-.32.35-.63.71-.94,1.08a8.38,8.38,0,0,0,1.11-.22,1.72,1.72,0,0,0,.88-1,2.66,2.66,0,0,1,.43-.6L134,128Zm-4.88,2.23c.21-.31.43-.61.65-.91s.62-.6.93-.89H130c-.38.11-.76.24-1.14.37a9.58,9.58,0,0,1-1.64,1.78l1.16.18c.3,0,.51-.37.72-.54Zm2.43-.73.22-.29c.23-.31.47-.68.73-1h-.08l-1.2.17c-.35.32-.68.63-1,1s-.64.91-1,1.3l-.23.19.67.17h.26a3.3,3.3,0,0,1,.32-.18l.38-.28c.19-.19.38-.39.58-.58a2.43,2.43,0,0,1,.39-.47Zm16-1.09c-.15-.24-.3-.47-.46-.69a1.6,1.6,0,0,0-.23,0l-.59.11.26.31c0,.09.18.17.2.27a3.52,3.52,0,0,0,.31.35,2.22,2.22,0,0,0,.39.48,3,3,0,0,1,.26.76l.14.18a3.23,3.23,0,0,0,1.07.26l.06.06-.3-.55-1.11-1.57Zm9.33,1.22a8,8,0,0,0-1.38,0l.34.32.55.37.74.39a3.84,3.84,0,0,0,.78-.47l-.49-.18a2.27,2.27,0,0,1-.54-.43Zm-1.1.67a2.75,2.75,0,0,1-.74-.7c-.31-.1-.61-.17-.9-.26l-.68,0c.36.39.77.78,1.18,1.15l.25.2.55.34a2.88,2.88,0,0,1,.91-.34l0-.05-.55-.36Zm3-.76-1.36.1a6.65,6.65,0,0,0,.85.41l.69-.36.44,0c0-.06-.53-.16-.62-.17Zm-30.89,0c.19-.24.38-.48.58-.71-.24,0-.47,0-.71,0l-.79.23a.85.85,0,0,0-.14.19,4.38,4.38,0,0,1-1,.82v0l1,.37c.43-.1.86-.62,1.16-.94Zm19,3.71c-.23-.19-.93-.8-.75-1.19.43,0,.74.74.93,1,0,.16-.06.12-.18.16Zm-.66-1.69a1.72,1.72,0,0,0-.54-.14,1.34,1.34,0,0,0-.24.59c0,.2.08.41.13.61a3.13,3.13,0,0,0,1.12,1.22,1,1,0,0,0,.53-.08c.43-.34.22-1,0-1.4-.34-.25-.67-.55-1-.8Zm7.11-1.87-.35-.36a17.72,17.72,0,0,0-1.72-.5s0,0,0,0c.32.3.62.61.93.91l.68.87.09.08a.71.71,0,0,0,.19.2c.11.09.23.19.34.3l.25.16c.42-.05.85-.12,1.27-.2l-.06,0a9.79,9.79,0,0,1-1.63-1.46Zm-.41,1.48c-.37-.41-.73-.87-1.08-1.3l-1.19-1.16-1.23-.21a2.38,2.38,0,0,0,.33.47,6.46,6.46,0,0,0,.81,1.13,7.38,7.38,0,0,0,1.21,1.29l.46.3,1-.22v0l-.32-.26Zm-2-.1a2.06,2.06,0,0,1-.44-.51.09.09,0,0,0-.06,0c-.55-.69-1-1.45-1.53-2.17-.46-.21-.93-.39-1.39-.59v.05c.26.35.5.74.77,1.08a.49.49,0,0,0,.07.11,13,13,0,0,1,1,1.57,1.65,1.65,0,0,0,.78.63l1.14.24h0c-.08-.06-.36-.29-.36-.37Zm-18.87-3.12c.21,0,.41-.07.63-.09l.09-.07c-.78-.16-1.57-.36-2.37-.58l.44.24a12.82,12.82,0,0,0,1.21.5Zm17.58.27s0,0,0,0c.76-.21,1.54-.42,2.29-.69a3.53,3.53,0,0,1-.33-1l-.63.26a27.5,27.5,0,0,1-3.08.84,10.49,10.49,0,0,0,1.7.62Zm1.5.28.46-.12.71-.25.16-.08a1.46,1.46,0,0,1-.35-.3c-.59.21-1.19.41-1.79.59.27,0,.54.1.81.16Zm-24.73.63-.28,0-1.27,0a4.08,4.08,0,0,0-.36.36l-.39.19v0l.59.37.47-.08.68-.36a4.37,4.37,0,0,0,.56-.49Zm29.51.16.61,0h.42l.31-.11a7,7,0,0,0,1-.65l.19-.11L158,128s-.09-.13-.16-.13c-.51.34-1,.75-1.5,1.13l-.44.3Zm2.14-.19a3.21,3.21,0,0,0-.3.21h.16a2.57,2.57,0,0,1,1.35.05c0-.17-.47-.47-.58-.66s-.59.34-.63.4Zm-5-.06h.72c.07-.24.15-.46.23-.68l-.33-.13a2.79,2.79,0,0,1-.77,0h-.06c-.34.16-.7.32-1,.46l1.26.38Zm2.9-.18c.47-.36.84-1,1.31-1.3a12,12,0,0,0-1.88.38,4.56,4.56,0,0,1-1,.2,2.46,2.46,0,0,0-.3.9c.33.07.67.19,1,.28a3.5,3.5,0,0,0,.85-.46Zm-15.4-.14a3.92,3.92,0,0,0-.32-.25h-1.31c.36.26.72.5,1.09.72l.54-.46Zm6.73,1.29h0a2.76,2.76,0,0,1-.08-.27c-.06-.1-.11-.2-.16-.3-.38-.5-.82-1-1.24-1.5-.37.06-.77.13-1.18.18l2.35,1.73a2,2,0,0,1,.27.17Zm-12.53-.78c.34-.25.67-.5,1-.73l.85-.16-1.21-.12c-.19.23-.39.46-.58.7a.82.82,0,0,0-.07.31Zm-10.06-.41,1.09-.06-.12-.13-.27-.35c-.09-.07-.14-.31-.23-.38l-1.6-.38h-.09a1.92,1.92,0,0,0-.16.21c.25.2.46.57.72.76a4,4,0,0,0,.66.32Zm-1.67-.65c-.18.21-.39.47-.58.66a1.82,1.82,0,0,0-.3.11l-.08.06.15,0a2.08,2.08,0,0,1,.65-.22l1,0c-.18-.13-.72-.62-.87-.62ZM123,129a.15.15,0,0,0-.07,0h0l.81.42a2.53,2.53,0,0,0,.63-.34L123,129Zm8-.92c.13,0,.27,0,.4-.06a13.09,13.09,0,0,1-1.85-1,4.22,4.22,0,0,1-.6.58c.48.18,1,.34,1.46.47Zm-4.46.72c.33-.11.67-.2,1-.3,0,0-.1-.27-.12-.29h-.71l-1-.18.12.15c0,.19.48.56.65.63Zm2.26-.33.8-.26-.88-.31-.09-.05a4.16,4.16,0,0,1-.42.23c-.13.07-.32.08-.43.13a2.38,2.38,0,0,0,.13.29l.89,0Z"/>
    <path class="cls-1" d="M131.85,122.08l-.44,1.74s.74.23.89,0,.56-1.17.19-1.45a1.6,1.6,0,0,0-.64-.25Zm-7.12-3.2s-.6-.4-1,.59.29,1.12.29,1.12.74.28,1-.69-.29-1-.29-1Zm35.67,1.78s-1.63.18-1.63-1.79a1.66,1.66,0,0,1,3.31-.15,1.57,1.57,0,0,1-1.68,1.94Zm-3.7.54c-1.08.1-1.56-1-1.72-1.69s.31-1.35,1.18-1.72a1.51,1.51,0,0,1,1.6.45l-.74.54a.48.48,0,0,0-.65-.22c-.28.13-.63.3-.31,1.1s.68.78,1,.61.3-.73.3-.73l.88-.08c.18,1-.62,1.65-1.58,1.74Zm-2.88,1.46-2.39-2.55.91-.39,1.54,1.7-.34-2.28.92-.38.29,3.47-.93.43Zm-2.09.74a15.84,15.84,0,0,1-1.86,1l-1.46-3s.64-.32,1.34-.61a1.33,1.33,0,0,1,2,.69c.51,1.1.22,1.74,0,2ZM146.91,125s-.6-.74-.82-1-.41-.14-.41-.14l.24,1.29-1,.25-.67-3.22c2.21-.62,2.81-.54,3,.16a.94.94,0,0,1-.47,1.12.56.56,0,0,0,0,.13c.7.1,1.18,1.15,1.18,1.15l-1.1.23Zm-4.37.8s-1.61.31-1.77-1.65a1.66,1.66,0,0,1,3.28-.43,1.57,1.57,0,0,1-1.51,2.08Zm-3.68-.76c.4,0,.58-.53.58-.53l.84.32a1.56,1.56,0,0,1-2.19.88c-1-.37-1-1.56-.81-2.27s.85-1.08,1.8-1,1.26,1.09,1.26,1.09l-.9.16a.49.49,0,0,0-.5-.47c-.3,0-.7,0-.76.86s.29,1,.68,1Zm-3.23.59-1-.17-.67-3.48,1,.16.3,2.39,1-2.13,1,.15-1.58,3.08Zm-2.52-1.36a1.2,1.2,0,0,1-1.08.4l-1.76-.42.84-3.17c1.62.41,2,.43,2.33,1a2.44,2.44,0,0,1-.33,2.16Zm-4.51-.76-.89-.35-.41-2.1-.68,1.61-.86-.38,1.26-3.08.86.4.42,2,.67-1.56.92.36-1.29,3.08Zm-4.87-2.19s-1.6-.4-.91-2.25a1.66,1.66,0,0,1,3.15,1,1.56,1.56,0,0,1-2.24,1.24Zm-1.77-.86-.94-.11-1-1.91-.24,1.74-.93-.15.4-3.3.94.16.94,1.84.24-1.69,1,.11-.43,3.31Zm46.75-1.44s-.49-.74-4.48-.59h0c.1-1.11.14-1.81.14-1.81s-3.71-4.55-11.28,1.32-23.14,2.08-27.45-1.17-8.29-1.9-9.47.32l.23,1.38a9.87,9.87,0,0,0-4.16.54c1.91,1.73,2.85,2.79,2.85,2.79l-2.5,3.72a22.53,22.53,0,0,1,10.67.81c5.27,1.57,6.18.67,5.86-.45a20.48,20.48,0,0,0,6.84,1.71A35.94,35.94,0,0,0,152,125.84c.14.66.53,1.66,1.54,1.79,1.52.18,10.22-3.76,14.81-2.07-1.91-2.42-2.92-3.85-2.92-3.85l3.27-2.66Zm-8.22-1s-.7-.17-.74.89.67,1,.67,1,.79,0,.69-1c-.08-.84-.62-.85-.62-.85Zm-18.08,5.17s-.71-.11-.66,1,.74.89.74.89.79-.06.61-1.05c-.15-.83-.69-.79-.69-.79Zm2.91-.53.17.73s.94-.13.86-.51-.36-.39-1-.22Zm4.29-1,.78,1.63s.69-.22.69-.58a3.47,3.47,0,0,0-.53-1.18s-.24-.35-.94.13Z"/>
    <path class="cls-1" d="M123.31,113.28a1.17,1.17,0,0,0-2.34,0,1.17,1.17,0,0,0,.44.9,1.36,1.36,0,0,1,1.9-.92Zm-3.5.18a1.16,1.16,0,0,0-1.17,1.16v0a6.18,6.18,0,0,1,2.32-.26,1.18,1.18,0,0,0-1.15-.92Zm4.62.83a1,1,0,0,0-.94.75,10.17,10.17,0,0,1,1.62.9,1,1,0,0,0,.29-.69,1,1,0,0,0-1-1Zm-.58-.26a1.18,1.18,0,0,0-1-.52,1.17,1.17,0,0,0-1.15,1,8.11,8.11,0,0,1,1.42.42,1.45,1.45,0,0,1,.71-.86Z"/>
    <path class="cls-1" d="M156.18,114.29a1,1,0,0,0-1,1,1,1,0,0,0,.23.63,13.38,13.38,0,0,1,1.69-.8,1,1,0,0,0-.95-.79Zm1.56-.78a1.18,1.18,0,0,0-1,.52,1.48,1.48,0,0,1,.72.92,8.53,8.53,0,0,1,1.42-.37,1.17,1.17,0,0,0-1.16-1.07Zm3-.05a1.18,1.18,0,0,0-1.16,1,6.25,6.25,0,0,1,2.33.22v-.09a1.16,1.16,0,0,0-1.17-1.16Zm-2.33-1.33a1.17,1.17,0,0,0-1.17,1.15,1.41,1.41,0,0,1,.58-.13,1.36,1.36,0,0,1,1.33,1,1.17,1.17,0,0,0-.74-2.07Z"/>
</svg>
