<svg id="icon" xmlns="http://www.w3.org/2000/svg" viewBox="0 0 50 50"><title>Ações Culturais</title><path d="M46.79,18.7a1.14,1.14,0,0,0-1.48-.8A36.32,36.32,0,0,1,34,19.43c-1.11,0-2.18-.05-3.22-.11a24.31,24.31,0,0,1-2.5,6.62h.16c1.42,0,2.58-.12,2.58.84a3,3,0,0,1-2.58,2.63,3.12,3.12,0,0,1-2-.68,15,15,0,0,1-4.91,4.08C23.58,39.74,28.4,44.61,34,44.61c7.5,0,13.57-8.66,13.57-19.35A26.61,26.61,0,0,0,46.79,18.7ZM39.43,39a.31.31,0,0,1-.2.22.31.31,0,0,1-.29-.06A7.83,7.83,0,0,0,34,37.64a7.85,7.85,0,0,0-4.92,1.48.31.31,0,0,1-.29.06.34.34,0,0,1-.2-.22,5.5,5.5,0,0,1-.14-1.16,5.55,5.55,0,0,1,11.1,0A4.91,4.91,0,0,1,39.43,39Zm.15-9.56A3,3,0,0,1,37,26.77c0-1,1.15-.84,2.57-.84s2.58.78,2.58,1.74S41,29.4,39.58,29.4Z"/><path d="M29.55,12.81a26.61,26.61,0,0,0-.81-6.56,1.11,1.11,0,0,0-1.1-.86,1.21,1.21,0,0,0-.38.06A36.29,36.29,0,0,1,16,7,36.32,36.32,0,0,1,4.69,5.45a1.19,1.19,0,0,0-.37-.06,1.11,1.11,0,0,0-.54.13,1.16,1.16,0,0,0-.57.73,26.61,26.61,0,0,0-.8,6.56C2.41,23.5,8.48,32.16,16,32.16S29.55,23.5,29.55,12.81ZM7.84,15.21c0-1,1.15-1.73,2.58-1.73A3,3,0,0,1,13,16.11c0,1-1.15.84-2.57.84S7.84,16.17,7.84,15.21ZM16,28.5A5.54,5.54,0,0,1,10.43,23a4.83,4.83,0,0,1,.14-1.15.28.28,0,0,1,.2-.22.33.33,0,0,1,.29.05A7.83,7.83,0,0,0,16,23.11a7.85,7.85,0,0,0,4.92-1.48.3.3,0,0,1,.29-.05.3.3,0,0,1,.2.22A5.4,5.4,0,0,1,21.53,23,5.55,5.55,0,0,1,16,28.5Zm3-12.39a3,3,0,0,1,2.58-2.63c1.42,0,2.57.77,2.57,1.73S23,17,21.54,17,19,17.07,19,16.11Z"/></svg>
