<svg id="icon" xmlns="http://www.w3.org/2000/svg" viewBox="0 0 50 50"><title>Alimentação</title><path d="M24.05,29.87l-.1-.12-3.18.66a5.56,5.56,0,0,1-1.22.13,5.91,5.91,0,0,1-3.28-1L11.73,34,5.39,40a2.4,2.4,0,0,0-.34,3.36l.82.85.84.81a2.41,2.41,0,0,0,3.36-.33l12.31-13h-.06Z"/><path d="M27.73,18.43l-1.25,1.22,3.78,3.65,1.11-1.17a2.83,2.83,0,0,0,.59.38,4.52,4.52,0,0,0,5-.94l8.28-8.28a.83.83,0,0,0,0-1.17l-.66-.66a.83.83,0,0,0-1.17,0L38,16.91a.82.82,0,0,1-1.17,0l-.39-.39a.82.82,0,0,1,0-1.17l5.45-5.46a.83.83,0,0,0,0-1.17l-.52-.53a.85.85,0,0,0-1.18,0L34.7,13.65a.85.85,0,0,1-1.18,0l-.39-.39a.83.83,0,0,1,0-1.18l5.45-5.45a.83.83,0,0,0,0-1.18l-.65-.66a.85.85,0,0,0-1.18,0l-8.28,8.28a4.53,4.53,0,0,0-1.06,4.71A3,3,0,0,0,27.73,18.43Z"/><path d="M44.84,40.37,8.06,4.87a1.44,1.44,0,0,0-2.32.46c-1.24,3-2.8,9.08,2.35,13.37l8.85,8.63a3.76,3.76,0,0,0,3.39,1l4.4-.91,15.35,17.4a2.23,2.23,0,0,0,3.22.12l1.55-1.51A2.09,2.09,0,0,0,44.84,40.37Z"/></svg>
