<svg id="Layer_1" data-name="Layer 1" xmlns="http://www.w3.org/2000/svg" viewBox="0 0 18 18"><defs><style>.cls-1{fill:#222b34;}</style></defs><title>Artboard 3</title><path class="cls-1" d="M.5,9A8.19,8.19,0,0,1,1.65,4.75a8.53,8.53,0,0,1,3.1-3.1A8.19,8.19,0,0,1,9,.5a8.19,8.19,0,0,1,4.25,1.15,8.53,8.53,0,0,1,3.1,3.1A8.19,8.19,0,0,1,17.5,9a8.19,8.19,0,0,1-1.15,4.25,8.53,8.53,0,0,1-3.1,3.1A8.19,8.19,0,0,1,9,17.5a8.19,8.19,0,0,1-4.25-1.15,8.53,8.53,0,0,1-3.1-3.1A8.19,8.19,0,0,1,.5,9Zm7.92,3.91a.82.82,0,0,0,1.16,0l4.63-4.66a.74.74,0,0,0,.27-.57.83.83,0,0,0-.27-.6l-.58-.55a.66.66,0,0,0-.55-.27.78.78,0,0,0-.58.24L9,10,5.5,6.5a.76.76,0,0,0-.56-.24.88.88,0,0,0-.6.24l-.58.58a.78.78,0,0,0-.24.58.81.81,0,0,0,.24.59Z"/></svg>
