<svg id="Layer_1" data-name="Layer 1" xmlns="http://www.w3.org/2000/svg" viewBox="0 0 50 50"><defs><style>.cls-1{fill:#ee9564;}</style></defs><title>icon</title><path class="cls-1" d="M46.62,18.41,38.7,8.63A2.44,2.44,0,0,0,37,7.92h-5.5A1.75,1.75,0,0,0,29.88,9a5.34,5.34,0,0,1-9.76,0,1.75,1.75,0,0,0-1.59-1.08H13a2.44,2.44,0,0,0-1.73.71L3.38,18.41a1.29,1.29,0,0,0,0,1.83l4.68,4.68a1.29,1.29,0,0,0,1.83,0l2.32-3.24A.43.43,0,0,1,13,22V41.8A1.09,1.09,0,0,0,14,42.89H36a1.09,1.09,0,0,0,1.09-1.09V22a.43.43,0,0,1,.74-.31l2.31,3.23a1.29,1.29,0,0,0,1.83,0l4.68-4.68A1.29,1.29,0,0,0,46.62,18.41ZM32.44,22.09a.94.94,0,0,1-.42.78L30.31,24a.94.94,0,0,1-1,0l-1.71-1.14a.94.94,0,0,1-.42-.78V18.35a.52.52,0,0,1,.53-.52h4.24a.52.52,0,0,1,.53.52Z"/></svg>