<?xml version="1.0" encoding="utf-8"?>
<!-- Generator: Adobe Illustrator 23.0.4, SVG Export Plug-In . SVG Version: 6.00 Build 0)  -->
<svg version="1.1" id="Layer_1" xmlns="http://www.w3.org/2000/svg" xmlns:xlink="http://www.w3.org/1999/xlink" x="0px" y="0px"
	 viewBox="0 0 50 50" style="enable-background:new 0 0 50 50;" xml:space="preserve">
<style type="text/css">
	.st0{fill:#ABD656;}
</style>
<title>icon</title>
<g>
	<g id="XMLID_4_">
		<path id="XMLID_6_" class="st0" d="M48.1,21c0.7-0.7,0.7-1.7,0-2.4L45.6,16c-0.6-0.6-1.5-0.7-2.2-0.2l-5.4,3.6l3.6-5.4
			c0.5-0.7,0.4-1.6-0.2-2.1l-5.5-5.5c-0.5-0.5-1.3-0.6-1.9-0.3l-1,0.5l0.5-1c0.3-0.6,0.2-1.4-0.3-1.9l-1.7-1.7
			c-0.7-0.7-1.7-0.7-2.4,0l-12,12l19.1,19.1L48.1,21z"/>
		<path id="XMLID_5_" class="st0" d="M15.3,15.6l-3,3c-0.3,0.3-0.5,0.7-0.5,1.2s0.2,0.9,0.5,1.2l3.7,3.7c0.7,0.7,1.1,1.7,0.9,2.7
			c-0.1,1-0.7,1.9-1.5,2.4C4.5,36.8,3.5,37.8,3.2,38.2c-2.4,2.4-2.4,6.3,0,8.7c2.4,2.4,6.3,2.4,8.7,0c0.3-0.3,1.3-1.3,8.3-12.2
			c0.5-0.8,1.4-1.4,2.4-1.5c1-0.1,2,0.2,2.7,0.9l3.7,3.7c0.7,0.7,1.7,0.7,2.4,0l3-3L15.3,15.6z M9.3,44.1c-0.9,0.9-2.5,0.9-3.4,0
			c-0.9-0.9-0.9-2.5,0-3.4c0.9-0.9,2.5-0.9,3.4,0C10.3,41.6,10.3,43.1,9.3,44.1z"/>
	</g>
</g>
</svg>
