<?xml version="1.0" encoding="UTF-8" standalone="no"?>
<svg xmlns:dc="http://purl.org/dc/elements/1.1/" xmlns:cc="http://creativecommons.org/ns#" xmlns:svg="http://www.w3.org/2000/svg" xmlns="http://www.w3.org/2000/svg" xmlns:inkscape="http://www.inkscape.org/namespaces/inkscape" viewBox="0 0 320 320" version="1.1">
   <g id="icon-info" fill="#fff">
      <path d="M 160 10 A 150 150 0 0 0 10 160 A 150 150 0 0 0 160 310 A 150 150 0 0 0 310 160 A 150 150 0 0 0 160 10 z M 159 77 A 25 25 0 0 1 184 102 A 25 25 0 0 1 159 127 A 25 25 0 0 1 134 102 A 25 25 0 0 1 159 77 z M 134 140 L 149 140 L 170 140 C 174.986 140 179 144.014 179 149 L 179 161 L 179 208 L 185 208 C 189.986 208 194 212.014 194 217 L 194 229 C 194 233.986 189.986 238 185 238 L 134 238 C 129.014 238 125 233.986 125 229 L 125 217 C 125 212.014 129.014 208 134 208 L 140 208 L 140 170 L 134 170 C 129.014 170 125 165.986 125 161 L 125 149 C 125 144.014 129.014 140 134 140 z "/>
   </g>
</svg>
