<?xml version="1.0" encoding="utf-8"?>
<svg version="1.1" id="icon" xmlns="http://www.w3.org/2000/svg" xmlns:xlink="http://www.w3.org/1999/xlink" x="0px" y="0px"
	 viewBox="0 0 50 50" style="enable-background:new 0 0 50 50;" xml:space="preserve">

<title>Reformas e Manutenção</title>
<polygon points="45.5,4.5 44.4,3.5 38.6,6.9 37.7,10 31.6,16.1 33.9,18.4 40,12.3 43.1,11.4 46.5,5.6 "/>
<path d="M34.5,22L28,15.5c-0.6-0.6-1.6-0.7-2.3-0.1L24.2,17c-0.4,0.4-0.6,0.9-0.6,1.5c-0.1,1.1-0.6,2.2-1.4,3
	c-0.8,0.8-1.9,1.3-3,1.4c-0.5,0-1.1,0.3-1.5,0.6L4.6,36.6c-1.6,1.7-1.5,4.3,0.2,5.9l2.7,2.7c1.6,1.7,4.2,1.8,5.9,0.2l13.1-13.1
	c0.4-0.4,0.6-0.9,0.6-1.5c0.1-1.1,0.6-2.2,1.4-3c0.8-0.8,1.9-1.3,3-1.4c0.5,0,1-0.3,1.4-0.6l1.5-1.5C35.1,23.6,35.1,22.6,34.5,22z
	 M7.9,40.1c-0.6,0-1-0.5-1-1.1c0-0.3,0.1-0.5,0.3-0.7L19.5,26c0.4-0.4,1.1-0.4,1.5,0s0.4,1.1,0,1.5l0,0L8.6,39.8
	C8.4,40,8.1,40.1,7.9,40.1z M24,30.6L11.7,42.9c-0.2,0.2-0.5,0.3-0.7,0.3c-0.5,0.1-1-0.3-1.1-0.9c0-0.3,0.1-0.7,0.4-0.9l12.3-12.3
	c0.4-0.4,1.1-0.4,1.5,0S24.4,30.2,24,30.6z"/>
</svg>
