<svg id="icon" data-name="Layer 1" xmlns="http://www.w3.org/2000/svg" viewBox="0 0 50 50"><title>Outras Aquisições</title><path d="M37.1,6.07A1.19,1.19,0,0,1,39,7V42a1.19,1.19,0,0,1-1.9.95l-2.77-3.28L30.4,43a1.5,1.5,0,0,1-.73.22,1.44,1.44,0,0,1-.73-.22L25,39.69,21.06,43a1.44,1.44,0,0,1-.73.22A1.5,1.5,0,0,1,19.6,43l-3.93-3.28L12.9,43A1.19,1.19,0,0,1,11,42V7a1.19,1.19,0,0,1,1.9-.95l2.77,3.28L19.6,6.07a1.4,1.4,0,0,1,.73-.22,1.35,1.35,0,0,1,.73.22L25,9.35l3.94-3.28a1.35,1.35,0,0,1,.73-.22,1.4,1.4,0,0,1,.73.22l3.93,3.28Zm-2.77,12V16.93a.58.58,0,0,0-.18-.4.55.55,0,0,0-.4-.18H16.25a.55.55,0,0,0-.4.18.58.58,0,0,0-.18.4V18.1a.55.55,0,0,0,.18.4.56.56,0,0,0,.4.19h17.5a.56.56,0,0,0,.4-.19A.55.55,0,0,0,34.33,18.1Zm0,7V23.93a.58.58,0,0,0-.18-.4.55.55,0,0,0-.4-.18H16.25a.55.55,0,0,0-.4.18.58.58,0,0,0-.18.4V25.1a.55.55,0,0,0,.18.4.56.56,0,0,0,.4.19h17.5a.56.56,0,0,0,.4-.19A.55.55,0,0,0,34.33,25.1Zm0,7V30.93a.58.58,0,0,0-.18-.4.55.55,0,0,0-.4-.18H16.25a.55.55,0,0,0-.4.18.58.58,0,0,0-.18.4V32.1a.55.55,0,0,0,.18.4.56.56,0,0,0,.4.19h17.5a.56.56,0,0,0,.4-.19A.55.55,0,0,0,34.33,32.1Z"/></svg>
