<?xml version="1.0" encoding="utf-8"?>
<svg version="1.1" id="icon" xmlns="http://www.w3.org/2000/svg" xmlns:xlink="http://www.w3.org/1999/xlink" x="0px" y="0px"
	 viewBox="0 0 50 50" style="enable-background:new 0 0 50 50;" xml:space="preserve">
<title>Parcerias</title>
<path d="M37.8,30.1v-0.2L26.9,21c-0.3-0.2-0.6-0.3-0.9-0.3c-0.3,0-0.6,0.1-0.8,0.2l-2.1,1.3c-1.7,1.1-4.1,0.6-5.2-1.1
	L17,19.9c-1.1-1.7-0.8-3.9,0.8-5.2l0.8-0.6h-8.3v-1.6c0-0.8-0.6-1.4-1.4-1.4H6.5c-4,6-5,13.5-2.5,20.3h4.9c0.8,0,1.4-0.6,1.4-1.4
	l11.9,7.8c1.4,0.9,3.2,1.2,4.8,0.7l6-3.9l0,0l5.1-3.3C37.8,30.9,37.8,30.5,37.8,30.1z"/>
<path d="M43.5,11.2h-2.4c-0.8,0-1.4,0.6-1.4,1.4v0v1.6h-6.3l-5.3-2C27.9,12,27.5,12,27.1,12h-1.7
	c-0.5,0-1.1,0.2-1.5,0.5l-4.9,3.8c-0.8,0.6-0.9,1.7-0.4,2.5l0.8,1.2c0.6,0.8,1.7,1,2.5,0.5l2.1-1.3c1.3-0.8,2.9-0.7,4.1,0.2
	l11.6,9.4V30c0,0.8,0.6,1.4,1.4,1.4l0,0h4.9C48.5,24.7,47.6,17.1,43.5,11.2L43.5,11.2z"/>
</svg>
