<?xml version="1.0" encoding="utf-8"?>
<svg version="1.1" id="icon" xmlns="http://www.w3.org/2000/svg" xmlns:xlink="http://www.w3.org/1999/xlink" x="0px" y="0px"
	 viewBox="0 0 50 50" style="enable-background:new 0 0 50 50;" xml:space="preserve">
<title>Pedagógico</title>
<path d="M39,29.5c-0.4-0.4-1.1-0.4-1.5,0L27,40.2l-1.8-2.3l-4.7-6.2l0,0l0,0l0,0c-1.1-1.5-2.6-2.7-4.3-3.5L15.8,28
	c-2.4,1.8-5.8,1.8-8.2,0C6.2,28.6,5,29.4,4,30.5c1.7,7.7,7.6,13.9,15.2,15.9v-7.9l2.6,3.5l2,2.5c0.5,0.6,1.2,1,2,1
	c1.4,0,2.5-1.1,2.5-2.5c0-0.3-0.1-0.7-0.2-1L39,31C39.4,30.6,39.4,29.9,39,29.5z"/>
<path d="M41.8,5.6H21.2c-1.2,0-2.2,1-2.2,2.3v16.4c0,1.3,1,2.3,2.3,2.3h20.5c1.2,0,2.2-1,2.2-2.3V7.9
	C44,6.7,43,5.6,41.8,5.6z M26.5,21.3c0.1,0.6-0.4,1.1-1,1.2s-1.1-0.4-1.2-1c0-0.1,0-0.1,0-0.2V17c-0.1-0.6,0.4-1.1,1-1.2
	s1.1,0.4,1.2,1c0,0.1,0,0.1,0,0.2V21.3z M32.6,21.3c0.1,0.6-0.4,1.1-1,1.2c-0.6,0.1-1.1-0.4-1.2-1c0-0.1,0-0.1,0-0.2V14
	c-0.1-0.6,0.4-1.1,1-1.2s1.1,0.4,1.2,1c0,0.1,0,0.1,0,0.2V21.3z M38.7,21.3c0.1,0.6-0.4,1.1-1,1.2c-0.6,0.1-1.1-0.4-1.2-1
	c0-0.1,0-0.1,0-0.2V10.9c0.1-0.6,0.6-1,1.2-1c0.5,0,0.9,0.5,1,1L38.7,21.3z"/>
<circle cx="11.7" cy="22.4" r="4.8"/>
</svg>
