<?xml version="1.0" encoding="utf-8"?>
<svg version="1.1" id="icon" xmlns="http://www.w3.org/2000/svg" xmlns:xlink="http://www.w3.org/1999/xlink" x="0px" y="0px"
	 viewBox="0 0 50 50" style="enable-background:new 0 0 50 50;" xml:space="preserve">
<title>Serviços Contínuos</title>
<path d="M7.6,26.9c0.6,0.7,1.4,1.4,2.1,2L9.2,31c-0.2,0.7,0.2,1.4,0.9,1.7l3.1,1.2c0.7,0.3,1.4,0,1.8-0.7l1-1.9
	c1,0.1,2,0.1,3-0.1l1.1,1.9c0.4,0.6,1.1,0.9,1.8,0.6l3-1.4c0.7-0.3,1-1,0.8-1.7l-0.6-2c0.8-0.7,1.6-1.5,2.2-2.3l2,0.5
	c0.7,0.2,1.5-0.2,1.7-0.9l1.2-3.1c0.3-0.7,0-1.4-0.7-1.8l-1.9-1c0.1-1.1,0.1-2.1-0.1-3.2l1.7-1c0.6-0.4,0.9-1.1,0.6-1.7l-1.4-3.1
	c-0.3-0.7-1-1-1.7-0.8l-1.9,0.6c-0.7-0.8-1.4-1.6-2.3-2.2l0.5-1.9C25.3,6,24.9,5.3,24.2,5l-3.1-1.2c-0.7-0.3-1.4,0-1.8,0.7l-0.9,1.7
	c-1.1-0.1-2.2-0.1-3.3,0.1l-1-1.7C13.8,4,13,3.8,12.4,4.1l-3,1.4c-0.7,0.3-1,1-0.8,1.7L9.2,9c-0.9,0.7-1.7,1.6-2.3,2.5L4.9,11
	c-0.7-0.2-1.4,0.2-1.7,0.9L2.1,15c-0.3,0.7,0,1.4,0.7,1.8l1.8,1c-0.1,1.1,0,2.1,0.2,3.2L3,21.9c-0.6,0.4-0.9,1.1-0.6,1.8l1.4,3
	c0.3,0.7,1,1,1.7,0.8L7.6,26.9z M14.9,13.7c2.8-1.2,6,0,7.3,2.8s0,6-2.8,7.3c-2.8,1.2-6,0-7.3-2.7C10.9,18.2,12.1,15,14.9,13.7
	C14.9,13.7,14.9,13.7,14.9,13.7z"/>
<path d="M44.6,28.2L43,27.1c-0.5-0.4-1.2-0.3-1.6,0.1L40.6,28c-0.7-0.3-1.5-0.5-2.2-0.6l-0.3-1.1
	c-0.2-0.6-0.7-1-1.3-0.9l-1.9,0.3c-0.6,0.1-1,0.6-1,1.2V28c-0.7,0.3-1.4,0.7-2.1,1.2l-1-0.6c-0.5-0.3-1.2-0.2-1.5,0.3L28,30.4
	c-0.4,0.5-0.3,1.2,0.1,1.6l0.9,0.9c-0.3,0.7-0.4,1.4-0.5,2.1l-1.2,0.3c-0.6,0.1-1,0.7-0.9,1.3l0.2,1.9c0.1,0.6,0.6,1,1.2,1h1.3
	c0.3,0.6,0.6,1.2,1,1.8l-0.7,1.2c-0.3,0.5-0.2,1.2,0.3,1.5l1.5,1.2c0.5,0.4,1.2,0.4,1.7-0.1l0.9-1c0.6,0.3,1.3,0.5,2,0.6l0.3,1.3
	c0.2,0.6,0.7,1,1.3,0.9l2-0.3c0.6-0.1,1-0.6,1-1.2v-1.3c0.7-0.3,1.4-0.6,2-1.1l1.1,0.7c0.5,0.3,1.2,0.2,1.6-0.3l1.2-1.5
	c0.4-0.5,0.3-1.2-0.1-1.6l-0.9-0.9c0.3-0.7,0.5-1.4,0.6-2.2l1.1-0.3c0.6-0.1,1-0.7,0.9-1.3l-0.3-2c-0.1-0.6-0.6-1-1.2-1h-1.2
	c-0.3-0.7-0.6-1.3-1.1-1.9l0.6-1C45.2,29.3,45,28.6,44.6,28.2z M37.7,39.9c-2.1,0.3-4-1.2-4.3-3.3c-0.3-2.1,1.2-4,3.3-4.3
	c2.1-0.3,4,1.2,4.3,3.3c0,0,0,0,0,0C41.3,37.7,39.8,39.6,37.7,39.9z"/>
</svg>
