<?xml version="1.0" encoding="utf-8"?>
<svg version="1.1" id="icon" xmlns="http://www.w3.org/2000/svg" xmlns:xlink="http://www.w3.org/1999/xlink" x="0px" y="0px"
	 viewBox="0 0 50 50" style="enable-background:new 0 0 50 50;" xml:space="preserve">
<title>Transportes</title>
<path d="M42,14.7h-1.5v-3c0-2.6-2.1-4.7-4.7-4.7H14.2c-2.6,0-4.7,2.1-4.7,4.7c0,0,0,0,0,0v3H8c-0.7,0-1.2,0.5-1.2,1.2
	v5.7c0,0.7,0.5,1.2,1.2,1.2h1.5v11.9c0,1.6,0.8,3.1,2.2,4v3.1c0,0.6,0.5,1.1,1.1,1.1H16c0.6,0,1.1-0.5,1.1-1.1v-2.4h15.7v2.4
	c0,0.6,0.5,1.1,1.2,1.1c0,0,0,0,0,0h3.2c0.6,0,1.1-0.5,1.1-1.1v-3.1c1.4-0.8,2.2-2.3,2.2-4V22.8h1.5c0.7,0,1.2-0.5,1.2-1.2v0v-5.7
	C43.3,15.2,42.7,14.7,42,14.7C42.1,14.7,42.1,14.7,42,14.7z M16,33.7c-1.2,0-2.2-1-2.2-2.1c0-1.2,1-2.2,2.1-2.2c1.2,0,2.2,1,2.2,2.1
	c0,0,0,0,0,0C18.2,32.7,17.3,33.6,16,33.7L16,33.7z M33.9,33.7c-1.2,0-2.1-1-2.1-2.2c0-1.2,1-2.1,2.2-2.1c1.2,0,2.1,1,2.1,2.2
	C36,32.7,35.1,33.6,33.9,33.7L33.9,33.7z M36.1,23c0,1.1-0.9,1.9-1.9,1.9H15.9c-1.1,0-1.9-0.9-1.9-1.9v-8.4c0-1.1,0.9-1.9,1.9-1.9
	c0,0,0,0,0,0h18.3c1.1,0,1.9,0.9,1.9,1.9c0,0,0,0,0,0V23z"/>
</svg>
