<?xml version="1.0" encoding="UTF-8" standalone="no"?>
<!-- Created with Inkscape (http://www.inkscape.org/) -->

<svg
   xmlns:svg="http://www.w3.org/2000/svg"
   xmlns="http://www.w3.org/2000/svg"
   width="354.95056mm"
   height="175.94792mm"
   viewBox="0 0 354.95056 175.94792"
   version="1.1"
   >
  <g
    transform="translate(19.48124,44.678554)"
    style="stroke: #ffffff; fill: transparent"
  >
    <path
       d="m 256.36701,52 c 27.51005,0 52.90343,7.097571 76.18013,21.27881 23.2767,14.188191 41.79425,33.27725 55.55265,57.28803 13.75165,24.00384 20.62748,50.19047 20.62748,78.5599 0,17.45543 -2.11667,32.8671 -6.35003,46.23501 -4.23335,13.3679 -12.43042,29.87097 -24.59794,49.50921 -8.45996,13.63901 -25.91917,40.10371 -52.37763,79.38018 l -53.16633,78.56684 C 268.53453,468.26803 263.24284,471 256.36701,471 c -6.87583,0 -12.16752,-2.73197 -15.87508,-8.18202 C 226.74028,442.08139 209.01817,415.89476 187.3256,384.25114 160.87389,344.97467 143.41467,318.50997 134.94797,304.87096 122.78045,285.23272 114.58338,268.72965 110.35003,255.36175 106.11668,241.99384 104,226.58217 104,209.12674 c 0,-28.36943 6.87583,-54.55606 20.63423,-78.5599 13.75165,-24.01078 32.2692,-43.099839 55.5459,-57.28803 C 203.46357,59.097571 228.85695,52 256.36701,52 Z m -0.003,76.18182 c -42.07406,0 -76.18182,34.10776 -76.18182,76.18182 0,42.07405 34.10776,76.18181 76.18182,76.18181 42.07405,0 76.18181,-34.10776 76.18181,-76.18181 0,-42.07406 -34.10776,-76.18182 -76.18181,-76.18182 z"
       transform="matrix(0.26458333,0,0,0.26458333,-46.733323,6.3860283)" />
    <path
       d="m 745.09332,-35 c 19.69694,0 37.87835,5.081793 54.54425,15.235425 16.6659,10.1586089 29.92429,23.8261936 39.77517,41.017686 9.84605,17.186515 14.76908,35.935893 14.76908,56.248133 0,12.497927 -1.51552,23.532536 -4.54656,33.103826 -3.03104,9.57129 -8.90006,21.38733 -17.61189,35.44812 -6.05726,9.7654 -18.55788,28.71387 -37.50189,56.83545 L 756.4549,259.14175 C 753.80515,263.04393 750.01635,265 745.09332,265 c -4.92303,0 -8.71183,-1.95607 -11.3664,-5.85825 C 723.88087,244.29455 711.192,225.54518 695.66034,202.88864 676.72116,174.76706 664.22053,155.81859 658.15845,146.05319 649.44662,131.9924 643.5776,120.17636 640.54656,110.60507 637.51552,101.03378 636,89.999171 636,77.501244 636,57.189004 640.92303,38.439626 650.77391,21.253111 660.61996,4.0616186 673.87835,-9.6059661 690.54425,-19.764575 707.21497,-29.918207 725.39639,-35 745.09332,-35 Z m -0.002,54.545455 c -30.12462,0 -54.54546,24.420831 -54.54546,54.545454 0,30.124621 24.42084,54.545451 54.54546,54.545451 30.12462,0 54.54545,-24.42083 54.54545,-54.545451 0,-30.124623 -24.42083,-54.545454 -54.54545,-54.545454 z"
       transform="matrix(0.26458333,0,0,0.26458333,-46.733323,6.3860283)" />
    <path
       d="m 1236.2773,-192 c 37.4242,0 71.9689,9.65541 103.6341,28.94731 31.6652,19.30135 56.8561,45.26976 75.5728,77.933601 18.7075,32.654378 28.0613,68.278196 28.0613,106.871453 0,23.74606 -2.8795,44.711816 -8.6385,62.897269 -5.759,18.185457 -16.9101,40.635927 -33.4626,67.351427 -11.5088,18.55427 -35.26,54.55636 -71.2536,107.98736 l -72.3265,106.88091 C 1252.8298,374.28347 1245.6311,378 1236.2773,378 c -9.3537,0 -16.5525,-3.71653 -21.5962,-11.13067 -18.7074,-28.20968 -42.8163,-63.83349 -72.3265,-106.88091 -35.9844,-53.431 -59.7356,-89.43309 -71.2535,-107.98736 -16.5525,-26.7155 -27.7037,-49.16597 -33.4626,-67.351427 C 1031.8795,66.46418 1029,45.498424 1029,21.752364 c 0,-38.593257 9.3538,-74.217075 28.0704,-106.871453 18.7075,-32.663841 43.8985,-58.632251 75.5637,-77.933601 31.6743,-19.2919 66.219,-28.94731 103.6432,-28.94731 z m 0,103.636364 c -57.2368,0 -103.6363,46.39958 -103.6363,103.636363 0,57.236783 46.3995,103.636363 103.6363,103.636363 57.2368,0 103.6364,-46.39958 103.6364,-103.636363 0,-57.236783 -46.3996,-103.636363 -103.6364,-103.636363 z"
       transform="matrix(0.26458333,0,0,0.26458333,-46.733323,6.3860283)" />
  </g>
</svg>
