<svg xmlns="http://www.w3.org/2000/svg" width="15.999" height="16.001" viewBox="0 0 4.233 4.234" id="icon">
    <path stroke="currentColor" d="M2.118.198h-.003a1.86 1.86 0 0 0-.958.26c-.29.17-.53.411-.7.702a1.903 1.903 0 0 0 0 1.916c.17.29.41.53.7.7a1.904 1.904 0 0 0 1.917 0c.29-.169.532-.41.702-.7a1.904 1.904 0 0 0 0-1.916 1.94 1.94 0 0 0-.704-.703 1.838 1.838 0 0 0-.954-.259z" stroke-width=".397" fill="none"/>
    <path d="M2.28 1.895c.052 0 .096.043.096.097v.81h.096c.026 0 .05.01.069.029a.09.09 0 0 1 .028.068v.193a.09.09 0 0 1-.033.074.095.095 0 0 1-.068.028H1.76a.094.094 0 0 1-.069-.033.09.09 0 0 1-.028-.069V2.9c0-.025.01-.05.028-.068a.095.095 0 0 1 .069-.028h.096v-.519h-.096a.097.097 0 0 1-.097-.096v-.196c0-.054.044-.097.097-.097zm-.163-.855l-.003.002a.341.341 0 0 1 .34.34c0 .088-.037.173-.102.235l-.005.005a.33.33 0 0 1-.466-.005.337.337 0 0 1 .236-.578z" fill-rule="evenodd"/>
</svg>
