<?xml version="1.0" encoding="UTF-8" standalone="no"?>
<svg
   xmlns:dc="http://purl.org/dc/elements/1.1/"
   xmlns:cc="http://creativecommons.org/ns#"
   xmlns:svg="http://www.w3.org/2000/svg"
   xmlns="http://www.w3.org/2000/svg"
   width="34"
   height="32"
   viewBox="0 0 8.9958332 8.4666667"
   version="1.1"
   id="icon">
  <g
     id="layer1"
     transform="translate(207.09315,-118.89762)">
    <g
       style="fill-rule:evenodd;stroke:none;stroke-width:1"
       id="icon_material_escolar"
       transform="matrix(0.26458333,0,0,0.26458333,-207.09315,118.63304)">
      <path
         id="path244"
         d="M 10.461333,1.0009329 V 19.467367 c 0,3.603726 2.933334,6.535752 6.538667,6.535752 3.604,0 6.537333,-2.932026 6.537333,-6.535752 v 0 -18.4664341 h 2.693334 C 27.757333,1.0009329 29,2.2630369 29,3.8130125 v 0 6.2612085 c 0,1.040869 -0.518667,1.961792 -1.352,2.406927 -0.305333,0.163927 -0.494667,0.481119 -0.494667,0.831629 v 0 7.499323 c 0,0.350511 0.189334,0.667703 0.494667,0.83163 0.833333,0.445134 1.352,1.366057 1.352,2.406927 v 0 6.135931 C 29,31.737896 27.757333,33 26.230667,33 v 0 H 7.7693333 C 6.2413333,33 5,31.737896 5,30.186588 v 0 -6.135931 C 5,23.009787 5.5173333,22.088864 6.3506667,21.64373 6.656,21.479803 6.8453333,21.162611 6.8453333,20.8121 v 0 -7.499323 c 0,-0.35051 -0.1893333,-0.667702 -0.4946666,-0.831629 C 5.5173333,12.036013 5,11.11509 5,10.074221 v 0 -6.2612085 C 5,2.2630369 6.2413333,1.0009329 7.7693333,1.0009329 v 0 z M 21.537867,1 v 18.466434 c 0,2.501551 -2.036,4.536644 -4.538667,4.536644 -0.05378,0 -0.106519,-0.0034 -0.158765,-0.0085 l -0.311902,-0.03811 V 1 Z M 14.5288,1.0006664 V 23.262741 c -1.241333,-0.810305 -2.068,-2.205683 -2.068,-3.795641 v 0 -18.4664336 z m 4.625067,12.1285926 c -0.693334,0 -1.253334,0.561083 -1.253334,1.252775 0,0.693024 0.56,1.254107 1.253334,1.254107 0.692,0 1.253333,-0.561083 1.253333,-1.254107 0,-0.691692 -0.561333,-1.252775 -1.253333,-1.252775 z" />
    </g>
  </g>
</svg>
