<?xml version="1.0" encoding="UTF-8" standalone="no"?>
<svg
   xmlns:dc="http://purl.org/dc/elements/1.1/"
   xmlns:cc="http://creativecommons.org/ns#"
   xmlns:rdf="http://www.w3.org/1999/02/22-rdf-syntax-ns#"
   xmlns:svg="http://www.w3.org/2000/svg"
   xmlns="http://www.w3.org/2000/svg"
   version="1.1"
   id="marker"
   height="90"
   width="90">
  <metadata
     id="metadata12510">
    <rdf:RDF>
      <cc:Work
         rdf:about="">
        <dc:format>image/svg+xml</dc:format>
        <dc:type
           rdf:resource="http://purl.org/dc/dcmitype/StillImage" />
        <dc:title></dc:title>
      </cc:Work>
    </rdf:RDF>
  </metadata>
  <defs
     id="defs12508" />
  <g
     style="fill-rule:evenodd"
     id="g12503"
     transform="matrix(4.3307,0,0,4.29492,-498.4498,-331.24)">
    <path
       id="path12499"
       d="m 123.762,90.67 a 79.391,79.391 0 0 1 -1.31,-1.984 c -0.304,-0.491 -0.51,-0.904 -0.615,-1.238 a 3.832,3.832 0 0 1 -0.159,-1.156 c 0,-0.71 0.172,-1.365 0.516,-1.965 0.344,-0.6 0.807,-1.078 1.39,-1.432 a 3.594,3.594 0 0 1 1.904,-0.533 c 0.688,0 1.323,0.178 1.905,0.533 a 3.947,3.947 0 0 1 1.39,1.432 c 0.343,0.6 0.515,1.255 0.515,1.965 0,0.436 -0.053,0.821 -0.159,1.156 -0.106,0.334 -0.31,0.747 -0.615,1.238 a 78.391,78.391 0 0 1 -1.31,1.985 l -1.329,1.964 a 0.451,0.451 0 0 1 -0.397,0.205 0.452,0.452 0 0 1 -0.397,-0.205 c -0.344,-0.518 -0.787,-1.173 -1.33,-1.964" />
    <circle
       style="fill:#ffffff;fill-opacity:0.3"
       id="circle12501"
       cx="125.488"
       cy="86.171997"
       r="1.905" />
  </g>
</svg>
