<svg xmlns="http://www.w3.org/2000/svg" viewBox="0 0 70 70" height="60" width="60" id="marker">
    <g transform="matrix(1.18796 0 0 1.18796 23.617 5.598)" fill-rule="evenodd">
        <path d="M9.844 39.252c-3.125-4.64-5.188-7.767-6.188-9.378-1.437-2.32-2.406-4.27-2.906-5.85-.5-1.578-.75-3.4-.75-5.461 0-3.352.812-6.445 2.438-9.281C4.062 6.445 6.25 4.19 9 2.514 11.75.838 14.75 0 18 0s6.25.838 9 2.514c2.75 1.676 4.938 3.931 6.563 6.768 1.625 2.836 2.437 5.93 2.437 9.28 0 2.063-.25 3.884-.75 5.463-.5 1.58-1.469 3.529-2.906 5.849-1 1.611-3.062 4.738-6.188 9.378l-6.28 9.281c-.438.644-1.063.967-1.876.967-.812 0-1.437-.323-1.875-.967a755.325 755.325 0 0 0-6.281-9.281"/>
        <circle cx="18" cy="18" r="9" fill="#fff" fill-opacity=".3"/>
    </g>
</svg>
