<svg xmlns="http://www.w3.org/2000/svg" viewBox="0 0 90 90" height="60" width="60" id="marker">
    <g transform="matrix(4.3307 0 0 4.29492 -498.45 -331.24)" fill-rule="evenodd">
        <path d="M123.762 90.67a79.391 79.391 0 0 1-1.31-1.984c-.304-.491-.51-.904-.615-1.238a3.832 3.832 0 0 1-.159-1.156c0-.71.172-1.365.516-1.965.344-.6.807-1.078 1.39-1.432a3.594 3.594 0 0 1 1.904-.533 3.59 3.59 0 0 1 1.905.533 3.947 3.947 0 0 1 1.39 1.432c.343.6.515 1.255.515 1.965 0 .436-.053.821-.159 1.156-.106.334-.31.747-.615 1.238a78.391 78.391 0 0 1-1.31 1.985l-1.329 1.964a.451.451 0 0 1-.397.205.452.452 0 0 1-.397-.205 158.5 158.5 0 0 0-1.33-1.964"/>
        <circle cx="125.488" cy="86.172" r="1.905" fill="#fff" fill-opacity=".3"/>
    </g>
</svg>
