<?xml version="1.0" encoding="UTF-8" standalone="no"?>
<svg
   xmlns:dc="http://purl.org/dc/elements/1.1/"
   xmlns:cc="http://creativecommons.org/ns#"
   xmlns:rdf="http://www.w3.org/1999/02/22-rdf-syntax-ns#"
   xmlns:svg="http://www.w3.org/2000/svg"
   xmlns="http://www.w3.org/2000/svg"
   id="icon"
   version="1.1"
   viewBox="0 0 7.9375 7.9375"
   height="7.9375mm"
   width="7.9375mm">
  <g
     transform="translate(207.31994,-105.55506)"
     id="layer1">
    <g
       transform="matrix(0.26458333,0,0,0.26458333,-207.84911,105.02589)"
       id="icon_pessoal"
       style="fill-rule:evenodd;stroke:none;stroke-width:1">
      <path
         d="m 17,18.991821 c 8.28375,0 15,3.718765 15,9.027537 0,5.307523 -30,5.307523 -30,0 0,-5.308772 6.71625,-9.027537 15,-9.027537 z M 17,2 c 2.04625,0 3.80625,0.7387531 5.28375,2.2162592 1.4775,1.4775062 2.21625,3.2375135 2.21625,5.283772 0,2.0462588 -0.73875,3.8062658 -2.21625,5.2837718 -1.4775,1.477506 -3.2375,2.216259 -5.28375,2.216259 -2.04625,0 -3.80625,-0.738753 -5.28375,-2.216259 C 10.23875,13.306297 9.5,11.54629 9.5,9.5000312 9.5,7.4537727 10.23875,5.6937654 11.71625,4.2162592 13.19375,2.7387531 14.95375,2 17,2 Z"
         id="path308" />
    </g>
  </g>
</svg>
