<?xml version="1.0" encoding="UTF-8" standalone="no"?>
<svg
   xmlns:dc="http://purl.org/dc/elements/1.1/"
   xmlns:cc="http://creativecommons.org/ns#"
   xmlns:rdf="http://www.w3.org/1999/02/22-rdf-syntax-ns#"
   xmlns:svg="http://www.w3.org/2000/svg"
   xmlns="http://www.w3.org/2000/svg"
   id="icon"
   version="1.1"
   viewBox="0 0 8.9958334 6.2040229"
   height="6.2040229mm"
   width="8.9958334mm">
  <g
     transform="translate(187.43839,-75.42775)"
     id="layer1">
    <g
       transform="matrix(0.26458333,0,0,0.26458333,-187.43839,74.031845)"
       style="fill-rule:evenodd;stroke:none;stroke-width:1"
       id="icon_repasses">
      <path
         id="path296"
         d="m 26.828345,5.2758621 c 2.231103,0 4.285172,0.383489 6.162207,1.1516222 0.318896,0.1386105 0.566276,0.3488364 0.74331,0.6272125 C 33.910897,7.334228 34,7.6484117 34,7.9972482 V 24.588925 c 0,0.488602 -0.168828,0.889417 -0.50531,1.203601 -0.336483,0.314184 -0.735104,0.471276 -1.19469,0.471276 -0.177035,0 -0.371655,-0.03465 -0.585034,-0.105113 -1.521794,-0.452795 -3.152621,-0.680347 -4.886621,-0.680347 -1.452621,0 -3.099862,0.158247 -4.940552,0.471276 -1.062207,0.209071 -2.691862,0.585629 -4.887793,1.12621 -2.195931,0.540581 -3.825586,0.915985 -4.887793,1.125055 -1.84069,0.348837 -3.4891035,0.523255 -4.9405518,0.523255 -2.2311035,0 -4.2851724,-0.383489 -6.1622069,-1.151622 C 0.69055172,27.43275 0.44317241,27.223679 0.26496552,26.944148 0.08793103,26.664617 0,26.351588 0,26.002752 V 9.4099202 C 0,8.9224733 0.16882759,8.5205028 0.50531035,8.2074741 0.8417931,7.8932903 1.2404138,7.7350433 1.7,7.7350433 c 0.1770345,0 0.3716552,0.034653 0.5850345,0.105113 1.5217931,0.4539494 3.1526207,0.6803465 4.8866207,0.6803465 1.4514483,0 3.0998618,-0.1559368 4.9405518,-0.4712757 C 13.174414,7.8401563 14.804069,7.4659079 17,6.9241719 19.195931,6.383591 20.825586,6.0081875 21.887793,5.7991167 23.728483,5.4502803 25.375724,5.2758621 26.828345,5.2758621 Z M 2.1349655,22.914048 v 2.819568 C 3.3273103,26.163309 4.5993793,26.43822 5.9488276,26.554884 5.9101379,25.537252 5.5232414,24.675556 4.7881379,23.970953 4.0518621,23.26635 3.1690345,22.914048 2.1349655,22.914048 Z M 31.895517,20.453712 c -0.819517,0.121284 -1.535862,0.453949 -2.149034,0.997995 -0.613173,0.544046 -1.002414,1.198981 -1.16538,1.964804 1.268552,0.120129 2.371794,0.302633 3.314414,0.544046 z M 17,11.975369 c -1.286138,0 -2.388207,0.488603 -3.303862,1.465807 C 12.77931,14.41838 12.320897,15.604654 12.320897,17 c 0,1.395346 0.458413,2.58162 1.375241,3.558824 0.915655,0.977204 2.017724,1.465806 3.303862,1.465806 1.286138,0 2.388207,-0.488602 3.303862,-1.465806 C 21.22069,19.58162 21.679103,18.395346 21.679103,17 c 0,-1.395346 -0.458413,-2.58162 -1.375241,-3.558824 C 19.388207,12.463972 18.286138,11.975369 17,11.975369 Z m 0.217952,1.772598 c 0.103172,0 0.188758,0.08317 0.188758,0.185969 v 0.413521 c 0,0.09472 0.07269,0.172108 0.167655,0.183659 0.187587,0.02426 0.355242,0.05429 0.500621,0.09241 0.107862,0.02888 0.202828,0.0566 0.284897,0.08548 0.09145,0.03119 0.141862,0.128215 0.117241,0.220622 l -0.137172,0.52441 c -0.02697,0.102803 -0.136,0.164022 -0.238,0.12937 -0.117242,-0.03927 -0.246207,-0.07393 -0.385724,-0.106268 -0.215725,-0.04851 -0.445518,-0.07393 -0.683518,-0.07393 -0.239172,0 -0.410345,0.03927 -0.514689,0.117819 -0.105518,0.07855 -0.157104,0.181349 -0.157104,0.309563 0,0.07855 0.01641,0.145542 0.04807,0.202141 0.03166,0.0566 0.08324,0.106268 0.153586,0.150161 0.07034,0.04505 0.155931,0.08779 0.257931,0.12937 0.102,0.04158 0.223932,0.08779 0.369311,0.1363 0.219241,0.07855 0.422069,0.165178 0.608483,0.25874 0.186413,0.09356 0.349379,0.19983 0.485379,0.319959 0.137172,0.120129 0.243862,0.26105 0.321241,0.422762 0.07738,0.161712 0.116069,0.351147 0.116069,0.565993 0,0.147851 -0.02345,0.293392 -0.068,0.437778 -0.04455,0.144386 -0.118414,0.278376 -0.222758,0.400815 -0.105518,0.12244 -0.240345,0.227553 -0.408,0.316494 -0.130138,0.06931 -0.284897,0.123595 -0.463104,0.162868 -0.08793,0.01848 -0.152414,0.09241 -0.152414,0.181348 v 0.559063 c 0,0.102803 -0.08559,0.185969 -0.188758,0.185969 h -0.563931 c -0.104345,0 -0.188759,-0.08317 -0.188759,-0.185969 v -0.5221 c 0,-0.09587 -0.07386,-0.173263 -0.171172,-0.184814 -0.286069,-0.03119 -0.524069,-0.08086 -0.714,-0.149006 -0.132483,-0.04736 -0.245035,-0.0901 -0.337655,-0.128215 -0.09379,-0.03812 -0.14069,-0.142076 -0.104345,-0.235638 L 15.326848,18.3533 c 0.03752,-0.09703 0.147724,-0.14554 0.245035,-0.106268 0.134827,0.05429 0.282552,0.103958 0.449034,0.151317 0.241517,0.0693 0.497104,0.102803 0.764414,0.102803 0.304828,0 0.512345,-0.04043 0.624897,-0.121285 0.111379,-0.08086 0.167655,-0.195209 0.167655,-0.341905 0,-0.09356 -0.02228,-0.173264 -0.06683,-0.239103 -0.04455,-0.067 -0.110207,-0.125905 -0.193448,-0.180194 -0.08559,-0.05429 -0.193448,-0.107423 -0.322414,-0.158247 -0.128965,-0.05198 -0.279034,-0.107423 -0.447862,-0.166333 -0.164138,-0.05775 -0.324759,-0.123594 -0.481862,-0.19521 -0.157103,-0.07046 -0.298966,-0.157091 -0.425586,-0.261049 -0.126621,-0.102803 -0.228621,-0.228708 -0.306,-0.378869 -0.07738,-0.149006 -0.114897,-0.3292 -0.114897,-0.540581 0,-0.161712 0.02228,-0.317649 0.07035,-0.466655 0.0469,-0.150162 0.120759,-0.285307 0.220414,-0.408901 0.09966,-0.122439 0.228621,-0.226397 0.388069,-0.311874 0.121931,-0.06584 0.261448,-0.117819 0.418551,-0.157092 0.08559,-0.02079 0.148897,-0.09356 0.148897,-0.180193 v -0.459725 c 0,-0.102803 0.08441,-0.185969 0.188759,-0.185969 z M 2.1502069,10.128385 v 3.574995 c 0.9121379,0 1.7152414,-0.293392 2.4093103,-0.880176 0.6928966,-0.58563 1.1384138,-1.307559 1.3377242,-2.166944 -1.428,-0.07855 -2.6754483,-0.25412 -3.7470345,-0.527875 z M 28.475586,7.3688806 c 0.04104,0.9714286 0.389242,1.8134873 1.049311,2.522711 0.657724,0.7092234 1.460827,1.1250554 2.405793,1.2463394 V 8.1589604 C 30.860276,7.7523696 29.708966,7.4890097 28.475586,7.3688806 Z" />
    </g>
  </g>
</svg>
