<?xml version="1.0" encoding="UTF-8" standalone="no"?>
<svg
   xmlns:dc="http://purl.org/dc/elements/1.1/"
   xmlns:cc="http://creativecommons.org/ns#"
   xmlns:rdf="http://www.w3.org/1999/02/22-rdf-syntax-ns#"
   xmlns:svg="http://www.w3.org/2000/svg"
   xmlns="http://www.w3.org/2000/svg"
   id="icon"
   version="1.1"
   viewBox="0 0 8.9958324 7.1437497"
   height="7.1437497mm"
   width="8.9958324mm">
  <g
     transform="translate(188.19434,-170.20789)"
     id="layer1">
    <g
       transform="matrix(0.26458333,0,0,0.26458333,-188.19434,169.41414)"
       id="icon_uniforme_escolar"
       style="fill-rule:evenodd;stroke:none;stroke-width:1">
      <path
         d="m 22.745716,13.945125 c 0,0.241875 -0.121266,0.468 -0.323,0.601875 l -1.321466,0.8775 c -0.242534,0.160875 -0.5576,0.160875 -0.800134,0 L 18.97965,14.547 c -0.201734,-0.133875 -0.323,-0.36 -0.323,-0.601875 V 11.0595 c 0,-0.223875 0.181333,-0.405 0.405733,-0.405 h 3.278733 c 0.223267,0 0.4046,0.181125 0.4046,0.405 z m 10.9616,-2.842875 -6.12,-7.5465 C 27.232583,3.20025 26.750916,3 26.247716,3 h -4.25 c -0.542866,0 -1.0064,0.342 -1.2274,0.838125 -0.6426,1.44225 -2.088733,2.448 -3.7706,2.448 -1.681866,0 -3.128,-1.00575 -3.769466,-2.448 C 13.00925,3.342 12.545716,3 12.001716,3 H 7.7596499 C 7.2575832,3 6.7759165,3.20025 6.4200499,3.554625 L 0.29325,11.103375 c -0.391,0.390375 -0.391,1.02375 0,1.414125 l 3.6164666,3.6135 c 0.3921333,0.3915 1.0256666,0.3915 1.4155333,0 l 1.7929333,-2.50425 c 0.2108,-0.2115 0.5723333,-0.06187 0.5723333,0.23625 v 15.298875 c 0,0.4635 0.3751334,0.838125 0.8398,0.838125 H 25.479316 c 0.4624,0 0.838667,-0.374625 0.838667,-0.838125 V 13.872 c 0,-0.298125 0.361533,-0.44775 0.572333,-0.23625 l 1.782733,2.49525 c 0.391,0.3915 1.025667,0.3915 1.415534,0 l 3.6176,-3.614625 c 0.391,-0.390375 0.392133,-1.022625 0.0011,-1.414125 z"
         id="path359" />
    </g>
  </g>
</svg>
